<?xml version="1.0" encoding="utf-8" standalone="no"?>
<!DOCTYPE svg PUBLIC "-//W3C//DTD SVG 1.1//EN"
  "http://www.w3.org/Graphics/SVG/1.1/DTD/svg11.dtd">
<!-- Created with matplotlib (http://matplotlib.org/) -->
<svg height="216pt" version="1.1" viewBox="0 0 288 216" width="288pt" xmlns="http://www.w3.org/2000/svg" xmlns:xlink="http://www.w3.org/1999/xlink">
 <defs>
  <style type="text/css">
*{stroke-linecap:butt;stroke-linejoin:round;}
  </style>
 </defs>
 <g id="figure_1">
  <g id="patch_1">
   <path d="M 0 216 
L 288 216 
L 288 0 
L 0 0 
z
" style="fill:#ffffff;"/>
  </g>
  <g id="axes_1">
   <g id="patch_2">
    <path d="M 36 192.24 
L 259.2 192.24 
L 259.2 25.92 
L 36 25.92 
z
" style="fill:#ffffff;"/>
   </g>
   <g id="PolyCollection_1">
    <path clip-path="url(#p1f80da48f1)" d="M 46.145455 192.202901 
L 46.145455 192.24 
L 47.581856 192.24 
L 49.018257 192.24 
L 50.454658 192.24 
L 51.891059 192.24 
L 53.32746 192.24 
L 54.763861 192.24 
L 56.200262 192.24 
L 57.636663 192.24 
L 59.073064 192.24 
L 60.509465 192.24 
L 61.945867 192.24 
L 63.382268 192.24 
L 64.818669 192.24 
L 66.25507 192.24 
L 67.691471 192.24 
L 69.127872 192.24 
L 70.564273 192.24 
L 72.000674 192.24 
L 73.437075 192.24 
L 74.873476 192.24 
L 76.309877 192.24 
L 77.746279 192.24 
L 79.18268 192.24 
L 80.619081 192.24 
L 82.055482 192.24 
L 83.491883 192.24 
L 84.928284 192.24 
L 86.364685 192.24 
L 87.801086 192.24 
L 89.237487 192.24 
L 90.673888 192.24 
L 92.110289 192.24 
L 93.546691 192.24 
L 94.983092 192.24 
L 96.419493 192.24 
L 97.855894 192.24 
L 99.292295 192.24 
L 100.728696 192.24 
L 102.165097 192.24 
L 103.601498 192.24 
L 105.037899 192.24 
L 106.4743 192.24 
L 107.910701 192.24 
L 109.347103 192.24 
L 110.783504 192.24 
L 112.219905 192.24 
L 113.656306 192.24 
L 115.092707 192.24 
L 116.529108 192.24 
L 117.965509 192.24 
L 119.40191 192.24 
L 120.838311 192.24 
L 122.274712 192.24 
L 123.711113 192.24 
L 125.147515 192.24 
L 126.583916 192.24 
L 128.020317 192.24 
L 129.456718 192.24 
L 130.893119 192.24 
L 132.32952 192.24 
L 133.765921 192.24 
L 135.202322 192.24 
L 136.638723 192.24 
L 138.075124 192.24 
L 139.511525 192.24 
L 140.947927 192.24 
L 142.384328 192.24 
L 143.820729 192.24 
L 145.25713 192.24 
L 146.693531 192.24 
L 148.129932 192.24 
L 149.566333 192.24 
L 151.002734 192.24 
L 152.439135 192.24 
L 153.875536 192.24 
L 155.311937 192.24 
L 156.748338 192.24 
L 158.18474 192.24 
L 159.621141 192.24 
L 161.057542 192.24 
L 162.493943 192.24 
L 163.930344 192.24 
L 165.366745 192.24 
L 166.803146 192.24 
L 168.239547 192.24 
L 169.675948 192.24 
L 171.112349 192.24 
L 172.54875 192.24 
L 173.985152 192.24 
L 175.421553 192.24 
L 176.857954 192.24 
L 178.294355 192.24 
L 179.730756 192.24 
L 181.167157 192.24 
L 182.603558 192.24 
L 184.039959 192.24 
L 185.47636 192.24 
L 186.912761 192.24 
L 188.349162 192.24 
L 189.785564 192.24 
L 191.221965 192.24 
L 192.658366 192.24 
L 194.094767 192.24 
L 195.531168 192.24 
L 196.967569 192.24 
L 198.40397 192.24 
L 199.840371 192.24 
L 201.276772 192.24 
L 202.713173 192.24 
L 204.149574 192.24 
L 205.585976 192.24 
L 207.022377 192.24 
L 208.458778 192.24 
L 209.895179 192.24 
L 211.33158 192.24 
L 212.767981 192.24 
L 214.204382 192.24 
L 215.640783 192.24 
L 217.077184 192.24 
L 218.513585 192.24 
L 219.949986 192.24 
L 221.386388 192.24 
L 222.822789 192.24 
L 224.25919 192.24 
L 225.695591 192.24 
L 227.131992 192.24 
L 228.568393 192.24 
L 228.568393 192.202901 
L 228.568393 192.202901 
L 227.131992 192.159852 
L 225.695591 192.051609 
L 224.25919 191.841774 
L 222.822789 191.499947 
L 221.386388 191.033263 
L 219.949986 190.512253 
L 218.513585 190.063131 
L 217.077184 189.812964 
L 215.640783 189.812941 
L 214.204382 189.994853 
L 212.767981 190.20166 
L 211.33158 190.279921 
L 209.895179 190.174303 
L 208.458778 189.96078 
L 207.022377 189.79589 
L 205.585976 189.814586 
L 204.149574 190.042516 
L 202.713173 190.377316 
L 201.276772 190.646095 
L 199.840371 190.699061 
L 198.40397 190.484138 
L 196.967569 190.064253 
L 195.531168 189.569837 
L 194.094767 189.113551 
L 192.658366 188.721667 
L 191.221965 188.331775 
L 189.785564 187.857125 
L 188.349162 187.260731 
L 186.912761 186.575958 
L 185.47636 185.863688 
L 184.039959 185.15175 
L 182.603558 184.40255 
L 181.167157 183.507162 
L 179.730756 182.269971 
L 178.294355 180.373543 
L 176.857954 177.374548 
L 175.421553 172.799835 
L 173.985152 166.340705 
L 172.54875 158.040069 
L 171.112349 148.344133 
L 169.675948 137.979463 
L 168.239547 127.7217 
L 166.803146 118.14333 
L 165.366745 109.392221 
L 163.930344 101.062321 
L 162.493943 92.278785 
L 161.057542 82.103799 
L 159.621141 70.18258 
L 158.18474 57.29288 
L 156.748338 45.37941 
L 155.311937 36.90746 
L 153.875536 33.84 
L 152.439135 36.855825 
L 151.002734 45.262644 
L 149.566333 57.525043 
L 148.129932 71.926731 
L 146.693531 86.979273 
L 145.25713 101.569472 
L 143.820729 115.023206 
L 142.384328 127.126079 
L 140.947927 137.997042 
L 139.511525 147.807331 
L 138.075124 156.52441 
L 136.638723 163.870564 
L 135.202322 169.507328 
L 133.765921 173.293055 
L 132.32952 175.442154 
L 130.893119 176.499794 
L 129.456718 177.146988 
L 128.020317 177.93245 
L 126.583916 179.073757 
L 125.147515 180.442205 
L 123.711113 181.732162 
L 122.274712 182.693139 
L 120.838311 183.275133 
L 119.40191 183.619843 
L 117.965509 183.940108 
L 116.529108 184.385538 
L 115.092707 184.97571 
L 113.656306 185.622481 
L 112.219905 186.204532 
L 110.783504 186.638186 
L 109.347103 186.912107 
L 107.910701 187.0858 
L 106.4743 187.263005 
L 105.037899 187.546782 
L 103.601498 187.984758 
L 102.165097 188.525401 
L 100.728696 189.015085 
L 99.292295 189.255591 
L 97.855894 189.109711 
L 96.419493 188.6034 
L 94.983092 187.955009 
L 93.546691 187.491596 
L 92.110289 187.485521 
L 90.673888 188.011407 
L 89.237487 188.918844 
L 87.801086 189.931086 
L 86.364685 190.78797 
L 84.928284 191.336173 
L 83.491883 191.534914 
L 82.055482 191.416982 
L 80.619081 191.059856 
L 79.18268 190.582584 
L 77.746279 190.141199 
L 76.309877 189.892157 
L 74.873476 189.930009 
L 73.437075 190.242179 
L 72.000674 190.718879 
L 70.564273 191.212242 
L 69.127872 191.600237 
L 67.691471 191.814894 
L 66.25507 191.831656 
L 64.818669 191.648525 
L 63.382268 191.28418 
L 61.945867 190.797836 
L 60.509465 190.304535 
L 59.073064 189.953993 
L 57.636663 189.869359 
L 56.200262 190.082934 
L 54.763861 190.518362 
L 53.32746 191.034919 
L 51.891059 191.500342 
L 50.454658 191.841857 
L 49.018257 192.051624 
L 47.581856 192.159854 
L 46.145455 192.202901 
z
" style="fill:#0000ff;fill-opacity:0.25;"/>
   </g>
   <g id="PolyCollection_2">
    <path clip-path="url(#p1f80da48f1)" d="M 74.862721 192.216006 
L 74.862721 192.24 
L 76.23431 192.24 
L 77.605899 192.24 
L 78.977488 192.24 
L 80.349077 192.24 
L 81.720667 192.24 
L 83.092256 192.24 
L 84.463845 192.24 
L 85.835434 192.24 
L 87.207023 192.24 
L 88.578613 192.24 
L 89.950202 192.24 
L 91.321791 192.24 
L 92.69338 192.24 
L 94.064969 192.24 
L 95.436558 192.24 
L 96.808148 192.24 
L 98.179737 192.24 
L 99.551326 192.24 
L 100.922915 192.24 
L 102.294504 192.24 
L 103.666093 192.24 
L 105.037683 192.24 
L 106.409272 192.24 
L 107.780861 192.24 
L 109.15245 192.24 
L 110.524039 192.24 
L 111.895628 192.24 
L 113.267218 192.24 
L 114.638807 192.24 
L 116.010396 192.24 
L 117.381985 192.24 
L 118.753574 192.24 
L 120.125163 192.24 
L 121.496753 192.24 
L 122.868342 192.24 
L 124.239931 192.24 
L 125.61152 192.24 
L 126.983109 192.24 
L 128.354698 192.24 
L 129.726288 192.24 
L 131.097877 192.24 
L 132.469466 192.24 
L 133.841055 192.24 
L 135.212644 192.24 
L 136.584233 192.24 
L 137.955823 192.24 
L 139.327412 192.24 
L 140.699001 192.24 
L 142.07059 192.24 
L 143.442179 192.24 
L 144.813769 192.24 
L 146.185358 192.24 
L 147.556947 192.24 
L 148.928536 192.24 
L 150.300125 192.24 
L 151.671714 192.24 
L 153.043304 192.24 
L 154.414893 192.24 
L 155.786482 192.24 
L 157.158071 192.24 
L 158.52966 192.24 
L 159.901249 192.24 
L 161.272839 192.24 
L 162.644428 192.24 
L 164.016017 192.24 
L 165.387606 192.24 
L 166.759195 192.24 
L 168.130784 192.24 
L 169.502374 192.24 
L 170.873963 192.24 
L 172.245552 192.24 
L 173.617141 192.24 
L 174.98873 192.24 
L 176.360319 192.24 
L 177.731909 192.24 
L 179.103498 192.24 
L 180.475087 192.24 
L 181.846676 192.24 
L 183.218265 192.24 
L 184.589854 192.24 
L 185.961444 192.24 
L 187.333033 192.24 
L 188.704622 192.24 
L 190.076211 192.24 
L 191.4478 192.24 
L 192.819389 192.24 
L 194.190979 192.24 
L 195.562568 192.24 
L 196.934157 192.24 
L 198.305746 192.24 
L 199.677335 192.24 
L 201.048924 192.24 
L 202.420514 192.24 
L 203.792103 192.24 
L 205.163692 192.24 
L 206.535281 192.24 
L 207.90687 192.24 
L 209.27846 192.24 
L 210.650049 192.24 
L 212.021638 192.24 
L 213.393227 192.24 
L 214.764816 192.24 
L 216.136405 192.24 
L 217.507995 192.24 
L 218.879584 192.24 
L 220.251173 192.24 
L 221.622762 192.24 
L 222.994351 192.24 
L 224.36594 192.24 
L 225.73753 192.24 
L 227.109119 192.24 
L 228.480708 192.24 
L 229.852297 192.24 
L 231.223886 192.24 
L 232.595475 192.24 
L 233.967065 192.24 
L 235.338654 192.24 
L 236.710243 192.24 
L 238.081832 192.24 
L 239.453421 192.24 
L 240.82501 192.24 
L 242.1966 192.24 
L 243.568189 192.24 
L 244.939778 192.24 
L 246.311367 192.24 
L 247.682956 192.24 
L 249.054545 192.24 
L 249.054545 192.216006 
L 249.054545 192.216006 
L 247.682956 192.205026 
L 246.311367 192.180706 
L 244.939778 192.138673 
L 243.568189 192.07334 
L 242.1966 191.979284 
L 240.82501 191.853206 
L 239.453421 191.696145 
L 238.081832 191.515328 
L 236.710243 191.324813 
L 235.338654 191.144195 
L 233.967065 190.995198 
L 232.595475 190.896727 
L 231.223886 190.859702 
L 229.852297 190.88336 
L 228.480708 190.9544 
L 227.109119 191.049501 
L 225.73753 191.140673 
L 224.36594 191.20201 
L 222.994351 191.215963 
L 221.622762 191.177438 
L 220.251173 191.094583 
L 218.879584 190.986019 
L 217.507995 190.875185 
L 216.136405 190.783305 
L 214.764816 190.722929 
L 213.393227 190.693923 
L 212.021638 190.683029 
L 210.650049 190.666892 
L 209.27846 190.617184 
L 207.90687 190.505759 
L 206.535281 190.307952 
L 205.163692 190.003256 
L 203.792103 189.574108 
L 202.420514 189.004607 
L 201.048924 188.281078 
L 199.677335 187.395269 
L 198.305746 186.34914 
L 196.934157 185.158711 
L 195.562568 183.854228 
L 194.190979 182.475302 
L 192.819389 181.062163 
L 191.4478 179.646442 
L 190.076211 178.245528 
L 188.704622 176.863047 
L 187.333033 175.495027 
L 185.961444 174.138391 
L 184.589854 172.797385 
L 183.218265 171.484842 
L 181.846676 170.218151 
L 180.475087 169.012385 
L 179.103498 167.873835 
L 177.731909 166.795761 
L 176.360319 165.755919 
L 174.98873 164.714095 
L 173.617141 163.608576 
L 172.245552 162.352748 
L 170.873963 160.835099 
L 169.502374 158.92617 
L 168.130784 156.493988 
L 166.759195 153.426192 
L 165.387606 149.654223 
L 164.016017 145.173854 
L 162.644428 140.057284 
L 161.272839 134.453975 
L 159.901249 128.579534 
L 158.52966 122.693533 
L 157.158071 117.068643 
L 155.786482 111.955224 
L 154.414893 107.547456 
L 153.043304 103.958457 
L 151.671714 101.211203 
L 150.300125 99.24892 
L 148.928536 97.963394 
L 147.556947 97.234158 
L 146.185358 96.967806 
L 144.813769 97.126243 
L 143.442179 97.735769 
L 142.07059 98.874397 
L 140.699001 100.641188 
L 139.327412 103.116718 
L 137.955823 106.326626 
L 136.584233 110.219626 
L 135.212644 114.667138 
L 133.841055 119.485041 
L 132.469466 124.470948 
L 131.097877 129.445505 
L 129.726288 134.285339 
L 128.354698 138.938622 
L 126.983109 143.420219 
L 125.61152 147.789682 
L 124.239931 152.119728 
L 122.868342 156.464451 
L 121.496753 160.835519 
L 120.125163 165.191811 
L 118.753574 169.444262 
L 117.381985 173.473803 
L 116.010396 177.15704 
L 114.638807 180.392413 
L 113.267218 183.119747 
L 111.895628 185.328405 
L 110.524039 187.053011 
L 109.15245 188.359536 
L 107.780861 189.327122 
L 106.409272 190.031442 
L 105.037683 190.533853 
L 103.666093 190.877917 
L 102.294504 191.092295 
L 100.922915 191.197289 
L 99.551326 191.21194 
L 98.179737 191.159115 
L 96.808148 191.067169 
L 95.436558 190.968021 
L 94.064969 190.89261 
L 92.69338 190.865425 
L 91.321791 190.900004 
L 89.950202 190.996949 
L 88.578613 191.145071 
L 87.207023 191.325226 
L 85.835434 191.515512 
L 84.463845 191.696221 
L 83.092256 191.853236 
L 81.720667 191.979295 
L 80.349077 192.073344 
L 78.977488 192.138675 
L 77.605899 192.180706 
L 76.23431 192.205026 
L 74.862721 192.216006 
z
" style="fill:#008000;fill-opacity:0.25;"/>
   </g>
   <g id="matplotlib.axis_1">
    <g id="xtick_1">
     <g id="line2d_1">
      <defs>
       <path d="M 0 0 
L 0 3.5 
" id="m7cc1df0b59" style="stroke:#000000;stroke-width:0.8;"/>
      </defs>
      <g>
       <use style="stroke:#000000;stroke-width:0.8;" x="75.705301" xlink:href="#m7cc1df0b59" y="192.24"/>
      </g>
     </g>
     <g id="text_1">
      <!-- −0.01 -->
      <defs>
       <path d="M 10.59375 35.5 
L 73.1875 35.5 
L 73.1875 27.203125 
L 10.59375 27.203125 
z
" id="DejaVuSans-2212"/>
       <path d="M 31.78125 66.40625 
Q 24.171875 66.40625 20.328125 58.90625 
Q 16.5 51.421875 16.5 36.375 
Q 16.5 21.390625 20.328125 13.890625 
Q 24.171875 6.390625 31.78125 6.390625 
Q 39.453125 6.390625 43.28125 13.890625 
Q 47.125 21.390625 47.125 36.375 
Q 47.125 51.421875 43.28125 58.90625 
Q 39.453125 66.40625 31.78125 66.40625 
z
M 31.78125 74.21875 
Q 44.046875 74.21875 50.515625 64.515625 
Q 56.984375 54.828125 56.984375 36.375 
Q 56.984375 17.96875 50.515625 8.265625 
Q 44.046875 -1.421875 31.78125 -1.421875 
Q 19.53125 -1.421875 13.0625 8.265625 
Q 6.59375 17.96875 6.59375 36.375 
Q 6.59375 54.828125 13.0625 64.515625 
Q 19.53125 74.21875 31.78125 74.21875 
z
" id="DejaVuSans-30"/>
       <path d="M 10.6875 12.40625 
L 21 12.40625 
L 21 0 
L 10.6875 0 
z
" id="DejaVuSans-2e"/>
       <path d="M 12.40625 8.296875 
L 28.515625 8.296875 
L 28.515625 63.921875 
L 10.984375 60.40625 
L 10.984375 69.390625 
L 28.421875 72.90625 
L 38.28125 72.90625 
L 38.28125 8.296875 
L 54.390625 8.296875 
L 54.390625 0 
L 12.40625 0 
z
" id="DejaVuSans-31"/>
      </defs>
      <g transform="translate(60.382645 206.838437)scale(0.1 -0.1)">
       <use xlink:href="#DejaVuSans-2212"/>
       <use x="83.789062" xlink:href="#DejaVuSans-30"/>
       <use x="147.412109" xlink:href="#DejaVuSans-2e"/>
       <use x="179.199219" xlink:href="#DejaVuSans-30"/>
       <use x="242.822266" xlink:href="#DejaVuSans-31"/>
      </g>
     </g>
    </g>
    <g id="xtick_2">
     <g id="line2d_2">
      <g>
       <use style="stroke:#000000;stroke-width:0.8;" x="136.507138" xlink:href="#m7cc1df0b59" y="192.24"/>
      </g>
     </g>
     <g id="text_2">
      <!-- 0.00 -->
      <g transform="translate(125.374326 206.838437)scale(0.1 -0.1)">
       <use xlink:href="#DejaVuSans-30"/>
       <use x="63.623047" xlink:href="#DejaVuSans-2e"/>
       <use x="95.410156" xlink:href="#DejaVuSans-30"/>
       <use x="159.033203" xlink:href="#DejaVuSans-30"/>
      </g>
     </g>
    </g>
    <g id="xtick_3">
     <g id="line2d_3">
      <g>
       <use style="stroke:#000000;stroke-width:0.8;" x="197.308975" xlink:href="#m7cc1df0b59" y="192.24"/>
      </g>
     </g>
     <g id="text_3">
      <!-- 0.01 -->
      <g transform="translate(186.176163 206.838437)scale(0.1 -0.1)">
       <use xlink:href="#DejaVuSans-30"/>
       <use x="63.623047" xlink:href="#DejaVuSans-2e"/>
       <use x="95.410156" xlink:href="#DejaVuSans-30"/>
       <use x="159.033203" xlink:href="#DejaVuSans-31"/>
      </g>
     </g>
    </g>
    <g id="xtick_4">
     <g id="line2d_4">
      <g>
       <use style="stroke:#000000;stroke-width:0.8;" x="258.110812" xlink:href="#m7cc1df0b59" y="192.24"/>
      </g>
     </g>
     <g id="text_4">
      <!-- 0.02 -->
      <defs>
       <path d="M 19.1875 8.296875 
L 53.609375 8.296875 
L 53.609375 0 
L 7.328125 0 
L 7.328125 8.296875 
Q 12.9375 14.109375 22.625 23.890625 
Q 32.328125 33.6875 34.8125 36.53125 
Q 39.546875 41.84375 41.421875 45.53125 
Q 43.3125 49.21875 43.3125 52.78125 
Q 43.3125 58.59375 39.234375 62.25 
Q 35.15625 65.921875 28.609375 65.921875 
Q 23.96875 65.921875 18.8125 64.3125 
Q 13.671875 62.703125 7.8125 59.421875 
L 7.8125 69.390625 
Q 13.765625 71.78125 18.9375 73 
Q 24.125 74.21875 28.421875 74.21875 
Q 39.75 74.21875 46.484375 68.546875 
Q 53.21875 62.890625 53.21875 53.421875 
Q 53.21875 48.921875 51.53125 44.890625 
Q 49.859375 40.875 45.40625 35.40625 
Q 44.1875 33.984375 37.640625 27.21875 
Q 31.109375 20.453125 19.1875 8.296875 
z
" id="DejaVuSans-32"/>
      </defs>
      <g transform="translate(246.978 206.838437)scale(0.1 -0.1)">
       <use xlink:href="#DejaVuSans-30"/>
       <use x="63.623047" xlink:href="#DejaVuSans-2e"/>
       <use x="95.410156" xlink:href="#DejaVuSans-30"/>
       <use x="159.033203" xlink:href="#DejaVuSans-32"/>
      </g>
     </g>
    </g>
    <g id="text_5">
     <!-- DIP Rate -->
     <defs>
      <path d="M 19.671875 64.796875 
L 19.671875 8.109375 
L 31.59375 8.109375 
Q 46.6875 8.109375 53.6875 14.9375 
Q 60.6875 21.78125 60.6875 36.53125 
Q 60.6875 51.171875 53.6875 57.984375 
Q 46.6875 64.796875 31.59375 64.796875 
z
M 9.8125 72.90625 
L 30.078125 72.90625 
Q 51.265625 72.90625 61.171875 64.09375 
Q 71.09375 55.28125 71.09375 36.53125 
Q 71.09375 17.671875 61.125 8.828125 
Q 51.171875 0 30.078125 0 
L 9.8125 0 
z
" id="DejaVuSans-44"/>
      <path d="M 9.8125 72.90625 
L 19.671875 72.90625 
L 19.671875 0 
L 9.8125 0 
z
" id="DejaVuSans-49"/>
      <path d="M 19.671875 64.796875 
L 19.671875 37.40625 
L 32.078125 37.40625 
Q 38.96875 37.40625 42.71875 40.96875 
Q 46.484375 44.53125 46.484375 51.125 
Q 46.484375 57.671875 42.71875 61.234375 
Q 38.96875 64.796875 32.078125 64.796875 
z
M 9.8125 72.90625 
L 32.078125 72.90625 
Q 44.34375 72.90625 50.609375 67.359375 
Q 56.890625 61.8125 56.890625 51.125 
Q 56.890625 40.328125 50.609375 34.8125 
Q 44.34375 29.296875 32.078125 29.296875 
L 19.671875 29.296875 
L 19.671875 0 
L 9.8125 0 
z
" id="DejaVuSans-50"/>
      <path id="DejaVuSans-20"/>
      <path d="M 44.390625 34.1875 
Q 47.5625 33.109375 50.5625 29.59375 
Q 53.5625 26.078125 56.59375 19.921875 
L 66.609375 0 
L 56 0 
L 46.6875 18.703125 
Q 43.0625 26.03125 39.671875 28.421875 
Q 36.28125 30.8125 30.421875 30.8125 
L 19.671875 30.8125 
L 19.671875 0 
L 9.8125 0 
L 9.8125 72.90625 
L 32.078125 72.90625 
Q 44.578125 72.90625 50.734375 67.671875 
Q 56.890625 62.453125 56.890625 51.90625 
Q 56.890625 45.015625 53.6875 40.46875 
Q 50.484375 35.9375 44.390625 34.1875 
z
M 19.671875 64.796875 
L 19.671875 38.921875 
L 32.078125 38.921875 
Q 39.203125 38.921875 42.84375 42.21875 
Q 46.484375 45.515625 46.484375 51.90625 
Q 46.484375 58.296875 42.84375 61.546875 
Q 39.203125 64.796875 32.078125 64.796875 
z
" id="DejaVuSans-52"/>
      <path d="M 34.28125 27.484375 
Q 23.390625 27.484375 19.1875 25 
Q 14.984375 22.515625 14.984375 16.5 
Q 14.984375 11.71875 18.140625 8.90625 
Q 21.296875 6.109375 26.703125 6.109375 
Q 34.1875 6.109375 38.703125 11.40625 
Q 43.21875 16.703125 43.21875 25.484375 
L 43.21875 27.484375 
z
M 52.203125 31.203125 
L 52.203125 0 
L 43.21875 0 
L 43.21875 8.296875 
Q 40.140625 3.328125 35.546875 0.953125 
Q 30.953125 -1.421875 24.3125 -1.421875 
Q 15.921875 -1.421875 10.953125 3.296875 
Q 6 8.015625 6 15.921875 
Q 6 25.140625 12.171875 29.828125 
Q 18.359375 34.515625 30.609375 34.515625 
L 43.21875 34.515625 
L 43.21875 35.40625 
Q 43.21875 41.609375 39.140625 45 
Q 35.0625 48.390625 27.6875 48.390625 
Q 23 48.390625 18.546875 47.265625 
Q 14.109375 46.140625 10.015625 43.890625 
L 10.015625 52.203125 
Q 14.9375 54.109375 19.578125 55.046875 
Q 24.21875 56 28.609375 56 
Q 40.484375 56 46.34375 49.84375 
Q 52.203125 43.703125 52.203125 31.203125 
z
" id="DejaVuSans-61"/>
      <path d="M 18.3125 70.21875 
L 18.3125 54.6875 
L 36.8125 54.6875 
L 36.8125 47.703125 
L 18.3125 47.703125 
L 18.3125 18.015625 
Q 18.3125 11.328125 20.140625 9.421875 
Q 21.96875 7.515625 27.59375 7.515625 
L 36.8125 7.515625 
L 36.8125 0 
L 27.59375 0 
Q 17.1875 0 13.234375 3.875 
Q 9.28125 7.765625 9.28125 18.015625 
L 9.28125 47.703125 
L 2.6875 47.703125 
L 2.6875 54.6875 
L 9.28125 54.6875 
L 9.28125 70.21875 
z
" id="DejaVuSans-74"/>
      <path d="M 56.203125 29.59375 
L 56.203125 25.203125 
L 14.890625 25.203125 
Q 15.484375 15.921875 20.484375 11.0625 
Q 25.484375 6.203125 34.421875 6.203125 
Q 39.59375 6.203125 44.453125 7.46875 
Q 49.3125 8.734375 54.109375 11.28125 
L 54.109375 2.78125 
Q 49.265625 0.734375 44.1875 -0.34375 
Q 39.109375 -1.421875 33.890625 -1.421875 
Q 20.796875 -1.421875 13.15625 6.1875 
Q 5.515625 13.8125 5.515625 26.8125 
Q 5.515625 40.234375 12.765625 48.109375 
Q 20.015625 56 32.328125 56 
Q 43.359375 56 49.78125 48.890625 
Q 56.203125 41.796875 56.203125 29.59375 
z
M 47.21875 32.234375 
Q 47.125 39.59375 43.09375 43.984375 
Q 39.0625 48.390625 32.421875 48.390625 
Q 24.90625 48.390625 20.390625 44.140625 
Q 15.875 39.890625 15.1875 32.171875 
z
" id="DejaVuSans-65"/>
     </defs>
     <g transform="translate(126.097656 220.516562)scale(0.1 -0.1)">
      <use xlink:href="#DejaVuSans-44"/>
      <use x="77.001953" xlink:href="#DejaVuSans-49"/>
      <use x="106.494141" xlink:href="#DejaVuSans-50"/>
      <use x="166.796875" xlink:href="#DejaVuSans-20"/>
      <use x="198.583984" xlink:href="#DejaVuSans-52"/>
      <use x="268.035156" xlink:href="#DejaVuSans-61"/>
      <use x="329.314453" xlink:href="#DejaVuSans-74"/>
      <use x="368.523438" xlink:href="#DejaVuSans-65"/>
     </g>
    </g>
   </g>
   <g id="matplotlib.axis_2">
    <g id="ytick_1">
     <g id="line2d_5">
      <defs>
       <path d="M 0 0 
L -3.5 0 
" id="m79e9488fab" style="stroke:#000000;stroke-width:0.8;"/>
      </defs>
      <g>
       <use style="stroke:#000000;stroke-width:0.8;" x="36" xlink:href="#m79e9488fab" y="192.24"/>
      </g>
     </g>
     <g id="text_6">
      <!-- 0 -->
      <g transform="translate(22.6375 196.039219)scale(0.1 -0.1)">
       <use xlink:href="#DejaVuSans-30"/>
      </g>
     </g>
    </g>
    <g id="ytick_2">
     <g id="line2d_6">
      <g>
       <use style="stroke:#000000;stroke-width:0.8;" x="36" xlink:href="#m79e9488fab" y="157.776026"/>
      </g>
     </g>
     <g id="text_7">
      <!-- 50 -->
      <defs>
       <path d="M 10.796875 72.90625 
L 49.515625 72.90625 
L 49.515625 64.59375 
L 19.828125 64.59375 
L 19.828125 46.734375 
Q 21.96875 47.46875 24.109375 47.828125 
Q 26.265625 48.1875 28.421875 48.1875 
Q 40.625 48.1875 47.75 41.5 
Q 54.890625 34.8125 54.890625 23.390625 
Q 54.890625 11.625 47.5625 5.09375 
Q 40.234375 -1.421875 26.90625 -1.421875 
Q 22.3125 -1.421875 17.546875 -0.640625 
Q 12.796875 0.140625 7.71875 1.703125 
L 7.71875 11.625 
Q 12.109375 9.234375 16.796875 8.0625 
Q 21.484375 6.890625 26.703125 6.890625 
Q 35.15625 6.890625 40.078125 11.328125 
Q 45.015625 15.765625 45.015625 23.390625 
Q 45.015625 31 40.078125 35.4375 
Q 35.15625 39.890625 26.703125 39.890625 
Q 22.75 39.890625 18.8125 39.015625 
Q 14.890625 38.140625 10.796875 36.28125 
z
" id="DejaVuSans-35"/>
      </defs>
      <g transform="translate(16.275 161.575245)scale(0.1 -0.1)">
       <use xlink:href="#DejaVuSans-35"/>
       <use x="63.623047" xlink:href="#DejaVuSans-30"/>
      </g>
     </g>
    </g>
    <g id="ytick_3">
     <g id="line2d_7">
      <g>
       <use style="stroke:#000000;stroke-width:0.8;" x="36" xlink:href="#m79e9488fab" y="123.312053"/>
      </g>
     </g>
     <g id="text_8">
      <!-- 100 -->
      <g transform="translate(9.9125 127.111272)scale(0.1 -0.1)">
       <use xlink:href="#DejaVuSans-31"/>
       <use x="63.623047" xlink:href="#DejaVuSans-30"/>
       <use x="127.246094" xlink:href="#DejaVuSans-30"/>
      </g>
     </g>
    </g>
    <g id="ytick_4">
     <g id="line2d_8">
      <g>
       <use style="stroke:#000000;stroke-width:0.8;" x="36" xlink:href="#m79e9488fab" y="88.848079"/>
      </g>
     </g>
     <g id="text_9">
      <!-- 150 -->
      <g transform="translate(9.9125 92.647298)scale(0.1 -0.1)">
       <use xlink:href="#DejaVuSans-31"/>
       <use x="63.623047" xlink:href="#DejaVuSans-35"/>
       <use x="127.246094" xlink:href="#DejaVuSans-30"/>
      </g>
     </g>
    </g>
    <g id="ytick_5">
     <g id="line2d_9">
      <g>
       <use style="stroke:#000000;stroke-width:0.8;" x="36" xlink:href="#m79e9488fab" y="54.384106"/>
      </g>
     </g>
     <g id="text_10">
      <!-- 200 -->
      <g transform="translate(9.9125 58.183324)scale(0.1 -0.1)">
       <use xlink:href="#DejaVuSans-32"/>
       <use x="63.623047" xlink:href="#DejaVuSans-30"/>
       <use x="127.246094" xlink:href="#DejaVuSans-30"/>
      </g>
     </g>
    </g>
    <g id="text_11">
     <!-- Density -->
     <defs>
      <path d="M 54.890625 33.015625 
L 54.890625 0 
L 45.90625 0 
L 45.90625 32.71875 
Q 45.90625 40.484375 42.875 44.328125 
Q 39.84375 48.1875 33.796875 48.1875 
Q 26.515625 48.1875 22.3125 43.546875 
Q 18.109375 38.921875 18.109375 30.90625 
L 18.109375 0 
L 9.078125 0 
L 9.078125 54.6875 
L 18.109375 54.6875 
L 18.109375 46.1875 
Q 21.34375 51.125 25.703125 53.5625 
Q 30.078125 56 35.796875 56 
Q 45.21875 56 50.046875 50.171875 
Q 54.890625 44.34375 54.890625 33.015625 
z
" id="DejaVuSans-6e"/>
      <path d="M 44.28125 53.078125 
L 44.28125 44.578125 
Q 40.484375 46.53125 36.375 47.5 
Q 32.28125 48.484375 27.875 48.484375 
Q 21.1875 48.484375 17.84375 46.4375 
Q 14.5 44.390625 14.5 40.28125 
Q 14.5 37.15625 16.890625 35.375 
Q 19.28125 33.59375 26.515625 31.984375 
L 29.59375 31.296875 
Q 39.15625 29.25 43.1875 25.515625 
Q 47.21875 21.78125 47.21875 15.09375 
Q 47.21875 7.46875 41.1875 3.015625 
Q 35.15625 -1.421875 24.609375 -1.421875 
Q 20.21875 -1.421875 15.453125 -0.5625 
Q 10.6875 0.296875 5.421875 2 
L 5.421875 11.28125 
Q 10.40625 8.6875 15.234375 7.390625 
Q 20.0625 6.109375 24.8125 6.109375 
Q 31.15625 6.109375 34.5625 8.28125 
Q 37.984375 10.453125 37.984375 14.40625 
Q 37.984375 18.0625 35.515625 20.015625 
Q 33.0625 21.96875 24.703125 23.78125 
L 21.578125 24.515625 
Q 13.234375 26.265625 9.515625 29.90625 
Q 5.8125 33.546875 5.8125 39.890625 
Q 5.8125 47.609375 11.28125 51.796875 
Q 16.75 56 26.8125 56 
Q 31.78125 56 36.171875 55.265625 
Q 40.578125 54.546875 44.28125 53.078125 
z
" id="DejaVuSans-73"/>
      <path d="M 9.421875 54.6875 
L 18.40625 54.6875 
L 18.40625 0 
L 9.421875 0 
z
M 9.421875 75.984375 
L 18.40625 75.984375 
L 18.40625 64.59375 
L 9.421875 64.59375 
z
" id="DejaVuSans-69"/>
      <path d="M 32.171875 -5.078125 
Q 28.375 -14.84375 24.75 -17.8125 
Q 21.140625 -20.796875 15.09375 -20.796875 
L 7.90625 -20.796875 
L 7.90625 -13.28125 
L 13.1875 -13.28125 
Q 16.890625 -13.28125 18.9375 -11.515625 
Q 21 -9.765625 23.484375 -3.21875 
L 25.09375 0.875 
L 2.984375 54.6875 
L 12.5 54.6875 
L 29.59375 11.921875 
L 46.6875 54.6875 
L 56.203125 54.6875 
z
" id="DejaVuSans-79"/>
     </defs>
     <g transform="translate(3.832812 128.088594)rotate(-90)scale(0.1 -0.1)">
      <use xlink:href="#DejaVuSans-44"/>
      <use x="77.001953" xlink:href="#DejaVuSans-65"/>
      <use x="138.525391" xlink:href="#DejaVuSans-6e"/>
      <use x="201.904297" xlink:href="#DejaVuSans-73"/>
      <use x="254.003906" xlink:href="#DejaVuSans-69"/>
      <use x="281.787109" xlink:href="#DejaVuSans-74"/>
      <use x="320.996094" xlink:href="#DejaVuSans-79"/>
     </g>
    </g>
   </g>
   <g id="line2d_10">
    <path clip-path="url(#p1f80da48f1)" d="M 46.145455 192.202901 
L 49.018257 192.051624 
L 50.454658 191.841857 
L 51.891059 191.500342 
L 56.200262 190.082934 
L 57.636663 189.869359 
L 59.073064 189.953993 
L 60.509465 190.304535 
L 63.382268 191.28418 
L 64.818669 191.648525 
L 66.25507 191.831656 
L 67.691471 191.814894 
L 69.127872 191.600237 
L 72.000674 190.718879 
L 73.437075 190.242179 
L 74.873476 189.930009 
L 76.309877 189.892157 
L 77.746279 190.141199 
L 82.055482 191.416982 
L 83.491883 191.534914 
L 84.928284 191.336173 
L 86.364685 190.78797 
L 87.801086 189.931086 
L 90.673888 188.011407 
L 92.110289 187.485521 
L 93.546691 187.491596 
L 94.983092 187.955009 
L 96.419493 188.6034 
L 97.855894 189.109711 
L 99.292295 189.255591 
L 100.728696 189.015085 
L 105.037899 187.546782 
L 107.910701 187.0858 
L 110.783504 186.638186 
L 112.219905 186.204532 
L 117.965509 183.940108 
L 120.838311 183.275133 
L 122.274712 182.693139 
L 123.711113 181.732162 
L 128.020317 177.93245 
L 129.456718 177.146988 
L 130.893119 176.499794 
L 132.32952 175.442154 
L 133.765921 173.293055 
L 135.202322 169.507328 
L 136.638723 163.870564 
L 138.075124 156.52441 
L 139.511525 147.807331 
L 140.947927 137.997042 
L 142.384328 127.126079 
L 143.820729 115.023206 
L 145.25713 101.569472 
L 149.566333 57.525043 
L 151.002734 45.262644 
L 152.439135 36.855825 
L 153.875536 33.84 
L 155.311937 36.90746 
L 156.748338 45.37941 
L 158.18474 57.29288 
L 161.057542 82.103799 
L 162.493943 92.278785 
L 168.239547 127.7217 
L 172.54875 158.040069 
L 173.985152 166.340705 
L 175.421553 172.799835 
L 176.857954 177.374548 
L 178.294355 180.373543 
L 179.730756 182.269971 
L 181.167157 183.507162 
L 182.603558 184.40255 
L 186.912761 186.575958 
L 189.785564 187.857125 
L 192.658366 188.721667 
L 195.531168 189.569837 
L 198.40397 190.484138 
L 199.840371 190.699061 
L 201.276772 190.646095 
L 205.585976 189.814586 
L 207.022377 189.79589 
L 211.33158 190.279921 
L 212.767981 190.20166 
L 215.640783 189.812941 
L 217.077184 189.812964 
L 218.513585 190.063131 
L 224.25919 191.841774 
L 227.131992 192.159852 
L 228.568393 192.202901 
L 228.568393 192.202901 
" style="fill:none;stroke:#0000ff;stroke-linecap:square;stroke-width:1.5;"/>
   </g>
   <g id="line2d_11">
    <path clip-path="url(#p1f80da48f1)" d="M 74.862721 192.216006 
L 80.349077 192.073344 
L 84.463845 191.696221 
L 91.321791 190.900004 
L 94.064969 190.89261 
L 100.922915 191.197289 
L 103.666093 190.877917 
L 105.037683 190.533853 
L 106.409272 190.031442 
L 107.780861 189.327122 
L 109.15245 188.359536 
L 110.524039 187.053011 
L 111.895628 185.328405 
L 113.267218 183.119747 
L 114.638807 180.392413 
L 116.010396 177.15704 
L 117.381985 173.473803 
L 120.125163 165.191811 
L 128.354698 138.938622 
L 131.097877 129.445505 
L 135.212644 114.667138 
L 136.584233 110.219626 
L 137.955823 106.326626 
L 139.327412 103.116718 
L 140.699001 100.641188 
L 142.07059 98.874397 
L 143.442179 97.735769 
L 144.813769 97.126243 
L 146.185358 96.967806 
L 147.556947 97.234158 
L 148.928536 97.963394 
L 150.300125 99.24892 
L 151.671714 101.211203 
L 153.043304 103.958457 
L 154.414893 107.547456 
L 155.786482 111.955224 
L 157.158071 117.068643 
L 159.901249 128.579534 
L 162.644428 140.057284 
L 164.016017 145.173854 
L 165.387606 149.654223 
L 166.759195 153.426192 
L 168.130784 156.493988 
L 169.502374 158.92617 
L 170.873963 160.835099 
L 172.245552 162.352748 
L 174.98873 164.714095 
L 180.475087 169.012385 
L 183.218265 171.484842 
L 188.704622 176.863047 
L 196.934157 185.158711 
L 199.677335 187.395269 
L 201.048924 188.281078 
L 202.420514 189.004607 
L 203.792103 189.574108 
L 205.163692 190.003256 
L 207.90687 190.505759 
L 210.650049 190.666892 
L 216.136405 190.783305 
L 222.994351 191.215963 
L 225.73753 191.140673 
L 231.223886 190.859702 
L 233.967065 190.995198 
L 239.453421 191.696145 
L 243.568189 192.07334 
L 247.682956 192.205026 
L 249.054545 192.216006 
L 249.054545 192.216006 
" style="fill:none;stroke:#008000;stroke-linecap:square;stroke-width:1.5;"/>
   </g>
   <g id="patch_3">
    <path d="M 36 192.24 
L 36 25.92 
" style="fill:none;stroke:#000000;stroke-linecap:square;stroke-linejoin:miter;stroke-width:0.8;"/>
   </g>
   <g id="patch_4">
    <path d="M 259.2 192.24 
L 259.2 25.92 
" style="fill:none;stroke:#000000;stroke-linecap:square;stroke-linejoin:miter;stroke-width:0.8;"/>
   </g>
   <g id="patch_5">
    <path d="M 36 192.24 
L 259.2 192.24 
" style="fill:none;stroke:#000000;stroke-linecap:square;stroke-linejoin:miter;stroke-width:0.8;"/>
   </g>
   <g id="patch_6">
    <path d="M 36 25.92 
L 259.2 25.92 
" style="fill:none;stroke:#000000;stroke-linecap:square;stroke-linejoin:miter;stroke-width:0.8;"/>
   </g>
   <g id="legend_1">
    <g id="patch_7">
     <path d="M 43 63.27625 
L 141.685938 63.27625 
Q 143.685938 63.27625 143.685938 61.27625 
L 143.685938 32.92 
Q 143.685938 30.92 141.685938 30.92 
L 43 30.92 
Q 41 30.92 41 32.92 
L 41 61.27625 
Q 41 63.27625 43 63.27625 
z
" style="fill:#ffffff;opacity:0.8;stroke:#cccccc;stroke-linejoin:miter;"/>
    </g>
    <g id="patch_8">
     <path d="M 45 42.518437 
L 65 42.518437 
L 65 35.518437 
L 45 35.518437 
z
" style="fill:#0000ff;opacity:0.25;"/>
    </g>
    <g id="text_12">
     <!-- Simulated -->
     <defs>
      <path d="M 53.515625 70.515625 
L 53.515625 60.890625 
Q 47.90625 63.578125 42.921875 64.890625 
Q 37.9375 66.21875 33.296875 66.21875 
Q 25.25 66.21875 20.875 63.09375 
Q 16.5 59.96875 16.5 54.203125 
Q 16.5 49.359375 19.40625 46.890625 
Q 22.3125 44.4375 30.421875 42.921875 
L 36.375 41.703125 
Q 47.40625 39.59375 52.65625 34.296875 
Q 57.90625 29 57.90625 20.125 
Q 57.90625 9.515625 50.796875 4.046875 
Q 43.703125 -1.421875 29.984375 -1.421875 
Q 24.8125 -1.421875 18.96875 -0.25 
Q 13.140625 0.921875 6.890625 3.21875 
L 6.890625 13.375 
Q 12.890625 10.015625 18.65625 8.296875 
Q 24.421875 6.59375 29.984375 6.59375 
Q 38.421875 6.59375 43.015625 9.90625 
Q 47.609375 13.234375 47.609375 19.390625 
Q 47.609375 24.75 44.3125 27.78125 
Q 41.015625 30.8125 33.5 32.328125 
L 27.484375 33.5 
Q 16.453125 35.6875 11.515625 40.375 
Q 6.59375 45.0625 6.59375 53.421875 
Q 6.59375 63.09375 13.40625 68.65625 
Q 20.21875 74.21875 32.171875 74.21875 
Q 37.3125 74.21875 42.625 73.28125 
Q 47.953125 72.359375 53.515625 70.515625 
z
" id="DejaVuSans-53"/>
      <path d="M 52 44.1875 
Q 55.375 50.25 60.0625 53.125 
Q 64.75 56 71.09375 56 
Q 79.640625 56 84.28125 50.015625 
Q 88.921875 44.046875 88.921875 33.015625 
L 88.921875 0 
L 79.890625 0 
L 79.890625 32.71875 
Q 79.890625 40.578125 77.09375 44.375 
Q 74.3125 48.1875 68.609375 48.1875 
Q 61.625 48.1875 57.5625 43.546875 
Q 53.515625 38.921875 53.515625 30.90625 
L 53.515625 0 
L 44.484375 0 
L 44.484375 32.71875 
Q 44.484375 40.625 41.703125 44.40625 
Q 38.921875 48.1875 33.109375 48.1875 
Q 26.21875 48.1875 22.15625 43.53125 
Q 18.109375 38.875 18.109375 30.90625 
L 18.109375 0 
L 9.078125 0 
L 9.078125 54.6875 
L 18.109375 54.6875 
L 18.109375 46.1875 
Q 21.1875 51.21875 25.484375 53.609375 
Q 29.78125 56 35.6875 56 
Q 41.65625 56 45.828125 52.96875 
Q 50 49.953125 52 44.1875 
z
" id="DejaVuSans-6d"/>
      <path d="M 8.5 21.578125 
L 8.5 54.6875 
L 17.484375 54.6875 
L 17.484375 21.921875 
Q 17.484375 14.15625 20.5 10.265625 
Q 23.53125 6.390625 29.59375 6.390625 
Q 36.859375 6.390625 41.078125 11.03125 
Q 45.3125 15.671875 45.3125 23.6875 
L 45.3125 54.6875 
L 54.296875 54.6875 
L 54.296875 0 
L 45.3125 0 
L 45.3125 8.40625 
Q 42.046875 3.421875 37.71875 1 
Q 33.40625 -1.421875 27.6875 -1.421875 
Q 18.265625 -1.421875 13.375 4.4375 
Q 8.5 10.296875 8.5 21.578125 
z
M 31.109375 56 
z
" id="DejaVuSans-75"/>
      <path d="M 9.421875 75.984375 
L 18.40625 75.984375 
L 18.40625 0 
L 9.421875 0 
z
" id="DejaVuSans-6c"/>
      <path d="M 45.40625 46.390625 
L 45.40625 75.984375 
L 54.390625 75.984375 
L 54.390625 0 
L 45.40625 0 
L 45.40625 8.203125 
Q 42.578125 3.328125 38.25 0.953125 
Q 33.9375 -1.421875 27.875 -1.421875 
Q 17.96875 -1.421875 11.734375 6.484375 
Q 5.515625 14.40625 5.515625 27.296875 
Q 5.515625 40.1875 11.734375 48.09375 
Q 17.96875 56 27.875 56 
Q 33.9375 56 38.25 53.625 
Q 42.578125 51.265625 45.40625 46.390625 
z
M 14.796875 27.296875 
Q 14.796875 17.390625 18.875 11.75 
Q 22.953125 6.109375 30.078125 6.109375 
Q 37.203125 6.109375 41.296875 11.75 
Q 45.40625 17.390625 45.40625 27.296875 
Q 45.40625 37.203125 41.296875 42.84375 
Q 37.203125 48.484375 30.078125 48.484375 
Q 22.953125 48.484375 18.875 42.84375 
Q 14.796875 37.203125 14.796875 27.296875 
z
" id="DejaVuSans-64"/>
     </defs>
     <g transform="translate(73 42.518437)scale(0.1 -0.1)">
      <use xlink:href="#DejaVuSans-53"/>
      <use x="63.476562" xlink:href="#DejaVuSans-69"/>
      <use x="91.259766" xlink:href="#DejaVuSans-6d"/>
      <use x="188.671875" xlink:href="#DejaVuSans-75"/>
      <use x="252.050781" xlink:href="#DejaVuSans-6c"/>
      <use x="279.833984" xlink:href="#DejaVuSans-61"/>
      <use x="341.113281" xlink:href="#DejaVuSans-74"/>
      <use x="380.322266" xlink:href="#DejaVuSans-65"/>
      <use x="441.845703" xlink:href="#DejaVuSans-64"/>
     </g>
    </g>
    <g id="patch_9">
     <path d="M 45 57.196562 
L 65 57.196562 
L 65 50.196562 
L 45 50.196562 
z
" style="fill:#008000;opacity:0.25;"/>
    </g>
    <g id="text_13">
     <!-- Experimental -->
     <defs>
      <path d="M 9.8125 72.90625 
L 55.90625 72.90625 
L 55.90625 64.59375 
L 19.671875 64.59375 
L 19.671875 43.015625 
L 54.390625 43.015625 
L 54.390625 34.71875 
L 19.671875 34.71875 
L 19.671875 8.296875 
L 56.78125 8.296875 
L 56.78125 0 
L 9.8125 0 
z
" id="DejaVuSans-45"/>
      <path d="M 54.890625 54.6875 
L 35.109375 28.078125 
L 55.90625 0 
L 45.3125 0 
L 29.390625 21.484375 
L 13.484375 0 
L 2.875 0 
L 24.125 28.609375 
L 4.6875 54.6875 
L 15.28125 54.6875 
L 29.78125 35.203125 
L 44.28125 54.6875 
z
" id="DejaVuSans-78"/>
      <path d="M 18.109375 8.203125 
L 18.109375 -20.796875 
L 9.078125 -20.796875 
L 9.078125 54.6875 
L 18.109375 54.6875 
L 18.109375 46.390625 
Q 20.953125 51.265625 25.265625 53.625 
Q 29.59375 56 35.59375 56 
Q 45.5625 56 51.78125 48.09375 
Q 58.015625 40.1875 58.015625 27.296875 
Q 58.015625 14.40625 51.78125 6.484375 
Q 45.5625 -1.421875 35.59375 -1.421875 
Q 29.59375 -1.421875 25.265625 0.953125 
Q 20.953125 3.328125 18.109375 8.203125 
z
M 48.6875 27.296875 
Q 48.6875 37.203125 44.609375 42.84375 
Q 40.53125 48.484375 33.40625 48.484375 
Q 26.265625 48.484375 22.1875 42.84375 
Q 18.109375 37.203125 18.109375 27.296875 
Q 18.109375 17.390625 22.1875 11.75 
Q 26.265625 6.109375 33.40625 6.109375 
Q 40.53125 6.109375 44.609375 11.75 
Q 48.6875 17.390625 48.6875 27.296875 
z
" id="DejaVuSans-70"/>
      <path d="M 41.109375 46.296875 
Q 39.59375 47.171875 37.8125 47.578125 
Q 36.03125 48 33.890625 48 
Q 26.265625 48 22.1875 43.046875 
Q 18.109375 38.09375 18.109375 28.8125 
L 18.109375 0 
L 9.078125 0 
L 9.078125 54.6875 
L 18.109375 54.6875 
L 18.109375 46.1875 
Q 20.953125 51.171875 25.484375 53.578125 
Q 30.03125 56 36.53125 56 
Q 37.453125 56 38.578125 55.875 
Q 39.703125 55.765625 41.0625 55.515625 
z
" id="DejaVuSans-72"/>
     </defs>
     <g transform="translate(73 57.196562)scale(0.1 -0.1)">
      <use xlink:href="#DejaVuSans-45"/>
      <use x="63.183594" xlink:href="#DejaVuSans-78"/>
      <use x="122.363281" xlink:href="#DejaVuSans-70"/>
      <use x="185.839844" xlink:href="#DejaVuSans-65"/>
      <use x="247.363281" xlink:href="#DejaVuSans-72"/>
      <use x="288.476562" xlink:href="#DejaVuSans-69"/>
      <use x="316.259766" xlink:href="#DejaVuSans-6d"/>
      <use x="413.671875" xlink:href="#DejaVuSans-65"/>
      <use x="475.195312" xlink:href="#DejaVuSans-6e"/>
      <use x="538.574219" xlink:href="#DejaVuSans-74"/>
      <use x="577.783203" xlink:href="#DejaVuSans-61"/>
      <use x="639.0625" xlink:href="#DejaVuSans-6c"/>
     </g>
    </g>
   </g>
  </g>
 </g>
 <defs>
  <clipPath id="p1f80da48f1">
   <rect height="166.32" width="223.2" x="36" y="25.92"/>
  </clipPath>
 </defs>
</svg>
