<?xml version="1.0" encoding="utf-8" standalone="no"?>
<!DOCTYPE svg PUBLIC "-//W3C//DTD SVG 1.1//EN"
  "http://www.w3.org/Graphics/SVG/1.1/DTD/svg11.dtd">
<!-- Created with matplotlib (http://matplotlib.org/) -->
<svg height="216pt" version="1.1" viewBox="0 0 288 216" width="288pt" xmlns="http://www.w3.org/2000/svg" xmlns:xlink="http://www.w3.org/1999/xlink">
 <defs>
  <style type="text/css">
*{stroke-linecap:butt;stroke-linejoin:round;}
  </style>
 </defs>
 <g id="figure_1">
  <g id="patch_1">
   <path d="M 0 216 
L 288 216 
L 288 0 
L 0 0 
z
" style="fill:#ffffff;"/>
  </g>
  <g id="axes_1">
   <g id="patch_2">
    <path d="M 36 192.24 
L 259.2 192.24 
L 259.2 25.92 
L 36 25.92 
z
" style="fill:#ffffff;"/>
   </g>
   <g id="PolyCollection_1">
    <path clip-path="url(#pe33c4def64)" d="M 99.21077 192.207131 
L 99.21077 192.24 
L 100.178561 192.24 
L 101.146353 192.24 
L 102.114144 192.24 
L 103.081935 192.24 
L 104.049726 192.24 
L 105.017518 192.24 
L 105.985309 192.24 
L 106.9531 192.24 
L 107.920891 192.24 
L 108.888682 192.24 
L 109.856474 192.24 
L 110.824265 192.24 
L 111.792056 192.24 
L 112.759847 192.24 
L 113.727639 192.24 
L 114.69543 192.24 
L 115.663221 192.24 
L 116.631012 192.24 
L 117.598803 192.24 
L 118.566595 192.24 
L 119.534386 192.24 
L 120.502177 192.24 
L 121.469968 192.24 
L 122.43776 192.24 
L 123.405551 192.24 
L 124.373342 192.24 
L 125.341133 192.24 
L 126.308924 192.24 
L 127.276716 192.24 
L 128.244507 192.24 
L 129.212298 192.24 
L 130.180089 192.24 
L 131.14788 192.24 
L 132.115672 192.24 
L 133.083463 192.24 
L 134.051254 192.24 
L 135.019045 192.24 
L 135.986837 192.24 
L 136.954628 192.24 
L 137.922419 192.24 
L 138.89021 192.24 
L 139.858001 192.24 
L 140.825793 192.24 
L 141.793584 192.24 
L 142.761375 192.24 
L 143.729166 192.24 
L 144.696958 192.24 
L 145.664749 192.24 
L 146.63254 192.24 
L 147.600331 192.24 
L 148.568122 192.24 
L 149.535914 192.24 
L 150.503705 192.24 
L 151.471496 192.24 
L 152.439287 192.24 
L 153.407079 192.24 
L 154.37487 192.24 
L 155.342661 192.24 
L 156.310452 192.24 
L 157.278243 192.24 
L 158.246035 192.24 
L 159.213826 192.24 
L 160.181617 192.24 
L 161.149408 192.24 
L 162.117199 192.24 
L 163.084991 192.24 
L 164.052782 192.24 
L 165.020573 192.24 
L 165.988364 192.24 
L 166.956156 192.24 
L 167.923947 192.24 
L 168.891738 192.24 
L 169.859529 192.24 
L 170.82732 192.24 
L 171.795112 192.24 
L 172.762903 192.24 
L 173.730694 192.24 
L 174.698485 192.24 
L 175.666277 192.24 
L 176.634068 192.24 
L 177.601859 192.24 
L 178.56965 192.24 
L 179.537441 192.24 
L 180.505233 192.24 
L 181.473024 192.24 
L 182.440815 192.24 
L 183.408606 192.24 
L 184.376398 192.24 
L 185.344189 192.24 
L 186.31198 192.24 
L 187.279771 192.24 
L 188.247562 192.24 
L 189.215354 192.24 
L 190.183145 192.24 
L 191.150936 192.24 
L 192.118727 192.24 
L 193.086518 192.24 
L 194.05431 192.24 
L 195.022101 192.24 
L 195.989892 192.24 
L 196.957683 192.24 
L 197.925475 192.24 
L 198.893266 192.24 
L 199.861057 192.24 
L 200.828848 192.24 
L 201.796639 192.24 
L 202.764431 192.24 
L 203.732222 192.24 
L 204.700013 192.24 
L 205.667804 192.24 
L 206.635596 192.24 
L 207.603387 192.24 
L 208.571178 192.24 
L 209.538969 192.24 
L 210.50676 192.24 
L 211.474552 192.24 
L 212.442343 192.24 
L 213.410134 192.24 
L 214.377925 192.24 
L 215.345716 192.24 
L 216.313508 192.24 
L 217.281299 192.24 
L 218.24909 192.24 
L 219.216881 192.24 
L 220.184673 192.24 
L 221.152464 192.24 
L 222.120255 192.24 
L 222.120255 192.207385 
L 222.120255 192.207385 
L 221.152464 192.183835 
L 220.184673 192.128726 
L 219.216881 192.028136 
L 218.24909 191.866425 
L 217.281299 191.633785 
L 216.313508 191.335575 
L 215.345716 190.999613 
L 214.377925 190.676176 
L 213.410134 190.427477 
L 212.442343 190.308626 
L 211.474552 190.34783 
L 210.50676 190.535526 
L 209.538969 190.828165 
L 208.571178 191.164602 
L 207.603387 191.486677 
L 206.635596 191.754608 
L 205.667804 191.952119 
L 204.700013 192.082184 
L 203.732222 192.157978 
L 202.764431 192.193688 
L 201.796639 192.197519 
L 200.828848 192.166886 
L 199.861057 192.084952 
L 198.893266 191.918763 
L 197.925475 191.621279 
L 196.957683 191.140908 
L 195.989892 190.440554 
L 195.022101 189.522764 
L 194.05431 188.450293 
L 193.086518 187.347649 
L 192.118727 186.374288 
L 191.150936 185.674328 
L 190.183145 185.322998 
L 189.215354 185.295366 
L 188.247562 185.472791 
L 187.279771 185.683196 
L 186.31198 185.755582 
L 185.344189 185.566294 
L 184.376398 185.063073 
L 183.408606 184.264847 
L 182.440815 183.243828 
L 181.473024 182.099575 
L 180.505233 180.933138 
L 179.537441 179.824869 
L 178.56965 178.815086 
L 177.601859 177.887284 
L 176.634068 176.959903 
L 175.666277 175.898337 
L 174.698485 174.553252 
L 173.730694 172.811883 
L 172.762903 170.628732 
L 171.795112 168.002121 
L 170.82732 164.893279 
L 169.859529 161.130254 
L 168.891738 156.36692 
L 167.923947 150.150409 
L 166.956156 142.090898 
L 165.988364 132.061073 
L 165.020573 120.324157 
L 164.052782 107.521782 
L 163.084991 94.526417 
L 162.117199 82.229347 
L 161.149408 71.353558 
L 160.181617 62.348529 
L 159.213826 55.374022 
L 158.246035 50.349095 
L 157.278243 47.040578 
L 156.310452 45.174056 
L 155.342661 44.54885 
L 154.37487 45.126013 
L 153.407079 47.052549 
L 152.439287 50.600905 
L 151.471496 56.037121 
L 150.503705 63.465411 
L 149.535914 72.712468 
L 148.568122 83.302505 
L 147.600331 94.537858 
L 146.63254 105.65482 
L 145.664749 115.991424 
L 144.696958 125.101729 
L 143.729166 132.782741 
L 142.761375 139.02748 
L 141.793584 143.95106 
L 140.825793 147.735314 
L 139.858001 150.606406 
L 138.89021 152.826211 
L 137.922419 154.669368 
L 136.954628 156.378456 
L 135.986837 158.118748 
L 135.019045 159.9638 
L 134.051254 161.923913 
L 133.083463 163.997427 
L 132.115672 166.206926 
L 131.14788 168.593819 
L 130.180089 171.17601 
L 129.212298 173.900214 
L 128.244507 176.624 
L 127.276716 179.143277 
L 126.308924 181.254569 
L 125.341133 182.824617 
L 124.373342 183.838569 
L 123.405551 184.40789 
L 122.43776 184.733793 
L 121.469968 185.037869 
L 120.502177 185.485398 
L 119.534386 186.132511 
L 118.566595 186.919747 
L 117.598803 187.713077 
L 116.631012 188.370387 
L 115.663221 188.80092 
L 114.69543 188.993106 
L 113.727639 189.00585 
L 112.759847 188.936387 
L 111.792056 188.884212 
L 110.824265 188.925149 
L 109.856474 189.099406 
L 108.888682 189.410455 
L 107.920891 189.83051 
L 106.9531 190.3105 
L 105.985309 190.793428 
L 105.017518 191.228633 
L 104.049726 191.582779 
L 103.081935 191.844059 
L 102.114144 192.019121 
L 101.146353 192.125392 
L 100.178561 192.182724 
L 99.21077 192.207131 
z
" style="fill:#808080;fill-opacity:0.25;"/>
   </g>
   <g id="PolyCollection_2">
    <path clip-path="url(#pe33c4def64)" d="M 83.6808 192.201594 
L 83.6808 192.24 
L 84.549595 192.24 
L 85.418391 192.24 
L 86.287186 192.24 
L 87.155981 192.24 
L 88.024777 192.24 
L 88.893572 192.24 
L 89.762368 192.24 
L 90.631163 192.24 
L 91.499958 192.24 
L 92.368754 192.24 
L 93.237549 192.24 
L 94.106344 192.24 
L 94.97514 192.24 
L 95.843935 192.24 
L 96.712731 192.24 
L 97.581526 192.24 
L 98.450321 192.24 
L 99.319117 192.24 
L 100.187912 192.24 
L 101.056708 192.24 
L 101.925503 192.24 
L 102.794298 192.24 
L 103.663094 192.24 
L 104.531889 192.24 
L 105.400685 192.24 
L 106.26948 192.24 
L 107.138275 192.24 
L 108.007071 192.24 
L 108.875866 192.24 
L 109.744661 192.24 
L 110.613457 192.24 
L 111.482252 192.24 
L 112.351048 192.24 
L 113.219843 192.24 
L 114.088638 192.24 
L 114.957434 192.24 
L 115.826229 192.24 
L 116.695025 192.24 
L 117.56382 192.24 
L 118.432615 192.24 
L 119.301411 192.24 
L 120.170206 192.24 
L 121.039002 192.24 
L 121.907797 192.24 
L 122.776592 192.24 
L 123.645388 192.24 
L 124.514183 192.24 
L 125.382978 192.24 
L 126.251774 192.24 
L 127.120569 192.24 
L 127.989365 192.24 
L 128.85816 192.24 
L 129.726955 192.24 
L 130.595751 192.24 
L 131.464546 192.24 
L 132.333342 192.24 
L 133.202137 192.24 
L 134.070932 192.24 
L 134.939728 192.24 
L 135.808523 192.24 
L 136.677319 192.24 
L 137.546114 192.24 
L 138.414909 192.24 
L 139.283705 192.24 
L 140.1525 192.24 
L 141.021295 192.24 
L 141.890091 192.24 
L 142.758886 192.24 
L 143.627682 192.24 
L 144.496477 192.24 
L 145.365272 192.24 
L 146.234068 192.24 
L 147.102863 192.24 
L 147.971659 192.24 
L 148.840454 192.24 
L 149.709249 192.24 
L 150.578045 192.24 
L 151.44684 192.24 
L 152.315636 192.24 
L 153.184431 192.24 
L 154.053226 192.24 
L 154.922022 192.24 
L 155.790817 192.24 
L 156.659613 192.24 
L 157.528408 192.24 
L 158.397203 192.24 
L 159.265999 192.24 
L 160.134794 192.24 
L 161.003589 192.24 
L 161.872385 192.24 
L 162.74118 192.24 
L 163.609976 192.24 
L 164.478771 192.24 
L 165.347566 192.24 
L 166.216362 192.24 
L 167.085157 192.24 
L 167.953953 192.24 
L 168.822748 192.24 
L 169.691543 192.24 
L 170.560339 192.24 
L 171.429134 192.24 
L 172.29793 192.24 
L 173.166725 192.24 
L 174.03552 192.24 
L 174.904316 192.24 
L 175.773111 192.24 
L 176.641906 192.24 
L 177.510702 192.24 
L 178.379497 192.24 
L 179.248293 192.24 
L 180.117088 192.24 
L 180.985883 192.24 
L 181.854679 192.24 
L 182.723474 192.24 
L 183.59227 192.24 
L 184.461065 192.24 
L 185.32986 192.24 
L 186.198656 192.24 
L 187.067451 192.24 
L 187.936247 192.24 
L 188.805042 192.24 
L 189.673837 192.24 
L 190.542633 192.24 
L 191.411428 192.24 
L 192.280223 192.24 
L 193.149019 192.24 
L 194.017814 192.24 
L 194.017814 192.207834 
L 194.017814 192.207834 
L 193.149019 192.196521 
L 192.280223 192.16603 
L 191.411428 192.110798 
L 190.542633 192.022819 
L 189.673837 191.893695 
L 188.805042 191.717152 
L 187.936247 191.491374 
L 187.067451 191.220012 
L 186.198656 190.910602 
L 185.32986 190.569756 
L 184.461065 190.195801 
L 183.59227 189.771137 
L 182.723474 189.257548 
L 181.854679 188.597408 
L 180.985883 187.721977 
L 180.117088 186.565191 
L 179.248293 185.078827 
L 178.379497 183.243614 
L 177.510702 181.071675 
L 176.641906 178.598462 
L 175.773111 175.866299 
L 174.904316 172.905062 
L 174.03552 169.717004 
L 173.166725 166.271136 
L 172.29793 162.508725 
L 171.429134 158.35704 
L 170.560339 153.745814 
L 169.691543 148.621265 
L 168.822748 142.955184 
L 167.953953 136.749568 
L 167.085157 130.038524 
L 166.216362 122.888177 
L 165.347566 115.393423 
L 164.478771 107.669769 
L 163.609976 99.840376 
L 162.74118 92.022112 
L 161.872385 84.317402 
L 161.003589 76.818302 
L 160.134794 69.624574 
L 159.265999 62.870429 
L 158.397203 56.748713 
L 157.528408 51.520029 
L 156.659613 47.498555 
L 155.790817 45.014055 
L 154.922022 44.35734 
L 154.053226 45.721493 
L 153.184431 49.152848 
L 152.315636 54.524314 
L 151.44684 61.53963 
L 150.578045 69.770305 
L 149.709249 78.718178 
L 148.840454 87.888264 
L 147.971659 96.852984 
L 147.102863 105.292696 
L 146.234068 113.007454 
L 145.365272 119.905969 
L 144.496477 125.983765 
L 143.627682 131.300825 
L 142.758886 135.962102 
L 141.890091 140.09803 
L 141.021295 143.841315 
L 140.1525 147.301039 
L 139.283705 150.541234 
L 138.414909 153.573307 
L 137.546114 156.367713 
L 136.677319 158.882087 
L 135.808523 161.095429 
L 134.939728 163.034832 
L 134.070932 164.783958 
L 133.202137 166.469362 
L 132.333342 168.228702 
L 131.464546 170.17121 
L 130.595751 172.343306 
L 129.726955 174.710461 
L 128.85816 177.1609 
L 127.989365 179.529554 
L 127.120569 181.634637 
L 126.251774 183.316399 
L 125.382978 184.46855 
L 124.514183 185.056376 
L 123.645388 185.119685 
L 122.776592 184.762053 
L 121.907797 184.1299 
L 121.039002 183.386092 
L 120.170206 182.683293 
L 119.301411 182.14211 
L 118.432615 181.83795 
L 117.56382 181.798348 
L 116.695025 182.009869 
L 115.826229 182.431369 
L 114.957434 183.009231 
L 114.088638 183.690497 
L 113.219843 184.431306 
L 112.351048 185.200018 
L 111.482252 185.976019 
L 110.613457 186.746017 
L 109.744661 187.499549 
L 108.875866 188.224933 
L 108.007071 188.90632 
L 107.138275 189.522141 
L 106.26948 190.045066 
L 105.400685 190.443495 
L 104.531889 190.684587 
L 103.663094 190.738786 
L 102.794298 190.585779 
L 101.925503 190.221478 
L 101.056708 189.664922 
L 100.187912 188.963046 
L 99.319117 188.190744 
L 98.450321 187.444113 
L 97.581526 186.826598 
L 96.712731 186.430378 
L 95.843935 186.317687 
L 94.97514 186.507607 
L 94.106344 186.972587 
L 93.237549 187.645892 
L 92.368754 188.437625 
L 91.499958 189.254351 
L 90.631163 190.016657 
L 89.762368 190.670396 
L 88.893572 191.189951 
L 88.024777 191.57458 
L 87.155981 191.84063 
L 86.287186 192.012781 
L 85.418391 192.116718 
L 84.549595 192.174359 
L 83.6808 192.201594 
z
" style="fill:#ffd700;fill-opacity:0.25;"/>
   </g>
   <g id="matplotlib.axis_1">
    <g id="xtick_1">
     <g id="line2d_1">
      <defs>
       <path d="M 0 0 
L 0 3.5 
" id="mf9847d1e95" style="stroke:#000000;stroke-width:0.8;"/>
      </defs>
      <g>
       <use style="stroke:#000000;stroke-width:0.8;" x="58.32" xlink:href="#mf9847d1e95" y="192.24"/>
      </g>
     </g>
     <g id="text_1">
      <!-- −0.02 -->
      <defs>
       <path d="M 10.59375 35.5 
L 73.1875 35.5 
L 73.1875 27.203125 
L 10.59375 27.203125 
z
" id="DejaVuSans-2212"/>
       <path d="M 31.78125 66.40625 
Q 24.171875 66.40625 20.328125 58.90625 
Q 16.5 51.421875 16.5 36.375 
Q 16.5 21.390625 20.328125 13.890625 
Q 24.171875 6.390625 31.78125 6.390625 
Q 39.453125 6.390625 43.28125 13.890625 
Q 47.125 21.390625 47.125 36.375 
Q 47.125 51.421875 43.28125 58.90625 
Q 39.453125 66.40625 31.78125 66.40625 
z
M 31.78125 74.21875 
Q 44.046875 74.21875 50.515625 64.515625 
Q 56.984375 54.828125 56.984375 36.375 
Q 56.984375 17.96875 50.515625 8.265625 
Q 44.046875 -1.421875 31.78125 -1.421875 
Q 19.53125 -1.421875 13.0625 8.265625 
Q 6.59375 17.96875 6.59375 36.375 
Q 6.59375 54.828125 13.0625 64.515625 
Q 19.53125 74.21875 31.78125 74.21875 
z
" id="DejaVuSans-30"/>
       <path d="M 10.6875 12.40625 
L 21 12.40625 
L 21 0 
L 10.6875 0 
z
" id="DejaVuSans-2e"/>
       <path d="M 19.1875 8.296875 
L 53.609375 8.296875 
L 53.609375 0 
L 7.328125 0 
L 7.328125 8.296875 
Q 12.9375 14.109375 22.625 23.890625 
Q 32.328125 33.6875 34.8125 36.53125 
Q 39.546875 41.84375 41.421875 45.53125 
Q 43.3125 49.21875 43.3125 52.78125 
Q 43.3125 58.59375 39.234375 62.25 
Q 35.15625 65.921875 28.609375 65.921875 
Q 23.96875 65.921875 18.8125 64.3125 
Q 13.671875 62.703125 7.8125 59.421875 
L 7.8125 69.390625 
Q 13.765625 71.78125 18.9375 73 
Q 24.125 74.21875 28.421875 74.21875 
Q 39.75 74.21875 46.484375 68.546875 
Q 53.21875 62.890625 53.21875 53.421875 
Q 53.21875 48.921875 51.53125 44.890625 
Q 49.859375 40.875 45.40625 35.40625 
Q 44.1875 33.984375 37.640625 27.21875 
Q 31.109375 20.453125 19.1875 8.296875 
z
" id="DejaVuSans-32"/>
      </defs>
      <g transform="translate(42.997344 206.838437)scale(0.1 -0.1)">
       <use xlink:href="#DejaVuSans-2212"/>
       <use x="83.789062" xlink:href="#DejaVuSans-30"/>
       <use x="147.412109" xlink:href="#DejaVuSans-2e"/>
       <use x="179.199219" xlink:href="#DejaVuSans-30"/>
       <use x="242.822266" xlink:href="#DejaVuSans-32"/>
      </g>
     </g>
    </g>
    <g id="xtick_2">
     <g id="line2d_2">
      <g>
       <use style="stroke:#000000;stroke-width:0.8;" x="102.96" xlink:href="#mf9847d1e95" y="192.24"/>
      </g>
     </g>
     <g id="text_2">
      <!-- −0.01 -->
      <defs>
       <path d="M 12.40625 8.296875 
L 28.515625 8.296875 
L 28.515625 63.921875 
L 10.984375 60.40625 
L 10.984375 69.390625 
L 28.421875 72.90625 
L 38.28125 72.90625 
L 38.28125 8.296875 
L 54.390625 8.296875 
L 54.390625 0 
L 12.40625 0 
z
" id="DejaVuSans-31"/>
      </defs>
      <g transform="translate(87.637344 206.838437)scale(0.1 -0.1)">
       <use xlink:href="#DejaVuSans-2212"/>
       <use x="83.789062" xlink:href="#DejaVuSans-30"/>
       <use x="147.412109" xlink:href="#DejaVuSans-2e"/>
       <use x="179.199219" xlink:href="#DejaVuSans-30"/>
       <use x="242.822266" xlink:href="#DejaVuSans-31"/>
      </g>
     </g>
    </g>
    <g id="xtick_3">
     <g id="line2d_3">
      <g>
       <use style="stroke:#000000;stroke-width:0.8;" x="147.6" xlink:href="#mf9847d1e95" y="192.24"/>
      </g>
     </g>
     <g id="text_3">
      <!-- 0.00 -->
      <g transform="translate(136.467187 206.838437)scale(0.1 -0.1)">
       <use xlink:href="#DejaVuSans-30"/>
       <use x="63.623047" xlink:href="#DejaVuSans-2e"/>
       <use x="95.410156" xlink:href="#DejaVuSans-30"/>
       <use x="159.033203" xlink:href="#DejaVuSans-30"/>
      </g>
     </g>
    </g>
    <g id="xtick_4">
     <g id="line2d_4">
      <g>
       <use style="stroke:#000000;stroke-width:0.8;" x="192.24" xlink:href="#mf9847d1e95" y="192.24"/>
      </g>
     </g>
     <g id="text_4">
      <!-- 0.01 -->
      <g transform="translate(181.107188 206.838437)scale(0.1 -0.1)">
       <use xlink:href="#DejaVuSans-30"/>
       <use x="63.623047" xlink:href="#DejaVuSans-2e"/>
       <use x="95.410156" xlink:href="#DejaVuSans-30"/>
       <use x="159.033203" xlink:href="#DejaVuSans-31"/>
      </g>
     </g>
    </g>
    <g id="xtick_5">
     <g id="line2d_5">
      <g>
       <use style="stroke:#000000;stroke-width:0.8;" x="236.88" xlink:href="#mf9847d1e95" y="192.24"/>
      </g>
     </g>
     <g id="text_5">
      <!-- 0.02 -->
      <g transform="translate(225.747187 206.838437)scale(0.1 -0.1)">
       <use xlink:href="#DejaVuSans-30"/>
       <use x="63.623047" xlink:href="#DejaVuSans-2e"/>
       <use x="95.410156" xlink:href="#DejaVuSans-30"/>
       <use x="159.033203" xlink:href="#DejaVuSans-32"/>
      </g>
     </g>
    </g>
    <g id="text_6">
     <!-- DIP Rate -->
     <defs>
      <path d="M 19.671875 64.796875 
L 19.671875 8.109375 
L 31.59375 8.109375 
Q 46.6875 8.109375 53.6875 14.9375 
Q 60.6875 21.78125 60.6875 36.53125 
Q 60.6875 51.171875 53.6875 57.984375 
Q 46.6875 64.796875 31.59375 64.796875 
z
M 9.8125 72.90625 
L 30.078125 72.90625 
Q 51.265625 72.90625 61.171875 64.09375 
Q 71.09375 55.28125 71.09375 36.53125 
Q 71.09375 17.671875 61.125 8.828125 
Q 51.171875 0 30.078125 0 
L 9.8125 0 
z
" id="DejaVuSans-44"/>
      <path d="M 9.8125 72.90625 
L 19.671875 72.90625 
L 19.671875 0 
L 9.8125 0 
z
" id="DejaVuSans-49"/>
      <path d="M 19.671875 64.796875 
L 19.671875 37.40625 
L 32.078125 37.40625 
Q 38.96875 37.40625 42.71875 40.96875 
Q 46.484375 44.53125 46.484375 51.125 
Q 46.484375 57.671875 42.71875 61.234375 
Q 38.96875 64.796875 32.078125 64.796875 
z
M 9.8125 72.90625 
L 32.078125 72.90625 
Q 44.34375 72.90625 50.609375 67.359375 
Q 56.890625 61.8125 56.890625 51.125 
Q 56.890625 40.328125 50.609375 34.8125 
Q 44.34375 29.296875 32.078125 29.296875 
L 19.671875 29.296875 
L 19.671875 0 
L 9.8125 0 
z
" id="DejaVuSans-50"/>
      <path id="DejaVuSans-20"/>
      <path d="M 44.390625 34.1875 
Q 47.5625 33.109375 50.5625 29.59375 
Q 53.5625 26.078125 56.59375 19.921875 
L 66.609375 0 
L 56 0 
L 46.6875 18.703125 
Q 43.0625 26.03125 39.671875 28.421875 
Q 36.28125 30.8125 30.421875 30.8125 
L 19.671875 30.8125 
L 19.671875 0 
L 9.8125 0 
L 9.8125 72.90625 
L 32.078125 72.90625 
Q 44.578125 72.90625 50.734375 67.671875 
Q 56.890625 62.453125 56.890625 51.90625 
Q 56.890625 45.015625 53.6875 40.46875 
Q 50.484375 35.9375 44.390625 34.1875 
z
M 19.671875 64.796875 
L 19.671875 38.921875 
L 32.078125 38.921875 
Q 39.203125 38.921875 42.84375 42.21875 
Q 46.484375 45.515625 46.484375 51.90625 
Q 46.484375 58.296875 42.84375 61.546875 
Q 39.203125 64.796875 32.078125 64.796875 
z
" id="DejaVuSans-52"/>
      <path d="M 34.28125 27.484375 
Q 23.390625 27.484375 19.1875 25 
Q 14.984375 22.515625 14.984375 16.5 
Q 14.984375 11.71875 18.140625 8.90625 
Q 21.296875 6.109375 26.703125 6.109375 
Q 34.1875 6.109375 38.703125 11.40625 
Q 43.21875 16.703125 43.21875 25.484375 
L 43.21875 27.484375 
z
M 52.203125 31.203125 
L 52.203125 0 
L 43.21875 0 
L 43.21875 8.296875 
Q 40.140625 3.328125 35.546875 0.953125 
Q 30.953125 -1.421875 24.3125 -1.421875 
Q 15.921875 -1.421875 10.953125 3.296875 
Q 6 8.015625 6 15.921875 
Q 6 25.140625 12.171875 29.828125 
Q 18.359375 34.515625 30.609375 34.515625 
L 43.21875 34.515625 
L 43.21875 35.40625 
Q 43.21875 41.609375 39.140625 45 
Q 35.0625 48.390625 27.6875 48.390625 
Q 23 48.390625 18.546875 47.265625 
Q 14.109375 46.140625 10.015625 43.890625 
L 10.015625 52.203125 
Q 14.9375 54.109375 19.578125 55.046875 
Q 24.21875 56 28.609375 56 
Q 40.484375 56 46.34375 49.84375 
Q 52.203125 43.703125 52.203125 31.203125 
z
" id="DejaVuSans-61"/>
      <path d="M 18.3125 70.21875 
L 18.3125 54.6875 
L 36.8125 54.6875 
L 36.8125 47.703125 
L 18.3125 47.703125 
L 18.3125 18.015625 
Q 18.3125 11.328125 20.140625 9.421875 
Q 21.96875 7.515625 27.59375 7.515625 
L 36.8125 7.515625 
L 36.8125 0 
L 27.59375 0 
Q 17.1875 0 13.234375 3.875 
Q 9.28125 7.765625 9.28125 18.015625 
L 9.28125 47.703125 
L 2.6875 47.703125 
L 2.6875 54.6875 
L 9.28125 54.6875 
L 9.28125 70.21875 
z
" id="DejaVuSans-74"/>
      <path d="M 56.203125 29.59375 
L 56.203125 25.203125 
L 14.890625 25.203125 
Q 15.484375 15.921875 20.484375 11.0625 
Q 25.484375 6.203125 34.421875 6.203125 
Q 39.59375 6.203125 44.453125 7.46875 
Q 49.3125 8.734375 54.109375 11.28125 
L 54.109375 2.78125 
Q 49.265625 0.734375 44.1875 -0.34375 
Q 39.109375 -1.421875 33.890625 -1.421875 
Q 20.796875 -1.421875 13.15625 6.1875 
Q 5.515625 13.8125 5.515625 26.8125 
Q 5.515625 40.234375 12.765625 48.109375 
Q 20.015625 56 32.328125 56 
Q 43.359375 56 49.78125 48.890625 
Q 56.203125 41.796875 56.203125 29.59375 
z
M 47.21875 32.234375 
Q 47.125 39.59375 43.09375 43.984375 
Q 39.0625 48.390625 32.421875 48.390625 
Q 24.90625 48.390625 20.390625 44.140625 
Q 15.875 39.890625 15.1875 32.171875 
z
" id="DejaVuSans-65"/>
     </defs>
     <g transform="translate(126.097656 220.516562)scale(0.1 -0.1)">
      <use xlink:href="#DejaVuSans-44"/>
      <use x="77.001953" xlink:href="#DejaVuSans-49"/>
      <use x="106.494141" xlink:href="#DejaVuSans-50"/>
      <use x="166.796875" xlink:href="#DejaVuSans-20"/>
      <use x="198.583984" xlink:href="#DejaVuSans-52"/>
      <use x="268.035156" xlink:href="#DejaVuSans-61"/>
      <use x="329.314453" xlink:href="#DejaVuSans-74"/>
      <use x="368.523438" xlink:href="#DejaVuSans-65"/>
     </g>
    </g>
   </g>
   <g id="matplotlib.axis_2">
    <g id="ytick_1">
     <g id="line2d_6">
      <defs>
       <path d="M 0 0 
L -3.5 0 
" id="md351a23c5a" style="stroke:#000000;stroke-width:0.8;"/>
      </defs>
      <g>
       <use style="stroke:#000000;stroke-width:0.8;" x="36" xlink:href="#md351a23c5a" y="192.24"/>
      </g>
     </g>
     <g id="text_7">
      <!-- 0 -->
      <g transform="translate(22.6375 196.039219)scale(0.1 -0.1)">
       <use xlink:href="#DejaVuSans-30"/>
      </g>
     </g>
    </g>
    <g id="ytick_2">
     <g id="line2d_7">
      <g>
       <use style="stroke:#000000;stroke-width:0.8;" x="36" xlink:href="#md351a23c5a" y="171.45"/>
      </g>
     </g>
     <g id="text_8">
      <!-- 25 -->
      <defs>
       <path d="M 10.796875 72.90625 
L 49.515625 72.90625 
L 49.515625 64.59375 
L 19.828125 64.59375 
L 19.828125 46.734375 
Q 21.96875 47.46875 24.109375 47.828125 
Q 26.265625 48.1875 28.421875 48.1875 
Q 40.625 48.1875 47.75 41.5 
Q 54.890625 34.8125 54.890625 23.390625 
Q 54.890625 11.625 47.5625 5.09375 
Q 40.234375 -1.421875 26.90625 -1.421875 
Q 22.3125 -1.421875 17.546875 -0.640625 
Q 12.796875 0.140625 7.71875 1.703125 
L 7.71875 11.625 
Q 12.109375 9.234375 16.796875 8.0625 
Q 21.484375 6.890625 26.703125 6.890625 
Q 35.15625 6.890625 40.078125 11.328125 
Q 45.015625 15.765625 45.015625 23.390625 
Q 45.015625 31 40.078125 35.4375 
Q 35.15625 39.890625 26.703125 39.890625 
Q 22.75 39.890625 18.8125 39.015625 
Q 14.890625 38.140625 10.796875 36.28125 
z
" id="DejaVuSans-35"/>
      </defs>
      <g transform="translate(16.275 175.249219)scale(0.1 -0.1)">
       <use xlink:href="#DejaVuSans-32"/>
       <use x="63.623047" xlink:href="#DejaVuSans-35"/>
      </g>
     </g>
    </g>
    <g id="ytick_3">
     <g id="line2d_8">
      <g>
       <use style="stroke:#000000;stroke-width:0.8;" x="36" xlink:href="#md351a23c5a" y="150.66"/>
      </g>
     </g>
     <g id="text_9">
      <!-- 50 -->
      <g transform="translate(16.275 154.459219)scale(0.1 -0.1)">
       <use xlink:href="#DejaVuSans-35"/>
       <use x="63.623047" xlink:href="#DejaVuSans-30"/>
      </g>
     </g>
    </g>
    <g id="ytick_4">
     <g id="line2d_9">
      <g>
       <use style="stroke:#000000;stroke-width:0.8;" x="36" xlink:href="#md351a23c5a" y="129.87"/>
      </g>
     </g>
     <g id="text_10">
      <!-- 75 -->
      <defs>
       <path d="M 8.203125 72.90625 
L 55.078125 72.90625 
L 55.078125 68.703125 
L 28.609375 0 
L 18.3125 0 
L 43.21875 64.59375 
L 8.203125 64.59375 
z
" id="DejaVuSans-37"/>
      </defs>
      <g transform="translate(16.275 133.669219)scale(0.1 -0.1)">
       <use xlink:href="#DejaVuSans-37"/>
       <use x="63.623047" xlink:href="#DejaVuSans-35"/>
      </g>
     </g>
    </g>
    <g id="ytick_5">
     <g id="line2d_10">
      <g>
       <use style="stroke:#000000;stroke-width:0.8;" x="36" xlink:href="#md351a23c5a" y="109.08"/>
      </g>
     </g>
     <g id="text_11">
      <!-- 100 -->
      <g transform="translate(9.9125 112.879219)scale(0.1 -0.1)">
       <use xlink:href="#DejaVuSans-31"/>
       <use x="63.623047" xlink:href="#DejaVuSans-30"/>
       <use x="127.246094" xlink:href="#DejaVuSans-30"/>
      </g>
     </g>
    </g>
    <g id="ytick_6">
     <g id="line2d_11">
      <g>
       <use style="stroke:#000000;stroke-width:0.8;" x="36" xlink:href="#md351a23c5a" y="88.29"/>
      </g>
     </g>
     <g id="text_12">
      <!-- 125 -->
      <g transform="translate(9.9125 92.089219)scale(0.1 -0.1)">
       <use xlink:href="#DejaVuSans-31"/>
       <use x="63.623047" xlink:href="#DejaVuSans-32"/>
       <use x="127.246094" xlink:href="#DejaVuSans-35"/>
      </g>
     </g>
    </g>
    <g id="ytick_7">
     <g id="line2d_12">
      <g>
       <use style="stroke:#000000;stroke-width:0.8;" x="36" xlink:href="#md351a23c5a" y="67.5"/>
      </g>
     </g>
     <g id="text_13">
      <!-- 150 -->
      <g transform="translate(9.9125 71.299219)scale(0.1 -0.1)">
       <use xlink:href="#DejaVuSans-31"/>
       <use x="63.623047" xlink:href="#DejaVuSans-35"/>
       <use x="127.246094" xlink:href="#DejaVuSans-30"/>
      </g>
     </g>
    </g>
    <g id="ytick_8">
     <g id="line2d_13">
      <g>
       <use style="stroke:#000000;stroke-width:0.8;" x="36" xlink:href="#md351a23c5a" y="46.71"/>
      </g>
     </g>
     <g id="text_14">
      <!-- 175 -->
      <g transform="translate(9.9125 50.509219)scale(0.1 -0.1)">
       <use xlink:href="#DejaVuSans-31"/>
       <use x="63.623047" xlink:href="#DejaVuSans-37"/>
       <use x="127.246094" xlink:href="#DejaVuSans-35"/>
      </g>
     </g>
    </g>
    <g id="ytick_9">
     <g id="line2d_14">
      <g>
       <use style="stroke:#000000;stroke-width:0.8;" x="36" xlink:href="#md351a23c5a" y="25.92"/>
      </g>
     </g>
     <g id="text_15">
      <!-- 200 -->
      <g transform="translate(9.9125 29.719219)scale(0.1 -0.1)">
       <use xlink:href="#DejaVuSans-32"/>
       <use x="63.623047" xlink:href="#DejaVuSans-30"/>
       <use x="127.246094" xlink:href="#DejaVuSans-30"/>
      </g>
     </g>
    </g>
    <g id="text_16">
     <!-- Density -->
     <defs>
      <path d="M 54.890625 33.015625 
L 54.890625 0 
L 45.90625 0 
L 45.90625 32.71875 
Q 45.90625 40.484375 42.875 44.328125 
Q 39.84375 48.1875 33.796875 48.1875 
Q 26.515625 48.1875 22.3125 43.546875 
Q 18.109375 38.921875 18.109375 30.90625 
L 18.109375 0 
L 9.078125 0 
L 9.078125 54.6875 
L 18.109375 54.6875 
L 18.109375 46.1875 
Q 21.34375 51.125 25.703125 53.5625 
Q 30.078125 56 35.796875 56 
Q 45.21875 56 50.046875 50.171875 
Q 54.890625 44.34375 54.890625 33.015625 
z
" id="DejaVuSans-6e"/>
      <path d="M 44.28125 53.078125 
L 44.28125 44.578125 
Q 40.484375 46.53125 36.375 47.5 
Q 32.28125 48.484375 27.875 48.484375 
Q 21.1875 48.484375 17.84375 46.4375 
Q 14.5 44.390625 14.5 40.28125 
Q 14.5 37.15625 16.890625 35.375 
Q 19.28125 33.59375 26.515625 31.984375 
L 29.59375 31.296875 
Q 39.15625 29.25 43.1875 25.515625 
Q 47.21875 21.78125 47.21875 15.09375 
Q 47.21875 7.46875 41.1875 3.015625 
Q 35.15625 -1.421875 24.609375 -1.421875 
Q 20.21875 -1.421875 15.453125 -0.5625 
Q 10.6875 0.296875 5.421875 2 
L 5.421875 11.28125 
Q 10.40625 8.6875 15.234375 7.390625 
Q 20.0625 6.109375 24.8125 6.109375 
Q 31.15625 6.109375 34.5625 8.28125 
Q 37.984375 10.453125 37.984375 14.40625 
Q 37.984375 18.0625 35.515625 20.015625 
Q 33.0625 21.96875 24.703125 23.78125 
L 21.578125 24.515625 
Q 13.234375 26.265625 9.515625 29.90625 
Q 5.8125 33.546875 5.8125 39.890625 
Q 5.8125 47.609375 11.28125 51.796875 
Q 16.75 56 26.8125 56 
Q 31.78125 56 36.171875 55.265625 
Q 40.578125 54.546875 44.28125 53.078125 
z
" id="DejaVuSans-73"/>
      <path d="M 9.421875 54.6875 
L 18.40625 54.6875 
L 18.40625 0 
L 9.421875 0 
z
M 9.421875 75.984375 
L 18.40625 75.984375 
L 18.40625 64.59375 
L 9.421875 64.59375 
z
" id="DejaVuSans-69"/>
      <path d="M 32.171875 -5.078125 
Q 28.375 -14.84375 24.75 -17.8125 
Q 21.140625 -20.796875 15.09375 -20.796875 
L 7.90625 -20.796875 
L 7.90625 -13.28125 
L 13.1875 -13.28125 
Q 16.890625 -13.28125 18.9375 -11.515625 
Q 21 -9.765625 23.484375 -3.21875 
L 25.09375 0.875 
L 2.984375 54.6875 
L 12.5 54.6875 
L 29.59375 11.921875 
L 46.6875 54.6875 
L 56.203125 54.6875 
z
" id="DejaVuSans-79"/>
     </defs>
     <g transform="translate(3.832812 128.088594)rotate(-90)scale(0.1 -0.1)">
      <use xlink:href="#DejaVuSans-44"/>
      <use x="77.001953" xlink:href="#DejaVuSans-65"/>
      <use x="138.525391" xlink:href="#DejaVuSans-6e"/>
      <use x="201.904297" xlink:href="#DejaVuSans-73"/>
      <use x="254.003906" xlink:href="#DejaVuSans-69"/>
      <use x="281.787109" xlink:href="#DejaVuSans-74"/>
      <use x="320.996094" xlink:href="#DejaVuSans-79"/>
     </g>
    </g>
   </g>
   <g id="line2d_15">
    <path clip-path="url(#pe33c4def64)" d="M 99.21077 192.207131 
L 101.146353 192.125392 
L 103.081935 191.844059 
L 105.017518 191.228633 
L 109.856474 189.099406 
L 110.824265 188.925149 
L 112.759847 188.936387 
L 114.69543 188.993106 
L 115.663221 188.80092 
L 116.631012 188.370387 
L 117.598803 187.713077 
L 119.534386 186.132511 
L 120.502177 185.485398 
L 121.469968 185.037869 
L 123.405551 184.40789 
L 124.373342 183.838569 
L 125.341133 182.824617 
L 126.308924 181.254569 
L 127.276716 179.143277 
L 129.212298 173.900214 
L 131.14788 168.593819 
L 133.083463 163.997427 
L 135.019045 159.9638 
L 136.954628 156.378456 
L 138.89021 152.826211 
L 139.858001 150.606406 
L 140.825793 147.735314 
L 141.793584 143.95106 
L 142.761375 139.02748 
L 143.729166 132.782741 
L 144.696958 125.101729 
L 145.664749 115.991424 
L 147.600331 94.537858 
L 149.535914 72.712468 
L 150.503705 63.465411 
L 151.471496 56.037121 
L 152.439287 50.600905 
L 153.407079 47.052549 
L 154.37487 45.126013 
L 155.342661 44.54885 
L 156.310452 45.174056 
L 157.278243 47.040578 
L 158.246035 50.349095 
L 159.213826 55.374022 
L 160.181617 62.348529 
L 161.149408 71.353558 
L 162.117199 82.229347 
L 165.988364 132.061073 
L 166.956156 142.090898 
L 167.923947 150.150409 
L 168.891738 156.36692 
L 169.859529 161.130254 
L 170.82732 164.893279 
L 171.795112 168.002121 
L 172.762903 170.628732 
L 173.730694 172.811883 
L 174.698485 174.553252 
L 175.666277 175.898337 
L 177.601859 177.887284 
L 179.537441 179.824869 
L 183.408606 184.264847 
L 184.376398 185.063073 
L 185.344189 185.566294 
L 186.31198 185.755582 
L 187.279771 185.683196 
L 189.215354 185.295366 
L 190.183145 185.322998 
L 191.150936 185.674328 
L 192.118727 186.374288 
L 194.05431 188.450293 
L 195.989892 190.440554 
L 196.957683 191.140908 
L 197.925475 191.621279 
L 198.893266 191.918763 
L 200.828848 192.166886 
L 203.732222 192.157978 
L 205.667804 191.952119 
L 207.603387 191.486677 
L 210.50676 190.535526 
L 211.474552 190.34783 
L 212.442343 190.308626 
L 213.410134 190.427477 
L 215.345716 190.999613 
L 217.281299 191.633785 
L 219.216881 192.028136 
L 221.152464 192.183835 
L 222.120255 192.207385 
L 222.120255 192.207385 
" style="fill:none;stroke:#808080;stroke-linecap:square;stroke-width:1.5;"/>
   </g>
   <g id="line2d_16">
    <path clip-path="url(#pe33c4def64)" d="M 83.6808 192.201594 
L 86.287186 192.012781 
L 88.024777 191.57458 
L 88.893572 191.189951 
L 89.762368 190.670396 
L 91.499958 189.254351 
L 93.237549 187.645892 
L 94.106344 186.972587 
L 94.97514 186.507607 
L 95.843935 186.317687 
L 96.712731 186.430378 
L 97.581526 186.826598 
L 99.319117 188.190744 
L 101.056708 189.664922 
L 101.925503 190.221478 
L 102.794298 190.585779 
L 103.663094 190.738786 
L 104.531889 190.684587 
L 105.400685 190.443495 
L 106.26948 190.045066 
L 108.007071 188.90632 
L 110.613457 186.746017 
L 114.957434 183.009231 
L 115.826229 182.431369 
L 116.695025 182.009869 
L 117.56382 181.798348 
L 118.432615 181.83795 
L 119.301411 182.14211 
L 120.170206 182.683293 
L 122.776592 184.762053 
L 123.645388 185.119685 
L 124.514183 185.056376 
L 125.382978 184.46855 
L 126.251774 183.316399 
L 127.120569 181.634637 
L 128.85816 177.1609 
L 130.595751 172.343306 
L 132.333342 168.228702 
L 135.808523 161.095429 
L 137.546114 156.367713 
L 139.283705 150.541234 
L 141.021295 143.841315 
L 142.758886 135.962102 
L 143.627682 131.300825 
L 144.496477 125.983765 
L 145.365272 119.905969 
L 147.102863 105.292696 
L 148.840454 87.888264 
L 151.44684 61.53963 
L 152.315636 54.524314 
L 153.184431 49.152848 
L 154.053226 45.721493 
L 154.922022 44.35734 
L 155.790817 45.014055 
L 156.659613 47.498555 
L 157.528408 51.520029 
L 158.397203 56.748713 
L 160.134794 69.624574 
L 162.74118 92.022112 
L 166.216362 122.888177 
L 167.953953 136.749568 
L 169.691543 148.621265 
L 171.429134 158.35704 
L 173.166725 166.271136 
L 174.904316 172.905062 
L 176.641906 178.598462 
L 178.379497 183.243614 
L 179.248293 185.078827 
L 180.117088 186.565191 
L 180.985883 187.721977 
L 181.854679 188.597408 
L 182.723474 189.257548 
L 184.461065 190.195801 
L 187.067451 191.220012 
L 188.805042 191.717152 
L 190.542633 192.022819 
L 193.149019 192.196521 
L 194.017814 192.207834 
L 194.017814 192.207834 
" style="fill:none;stroke:#ffd700;stroke-linecap:square;stroke-width:1.5;"/>
   </g>
   <g id="patch_3">
    <path d="M 36 192.24 
L 36 25.92 
" style="fill:none;stroke:#000000;stroke-linecap:square;stroke-linejoin:miter;stroke-width:0.8;"/>
   </g>
   <g id="patch_4">
    <path d="M 259.2 192.24 
L 259.2 25.92 
" style="fill:none;stroke:#000000;stroke-linecap:square;stroke-linejoin:miter;stroke-width:0.8;"/>
   </g>
   <g id="patch_5">
    <path d="M 36 192.24 
L 259.2 192.24 
" style="fill:none;stroke:#000000;stroke-linecap:square;stroke-linejoin:miter;stroke-width:0.8;"/>
   </g>
   <g id="patch_6">
    <path d="M 36 25.92 
L 259.2 25.92 
" style="fill:none;stroke:#000000;stroke-linecap:square;stroke-linejoin:miter;stroke-width:0.8;"/>
   </g>
   <g id="text_17">
    <!-- p=0.958 -->
    <defs>
     <path d="M 18.109375 8.203125 
L 18.109375 -20.796875 
L 9.078125 -20.796875 
L 9.078125 54.6875 
L 18.109375 54.6875 
L 18.109375 46.390625 
Q 20.953125 51.265625 25.265625 53.625 
Q 29.59375 56 35.59375 56 
Q 45.5625 56 51.78125 48.09375 
Q 58.015625 40.1875 58.015625 27.296875 
Q 58.015625 14.40625 51.78125 6.484375 
Q 45.5625 -1.421875 35.59375 -1.421875 
Q 29.59375 -1.421875 25.265625 0.953125 
Q 20.953125 3.328125 18.109375 8.203125 
z
M 48.6875 27.296875 
Q 48.6875 37.203125 44.609375 42.84375 
Q 40.53125 48.484375 33.40625 48.484375 
Q 26.265625 48.484375 22.1875 42.84375 
Q 18.109375 37.203125 18.109375 27.296875 
Q 18.109375 17.390625 22.1875 11.75 
Q 26.265625 6.109375 33.40625 6.109375 
Q 40.53125 6.109375 44.609375 11.75 
Q 48.6875 17.390625 48.6875 27.296875 
z
" id="DejaVuSans-70"/>
     <path d="M 10.59375 45.40625 
L 73.1875 45.40625 
L 73.1875 37.203125 
L 10.59375 37.203125 
z
M 10.59375 25.484375 
L 73.1875 25.484375 
L 73.1875 17.1875 
L 10.59375 17.1875 
z
" id="DejaVuSans-3d"/>
     <path d="M 10.984375 1.515625 
L 10.984375 10.5 
Q 14.703125 8.734375 18.5 7.8125 
Q 22.3125 6.890625 25.984375 6.890625 
Q 35.75 6.890625 40.890625 13.453125 
Q 46.046875 20.015625 46.78125 33.40625 
Q 43.953125 29.203125 39.59375 26.953125 
Q 35.25 24.703125 29.984375 24.703125 
Q 19.046875 24.703125 12.671875 31.3125 
Q 6.296875 37.9375 6.296875 49.421875 
Q 6.296875 60.640625 12.9375 67.421875 
Q 19.578125 74.21875 30.609375 74.21875 
Q 43.265625 74.21875 49.921875 64.515625 
Q 56.59375 54.828125 56.59375 36.375 
Q 56.59375 19.140625 48.40625 8.859375 
Q 40.234375 -1.421875 26.421875 -1.421875 
Q 22.703125 -1.421875 18.890625 -0.6875 
Q 15.09375 0.046875 10.984375 1.515625 
z
M 30.609375 32.421875 
Q 37.25 32.421875 41.125 36.953125 
Q 45.015625 41.5 45.015625 49.421875 
Q 45.015625 57.28125 41.125 61.84375 
Q 37.25 66.40625 30.609375 66.40625 
Q 23.96875 66.40625 20.09375 61.84375 
Q 16.21875 57.28125 16.21875 49.421875 
Q 16.21875 41.5 20.09375 36.953125 
Q 23.96875 32.421875 30.609375 32.421875 
z
" id="DejaVuSans-39"/>
     <path d="M 31.78125 34.625 
Q 24.75 34.625 20.71875 30.859375 
Q 16.703125 27.09375 16.703125 20.515625 
Q 16.703125 13.921875 20.71875 10.15625 
Q 24.75 6.390625 31.78125 6.390625 
Q 38.8125 6.390625 42.859375 10.171875 
Q 46.921875 13.96875 46.921875 20.515625 
Q 46.921875 27.09375 42.890625 30.859375 
Q 38.875 34.625 31.78125 34.625 
z
M 21.921875 38.8125 
Q 15.578125 40.375 12.03125 44.71875 
Q 8.5 49.078125 8.5 55.328125 
Q 8.5 64.0625 14.71875 69.140625 
Q 20.953125 74.21875 31.78125 74.21875 
Q 42.671875 74.21875 48.875 69.140625 
Q 55.078125 64.0625 55.078125 55.328125 
Q 55.078125 49.078125 51.53125 44.71875 
Q 48 40.375 41.703125 38.8125 
Q 48.828125 37.15625 52.796875 32.3125 
Q 56.78125 27.484375 56.78125 20.515625 
Q 56.78125 9.90625 50.3125 4.234375 
Q 43.84375 -1.421875 31.78125 -1.421875 
Q 19.734375 -1.421875 13.25 4.234375 
Q 6.78125 9.90625 6.78125 20.515625 
Q 6.78125 27.484375 10.78125 32.3125 
Q 14.796875 37.15625 21.921875 38.8125 
z
M 18.3125 54.390625 
Q 18.3125 48.734375 21.84375 45.5625 
Q 25.390625 42.390625 31.78125 42.390625 
Q 38.140625 42.390625 41.71875 45.5625 
Q 45.3125 48.734375 45.3125 54.390625 
Q 45.3125 60.0625 41.71875 63.234375 
Q 38.140625 66.40625 31.78125 66.40625 
Q 25.390625 66.40625 21.84375 63.234375 
Q 18.3125 60.0625 18.3125 54.390625 
z
" id="DejaVuSans-38"/>
    </defs>
    <g transform="translate(178.848 67.5)scale(0.12 -0.12)">
     <use xlink:href="#DejaVuSans-70"/>
     <use x="63.476562" xlink:href="#DejaVuSans-3d"/>
     <use x="147.265625" xlink:href="#DejaVuSans-30"/>
     <use x="210.888672" xlink:href="#DejaVuSans-2e"/>
     <use x="242.675781" xlink:href="#DejaVuSans-39"/>
     <use x="306.298828" xlink:href="#DejaVuSans-35"/>
     <use x="369.921875" xlink:href="#DejaVuSans-38"/>
    </g>
   </g>
   <g id="text_18">
    <!-- DIP Rate Distribution -->
    <defs>
     <path d="M 41.109375 46.296875 
Q 39.59375 47.171875 37.8125 47.578125 
Q 36.03125 48 33.890625 48 
Q 26.265625 48 22.1875 43.046875 
Q 18.109375 38.09375 18.109375 28.8125 
L 18.109375 0 
L 9.078125 0 
L 9.078125 54.6875 
L 18.109375 54.6875 
L 18.109375 46.1875 
Q 20.953125 51.171875 25.484375 53.578125 
Q 30.03125 56 36.53125 56 
Q 37.453125 56 38.578125 55.875 
Q 39.703125 55.765625 41.0625 55.515625 
z
" id="DejaVuSans-72"/>
     <path d="M 48.6875 27.296875 
Q 48.6875 37.203125 44.609375 42.84375 
Q 40.53125 48.484375 33.40625 48.484375 
Q 26.265625 48.484375 22.1875 42.84375 
Q 18.109375 37.203125 18.109375 27.296875 
Q 18.109375 17.390625 22.1875 11.75 
Q 26.265625 6.109375 33.40625 6.109375 
Q 40.53125 6.109375 44.609375 11.75 
Q 48.6875 17.390625 48.6875 27.296875 
z
M 18.109375 46.390625 
Q 20.953125 51.265625 25.265625 53.625 
Q 29.59375 56 35.59375 56 
Q 45.5625 56 51.78125 48.09375 
Q 58.015625 40.1875 58.015625 27.296875 
Q 58.015625 14.40625 51.78125 6.484375 
Q 45.5625 -1.421875 35.59375 -1.421875 
Q 29.59375 -1.421875 25.265625 0.953125 
Q 20.953125 3.328125 18.109375 8.203125 
L 18.109375 0 
L 9.078125 0 
L 9.078125 75.984375 
L 18.109375 75.984375 
z
" id="DejaVuSans-62"/>
     <path d="M 8.5 21.578125 
L 8.5 54.6875 
L 17.484375 54.6875 
L 17.484375 21.921875 
Q 17.484375 14.15625 20.5 10.265625 
Q 23.53125 6.390625 29.59375 6.390625 
Q 36.859375 6.390625 41.078125 11.03125 
Q 45.3125 15.671875 45.3125 23.6875 
L 45.3125 54.6875 
L 54.296875 54.6875 
L 54.296875 0 
L 45.3125 0 
L 45.3125 8.40625 
Q 42.046875 3.421875 37.71875 1 
Q 33.40625 -1.421875 27.6875 -1.421875 
Q 18.265625 -1.421875 13.375 4.4375 
Q 8.5 10.296875 8.5 21.578125 
z
M 31.109375 56 
z
" id="DejaVuSans-75"/>
     <path d="M 30.609375 48.390625 
Q 23.390625 48.390625 19.1875 42.75 
Q 14.984375 37.109375 14.984375 27.296875 
Q 14.984375 17.484375 19.15625 11.84375 
Q 23.34375 6.203125 30.609375 6.203125 
Q 37.796875 6.203125 41.984375 11.859375 
Q 46.1875 17.53125 46.1875 27.296875 
Q 46.1875 37.015625 41.984375 42.703125 
Q 37.796875 48.390625 30.609375 48.390625 
z
M 30.609375 56 
Q 42.328125 56 49.015625 48.375 
Q 55.71875 40.765625 55.71875 27.296875 
Q 55.71875 13.875 49.015625 6.21875 
Q 42.328125 -1.421875 30.609375 -1.421875 
Q 18.84375 -1.421875 12.171875 6.21875 
Q 5.515625 13.875 5.515625 27.296875 
Q 5.515625 40.765625 12.171875 48.375 
Q 18.84375 56 30.609375 56 
z
" id="DejaVuSans-6f"/>
    </defs>
    <g transform="translate(84.887812 19.92)scale(0.12 -0.12)">
     <use xlink:href="#DejaVuSans-44"/>
     <use x="77.001953" xlink:href="#DejaVuSans-49"/>
     <use x="106.494141" xlink:href="#DejaVuSans-50"/>
     <use x="166.796875" xlink:href="#DejaVuSans-20"/>
     <use x="198.583984" xlink:href="#DejaVuSans-52"/>
     <use x="268.035156" xlink:href="#DejaVuSans-61"/>
     <use x="329.314453" xlink:href="#DejaVuSans-74"/>
     <use x="368.523438" xlink:href="#DejaVuSans-65"/>
     <use x="430.046875" xlink:href="#DejaVuSans-20"/>
     <use x="461.833984" xlink:href="#DejaVuSans-44"/>
     <use x="538.835938" xlink:href="#DejaVuSans-69"/>
     <use x="566.619141" xlink:href="#DejaVuSans-73"/>
     <use x="618.71875" xlink:href="#DejaVuSans-74"/>
     <use x="657.927734" xlink:href="#DejaVuSans-72"/>
     <use x="699.041016" xlink:href="#DejaVuSans-69"/>
     <use x="726.824219" xlink:href="#DejaVuSans-62"/>
     <use x="790.300781" xlink:href="#DejaVuSans-75"/>
     <use x="853.679688" xlink:href="#DejaVuSans-74"/>
     <use x="892.888672" xlink:href="#DejaVuSans-69"/>
     <use x="920.671875" xlink:href="#DejaVuSans-6f"/>
     <use x="981.853516" xlink:href="#DejaVuSans-6e"/>
    </g>
   </g>
   <g id="legend_1">
    <g id="patch_7">
     <path d="M 43 63.27625 
L 141.685938 63.27625 
Q 143.685938 63.27625 143.685938 61.27625 
L 143.685938 32.92 
Q 143.685938 30.92 141.685938 30.92 
L 43 30.92 
Q 41 30.92 41 32.92 
L 41 61.27625 
Q 41 63.27625 43 63.27625 
z
" style="fill:#ffffff;opacity:0.8;stroke:#cccccc;stroke-linejoin:miter;"/>
    </g>
    <g id="patch_8">
     <path d="M 45 42.518437 
L 65 42.518437 
L 65 35.518437 
L 45 35.518437 
z
" style="fill:#808080;opacity:0.25;"/>
    </g>
    <g id="text_19">
     <!-- Simulated -->
     <defs>
      <path d="M 53.515625 70.515625 
L 53.515625 60.890625 
Q 47.90625 63.578125 42.921875 64.890625 
Q 37.9375 66.21875 33.296875 66.21875 
Q 25.25 66.21875 20.875 63.09375 
Q 16.5 59.96875 16.5 54.203125 
Q 16.5 49.359375 19.40625 46.890625 
Q 22.3125 44.4375 30.421875 42.921875 
L 36.375 41.703125 
Q 47.40625 39.59375 52.65625 34.296875 
Q 57.90625 29 57.90625 20.125 
Q 57.90625 9.515625 50.796875 4.046875 
Q 43.703125 -1.421875 29.984375 -1.421875 
Q 24.8125 -1.421875 18.96875 -0.25 
Q 13.140625 0.921875 6.890625 3.21875 
L 6.890625 13.375 
Q 12.890625 10.015625 18.65625 8.296875 
Q 24.421875 6.59375 29.984375 6.59375 
Q 38.421875 6.59375 43.015625 9.90625 
Q 47.609375 13.234375 47.609375 19.390625 
Q 47.609375 24.75 44.3125 27.78125 
Q 41.015625 30.8125 33.5 32.328125 
L 27.484375 33.5 
Q 16.453125 35.6875 11.515625 40.375 
Q 6.59375 45.0625 6.59375 53.421875 
Q 6.59375 63.09375 13.40625 68.65625 
Q 20.21875 74.21875 32.171875 74.21875 
Q 37.3125 74.21875 42.625 73.28125 
Q 47.953125 72.359375 53.515625 70.515625 
z
" id="DejaVuSans-53"/>
      <path d="M 52 44.1875 
Q 55.375 50.25 60.0625 53.125 
Q 64.75 56 71.09375 56 
Q 79.640625 56 84.28125 50.015625 
Q 88.921875 44.046875 88.921875 33.015625 
L 88.921875 0 
L 79.890625 0 
L 79.890625 32.71875 
Q 79.890625 40.578125 77.09375 44.375 
Q 74.3125 48.1875 68.609375 48.1875 
Q 61.625 48.1875 57.5625 43.546875 
Q 53.515625 38.921875 53.515625 30.90625 
L 53.515625 0 
L 44.484375 0 
L 44.484375 32.71875 
Q 44.484375 40.625 41.703125 44.40625 
Q 38.921875 48.1875 33.109375 48.1875 
Q 26.21875 48.1875 22.15625 43.53125 
Q 18.109375 38.875 18.109375 30.90625 
L 18.109375 0 
L 9.078125 0 
L 9.078125 54.6875 
L 18.109375 54.6875 
L 18.109375 46.1875 
Q 21.1875 51.21875 25.484375 53.609375 
Q 29.78125 56 35.6875 56 
Q 41.65625 56 45.828125 52.96875 
Q 50 49.953125 52 44.1875 
z
" id="DejaVuSans-6d"/>
      <path d="M 9.421875 75.984375 
L 18.40625 75.984375 
L 18.40625 0 
L 9.421875 0 
z
" id="DejaVuSans-6c"/>
      <path d="M 45.40625 46.390625 
L 45.40625 75.984375 
L 54.390625 75.984375 
L 54.390625 0 
L 45.40625 0 
L 45.40625 8.203125 
Q 42.578125 3.328125 38.25 0.953125 
Q 33.9375 -1.421875 27.875 -1.421875 
Q 17.96875 -1.421875 11.734375 6.484375 
Q 5.515625 14.40625 5.515625 27.296875 
Q 5.515625 40.1875 11.734375 48.09375 
Q 17.96875 56 27.875 56 
Q 33.9375 56 38.25 53.625 
Q 42.578125 51.265625 45.40625 46.390625 
z
M 14.796875 27.296875 
Q 14.796875 17.390625 18.875 11.75 
Q 22.953125 6.109375 30.078125 6.109375 
Q 37.203125 6.109375 41.296875 11.75 
Q 45.40625 17.390625 45.40625 27.296875 
Q 45.40625 37.203125 41.296875 42.84375 
Q 37.203125 48.484375 30.078125 48.484375 
Q 22.953125 48.484375 18.875 42.84375 
Q 14.796875 37.203125 14.796875 27.296875 
z
" id="DejaVuSans-64"/>
     </defs>
     <g transform="translate(73 42.518437)scale(0.1 -0.1)">
      <use xlink:href="#DejaVuSans-53"/>
      <use x="63.476562" xlink:href="#DejaVuSans-69"/>
      <use x="91.259766" xlink:href="#DejaVuSans-6d"/>
      <use x="188.671875" xlink:href="#DejaVuSans-75"/>
      <use x="252.050781" xlink:href="#DejaVuSans-6c"/>
      <use x="279.833984" xlink:href="#DejaVuSans-61"/>
      <use x="341.113281" xlink:href="#DejaVuSans-74"/>
      <use x="380.322266" xlink:href="#DejaVuSans-65"/>
      <use x="441.845703" xlink:href="#DejaVuSans-64"/>
     </g>
    </g>
    <g id="patch_9">
     <path d="M 45 57.196562 
L 65 57.196562 
L 65 50.196562 
L 45 50.196562 
z
" style="fill:#ffd700;opacity:0.25;"/>
    </g>
    <g id="text_20">
     <!-- Experimental -->
     <defs>
      <path d="M 9.8125 72.90625 
L 55.90625 72.90625 
L 55.90625 64.59375 
L 19.671875 64.59375 
L 19.671875 43.015625 
L 54.390625 43.015625 
L 54.390625 34.71875 
L 19.671875 34.71875 
L 19.671875 8.296875 
L 56.78125 8.296875 
L 56.78125 0 
L 9.8125 0 
z
" id="DejaVuSans-45"/>
      <path d="M 54.890625 54.6875 
L 35.109375 28.078125 
L 55.90625 0 
L 45.3125 0 
L 29.390625 21.484375 
L 13.484375 0 
L 2.875 0 
L 24.125 28.609375 
L 4.6875 54.6875 
L 15.28125 54.6875 
L 29.78125 35.203125 
L 44.28125 54.6875 
z
" id="DejaVuSans-78"/>
     </defs>
     <g transform="translate(73 57.196562)scale(0.1 -0.1)">
      <use xlink:href="#DejaVuSans-45"/>
      <use x="63.183594" xlink:href="#DejaVuSans-78"/>
      <use x="122.363281" xlink:href="#DejaVuSans-70"/>
      <use x="185.839844" xlink:href="#DejaVuSans-65"/>
      <use x="247.363281" xlink:href="#DejaVuSans-72"/>
      <use x="288.476562" xlink:href="#DejaVuSans-69"/>
      <use x="316.259766" xlink:href="#DejaVuSans-6d"/>
      <use x="413.671875" xlink:href="#DejaVuSans-65"/>
      <use x="475.195312" xlink:href="#DejaVuSans-6e"/>
      <use x="538.574219" xlink:href="#DejaVuSans-74"/>
      <use x="577.783203" xlink:href="#DejaVuSans-61"/>
      <use x="639.0625" xlink:href="#DejaVuSans-6c"/>
     </g>
    </g>
   </g>
  </g>
 </g>
 <defs>
  <clipPath id="pe33c4def64">
   <rect height="166.32" width="223.2" x="36" y="25.92"/>
  </clipPath>
 </defs>
</svg>
