<?xml version="1.0" encoding="utf-8" standalone="no"?>
<!DOCTYPE svg PUBLIC "-//W3C//DTD SVG 1.1//EN"
  "http://www.w3.org/Graphics/SVG/1.1/DTD/svg11.dtd">
<!-- Created with matplotlib (http://matplotlib.org/) -->
<svg height="216pt" version="1.1" viewBox="0 0 288 216" width="288pt" xmlns="http://www.w3.org/2000/svg" xmlns:xlink="http://www.w3.org/1999/xlink">
 <defs>
  <style type="text/css">
*{stroke-linecap:butt;stroke-linejoin:round;}
  </style>
 </defs>
 <g id="figure_1">
  <g id="patch_1">
   <path d="M 0 216 
L 288 216 
L 288 0 
L 0 0 
z
" style="fill:#ffffff;"/>
  </g>
  <g id="axes_1">
   <g id="patch_2">
    <path d="M 36 192.24 
L 259.2 192.24 
L 259.2 25.92 
L 36 25.92 
z
" style="fill:#ffffff;"/>
   </g>
   <g id="PolyCollection_1">
    <path clip-path="url(#pf69b48273d)" d="M 66.786482 192.194849 
L 66.786482 192.24 
L 67.780443 192.24 
L 68.774403 192.24 
L 69.768364 192.24 
L 70.762324 192.24 
L 71.756285 192.24 
L 72.750245 192.24 
L 73.744205 192.24 
L 74.738166 192.24 
L 75.732126 192.24 
L 76.726087 192.24 
L 77.720047 192.24 
L 78.714007 192.24 
L 79.707968 192.24 
L 80.701928 192.24 
L 81.695889 192.24 
L 82.689849 192.24 
L 83.68381 192.24 
L 84.67777 192.24 
L 85.67173 192.24 
L 86.665691 192.24 
L 87.659651 192.24 
L 88.653612 192.24 
L 89.647572 192.24 
L 90.641533 192.24 
L 91.635493 192.24 
L 92.629453 192.24 
L 93.623414 192.24 
L 94.617374 192.24 
L 95.611335 192.24 
L 96.605295 192.24 
L 97.599256 192.24 
L 98.593216 192.24 
L 99.587176 192.24 
L 100.581137 192.24 
L 101.575097 192.24 
L 102.569058 192.24 
L 103.563018 192.24 
L 104.556979 192.24 
L 105.550939 192.24 
L 106.544899 192.24 
L 107.53886 192.24 
L 108.53282 192.24 
L 109.526781 192.24 
L 110.520741 192.24 
L 111.514702 192.24 
L 112.508662 192.24 
L 113.502622 192.24 
L 114.496583 192.24 
L 115.490543 192.24 
L 116.484504 192.24 
L 117.478464 192.24 
L 118.472425 192.24 
L 119.466385 192.24 
L 120.460345 192.24 
L 121.454306 192.24 
L 122.448266 192.24 
L 123.442227 192.24 
L 124.436187 192.24 
L 125.430147 192.24 
L 126.424108 192.24 
L 127.418068 192.24 
L 128.412029 192.24 
L 129.405989 192.24 
L 130.39995 192.24 
L 131.39391 192.24 
L 132.38787 192.24 
L 133.381831 192.24 
L 134.375791 192.24 
L 135.369752 192.24 
L 136.363712 192.24 
L 137.357673 192.24 
L 138.351633 192.24 
L 139.345593 192.24 
L 140.339554 192.24 
L 141.333514 192.24 
L 142.327475 192.24 
L 143.321435 192.24 
L 144.315396 192.24 
L 145.309356 192.24 
L 146.303316 192.24 
L 147.297277 192.24 
L 148.291237 192.24 
L 149.285198 192.24 
L 150.279158 192.24 
L 151.273119 192.24 
L 152.267079 192.24 
L 153.261039 192.24 
L 154.255 192.24 
L 155.24896 192.24 
L 156.242921 192.24 
L 157.236881 192.24 
L 158.230842 192.24 
L 159.224802 192.24 
L 160.218762 192.24 
L 161.212723 192.24 
L 162.206683 192.24 
L 163.200644 192.24 
L 164.194604 192.24 
L 165.188565 192.24 
L 166.182525 192.24 
L 167.176485 192.24 
L 168.170446 192.24 
L 169.164406 192.24 
L 170.158367 192.24 
L 171.152327 192.24 
L 172.146288 192.24 
L 173.140248 192.24 
L 174.134208 192.24 
L 175.128169 192.24 
L 176.122129 192.24 
L 177.11609 192.24 
L 178.11005 192.24 
L 179.10401 192.24 
L 180.097971 192.24 
L 181.091931 192.24 
L 182.085892 192.24 
L 183.079852 192.24 
L 184.073813 192.24 
L 185.067773 192.24 
L 186.061733 192.24 
L 187.055694 192.24 
L 188.049654 192.24 
L 189.043615 192.24 
L 190.037575 192.24 
L 191.031536 192.24 
L 192.025496 192.24 
L 193.019456 192.24 
L 193.019456 192.194877 
L 193.019456 192.194877 
L 192.025496 192.162937 
L 191.031536 192.088598 
L 190.037575 191.953149 
L 189.043615 191.734785 
L 188.049654 191.417143 
L 187.055694 190.999024 
L 186.061733 190.499909 
L 185.067773 189.954503 
L 184.073813 189.393003 
L 183.079852 188.812355 
L 182.085892 188.153122 
L 181.091931 187.299602 
L 180.097971 186.11255 
L 179.10401 184.486321 
L 178.11005 182.405368 
L 177.11609 179.970441 
L 176.122129 177.377479 
L 175.128169 174.855523 
L 174.134208 172.589788 
L 173.140248 170.660525 
L 172.146288 169.016822 
L 171.152327 167.487175 
L 170.158367 165.816921 
L 169.164406 163.719633 
L 168.170446 160.929835 
L 167.176485 157.24275 
L 166.182525 152.526167 
L 165.188565 146.698489 
L 164.194604 139.687842 
L 163.200644 131.407748 
L 162.206683 121.785255 
L 161.212723 110.848173 
L 160.218762 98.833349 
L 159.224802 86.248832 
L 158.230842 73.834869 
L 157.236881 62.420747 
L 156.242921 52.73699 
L 155.24896 45.274843 
L 154.255 40.262021 
L 153.261039 37.754464 
L 152.267079 37.77034 
L 151.273119 40.365618 
L 150.279158 45.592942 
L 149.285198 53.370788 
L 148.291237 63.357717 
L 147.297277 74.926826 
L 146.303316 87.26859 
L 145.309356 99.566529 
L 144.315396 111.150621 
L 143.321435 121.562185 
L 142.327475 130.532221 
L 141.333514 137.928343 
L 140.339554 143.727262 
L 139.345593 148.028166 
L 138.351633 151.076079 
L 137.357673 153.249355 
L 136.363712 154.988551 
L 135.369752 156.6841 
L 134.375791 158.569157 
L 133.381831 160.666263 
L 132.38787 162.814037 
L 131.39391 164.765328 
L 130.39995 166.316448 
L 129.405989 167.411721 
L 128.412029 168.177574 
L 127.418068 168.873507 
L 126.424108 169.787879 
L 125.430147 171.131458 
L 124.436187 172.976404 
L 123.442227 175.257611 
L 122.448266 177.819031 
L 121.454306 180.471492 
L 120.460345 183.036247 
L 119.466385 185.367826 
L 118.472425 187.363532 
L 117.478464 188.967824 
L 116.484504 190.173115 
L 115.490543 191.01387 
L 114.496583 191.552405 
L 113.502622 191.859641 
L 112.508662 191.997009 
L 111.514702 192.004956 
L 110.520741 191.90051 
L 109.526781 191.683471 
L 108.53282 191.348725 
L 107.53886 190.900325 
L 106.544899 190.361428 
L 105.550939 189.774439 
L 104.556979 189.189543 
L 103.563018 188.646455 
L 102.569058 188.159626 
L 101.575097 187.716523 
L 100.581137 187.29122 
L 99.587176 186.865969 
L 98.593216 186.448771 
L 97.599256 186.078157 
L 96.605295 185.81428 
L 95.611335 185.721685 
L 94.617374 185.850431 
L 93.623414 186.220075 
L 92.629453 186.809134 
L 91.635493 187.552468 
L 90.641533 188.349084 
L 89.647572 189.080907 
L 88.653612 189.639152 
L 87.659651 189.951079 
L 86.665691 189.998406 
L 85.67173 189.820446 
L 84.67777 189.499716 
L 83.68381 189.134467 
L 82.689849 188.808899 
L 81.695889 188.574001 
L 80.701928 188.446974 
L 79.707968 188.426447 
L 78.714007 188.510973 
L 77.720047 188.707086 
L 76.726087 189.022095 
L 75.732126 189.448804 
L 74.738166 189.955304 
L 73.744205 190.488438 
L 72.750245 190.989329 
L 71.756285 191.411521 
L 70.762324 191.732114 
L 69.768364 191.952051 
L 68.774403 192.088199 
L 67.780443 192.162808 
L 66.786482 192.194849 
z
" style="fill:#808080;fill-opacity:0.25;"/>
   </g>
   <g id="PolyCollection_2">
    <path clip-path="url(#pf69b48273d)" d="M 81.48657 192.204545 
L 81.48657 192.24 
L 82.415278 192.24 
L 83.343986 192.24 
L 84.272694 192.24 
L 85.201402 192.24 
L 86.13011 192.24 
L 87.058818 192.24 
L 87.987526 192.24 
L 88.916234 192.24 
L 89.844942 192.24 
L 90.77365 192.24 
L 91.702358 192.24 
L 92.631066 192.24 
L 93.559774 192.24 
L 94.488482 192.24 
L 95.41719 192.24 
L 96.345898 192.24 
L 97.274606 192.24 
L 98.203314 192.24 
L 99.132022 192.24 
L 100.06073 192.24 
L 100.989438 192.24 
L 101.918146 192.24 
L 102.846854 192.24 
L 103.775562 192.24 
L 104.70427 192.24 
L 105.632978 192.24 
L 106.561686 192.24 
L 107.490394 192.24 
L 108.419102 192.24 
L 109.34781 192.24 
L 110.276518 192.24 
L 111.205226 192.24 
L 112.133934 192.24 
L 113.062642 192.24 
L 113.99135 192.24 
L 114.920058 192.24 
L 115.848766 192.24 
L 116.777474 192.24 
L 117.706182 192.24 
L 118.63489 192.24 
L 119.563598 192.24 
L 120.492306 192.24 
L 121.421014 192.24 
L 122.349722 192.24 
L 123.27843 192.24 
L 124.207138 192.24 
L 125.135846 192.24 
L 126.064554 192.24 
L 126.993262 192.24 
L 127.92197 192.24 
L 128.850678 192.24 
L 129.779386 192.24 
L 130.708094 192.24 
L 131.636802 192.24 
L 132.56551 192.24 
L 133.494218 192.24 
L 134.422926 192.24 
L 135.351634 192.24 
L 136.280342 192.24 
L 137.20905 192.24 
L 138.137758 192.24 
L 139.066466 192.24 
L 139.995174 192.24 
L 140.923882 192.24 
L 141.85259 192.24 
L 142.781298 192.24 
L 143.710006 192.24 
L 144.638714 192.24 
L 145.567422 192.24 
L 146.49613 192.24 
L 147.424838 192.24 
L 148.353546 192.24 
L 149.282254 192.24 
L 150.210962 192.24 
L 151.13967 192.24 
L 152.068378 192.24 
L 152.997086 192.24 
L 153.925794 192.24 
L 154.854502 192.24 
L 155.78321 192.24 
L 156.711918 192.24 
L 157.640625 192.24 
L 158.569333 192.24 
L 159.498041 192.24 
L 160.426749 192.24 
L 161.355457 192.24 
L 162.284165 192.24 
L 163.212873 192.24 
L 164.141581 192.24 
L 165.070289 192.24 
L 165.998997 192.24 
L 166.927705 192.24 
L 167.856413 192.24 
L 168.785121 192.24 
L 169.713829 192.24 
L 170.642537 192.24 
L 171.571245 192.24 
L 172.499953 192.24 
L 173.428661 192.24 
L 174.357369 192.24 
L 175.286077 192.24 
L 176.214785 192.24 
L 177.143493 192.24 
L 178.072201 192.24 
L 179.000909 192.24 
L 179.929617 192.24 
L 180.858325 192.24 
L 181.787033 192.24 
L 182.715741 192.24 
L 183.644449 192.24 
L 184.573157 192.24 
L 185.501865 192.24 
L 186.430573 192.24 
L 187.359281 192.24 
L 188.287989 192.24 
L 189.216697 192.24 
L 190.145405 192.24 
L 191.074113 192.24 
L 192.002821 192.24 
L 192.931529 192.24 
L 193.860237 192.24 
L 194.788945 192.24 
L 195.717653 192.24 
L 196.646361 192.24 
L 197.575069 192.24 
L 198.503777 192.24 
L 199.432485 192.24 
L 199.432485 192.201734 
L 199.432485 192.201734 
L 198.503777 192.18139 
L 197.575069 192.137422 
L 196.646361 192.058816 
L 195.717653 191.929314 
L 194.788945 191.727633 
L 193.860237 191.428635 
L 192.931529 191.00577 
L 192.002821 190.434872 
L 191.074113 189.699009 
L 190.145405 188.793628 
L 189.216697 187.730867 
L 188.287989 186.541744 
L 187.359281 185.275104 
L 186.430573 183.992783 
L 185.501865 182.761269 
L 184.573157 181.64112 
L 183.644449 180.676145 
L 182.715741 179.884706 
L 181.787033 179.255193 
L 180.858325 178.746841 
L 179.929617 178.295774 
L 179.000909 177.824848 
L 178.072201 177.254908 
L 177.143493 176.514838 
L 176.214785 175.548329 
L 175.286077 174.316423 
L 174.357369 172.796154 
L 173.428661 170.976494 
L 172.499953 168.853054 
L 171.571245 166.42274 
L 170.642537 163.679194 
L 169.713829 160.609772 
L 168.785121 157.194939 
L 167.856413 153.410995 
L 166.927705 149.236429 
L 165.998997 144.660971 
L 165.070289 139.695031 
L 164.141581 134.376442 
L 163.212873 128.771952 
L 162.284165 122.972542 
L 161.355457 117.0838 
L 160.426749 111.214279 
L 159.498041 105.465223 
L 158.569333 99.924259 
L 157.640625 94.663835 
L 156.711918 89.743376 
L 155.78321 85.212894 
L 154.854502 81.11587 
L 153.925794 77.49049 
L 152.997086 74.370163 
L 152.068378 71.785595 
L 151.13967 69.770475 
L 150.210962 68.37074 
L 149.282254 67.654288 
L 148.353546 67.715554 
L 147.424838 68.669473 
L 146.49613 70.632597 
L 145.567422 73.694509 
L 144.638714 77.887617 
L 143.710006 83.165357 
L 142.781298 89.396577 
L 141.85259 96.378332 
L 140.923882 103.86302 
L 139.995174 111.591531 
L 139.066466 119.323447 
L 138.137758 126.857959 
L 137.20905 134.043412 
L 136.280342 140.77716 
L 135.351634 146.999266 
L 134.422926 152.683545 
L 133.494218 157.828162 
L 132.56551 162.446736 
L 131.636802 166.56032 
L 130.708094 170.190762 
L 129.779386 173.35627 
L 128.850678 176.070004 
L 127.92197 178.341887 
L 126.993262 180.182913 
L 126.064554 181.610423 
L 125.135846 182.652543 
L 124.207138 183.350328 
L 123.27843 183.756965 
L 122.349722 183.9343 
L 121.421014 183.947802 
L 120.492306 183.861485 
L 119.563598 183.73424 
L 118.63489 183.618303 
L 117.706182 183.559554 
L 116.777474 183.59832 
L 115.848766 183.769003 
L 114.920058 184.097445 
L 113.99135 184.596295 
L 113.062642 185.260129 
L 112.133934 186.062827 
L 111.205226 186.959207 
L 110.276518 187.891381 
L 109.34781 188.798377 
L 108.419102 189.626273 
L 107.490394 190.335925 
L 106.561686 190.906421 
L 105.632978 191.333933 
L 104.70427 191.627195 
L 103.775562 191.801576 
L 102.846854 191.873794 
L 101.918146 191.858668 
L 100.989438 191.76846 
L 100.06073 191.614444 
L 99.132022 191.409721 
L 98.203314 191.171896 
L 97.274606 190.924321 
L 96.345898 190.69499 
L 95.41719 190.513032 
L 94.488482 190.403586 
L 93.559774 190.382606 
L 92.631066 190.453304 
L 91.702358 190.605458 
L 90.77365 190.817894 
L 89.844942 191.063336 
L 88.916234 191.31412 
L 87.987526 191.547149 
L 87.058818 191.746908 
L 86.13011 191.906179 
L 85.201402 192.024825 
L 84.272694 192.107454 
L 83.343986 192.160819 
L 82.415278 192.191561 
L 81.48657 192.204545 
z
" style="fill:#ff1493;fill-opacity:0.25;"/>
   </g>
   <g id="matplotlib.axis_1">
    <g id="xtick_1">
     <g id="line2d_1">
      <defs>
       <path d="M 0 0 
L 0 3.5 
" id="m4cb01f7b4f" style="stroke:#000000;stroke-width:0.8;"/>
      </defs>
      <g>
       <use style="stroke:#000000;stroke-width:0.8;" x="58.32" xlink:href="#m4cb01f7b4f" y="192.24"/>
      </g>
     </g>
     <g id="text_1">
      <!-- −0.02 -->
      <defs>
       <path d="M 10.59375 35.5 
L 73.1875 35.5 
L 73.1875 27.203125 
L 10.59375 27.203125 
z
" id="DejaVuSans-2212"/>
       <path d="M 31.78125 66.40625 
Q 24.171875 66.40625 20.328125 58.90625 
Q 16.5 51.421875 16.5 36.375 
Q 16.5 21.390625 20.328125 13.890625 
Q 24.171875 6.390625 31.78125 6.390625 
Q 39.453125 6.390625 43.28125 13.890625 
Q 47.125 21.390625 47.125 36.375 
Q 47.125 51.421875 43.28125 58.90625 
Q 39.453125 66.40625 31.78125 66.40625 
z
M 31.78125 74.21875 
Q 44.046875 74.21875 50.515625 64.515625 
Q 56.984375 54.828125 56.984375 36.375 
Q 56.984375 17.96875 50.515625 8.265625 
Q 44.046875 -1.421875 31.78125 -1.421875 
Q 19.53125 -1.421875 13.0625 8.265625 
Q 6.59375 17.96875 6.59375 36.375 
Q 6.59375 54.828125 13.0625 64.515625 
Q 19.53125 74.21875 31.78125 74.21875 
z
" id="DejaVuSans-30"/>
       <path d="M 10.6875 12.40625 
L 21 12.40625 
L 21 0 
L 10.6875 0 
z
" id="DejaVuSans-2e"/>
       <path d="M 19.1875 8.296875 
L 53.609375 8.296875 
L 53.609375 0 
L 7.328125 0 
L 7.328125 8.296875 
Q 12.9375 14.109375 22.625 23.890625 
Q 32.328125 33.6875 34.8125 36.53125 
Q 39.546875 41.84375 41.421875 45.53125 
Q 43.3125 49.21875 43.3125 52.78125 
Q 43.3125 58.59375 39.234375 62.25 
Q 35.15625 65.921875 28.609375 65.921875 
Q 23.96875 65.921875 18.8125 64.3125 
Q 13.671875 62.703125 7.8125 59.421875 
L 7.8125 69.390625 
Q 13.765625 71.78125 18.9375 73 
Q 24.125 74.21875 28.421875 74.21875 
Q 39.75 74.21875 46.484375 68.546875 
Q 53.21875 62.890625 53.21875 53.421875 
Q 53.21875 48.921875 51.53125 44.890625 
Q 49.859375 40.875 45.40625 35.40625 
Q 44.1875 33.984375 37.640625 27.21875 
Q 31.109375 20.453125 19.1875 8.296875 
z
" id="DejaVuSans-32"/>
      </defs>
      <g transform="translate(42.997344 206.838437)scale(0.1 -0.1)">
       <use xlink:href="#DejaVuSans-2212"/>
       <use x="83.789062" xlink:href="#DejaVuSans-30"/>
       <use x="147.412109" xlink:href="#DejaVuSans-2e"/>
       <use x="179.199219" xlink:href="#DejaVuSans-30"/>
       <use x="242.822266" xlink:href="#DejaVuSans-32"/>
      </g>
     </g>
    </g>
    <g id="xtick_2">
     <g id="line2d_2">
      <g>
       <use style="stroke:#000000;stroke-width:0.8;" x="102.96" xlink:href="#m4cb01f7b4f" y="192.24"/>
      </g>
     </g>
     <g id="text_2">
      <!-- −0.01 -->
      <defs>
       <path d="M 12.40625 8.296875 
L 28.515625 8.296875 
L 28.515625 63.921875 
L 10.984375 60.40625 
L 10.984375 69.390625 
L 28.421875 72.90625 
L 38.28125 72.90625 
L 38.28125 8.296875 
L 54.390625 8.296875 
L 54.390625 0 
L 12.40625 0 
z
" id="DejaVuSans-31"/>
      </defs>
      <g transform="translate(87.637344 206.838437)scale(0.1 -0.1)">
       <use xlink:href="#DejaVuSans-2212"/>
       <use x="83.789062" xlink:href="#DejaVuSans-30"/>
       <use x="147.412109" xlink:href="#DejaVuSans-2e"/>
       <use x="179.199219" xlink:href="#DejaVuSans-30"/>
       <use x="242.822266" xlink:href="#DejaVuSans-31"/>
      </g>
     </g>
    </g>
    <g id="xtick_3">
     <g id="line2d_3">
      <g>
       <use style="stroke:#000000;stroke-width:0.8;" x="147.6" xlink:href="#m4cb01f7b4f" y="192.24"/>
      </g>
     </g>
     <g id="text_3">
      <!-- 0.00 -->
      <g transform="translate(136.467187 206.838437)scale(0.1 -0.1)">
       <use xlink:href="#DejaVuSans-30"/>
       <use x="63.623047" xlink:href="#DejaVuSans-2e"/>
       <use x="95.410156" xlink:href="#DejaVuSans-30"/>
       <use x="159.033203" xlink:href="#DejaVuSans-30"/>
      </g>
     </g>
    </g>
    <g id="xtick_4">
     <g id="line2d_4">
      <g>
       <use style="stroke:#000000;stroke-width:0.8;" x="192.24" xlink:href="#m4cb01f7b4f" y="192.24"/>
      </g>
     </g>
     <g id="text_4">
      <!-- 0.01 -->
      <g transform="translate(181.107188 206.838437)scale(0.1 -0.1)">
       <use xlink:href="#DejaVuSans-30"/>
       <use x="63.623047" xlink:href="#DejaVuSans-2e"/>
       <use x="95.410156" xlink:href="#DejaVuSans-30"/>
       <use x="159.033203" xlink:href="#DejaVuSans-31"/>
      </g>
     </g>
    </g>
    <g id="xtick_5">
     <g id="line2d_5">
      <g>
       <use style="stroke:#000000;stroke-width:0.8;" x="236.88" xlink:href="#m4cb01f7b4f" y="192.24"/>
      </g>
     </g>
     <g id="text_5">
      <!-- 0.02 -->
      <g transform="translate(225.747187 206.838437)scale(0.1 -0.1)">
       <use xlink:href="#DejaVuSans-30"/>
       <use x="63.623047" xlink:href="#DejaVuSans-2e"/>
       <use x="95.410156" xlink:href="#DejaVuSans-30"/>
       <use x="159.033203" xlink:href="#DejaVuSans-32"/>
      </g>
     </g>
    </g>
    <g id="text_6">
     <!-- DIP Rate -->
     <defs>
      <path d="M 19.671875 64.796875 
L 19.671875 8.109375 
L 31.59375 8.109375 
Q 46.6875 8.109375 53.6875 14.9375 
Q 60.6875 21.78125 60.6875 36.53125 
Q 60.6875 51.171875 53.6875 57.984375 
Q 46.6875 64.796875 31.59375 64.796875 
z
M 9.8125 72.90625 
L 30.078125 72.90625 
Q 51.265625 72.90625 61.171875 64.09375 
Q 71.09375 55.28125 71.09375 36.53125 
Q 71.09375 17.671875 61.125 8.828125 
Q 51.171875 0 30.078125 0 
L 9.8125 0 
z
" id="DejaVuSans-44"/>
      <path d="M 9.8125 72.90625 
L 19.671875 72.90625 
L 19.671875 0 
L 9.8125 0 
z
" id="DejaVuSans-49"/>
      <path d="M 19.671875 64.796875 
L 19.671875 37.40625 
L 32.078125 37.40625 
Q 38.96875 37.40625 42.71875 40.96875 
Q 46.484375 44.53125 46.484375 51.125 
Q 46.484375 57.671875 42.71875 61.234375 
Q 38.96875 64.796875 32.078125 64.796875 
z
M 9.8125 72.90625 
L 32.078125 72.90625 
Q 44.34375 72.90625 50.609375 67.359375 
Q 56.890625 61.8125 56.890625 51.125 
Q 56.890625 40.328125 50.609375 34.8125 
Q 44.34375 29.296875 32.078125 29.296875 
L 19.671875 29.296875 
L 19.671875 0 
L 9.8125 0 
z
" id="DejaVuSans-50"/>
      <path id="DejaVuSans-20"/>
      <path d="M 44.390625 34.1875 
Q 47.5625 33.109375 50.5625 29.59375 
Q 53.5625 26.078125 56.59375 19.921875 
L 66.609375 0 
L 56 0 
L 46.6875 18.703125 
Q 43.0625 26.03125 39.671875 28.421875 
Q 36.28125 30.8125 30.421875 30.8125 
L 19.671875 30.8125 
L 19.671875 0 
L 9.8125 0 
L 9.8125 72.90625 
L 32.078125 72.90625 
Q 44.578125 72.90625 50.734375 67.671875 
Q 56.890625 62.453125 56.890625 51.90625 
Q 56.890625 45.015625 53.6875 40.46875 
Q 50.484375 35.9375 44.390625 34.1875 
z
M 19.671875 64.796875 
L 19.671875 38.921875 
L 32.078125 38.921875 
Q 39.203125 38.921875 42.84375 42.21875 
Q 46.484375 45.515625 46.484375 51.90625 
Q 46.484375 58.296875 42.84375 61.546875 
Q 39.203125 64.796875 32.078125 64.796875 
z
" id="DejaVuSans-52"/>
      <path d="M 34.28125 27.484375 
Q 23.390625 27.484375 19.1875 25 
Q 14.984375 22.515625 14.984375 16.5 
Q 14.984375 11.71875 18.140625 8.90625 
Q 21.296875 6.109375 26.703125 6.109375 
Q 34.1875 6.109375 38.703125 11.40625 
Q 43.21875 16.703125 43.21875 25.484375 
L 43.21875 27.484375 
z
M 52.203125 31.203125 
L 52.203125 0 
L 43.21875 0 
L 43.21875 8.296875 
Q 40.140625 3.328125 35.546875 0.953125 
Q 30.953125 -1.421875 24.3125 -1.421875 
Q 15.921875 -1.421875 10.953125 3.296875 
Q 6 8.015625 6 15.921875 
Q 6 25.140625 12.171875 29.828125 
Q 18.359375 34.515625 30.609375 34.515625 
L 43.21875 34.515625 
L 43.21875 35.40625 
Q 43.21875 41.609375 39.140625 45 
Q 35.0625 48.390625 27.6875 48.390625 
Q 23 48.390625 18.546875 47.265625 
Q 14.109375 46.140625 10.015625 43.890625 
L 10.015625 52.203125 
Q 14.9375 54.109375 19.578125 55.046875 
Q 24.21875 56 28.609375 56 
Q 40.484375 56 46.34375 49.84375 
Q 52.203125 43.703125 52.203125 31.203125 
z
" id="DejaVuSans-61"/>
      <path d="M 18.3125 70.21875 
L 18.3125 54.6875 
L 36.8125 54.6875 
L 36.8125 47.703125 
L 18.3125 47.703125 
L 18.3125 18.015625 
Q 18.3125 11.328125 20.140625 9.421875 
Q 21.96875 7.515625 27.59375 7.515625 
L 36.8125 7.515625 
L 36.8125 0 
L 27.59375 0 
Q 17.1875 0 13.234375 3.875 
Q 9.28125 7.765625 9.28125 18.015625 
L 9.28125 47.703125 
L 2.6875 47.703125 
L 2.6875 54.6875 
L 9.28125 54.6875 
L 9.28125 70.21875 
z
" id="DejaVuSans-74"/>
      <path d="M 56.203125 29.59375 
L 56.203125 25.203125 
L 14.890625 25.203125 
Q 15.484375 15.921875 20.484375 11.0625 
Q 25.484375 6.203125 34.421875 6.203125 
Q 39.59375 6.203125 44.453125 7.46875 
Q 49.3125 8.734375 54.109375 11.28125 
L 54.109375 2.78125 
Q 49.265625 0.734375 44.1875 -0.34375 
Q 39.109375 -1.421875 33.890625 -1.421875 
Q 20.796875 -1.421875 13.15625 6.1875 
Q 5.515625 13.8125 5.515625 26.8125 
Q 5.515625 40.234375 12.765625 48.109375 
Q 20.015625 56 32.328125 56 
Q 43.359375 56 49.78125 48.890625 
Q 56.203125 41.796875 56.203125 29.59375 
z
M 47.21875 32.234375 
Q 47.125 39.59375 43.09375 43.984375 
Q 39.0625 48.390625 32.421875 48.390625 
Q 24.90625 48.390625 20.390625 44.140625 
Q 15.875 39.890625 15.1875 32.171875 
z
" id="DejaVuSans-65"/>
     </defs>
     <g transform="translate(126.097656 220.516562)scale(0.1 -0.1)">
      <use xlink:href="#DejaVuSans-44"/>
      <use x="77.001953" xlink:href="#DejaVuSans-49"/>
      <use x="106.494141" xlink:href="#DejaVuSans-50"/>
      <use x="166.796875" xlink:href="#DejaVuSans-20"/>
      <use x="198.583984" xlink:href="#DejaVuSans-52"/>
      <use x="268.035156" xlink:href="#DejaVuSans-61"/>
      <use x="329.314453" xlink:href="#DejaVuSans-74"/>
      <use x="368.523438" xlink:href="#DejaVuSans-65"/>
     </g>
    </g>
   </g>
   <g id="matplotlib.axis_2">
    <g id="ytick_1">
     <g id="line2d_6">
      <defs>
       <path d="M 0 0 
L -3.5 0 
" id="m3f312c0aaa" style="stroke:#000000;stroke-width:0.8;"/>
      </defs>
      <g>
       <use style="stroke:#000000;stroke-width:0.8;" x="36" xlink:href="#m3f312c0aaa" y="192.24"/>
      </g>
     </g>
     <g id="text_7">
      <!-- 0 -->
      <g transform="translate(22.6375 196.039219)scale(0.1 -0.1)">
       <use xlink:href="#DejaVuSans-30"/>
      </g>
     </g>
    </g>
    <g id="ytick_2">
     <g id="line2d_7">
      <g>
       <use style="stroke:#000000;stroke-width:0.8;" x="36" xlink:href="#m3f312c0aaa" y="171.45"/>
      </g>
     </g>
     <g id="text_8">
      <!-- 25 -->
      <defs>
       <path d="M 10.796875 72.90625 
L 49.515625 72.90625 
L 49.515625 64.59375 
L 19.828125 64.59375 
L 19.828125 46.734375 
Q 21.96875 47.46875 24.109375 47.828125 
Q 26.265625 48.1875 28.421875 48.1875 
Q 40.625 48.1875 47.75 41.5 
Q 54.890625 34.8125 54.890625 23.390625 
Q 54.890625 11.625 47.5625 5.09375 
Q 40.234375 -1.421875 26.90625 -1.421875 
Q 22.3125 -1.421875 17.546875 -0.640625 
Q 12.796875 0.140625 7.71875 1.703125 
L 7.71875 11.625 
Q 12.109375 9.234375 16.796875 8.0625 
Q 21.484375 6.890625 26.703125 6.890625 
Q 35.15625 6.890625 40.078125 11.328125 
Q 45.015625 15.765625 45.015625 23.390625 
Q 45.015625 31 40.078125 35.4375 
Q 35.15625 39.890625 26.703125 39.890625 
Q 22.75 39.890625 18.8125 39.015625 
Q 14.890625 38.140625 10.796875 36.28125 
z
" id="DejaVuSans-35"/>
      </defs>
      <g transform="translate(16.275 175.249219)scale(0.1 -0.1)">
       <use xlink:href="#DejaVuSans-32"/>
       <use x="63.623047" xlink:href="#DejaVuSans-35"/>
      </g>
     </g>
    </g>
    <g id="ytick_3">
     <g id="line2d_8">
      <g>
       <use style="stroke:#000000;stroke-width:0.8;" x="36" xlink:href="#m3f312c0aaa" y="150.66"/>
      </g>
     </g>
     <g id="text_9">
      <!-- 50 -->
      <g transform="translate(16.275 154.459219)scale(0.1 -0.1)">
       <use xlink:href="#DejaVuSans-35"/>
       <use x="63.623047" xlink:href="#DejaVuSans-30"/>
      </g>
     </g>
    </g>
    <g id="ytick_4">
     <g id="line2d_9">
      <g>
       <use style="stroke:#000000;stroke-width:0.8;" x="36" xlink:href="#m3f312c0aaa" y="129.87"/>
      </g>
     </g>
     <g id="text_10">
      <!-- 75 -->
      <defs>
       <path d="M 8.203125 72.90625 
L 55.078125 72.90625 
L 55.078125 68.703125 
L 28.609375 0 
L 18.3125 0 
L 43.21875 64.59375 
L 8.203125 64.59375 
z
" id="DejaVuSans-37"/>
      </defs>
      <g transform="translate(16.275 133.669219)scale(0.1 -0.1)">
       <use xlink:href="#DejaVuSans-37"/>
       <use x="63.623047" xlink:href="#DejaVuSans-35"/>
      </g>
     </g>
    </g>
    <g id="ytick_5">
     <g id="line2d_10">
      <g>
       <use style="stroke:#000000;stroke-width:0.8;" x="36" xlink:href="#m3f312c0aaa" y="109.08"/>
      </g>
     </g>
     <g id="text_11">
      <!-- 100 -->
      <g transform="translate(9.9125 112.879219)scale(0.1 -0.1)">
       <use xlink:href="#DejaVuSans-31"/>
       <use x="63.623047" xlink:href="#DejaVuSans-30"/>
       <use x="127.246094" xlink:href="#DejaVuSans-30"/>
      </g>
     </g>
    </g>
    <g id="ytick_6">
     <g id="line2d_11">
      <g>
       <use style="stroke:#000000;stroke-width:0.8;" x="36" xlink:href="#m3f312c0aaa" y="88.29"/>
      </g>
     </g>
     <g id="text_12">
      <!-- 125 -->
      <g transform="translate(9.9125 92.089219)scale(0.1 -0.1)">
       <use xlink:href="#DejaVuSans-31"/>
       <use x="63.623047" xlink:href="#DejaVuSans-32"/>
       <use x="127.246094" xlink:href="#DejaVuSans-35"/>
      </g>
     </g>
    </g>
    <g id="ytick_7">
     <g id="line2d_12">
      <g>
       <use style="stroke:#000000;stroke-width:0.8;" x="36" xlink:href="#m3f312c0aaa" y="67.5"/>
      </g>
     </g>
     <g id="text_13">
      <!-- 150 -->
      <g transform="translate(9.9125 71.299219)scale(0.1 -0.1)">
       <use xlink:href="#DejaVuSans-31"/>
       <use x="63.623047" xlink:href="#DejaVuSans-35"/>
       <use x="127.246094" xlink:href="#DejaVuSans-30"/>
      </g>
     </g>
    </g>
    <g id="ytick_8">
     <g id="line2d_13">
      <g>
       <use style="stroke:#000000;stroke-width:0.8;" x="36" xlink:href="#m3f312c0aaa" y="46.71"/>
      </g>
     </g>
     <g id="text_14">
      <!-- 175 -->
      <g transform="translate(9.9125 50.509219)scale(0.1 -0.1)">
       <use xlink:href="#DejaVuSans-31"/>
       <use x="63.623047" xlink:href="#DejaVuSans-37"/>
       <use x="127.246094" xlink:href="#DejaVuSans-35"/>
      </g>
     </g>
    </g>
    <g id="ytick_9">
     <g id="line2d_14">
      <g>
       <use style="stroke:#000000;stroke-width:0.8;" x="36" xlink:href="#m3f312c0aaa" y="25.92"/>
      </g>
     </g>
     <g id="text_15">
      <!-- 200 -->
      <g transform="translate(9.9125 29.719219)scale(0.1 -0.1)">
       <use xlink:href="#DejaVuSans-32"/>
       <use x="63.623047" xlink:href="#DejaVuSans-30"/>
       <use x="127.246094" xlink:href="#DejaVuSans-30"/>
      </g>
     </g>
    </g>
    <g id="text_16">
     <!-- Density -->
     <defs>
      <path d="M 54.890625 33.015625 
L 54.890625 0 
L 45.90625 0 
L 45.90625 32.71875 
Q 45.90625 40.484375 42.875 44.328125 
Q 39.84375 48.1875 33.796875 48.1875 
Q 26.515625 48.1875 22.3125 43.546875 
Q 18.109375 38.921875 18.109375 30.90625 
L 18.109375 0 
L 9.078125 0 
L 9.078125 54.6875 
L 18.109375 54.6875 
L 18.109375 46.1875 
Q 21.34375 51.125 25.703125 53.5625 
Q 30.078125 56 35.796875 56 
Q 45.21875 56 50.046875 50.171875 
Q 54.890625 44.34375 54.890625 33.015625 
z
" id="DejaVuSans-6e"/>
      <path d="M 44.28125 53.078125 
L 44.28125 44.578125 
Q 40.484375 46.53125 36.375 47.5 
Q 32.28125 48.484375 27.875 48.484375 
Q 21.1875 48.484375 17.84375 46.4375 
Q 14.5 44.390625 14.5 40.28125 
Q 14.5 37.15625 16.890625 35.375 
Q 19.28125 33.59375 26.515625 31.984375 
L 29.59375 31.296875 
Q 39.15625 29.25 43.1875 25.515625 
Q 47.21875 21.78125 47.21875 15.09375 
Q 47.21875 7.46875 41.1875 3.015625 
Q 35.15625 -1.421875 24.609375 -1.421875 
Q 20.21875 -1.421875 15.453125 -0.5625 
Q 10.6875 0.296875 5.421875 2 
L 5.421875 11.28125 
Q 10.40625 8.6875 15.234375 7.390625 
Q 20.0625 6.109375 24.8125 6.109375 
Q 31.15625 6.109375 34.5625 8.28125 
Q 37.984375 10.453125 37.984375 14.40625 
Q 37.984375 18.0625 35.515625 20.015625 
Q 33.0625 21.96875 24.703125 23.78125 
L 21.578125 24.515625 
Q 13.234375 26.265625 9.515625 29.90625 
Q 5.8125 33.546875 5.8125 39.890625 
Q 5.8125 47.609375 11.28125 51.796875 
Q 16.75 56 26.8125 56 
Q 31.78125 56 36.171875 55.265625 
Q 40.578125 54.546875 44.28125 53.078125 
z
" id="DejaVuSans-73"/>
      <path d="M 9.421875 54.6875 
L 18.40625 54.6875 
L 18.40625 0 
L 9.421875 0 
z
M 9.421875 75.984375 
L 18.40625 75.984375 
L 18.40625 64.59375 
L 9.421875 64.59375 
z
" id="DejaVuSans-69"/>
      <path d="M 32.171875 -5.078125 
Q 28.375 -14.84375 24.75 -17.8125 
Q 21.140625 -20.796875 15.09375 -20.796875 
L 7.90625 -20.796875 
L 7.90625 -13.28125 
L 13.1875 -13.28125 
Q 16.890625 -13.28125 18.9375 -11.515625 
Q 21 -9.765625 23.484375 -3.21875 
L 25.09375 0.875 
L 2.984375 54.6875 
L 12.5 54.6875 
L 29.59375 11.921875 
L 46.6875 54.6875 
L 56.203125 54.6875 
z
" id="DejaVuSans-79"/>
     </defs>
     <g transform="translate(3.832812 128.088594)rotate(-90)scale(0.1 -0.1)">
      <use xlink:href="#DejaVuSans-44"/>
      <use x="77.001953" xlink:href="#DejaVuSans-65"/>
      <use x="138.525391" xlink:href="#DejaVuSans-6e"/>
      <use x="201.904297" xlink:href="#DejaVuSans-73"/>
      <use x="254.003906" xlink:href="#DejaVuSans-69"/>
      <use x="281.787109" xlink:href="#DejaVuSans-74"/>
      <use x="320.996094" xlink:href="#DejaVuSans-79"/>
     </g>
    </g>
   </g>
   <g id="line2d_15">
    <path clip-path="url(#pf69b48273d)" d="M 66.786482 192.194849 
L 68.774403 192.088199 
L 70.762324 191.732114 
L 72.750245 190.989329 
L 76.726087 189.022095 
L 77.720047 188.707086 
L 79.707968 188.426447 
L 81.695889 188.574001 
L 83.68381 189.134467 
L 85.67173 189.820446 
L 86.665691 189.998406 
L 87.659651 189.951079 
L 88.653612 189.639152 
L 89.647572 189.080907 
L 93.623414 186.220075 
L 94.617374 185.850431 
L 95.611335 185.721685 
L 96.605295 185.81428 
L 98.593216 186.448771 
L 103.563018 188.646455 
L 108.53282 191.348725 
L 109.526781 191.683471 
L 111.514702 192.004956 
L 112.508662 191.997009 
L 113.502622 191.859641 
L 114.496583 191.552405 
L 115.490543 191.01387 
L 116.484504 190.173115 
L 117.478464 188.967824 
L 118.472425 187.363532 
L 119.466385 185.367826 
L 121.454306 180.471492 
L 123.442227 175.257611 
L 124.436187 172.976404 
L 125.430147 171.131458 
L 126.424108 169.787879 
L 127.418068 168.873507 
L 129.405989 167.411721 
L 130.39995 166.316448 
L 131.39391 164.765328 
L 133.381831 160.666263 
L 135.369752 156.6841 
L 137.357673 153.249355 
L 138.351633 151.076079 
L 139.345593 148.028166 
L 140.339554 143.727262 
L 141.333514 137.928343 
L 142.327475 130.532221 
L 143.321435 121.562185 
L 144.315396 111.150621 
L 146.303316 87.26859 
L 148.291237 63.357717 
L 149.285198 53.370788 
L 150.279158 45.592942 
L 151.273119 40.365618 
L 152.267079 37.77034 
L 153.261039 37.754464 
L 154.255 40.262021 
L 155.24896 45.274843 
L 156.242921 52.73699 
L 157.236881 62.420747 
L 159.224802 86.248832 
L 161.212723 110.848173 
L 162.206683 121.785255 
L 163.200644 131.407748 
L 164.194604 139.687842 
L 165.188565 146.698489 
L 166.182525 152.526167 
L 167.176485 157.24275 
L 168.170446 160.929835 
L 169.164406 163.719633 
L 170.158367 165.816921 
L 174.134208 172.589788 
L 176.122129 177.377479 
L 178.11005 182.405368 
L 179.10401 184.486321 
L 180.097971 186.11255 
L 181.091931 187.299602 
L 182.085892 188.153122 
L 184.073813 189.393003 
L 187.055694 190.999024 
L 189.043615 191.734785 
L 191.031536 192.088598 
L 193.019456 192.194877 
L 193.019456 192.194877 
" style="fill:none;stroke:#808080;stroke-linecap:square;stroke-width:1.5;"/>
   </g>
   <g id="line2d_16">
    <path clip-path="url(#pf69b48273d)" d="M 81.48657 192.204545 
L 84.272694 192.107454 
L 86.13011 191.906179 
L 87.987526 191.547149 
L 92.631066 190.453304 
L 94.488482 190.403586 
L 96.345898 190.69499 
L 100.989438 191.76846 
L 102.846854 191.873794 
L 104.70427 191.627195 
L 105.632978 191.333933 
L 106.561686 190.906421 
L 107.490394 190.335925 
L 109.34781 188.798377 
L 113.062642 185.260129 
L 113.99135 184.596295 
L 114.920058 184.097445 
L 115.848766 183.769003 
L 116.777474 183.59832 
L 118.63489 183.618303 
L 121.421014 183.947802 
L 122.349722 183.9343 
L 123.27843 183.756965 
L 124.207138 183.350328 
L 125.135846 182.652543 
L 126.064554 181.610423 
L 126.993262 180.182913 
L 127.92197 178.341887 
L 128.850678 176.070004 
L 129.779386 173.35627 
L 130.708094 170.190762 
L 131.636802 166.56032 
L 132.56551 162.446736 
L 134.422926 152.683545 
L 136.280342 140.77716 
L 138.137758 126.857959 
L 142.781298 89.396577 
L 143.710006 83.165357 
L 144.638714 77.887617 
L 145.567422 73.694509 
L 146.49613 70.632597 
L 147.424838 68.669473 
L 148.353546 67.715554 
L 149.282254 67.654288 
L 150.210962 68.37074 
L 151.13967 69.770475 
L 152.068378 71.785595 
L 152.997086 74.370163 
L 153.925794 77.49049 
L 154.854502 81.11587 
L 156.711918 89.743376 
L 158.569333 99.924259 
L 161.355457 117.0838 
L 164.141581 134.376442 
L 165.998997 144.660971 
L 167.856413 153.410995 
L 169.713829 160.609772 
L 171.571245 166.42274 
L 173.428661 170.976494 
L 174.357369 172.796154 
L 175.286077 174.316423 
L 176.214785 175.548329 
L 177.143493 176.514838 
L 178.072201 177.254908 
L 179.929617 178.295774 
L 181.787033 179.255193 
L 182.715741 179.884706 
L 183.644449 180.676145 
L 185.501865 182.761269 
L 190.145405 188.793628 
L 191.074113 189.699009 
L 192.002821 190.434872 
L 192.931529 191.00577 
L 193.860237 191.428635 
L 195.717653 191.929314 
L 197.575069 192.137422 
L 199.432485 192.201734 
L 199.432485 192.201734 
" style="fill:none;stroke:#ff1493;stroke-linecap:square;stroke-width:1.5;"/>
   </g>
   <g id="patch_3">
    <path d="M 36 192.24 
L 36 25.92 
" style="fill:none;stroke:#000000;stroke-linecap:square;stroke-linejoin:miter;stroke-width:0.8;"/>
   </g>
   <g id="patch_4">
    <path d="M 259.2 192.24 
L 259.2 25.92 
" style="fill:none;stroke:#000000;stroke-linecap:square;stroke-linejoin:miter;stroke-width:0.8;"/>
   </g>
   <g id="patch_5">
    <path d="M 36 192.24 
L 259.2 192.24 
" style="fill:none;stroke:#000000;stroke-linecap:square;stroke-linejoin:miter;stroke-width:0.8;"/>
   </g>
   <g id="patch_6">
    <path d="M 36 25.92 
L 259.2 25.92 
" style="fill:none;stroke:#000000;stroke-linecap:square;stroke-linejoin:miter;stroke-width:0.8;"/>
   </g>
   <g id="text_17">
    <!-- p=0.225 -->
    <defs>
     <path d="M 18.109375 8.203125 
L 18.109375 -20.796875 
L 9.078125 -20.796875 
L 9.078125 54.6875 
L 18.109375 54.6875 
L 18.109375 46.390625 
Q 20.953125 51.265625 25.265625 53.625 
Q 29.59375 56 35.59375 56 
Q 45.5625 56 51.78125 48.09375 
Q 58.015625 40.1875 58.015625 27.296875 
Q 58.015625 14.40625 51.78125 6.484375 
Q 45.5625 -1.421875 35.59375 -1.421875 
Q 29.59375 -1.421875 25.265625 0.953125 
Q 20.953125 3.328125 18.109375 8.203125 
z
M 48.6875 27.296875 
Q 48.6875 37.203125 44.609375 42.84375 
Q 40.53125 48.484375 33.40625 48.484375 
Q 26.265625 48.484375 22.1875 42.84375 
Q 18.109375 37.203125 18.109375 27.296875 
Q 18.109375 17.390625 22.1875 11.75 
Q 26.265625 6.109375 33.40625 6.109375 
Q 40.53125 6.109375 44.609375 11.75 
Q 48.6875 17.390625 48.6875 27.296875 
z
" id="DejaVuSans-70"/>
     <path d="M 10.59375 45.40625 
L 73.1875 45.40625 
L 73.1875 37.203125 
L 10.59375 37.203125 
z
M 10.59375 25.484375 
L 73.1875 25.484375 
L 73.1875 17.1875 
L 10.59375 17.1875 
z
" id="DejaVuSans-3d"/>
    </defs>
    <g transform="translate(178.848 67.5)scale(0.12 -0.12)">
     <use xlink:href="#DejaVuSans-70"/>
     <use x="63.476562" xlink:href="#DejaVuSans-3d"/>
     <use x="147.265625" xlink:href="#DejaVuSans-30"/>
     <use x="210.888672" xlink:href="#DejaVuSans-2e"/>
     <use x="242.675781" xlink:href="#DejaVuSans-32"/>
     <use x="306.298828" xlink:href="#DejaVuSans-32"/>
     <use x="369.921875" xlink:href="#DejaVuSans-35"/>
    </g>
   </g>
   <g id="text_18">
    <!-- DIP Rate Distribution -->
    <defs>
     <path d="M 41.109375 46.296875 
Q 39.59375 47.171875 37.8125 47.578125 
Q 36.03125 48 33.890625 48 
Q 26.265625 48 22.1875 43.046875 
Q 18.109375 38.09375 18.109375 28.8125 
L 18.109375 0 
L 9.078125 0 
L 9.078125 54.6875 
L 18.109375 54.6875 
L 18.109375 46.1875 
Q 20.953125 51.171875 25.484375 53.578125 
Q 30.03125 56 36.53125 56 
Q 37.453125 56 38.578125 55.875 
Q 39.703125 55.765625 41.0625 55.515625 
z
" id="DejaVuSans-72"/>
     <path d="M 48.6875 27.296875 
Q 48.6875 37.203125 44.609375 42.84375 
Q 40.53125 48.484375 33.40625 48.484375 
Q 26.265625 48.484375 22.1875 42.84375 
Q 18.109375 37.203125 18.109375 27.296875 
Q 18.109375 17.390625 22.1875 11.75 
Q 26.265625 6.109375 33.40625 6.109375 
Q 40.53125 6.109375 44.609375 11.75 
Q 48.6875 17.390625 48.6875 27.296875 
z
M 18.109375 46.390625 
Q 20.953125 51.265625 25.265625 53.625 
Q 29.59375 56 35.59375 56 
Q 45.5625 56 51.78125 48.09375 
Q 58.015625 40.1875 58.015625 27.296875 
Q 58.015625 14.40625 51.78125 6.484375 
Q 45.5625 -1.421875 35.59375 -1.421875 
Q 29.59375 -1.421875 25.265625 0.953125 
Q 20.953125 3.328125 18.109375 8.203125 
L 18.109375 0 
L 9.078125 0 
L 9.078125 75.984375 
L 18.109375 75.984375 
z
" id="DejaVuSans-62"/>
     <path d="M 8.5 21.578125 
L 8.5 54.6875 
L 17.484375 54.6875 
L 17.484375 21.921875 
Q 17.484375 14.15625 20.5 10.265625 
Q 23.53125 6.390625 29.59375 6.390625 
Q 36.859375 6.390625 41.078125 11.03125 
Q 45.3125 15.671875 45.3125 23.6875 
L 45.3125 54.6875 
L 54.296875 54.6875 
L 54.296875 0 
L 45.3125 0 
L 45.3125 8.40625 
Q 42.046875 3.421875 37.71875 1 
Q 33.40625 -1.421875 27.6875 -1.421875 
Q 18.265625 -1.421875 13.375 4.4375 
Q 8.5 10.296875 8.5 21.578125 
z
M 31.109375 56 
z
" id="DejaVuSans-75"/>
     <path d="M 30.609375 48.390625 
Q 23.390625 48.390625 19.1875 42.75 
Q 14.984375 37.109375 14.984375 27.296875 
Q 14.984375 17.484375 19.15625 11.84375 
Q 23.34375 6.203125 30.609375 6.203125 
Q 37.796875 6.203125 41.984375 11.859375 
Q 46.1875 17.53125 46.1875 27.296875 
Q 46.1875 37.015625 41.984375 42.703125 
Q 37.796875 48.390625 30.609375 48.390625 
z
M 30.609375 56 
Q 42.328125 56 49.015625 48.375 
Q 55.71875 40.765625 55.71875 27.296875 
Q 55.71875 13.875 49.015625 6.21875 
Q 42.328125 -1.421875 30.609375 -1.421875 
Q 18.84375 -1.421875 12.171875 6.21875 
Q 5.515625 13.875 5.515625 27.296875 
Q 5.515625 40.765625 12.171875 48.375 
Q 18.84375 56 30.609375 56 
z
" id="DejaVuSans-6f"/>
    </defs>
    <g transform="translate(84.887812 19.92)scale(0.12 -0.12)">
     <use xlink:href="#DejaVuSans-44"/>
     <use x="77.001953" xlink:href="#DejaVuSans-49"/>
     <use x="106.494141" xlink:href="#DejaVuSans-50"/>
     <use x="166.796875" xlink:href="#DejaVuSans-20"/>
     <use x="198.583984" xlink:href="#DejaVuSans-52"/>
     <use x="268.035156" xlink:href="#DejaVuSans-61"/>
     <use x="329.314453" xlink:href="#DejaVuSans-74"/>
     <use x="368.523438" xlink:href="#DejaVuSans-65"/>
     <use x="430.046875" xlink:href="#DejaVuSans-20"/>
     <use x="461.833984" xlink:href="#DejaVuSans-44"/>
     <use x="538.835938" xlink:href="#DejaVuSans-69"/>
     <use x="566.619141" xlink:href="#DejaVuSans-73"/>
     <use x="618.71875" xlink:href="#DejaVuSans-74"/>
     <use x="657.927734" xlink:href="#DejaVuSans-72"/>
     <use x="699.041016" xlink:href="#DejaVuSans-69"/>
     <use x="726.824219" xlink:href="#DejaVuSans-62"/>
     <use x="790.300781" xlink:href="#DejaVuSans-75"/>
     <use x="853.679688" xlink:href="#DejaVuSans-74"/>
     <use x="892.888672" xlink:href="#DejaVuSans-69"/>
     <use x="920.671875" xlink:href="#DejaVuSans-6f"/>
     <use x="981.853516" xlink:href="#DejaVuSans-6e"/>
    </g>
   </g>
   <g id="legend_1">
    <g id="patch_7">
     <path d="M 43 63.27625 
L 141.685938 63.27625 
Q 143.685938 63.27625 143.685938 61.27625 
L 143.685938 32.92 
Q 143.685938 30.92 141.685938 30.92 
L 43 30.92 
Q 41 30.92 41 32.92 
L 41 61.27625 
Q 41 63.27625 43 63.27625 
z
" style="fill:#ffffff;opacity:0.8;stroke:#cccccc;stroke-linejoin:miter;"/>
    </g>
    <g id="patch_8">
     <path d="M 45 42.518437 
L 65 42.518437 
L 65 35.518437 
L 45 35.518437 
z
" style="fill:#808080;opacity:0.25;"/>
    </g>
    <g id="text_19">
     <!-- Simulated -->
     <defs>
      <path d="M 53.515625 70.515625 
L 53.515625 60.890625 
Q 47.90625 63.578125 42.921875 64.890625 
Q 37.9375 66.21875 33.296875 66.21875 
Q 25.25 66.21875 20.875 63.09375 
Q 16.5 59.96875 16.5 54.203125 
Q 16.5 49.359375 19.40625 46.890625 
Q 22.3125 44.4375 30.421875 42.921875 
L 36.375 41.703125 
Q 47.40625 39.59375 52.65625 34.296875 
Q 57.90625 29 57.90625 20.125 
Q 57.90625 9.515625 50.796875 4.046875 
Q 43.703125 -1.421875 29.984375 -1.421875 
Q 24.8125 -1.421875 18.96875 -0.25 
Q 13.140625 0.921875 6.890625 3.21875 
L 6.890625 13.375 
Q 12.890625 10.015625 18.65625 8.296875 
Q 24.421875 6.59375 29.984375 6.59375 
Q 38.421875 6.59375 43.015625 9.90625 
Q 47.609375 13.234375 47.609375 19.390625 
Q 47.609375 24.75 44.3125 27.78125 
Q 41.015625 30.8125 33.5 32.328125 
L 27.484375 33.5 
Q 16.453125 35.6875 11.515625 40.375 
Q 6.59375 45.0625 6.59375 53.421875 
Q 6.59375 63.09375 13.40625 68.65625 
Q 20.21875 74.21875 32.171875 74.21875 
Q 37.3125 74.21875 42.625 73.28125 
Q 47.953125 72.359375 53.515625 70.515625 
z
" id="DejaVuSans-53"/>
      <path d="M 52 44.1875 
Q 55.375 50.25 60.0625 53.125 
Q 64.75 56 71.09375 56 
Q 79.640625 56 84.28125 50.015625 
Q 88.921875 44.046875 88.921875 33.015625 
L 88.921875 0 
L 79.890625 0 
L 79.890625 32.71875 
Q 79.890625 40.578125 77.09375 44.375 
Q 74.3125 48.1875 68.609375 48.1875 
Q 61.625 48.1875 57.5625 43.546875 
Q 53.515625 38.921875 53.515625 30.90625 
L 53.515625 0 
L 44.484375 0 
L 44.484375 32.71875 
Q 44.484375 40.625 41.703125 44.40625 
Q 38.921875 48.1875 33.109375 48.1875 
Q 26.21875 48.1875 22.15625 43.53125 
Q 18.109375 38.875 18.109375 30.90625 
L 18.109375 0 
L 9.078125 0 
L 9.078125 54.6875 
L 18.109375 54.6875 
L 18.109375 46.1875 
Q 21.1875 51.21875 25.484375 53.609375 
Q 29.78125 56 35.6875 56 
Q 41.65625 56 45.828125 52.96875 
Q 50 49.953125 52 44.1875 
z
" id="DejaVuSans-6d"/>
      <path d="M 9.421875 75.984375 
L 18.40625 75.984375 
L 18.40625 0 
L 9.421875 0 
z
" id="DejaVuSans-6c"/>
      <path d="M 45.40625 46.390625 
L 45.40625 75.984375 
L 54.390625 75.984375 
L 54.390625 0 
L 45.40625 0 
L 45.40625 8.203125 
Q 42.578125 3.328125 38.25 0.953125 
Q 33.9375 -1.421875 27.875 -1.421875 
Q 17.96875 -1.421875 11.734375 6.484375 
Q 5.515625 14.40625 5.515625 27.296875 
Q 5.515625 40.1875 11.734375 48.09375 
Q 17.96875 56 27.875 56 
Q 33.9375 56 38.25 53.625 
Q 42.578125 51.265625 45.40625 46.390625 
z
M 14.796875 27.296875 
Q 14.796875 17.390625 18.875 11.75 
Q 22.953125 6.109375 30.078125 6.109375 
Q 37.203125 6.109375 41.296875 11.75 
Q 45.40625 17.390625 45.40625 27.296875 
Q 45.40625 37.203125 41.296875 42.84375 
Q 37.203125 48.484375 30.078125 48.484375 
Q 22.953125 48.484375 18.875 42.84375 
Q 14.796875 37.203125 14.796875 27.296875 
z
" id="DejaVuSans-64"/>
     </defs>
     <g transform="translate(73 42.518437)scale(0.1 -0.1)">
      <use xlink:href="#DejaVuSans-53"/>
      <use x="63.476562" xlink:href="#DejaVuSans-69"/>
      <use x="91.259766" xlink:href="#DejaVuSans-6d"/>
      <use x="188.671875" xlink:href="#DejaVuSans-75"/>
      <use x="252.050781" xlink:href="#DejaVuSans-6c"/>
      <use x="279.833984" xlink:href="#DejaVuSans-61"/>
      <use x="341.113281" xlink:href="#DejaVuSans-74"/>
      <use x="380.322266" xlink:href="#DejaVuSans-65"/>
      <use x="441.845703" xlink:href="#DejaVuSans-64"/>
     </g>
    </g>
    <g id="patch_9">
     <path d="M 45 57.196562 
L 65 57.196562 
L 65 50.196562 
L 45 50.196562 
z
" style="fill:#ff1493;opacity:0.25;"/>
    </g>
    <g id="text_20">
     <!-- Experimental -->
     <defs>
      <path d="M 9.8125 72.90625 
L 55.90625 72.90625 
L 55.90625 64.59375 
L 19.671875 64.59375 
L 19.671875 43.015625 
L 54.390625 43.015625 
L 54.390625 34.71875 
L 19.671875 34.71875 
L 19.671875 8.296875 
L 56.78125 8.296875 
L 56.78125 0 
L 9.8125 0 
z
" id="DejaVuSans-45"/>
      <path d="M 54.890625 54.6875 
L 35.109375 28.078125 
L 55.90625 0 
L 45.3125 0 
L 29.390625 21.484375 
L 13.484375 0 
L 2.875 0 
L 24.125 28.609375 
L 4.6875 54.6875 
L 15.28125 54.6875 
L 29.78125 35.203125 
L 44.28125 54.6875 
z
" id="DejaVuSans-78"/>
     </defs>
     <g transform="translate(73 57.196562)scale(0.1 -0.1)">
      <use xlink:href="#DejaVuSans-45"/>
      <use x="63.183594" xlink:href="#DejaVuSans-78"/>
      <use x="122.363281" xlink:href="#DejaVuSans-70"/>
      <use x="185.839844" xlink:href="#DejaVuSans-65"/>
      <use x="247.363281" xlink:href="#DejaVuSans-72"/>
      <use x="288.476562" xlink:href="#DejaVuSans-69"/>
      <use x="316.259766" xlink:href="#DejaVuSans-6d"/>
      <use x="413.671875" xlink:href="#DejaVuSans-65"/>
      <use x="475.195312" xlink:href="#DejaVuSans-6e"/>
      <use x="538.574219" xlink:href="#DejaVuSans-74"/>
      <use x="577.783203" xlink:href="#DejaVuSans-61"/>
      <use x="639.0625" xlink:href="#DejaVuSans-6c"/>
     </g>
    </g>
   </g>
  </g>
 </g>
 <defs>
  <clipPath id="pf69b48273d">
   <rect height="166.32" width="223.2" x="36" y="25.92"/>
  </clipPath>
 </defs>
</svg>
