<?xml version="1.0" encoding="utf-8" standalone="no"?>
<!DOCTYPE svg PUBLIC "-//W3C//DTD SVG 1.1//EN"
  "http://www.w3.org/Graphics/SVG/1.1/DTD/svg11.dtd">
<!-- Created with matplotlib (http://matplotlib.org/) -->
<svg height="216pt" version="1.1" viewBox="0 0 288 216" width="288pt" xmlns="http://www.w3.org/2000/svg" xmlns:xlink="http://www.w3.org/1999/xlink">
 <defs>
  <style type="text/css">
*{stroke-linecap:butt;stroke-linejoin:round;}
  </style>
 </defs>
 <g id="figure_1">
  <g id="patch_1">
   <path d="M 0 216 
L 288 216 
L 288 0 
L 0 0 
z
" style="fill:#ffffff;"/>
  </g>
  <g id="axes_1">
   <g id="patch_2">
    <path d="M 36 192.24 
L 259.2 192.24 
L 259.2 25.92 
L 36 25.92 
z
" style="fill:#ffffff;"/>
   </g>
   <g id="PolyCollection_1">
    <path clip-path="url(#p4c85e1b770)" d="M 40.754851 192.19639 
L 40.754851 192.24 
L 41.985771 192.24 
L 43.216691 192.24 
L 44.44761 192.24 
L 45.67853 192.24 
L 46.90945 192.24 
L 48.140369 192.24 
L 49.371289 192.24 
L 50.602209 192.24 
L 51.833128 192.24 
L 53.064048 192.24 
L 54.294968 192.24 
L 55.525888 192.24 
L 56.756807 192.24 
L 57.987727 192.24 
L 59.218647 192.24 
L 60.449566 192.24 
L 61.680486 192.24 
L 62.911406 192.24 
L 64.142325 192.24 
L 65.373245 192.24 
L 66.604165 192.24 
L 67.835084 192.24 
L 69.066004 192.24 
L 70.296924 192.24 
L 71.527844 192.24 
L 72.758763 192.24 
L 73.989683 192.24 
L 75.220603 192.24 
L 76.451522 192.24 
L 77.682442 192.24 
L 78.913362 192.24 
L 80.144281 192.24 
L 81.375201 192.24 
L 82.606121 192.24 
L 83.83704 192.24 
L 85.06796 192.24 
L 86.29888 192.24 
L 87.5298 192.24 
L 88.760719 192.24 
L 89.991639 192.24 
L 91.222559 192.24 
L 92.453478 192.24 
L 93.684398 192.24 
L 94.915318 192.24 
L 96.146237 192.24 
L 97.377157 192.24 
L 98.608077 192.24 
L 99.838996 192.24 
L 101.069916 192.24 
L 102.300836 192.24 
L 103.531756 192.24 
L 104.762675 192.24 
L 105.993595 192.24 
L 107.224515 192.24 
L 108.455434 192.24 
L 109.686354 192.24 
L 110.917274 192.24 
L 112.148193 192.24 
L 113.379113 192.24 
L 114.610033 192.24 
L 115.840952 192.24 
L 117.071872 192.24 
L 118.302792 192.24 
L 119.533711 192.24 
L 120.764631 192.24 
L 121.995551 192.24 
L 123.226471 192.24 
L 124.45739 192.24 
L 125.68831 192.24 
L 126.91923 192.24 
L 128.150149 192.24 
L 129.381069 192.24 
L 130.611989 192.24 
L 131.842908 192.24 
L 133.073828 192.24 
L 134.304748 192.24 
L 135.535667 192.24 
L 136.766587 192.24 
L 137.997507 192.24 
L 139.228427 192.24 
L 140.459346 192.24 
L 141.690266 192.24 
L 142.921186 192.24 
L 144.152105 192.24 
L 145.383025 192.24 
L 146.613945 192.24 
L 147.844864 192.24 
L 149.075784 192.24 
L 150.306704 192.24 
L 151.537623 192.24 
L 152.768543 192.24 
L 153.999463 192.24 
L 155.230383 192.24 
L 156.461302 192.24 
L 157.692222 192.24 
L 158.923142 192.24 
L 160.154061 192.24 
L 161.384981 192.24 
L 162.615901 192.24 
L 163.84682 192.24 
L 165.07774 192.24 
L 166.30866 192.24 
L 167.539579 192.24 
L 168.770499 192.24 
L 170.001419 192.24 
L 171.232339 192.24 
L 172.463258 192.24 
L 173.694178 192.24 
L 174.925098 192.24 
L 176.156017 192.24 
L 177.386937 192.24 
L 178.617857 192.24 
L 179.848776 192.24 
L 181.079696 192.24 
L 182.310616 192.24 
L 183.541535 192.24 
L 184.772455 192.24 
L 186.003375 192.24 
L 187.234295 192.24 
L 188.465214 192.24 
L 189.696134 192.24 
L 190.927054 192.24 
L 192.157973 192.24 
L 193.388893 192.24 
L 194.619813 192.24 
L 195.850732 192.24 
L 197.081652 192.24 
L 197.081652 192.188021 
L 197.081652 192.188021 
L 195.850732 192.139756 
L 194.619813 192.03101 
L 193.388893 191.827865 
L 192.157973 191.489782 
L 190.927054 190.984215 
L 189.696134 190.307731 
L 188.465214 189.50572 
L 187.234295 188.677566 
L 186.003375 187.955842 
L 184.772455 187.459473 
L 183.541535 187.237251 
L 182.310616 187.22916 
L 181.079696 187.269292 
L 179.848776 187.135422 
L 178.617857 186.626585 
L 177.386937 185.634894 
L 176.156017 184.179796 
L 174.925098 182.3904 
L 173.694178 180.444906 
L 172.463258 178.493561 
L 171.232339 176.5954 
L 170.001419 174.690558 
L 168.770499 172.616606 
L 167.539579 170.165729 
L 166.30866 167.168642 
L 165.07774 163.577947 
L 163.84682 159.512539 
L 162.615901 155.229415 
L 161.384981 151.019527 
L 160.154061 147.068567 
L 158.923142 143.351825 
L 157.692222 139.619438 
L 156.461302 135.47923 
L 155.230383 130.532586 
L 153.999463 124.499626 
L 152.768543 117.292032 
L 151.537623 109.032185 
L 150.306704 100.042807 
L 149.075784 90.825529 
L 147.844864 82.02173 
L 146.613945 74.3341 
L 145.383025 68.404124 
L 144.152105 64.680629 
L 142.921186 63.342406 
L 141.690266 64.320859 
L 140.459346 67.409943 
L 139.228427 72.393322 
L 137.997507 79.109449 
L 136.766587 87.422625 
L 135.535667 97.13417 
L 134.304748 107.903009 
L 133.073828 119.229679 
L 131.842908 130.512425 
L 130.611989 141.144709 
L 129.381069 150.611207 
L 128.150149 158.551557 
L 126.91923 164.78301 
L 125.68831 169.291825 
L 124.45739 172.211539 
L 123.226471 173.801982 
L 121.995551 174.428968 
L 120.764631 174.531119 
L 119.533711 174.559601 
L 118.302792 174.893272 
L 117.071872 175.755005 
L 115.840952 177.166109 
L 114.610033 178.963209 
L 113.379113 180.872742 
L 112.148193 182.611724 
L 110.917274 183.975431 
L 109.686354 184.884418 
L 108.455434 185.384283 
L 107.224515 185.609441 
L 105.993595 185.73061 
L 104.762675 185.90486 
L 103.531756 186.240406 
L 102.300836 186.780355 
L 101.069916 187.503745 
L 99.838996 188.339436 
L 98.608077 189.187763 
L 97.377157 189.944676 
L 96.146237 190.523305 
L 94.915318 190.869383 
L 93.684398 190.969527 
L 92.453478 190.85326 
L 91.222559 190.589145 
L 89.991639 190.273581 
L 88.760719 190.010814 
L 87.5298 189.886733 
L 86.29888 189.944633 
L 85.06796 190.173275 
L 83.83704 190.513048 
L 82.606121 190.877086 
L 81.375201 191.177394 
L 80.144281 191.345931 
L 78.913362 191.346452 
L 77.682442 191.178843 
L 76.451522 190.879174 
L 75.220603 190.515471 
L 73.989683 190.176129 
L 72.758763 189.949264 
L 71.527844 189.897402 
L 70.296924 190.037666 
L 69.066004 190.337414 
L 67.835084 190.727861 
L 66.604165 191.128548 
L 65.373245 191.470326 
L 64.142325 191.707315 
L 62.911406 191.816259 
L 61.680486 191.789215 
L 60.449566 191.628031 
L 59.218647 191.345765 
L 57.987727 190.973787 
L 56.756807 190.567566 
L 55.525888 190.20295 
L 54.294968 189.959462 
L 53.064048 189.895563 
L 51.833128 190.027561 
L 50.602209 190.323622 
L 49.371289 190.716515 
L 48.140369 191.128465 
L 46.90945 191.495726 
L 45.67853 191.782548 
L 44.44761 191.981579 
L 43.216691 192.104688 
L 41.985771 192.170904 
L 40.754851 192.19639 
z
" style="fill:#808080;fill-opacity:0.25;"/>
   </g>
   <g id="PolyCollection_2">
    <path clip-path="url(#p4c85e1b770)" d="M 86.615955 192.186946 
L 86.615955 192.24 
L 87.412173 192.24 
L 88.208392 192.24 
L 89.00461 192.24 
L 89.800828 192.24 
L 90.597047 192.24 
L 91.393265 192.24 
L 92.189484 192.24 
L 92.985702 192.24 
L 93.781921 192.24 
L 94.578139 192.24 
L 95.374357 192.24 
L 96.170576 192.24 
L 96.966794 192.24 
L 97.763013 192.24 
L 98.559231 192.24 
L 99.35545 192.24 
L 100.151668 192.24 
L 100.947886 192.24 
L 101.744105 192.24 
L 102.540323 192.24 
L 103.336542 192.24 
L 104.13276 192.24 
L 104.928979 192.24 
L 105.725197 192.24 
L 106.521415 192.24 
L 107.317634 192.24 
L 108.113852 192.24 
L 108.910071 192.24 
L 109.706289 192.24 
L 110.502508 192.24 
L 111.298726 192.24 
L 112.094944 192.24 
L 112.891163 192.24 
L 113.687381 192.24 
L 114.4836 192.24 
L 115.279818 192.24 
L 116.076037 192.24 
L 116.872255 192.24 
L 117.668473 192.24 
L 118.464692 192.24 
L 119.26091 192.24 
L 120.057129 192.24 
L 120.853347 192.24 
L 121.649566 192.24 
L 122.445784 192.24 
L 123.242002 192.24 
L 124.038221 192.24 
L 124.834439 192.24 
L 125.630658 192.24 
L 126.426876 192.24 
L 127.223095 192.24 
L 128.019313 192.24 
L 128.815531 192.24 
L 129.61175 192.24 
L 130.407968 192.24 
L 131.204187 192.24 
L 132.000405 192.24 
L 132.796624 192.24 
L 133.592842 192.24 
L 134.38906 192.24 
L 135.185279 192.24 
L 135.981497 192.24 
L 136.777716 192.24 
L 137.573934 192.24 
L 138.370153 192.24 
L 139.166371 192.24 
L 139.962589 192.24 
L 140.758808 192.24 
L 141.555026 192.24 
L 142.351245 192.24 
L 143.147463 192.24 
L 143.943682 192.24 
L 144.7399 192.24 
L 145.536118 192.24 
L 146.332337 192.24 
L 147.128555 192.24 
L 147.924774 192.24 
L 148.720992 192.24 
L 149.517211 192.24 
L 150.313429 192.24 
L 151.109648 192.24 
L 151.905866 192.24 
L 152.702084 192.24 
L 153.498303 192.24 
L 154.294521 192.24 
L 155.09074 192.24 
L 155.886958 192.24 
L 156.683177 192.24 
L 157.479395 192.24 
L 158.275613 192.24 
L 159.071832 192.24 
L 159.86805 192.24 
L 160.664269 192.24 
L 161.460487 192.24 
L 162.256706 192.24 
L 163.052924 192.24 
L 163.849142 192.24 
L 164.645361 192.24 
L 165.441579 192.24 
L 166.237798 192.24 
L 167.034016 192.24 
L 167.830235 192.24 
L 168.626453 192.24 
L 169.422671 192.24 
L 170.21889 192.24 
L 171.015108 192.24 
L 171.811327 192.24 
L 172.607545 192.24 
L 173.403764 192.24 
L 174.199982 192.24 
L 174.9962 192.24 
L 175.792419 192.24 
L 176.588637 192.24 
L 177.384856 192.24 
L 178.181074 192.24 
L 178.977293 192.24 
L 179.773511 192.24 
L 180.569729 192.24 
L 181.365948 192.24 
L 182.162166 192.24 
L 182.958385 192.24 
L 183.754603 192.24 
L 184.550822 192.24 
L 185.34704 192.24 
L 186.143258 192.24 
L 186.939477 192.24 
L 187.735695 192.24 
L 187.735695 192.172361 
L 187.735695 192.172361 
L 186.939477 192.13933 
L 186.143258 192.081702 
L 185.34704 191.990431 
L 184.550822 191.853526 
L 183.754603 191.656313 
L 182.958385 191.382168 
L 182.162166 191.013811 
L 181.365948 190.535161 
L 180.569729 189.933608 
L 179.773511 189.202421 
L 178.977293 188.342826 
L 178.181074 187.365263 
L 177.384856 186.289345 
L 176.588637 185.142226 
L 175.792419 183.955405 
L 174.9962 182.760314 
L 174.199982 181.583391 
L 173.403764 180.441538 
L 172.607545 179.33886 
L 171.811327 178.265384 
L 171.015108 177.198069 
L 170.21889 176.103938 
L 169.422671 174.944694 
L 168.626453 173.681887 
L 167.830235 172.281523 
L 167.034016 170.717189 
L 166.237798 168.971016 
L 165.441579 167.032377 
L 164.645361 164.894742 
L 163.849142 162.551643 
L 163.052924 159.993097 
L 162.256706 157.203856 
L 161.460487 154.164559 
L 160.664269 150.856165 
L 159.86805 147.267095 
L 159.071832 143.401557 
L 158.275613 139.286859 
L 157.479395 134.97739 
L 156.683177 130.553528 
L 155.886958 126.114869 
L 155.09074 121.768671 
L 154.294521 117.615706 
L 153.498303 113.73652 
L 152.702084 110.181054 
L 151.905866 106.963777 
L 151.109648 104.065054 
L 150.313429 101.438018 
L 149.517211 99.019034 
L 148.720992 96.739385 
L 147.924774 94.535991 
L 147.128555 92.35981 
L 146.332337 90.181517 
L 145.536118 87.994886 
L 144.7399 85.818683 
L 143.943682 83.697723 
L 143.147463 81.703219 
L 142.351245 79.931903 
L 141.555026 78.502955 
L 140.758808 77.5517 
L 139.962589 77.219536 
L 139.166371 77.640335 
L 138.370153 78.9246 
L 137.573934 81.143486 
L 136.777716 84.315271 
L 135.981497 88.396763 
L 135.185279 93.281549 
L 134.38906 98.805924 
L 133.592842 104.762142 
L 132.796624 110.917451 
L 132.000405 117.036458 
L 131.204187 122.903853 
L 130.407968 128.344488 
L 129.61175 133.238173 
L 128.815531 137.527342 
L 128.019313 141.216768 
L 127.223095 144.365638 
L 126.426876 147.073428 
L 125.630658 149.461908 
L 124.834439 151.656135 
L 124.038221 153.767336 
L 123.242002 155.880131 
L 122.445784 158.045631 
L 121.649566 160.280752 
L 120.853347 162.572971 
L 120.057129 164.888768 
L 119.26091 167.183601 
L 118.464692 169.411274 
L 117.668473 171.531135 
L 116.872255 173.512318 
L 116.076037 175.335078 
L 115.279818 176.989923 
L 114.4836 178.47555 
L 113.687381 179.796558 
L 112.891163 180.961611 
L 112.094944 181.982299 
L 111.298726 182.872556 
L 110.502508 183.648284 
L 109.706289 184.326819 
L 108.910071 184.926008 
L 108.113852 185.462964 
L 107.317634 185.952732 
L 106.521415 186.407242 
L 105.725197 186.834848 
L 104.928979 187.24061 
L 104.13276 187.627179 
L 103.336542 187.996014 
L 102.540323 188.348501 
L 101.744105 188.686654 
L 100.947886 189.013201 
L 100.151668 189.331102 
L 99.35545 189.642736 
L 98.559231 189.949065 
L 97.763013 190.249101 
L 96.966794 190.539847 
L 96.170576 190.816748 
L 95.374357 191.074507 
L 94.578139 191.308054 
L 93.781921 191.513415 
L 92.985702 191.688302 
L 92.189484 191.832333 
L 91.393265 191.946893 
L 90.597047 192.034705 
L 89.800828 192.099256 
L 89.00461 192.14416 
L 88.208392 192.172563 
L 87.412173 192.186603 
L 86.615955 192.186946 
z
" style="fill:#a52a2a;fill-opacity:0.25;"/>
   </g>
   <g id="matplotlib.axis_1">
    <g id="xtick_1">
     <g id="line2d_1">
      <defs>
       <path d="M 0 0 
L 0 3.5 
" id="md7c6322dfb" style="stroke:#000000;stroke-width:0.8;"/>
      </defs>
      <g>
       <use style="stroke:#000000;stroke-width:0.8;" x="58.32" xlink:href="#md7c6322dfb" y="192.24"/>
      </g>
     </g>
     <g id="text_1">
      <!-- −0.02 -->
      <defs>
       <path d="M 10.59375 35.5 
L 73.1875 35.5 
L 73.1875 27.203125 
L 10.59375 27.203125 
z
" id="DejaVuSans-2212"/>
       <path d="M 31.78125 66.40625 
Q 24.171875 66.40625 20.328125 58.90625 
Q 16.5 51.421875 16.5 36.375 
Q 16.5 21.390625 20.328125 13.890625 
Q 24.171875 6.390625 31.78125 6.390625 
Q 39.453125 6.390625 43.28125 13.890625 
Q 47.125 21.390625 47.125 36.375 
Q 47.125 51.421875 43.28125 58.90625 
Q 39.453125 66.40625 31.78125 66.40625 
z
M 31.78125 74.21875 
Q 44.046875 74.21875 50.515625 64.515625 
Q 56.984375 54.828125 56.984375 36.375 
Q 56.984375 17.96875 50.515625 8.265625 
Q 44.046875 -1.421875 31.78125 -1.421875 
Q 19.53125 -1.421875 13.0625 8.265625 
Q 6.59375 17.96875 6.59375 36.375 
Q 6.59375 54.828125 13.0625 64.515625 
Q 19.53125 74.21875 31.78125 74.21875 
z
" id="DejaVuSans-30"/>
       <path d="M 10.6875 12.40625 
L 21 12.40625 
L 21 0 
L 10.6875 0 
z
" id="DejaVuSans-2e"/>
       <path d="M 19.1875 8.296875 
L 53.609375 8.296875 
L 53.609375 0 
L 7.328125 0 
L 7.328125 8.296875 
Q 12.9375 14.109375 22.625 23.890625 
Q 32.328125 33.6875 34.8125 36.53125 
Q 39.546875 41.84375 41.421875 45.53125 
Q 43.3125 49.21875 43.3125 52.78125 
Q 43.3125 58.59375 39.234375 62.25 
Q 35.15625 65.921875 28.609375 65.921875 
Q 23.96875 65.921875 18.8125 64.3125 
Q 13.671875 62.703125 7.8125 59.421875 
L 7.8125 69.390625 
Q 13.765625 71.78125 18.9375 73 
Q 24.125 74.21875 28.421875 74.21875 
Q 39.75 74.21875 46.484375 68.546875 
Q 53.21875 62.890625 53.21875 53.421875 
Q 53.21875 48.921875 51.53125 44.890625 
Q 49.859375 40.875 45.40625 35.40625 
Q 44.1875 33.984375 37.640625 27.21875 
Q 31.109375 20.453125 19.1875 8.296875 
z
" id="DejaVuSans-32"/>
      </defs>
      <g transform="translate(42.997344 206.838437)scale(0.1 -0.1)">
       <use xlink:href="#DejaVuSans-2212"/>
       <use x="83.789062" xlink:href="#DejaVuSans-30"/>
       <use x="147.412109" xlink:href="#DejaVuSans-2e"/>
       <use x="179.199219" xlink:href="#DejaVuSans-30"/>
       <use x="242.822266" xlink:href="#DejaVuSans-32"/>
      </g>
     </g>
    </g>
    <g id="xtick_2">
     <g id="line2d_2">
      <g>
       <use style="stroke:#000000;stroke-width:0.8;" x="102.96" xlink:href="#md7c6322dfb" y="192.24"/>
      </g>
     </g>
     <g id="text_2">
      <!-- −0.01 -->
      <defs>
       <path d="M 12.40625 8.296875 
L 28.515625 8.296875 
L 28.515625 63.921875 
L 10.984375 60.40625 
L 10.984375 69.390625 
L 28.421875 72.90625 
L 38.28125 72.90625 
L 38.28125 8.296875 
L 54.390625 8.296875 
L 54.390625 0 
L 12.40625 0 
z
" id="DejaVuSans-31"/>
      </defs>
      <g transform="translate(87.637344 206.838437)scale(0.1 -0.1)">
       <use xlink:href="#DejaVuSans-2212"/>
       <use x="83.789062" xlink:href="#DejaVuSans-30"/>
       <use x="147.412109" xlink:href="#DejaVuSans-2e"/>
       <use x="179.199219" xlink:href="#DejaVuSans-30"/>
       <use x="242.822266" xlink:href="#DejaVuSans-31"/>
      </g>
     </g>
    </g>
    <g id="xtick_3">
     <g id="line2d_3">
      <g>
       <use style="stroke:#000000;stroke-width:0.8;" x="147.6" xlink:href="#md7c6322dfb" y="192.24"/>
      </g>
     </g>
     <g id="text_3">
      <!-- 0.00 -->
      <g transform="translate(136.467187 206.838437)scale(0.1 -0.1)">
       <use xlink:href="#DejaVuSans-30"/>
       <use x="63.623047" xlink:href="#DejaVuSans-2e"/>
       <use x="95.410156" xlink:href="#DejaVuSans-30"/>
       <use x="159.033203" xlink:href="#DejaVuSans-30"/>
      </g>
     </g>
    </g>
    <g id="xtick_4">
     <g id="line2d_4">
      <g>
       <use style="stroke:#000000;stroke-width:0.8;" x="192.24" xlink:href="#md7c6322dfb" y="192.24"/>
      </g>
     </g>
     <g id="text_4">
      <!-- 0.01 -->
      <g transform="translate(181.107188 206.838437)scale(0.1 -0.1)">
       <use xlink:href="#DejaVuSans-30"/>
       <use x="63.623047" xlink:href="#DejaVuSans-2e"/>
       <use x="95.410156" xlink:href="#DejaVuSans-30"/>
       <use x="159.033203" xlink:href="#DejaVuSans-31"/>
      </g>
     </g>
    </g>
    <g id="xtick_5">
     <g id="line2d_5">
      <g>
       <use style="stroke:#000000;stroke-width:0.8;" x="236.88" xlink:href="#md7c6322dfb" y="192.24"/>
      </g>
     </g>
     <g id="text_5">
      <!-- 0.02 -->
      <g transform="translate(225.747187 206.838437)scale(0.1 -0.1)">
       <use xlink:href="#DejaVuSans-30"/>
       <use x="63.623047" xlink:href="#DejaVuSans-2e"/>
       <use x="95.410156" xlink:href="#DejaVuSans-30"/>
       <use x="159.033203" xlink:href="#DejaVuSans-32"/>
      </g>
     </g>
    </g>
    <g id="text_6">
     <!-- DIP Rate -->
     <defs>
      <path d="M 19.671875 64.796875 
L 19.671875 8.109375 
L 31.59375 8.109375 
Q 46.6875 8.109375 53.6875 14.9375 
Q 60.6875 21.78125 60.6875 36.53125 
Q 60.6875 51.171875 53.6875 57.984375 
Q 46.6875 64.796875 31.59375 64.796875 
z
M 9.8125 72.90625 
L 30.078125 72.90625 
Q 51.265625 72.90625 61.171875 64.09375 
Q 71.09375 55.28125 71.09375 36.53125 
Q 71.09375 17.671875 61.125 8.828125 
Q 51.171875 0 30.078125 0 
L 9.8125 0 
z
" id="DejaVuSans-44"/>
      <path d="M 9.8125 72.90625 
L 19.671875 72.90625 
L 19.671875 0 
L 9.8125 0 
z
" id="DejaVuSans-49"/>
      <path d="M 19.671875 64.796875 
L 19.671875 37.40625 
L 32.078125 37.40625 
Q 38.96875 37.40625 42.71875 40.96875 
Q 46.484375 44.53125 46.484375 51.125 
Q 46.484375 57.671875 42.71875 61.234375 
Q 38.96875 64.796875 32.078125 64.796875 
z
M 9.8125 72.90625 
L 32.078125 72.90625 
Q 44.34375 72.90625 50.609375 67.359375 
Q 56.890625 61.8125 56.890625 51.125 
Q 56.890625 40.328125 50.609375 34.8125 
Q 44.34375 29.296875 32.078125 29.296875 
L 19.671875 29.296875 
L 19.671875 0 
L 9.8125 0 
z
" id="DejaVuSans-50"/>
      <path id="DejaVuSans-20"/>
      <path d="M 44.390625 34.1875 
Q 47.5625 33.109375 50.5625 29.59375 
Q 53.5625 26.078125 56.59375 19.921875 
L 66.609375 0 
L 56 0 
L 46.6875 18.703125 
Q 43.0625 26.03125 39.671875 28.421875 
Q 36.28125 30.8125 30.421875 30.8125 
L 19.671875 30.8125 
L 19.671875 0 
L 9.8125 0 
L 9.8125 72.90625 
L 32.078125 72.90625 
Q 44.578125 72.90625 50.734375 67.671875 
Q 56.890625 62.453125 56.890625 51.90625 
Q 56.890625 45.015625 53.6875 40.46875 
Q 50.484375 35.9375 44.390625 34.1875 
z
M 19.671875 64.796875 
L 19.671875 38.921875 
L 32.078125 38.921875 
Q 39.203125 38.921875 42.84375 42.21875 
Q 46.484375 45.515625 46.484375 51.90625 
Q 46.484375 58.296875 42.84375 61.546875 
Q 39.203125 64.796875 32.078125 64.796875 
z
" id="DejaVuSans-52"/>
      <path d="M 34.28125 27.484375 
Q 23.390625 27.484375 19.1875 25 
Q 14.984375 22.515625 14.984375 16.5 
Q 14.984375 11.71875 18.140625 8.90625 
Q 21.296875 6.109375 26.703125 6.109375 
Q 34.1875 6.109375 38.703125 11.40625 
Q 43.21875 16.703125 43.21875 25.484375 
L 43.21875 27.484375 
z
M 52.203125 31.203125 
L 52.203125 0 
L 43.21875 0 
L 43.21875 8.296875 
Q 40.140625 3.328125 35.546875 0.953125 
Q 30.953125 -1.421875 24.3125 -1.421875 
Q 15.921875 -1.421875 10.953125 3.296875 
Q 6 8.015625 6 15.921875 
Q 6 25.140625 12.171875 29.828125 
Q 18.359375 34.515625 30.609375 34.515625 
L 43.21875 34.515625 
L 43.21875 35.40625 
Q 43.21875 41.609375 39.140625 45 
Q 35.0625 48.390625 27.6875 48.390625 
Q 23 48.390625 18.546875 47.265625 
Q 14.109375 46.140625 10.015625 43.890625 
L 10.015625 52.203125 
Q 14.9375 54.109375 19.578125 55.046875 
Q 24.21875 56 28.609375 56 
Q 40.484375 56 46.34375 49.84375 
Q 52.203125 43.703125 52.203125 31.203125 
z
" id="DejaVuSans-61"/>
      <path d="M 18.3125 70.21875 
L 18.3125 54.6875 
L 36.8125 54.6875 
L 36.8125 47.703125 
L 18.3125 47.703125 
L 18.3125 18.015625 
Q 18.3125 11.328125 20.140625 9.421875 
Q 21.96875 7.515625 27.59375 7.515625 
L 36.8125 7.515625 
L 36.8125 0 
L 27.59375 0 
Q 17.1875 0 13.234375 3.875 
Q 9.28125 7.765625 9.28125 18.015625 
L 9.28125 47.703125 
L 2.6875 47.703125 
L 2.6875 54.6875 
L 9.28125 54.6875 
L 9.28125 70.21875 
z
" id="DejaVuSans-74"/>
      <path d="M 56.203125 29.59375 
L 56.203125 25.203125 
L 14.890625 25.203125 
Q 15.484375 15.921875 20.484375 11.0625 
Q 25.484375 6.203125 34.421875 6.203125 
Q 39.59375 6.203125 44.453125 7.46875 
Q 49.3125 8.734375 54.109375 11.28125 
L 54.109375 2.78125 
Q 49.265625 0.734375 44.1875 -0.34375 
Q 39.109375 -1.421875 33.890625 -1.421875 
Q 20.796875 -1.421875 13.15625 6.1875 
Q 5.515625 13.8125 5.515625 26.8125 
Q 5.515625 40.234375 12.765625 48.109375 
Q 20.015625 56 32.328125 56 
Q 43.359375 56 49.78125 48.890625 
Q 56.203125 41.796875 56.203125 29.59375 
z
M 47.21875 32.234375 
Q 47.125 39.59375 43.09375 43.984375 
Q 39.0625 48.390625 32.421875 48.390625 
Q 24.90625 48.390625 20.390625 44.140625 
Q 15.875 39.890625 15.1875 32.171875 
z
" id="DejaVuSans-65"/>
     </defs>
     <g transform="translate(126.097656 220.516562)scale(0.1 -0.1)">
      <use xlink:href="#DejaVuSans-44"/>
      <use x="77.001953" xlink:href="#DejaVuSans-49"/>
      <use x="106.494141" xlink:href="#DejaVuSans-50"/>
      <use x="166.796875" xlink:href="#DejaVuSans-20"/>
      <use x="198.583984" xlink:href="#DejaVuSans-52"/>
      <use x="268.035156" xlink:href="#DejaVuSans-61"/>
      <use x="329.314453" xlink:href="#DejaVuSans-74"/>
      <use x="368.523438" xlink:href="#DejaVuSans-65"/>
     </g>
    </g>
   </g>
   <g id="matplotlib.axis_2">
    <g id="ytick_1">
     <g id="line2d_6">
      <defs>
       <path d="M 0 0 
L -3.5 0 
" id="m25148666e3" style="stroke:#000000;stroke-width:0.8;"/>
      </defs>
      <g>
       <use style="stroke:#000000;stroke-width:0.8;" x="36" xlink:href="#m25148666e3" y="192.24"/>
      </g>
     </g>
     <g id="text_7">
      <!-- 0 -->
      <g transform="translate(22.6375 196.039219)scale(0.1 -0.1)">
       <use xlink:href="#DejaVuSans-30"/>
      </g>
     </g>
    </g>
    <g id="ytick_2">
     <g id="line2d_7">
      <g>
       <use style="stroke:#000000;stroke-width:0.8;" x="36" xlink:href="#m25148666e3" y="171.45"/>
      </g>
     </g>
     <g id="text_8">
      <!-- 25 -->
      <defs>
       <path d="M 10.796875 72.90625 
L 49.515625 72.90625 
L 49.515625 64.59375 
L 19.828125 64.59375 
L 19.828125 46.734375 
Q 21.96875 47.46875 24.109375 47.828125 
Q 26.265625 48.1875 28.421875 48.1875 
Q 40.625 48.1875 47.75 41.5 
Q 54.890625 34.8125 54.890625 23.390625 
Q 54.890625 11.625 47.5625 5.09375 
Q 40.234375 -1.421875 26.90625 -1.421875 
Q 22.3125 -1.421875 17.546875 -0.640625 
Q 12.796875 0.140625 7.71875 1.703125 
L 7.71875 11.625 
Q 12.109375 9.234375 16.796875 8.0625 
Q 21.484375 6.890625 26.703125 6.890625 
Q 35.15625 6.890625 40.078125 11.328125 
Q 45.015625 15.765625 45.015625 23.390625 
Q 45.015625 31 40.078125 35.4375 
Q 35.15625 39.890625 26.703125 39.890625 
Q 22.75 39.890625 18.8125 39.015625 
Q 14.890625 38.140625 10.796875 36.28125 
z
" id="DejaVuSans-35"/>
      </defs>
      <g transform="translate(16.275 175.249219)scale(0.1 -0.1)">
       <use xlink:href="#DejaVuSans-32"/>
       <use x="63.623047" xlink:href="#DejaVuSans-35"/>
      </g>
     </g>
    </g>
    <g id="ytick_3">
     <g id="line2d_8">
      <g>
       <use style="stroke:#000000;stroke-width:0.8;" x="36" xlink:href="#m25148666e3" y="150.66"/>
      </g>
     </g>
     <g id="text_9">
      <!-- 50 -->
      <g transform="translate(16.275 154.459219)scale(0.1 -0.1)">
       <use xlink:href="#DejaVuSans-35"/>
       <use x="63.623047" xlink:href="#DejaVuSans-30"/>
      </g>
     </g>
    </g>
    <g id="ytick_4">
     <g id="line2d_9">
      <g>
       <use style="stroke:#000000;stroke-width:0.8;" x="36" xlink:href="#m25148666e3" y="129.87"/>
      </g>
     </g>
     <g id="text_10">
      <!-- 75 -->
      <defs>
       <path d="M 8.203125 72.90625 
L 55.078125 72.90625 
L 55.078125 68.703125 
L 28.609375 0 
L 18.3125 0 
L 43.21875 64.59375 
L 8.203125 64.59375 
z
" id="DejaVuSans-37"/>
      </defs>
      <g transform="translate(16.275 133.669219)scale(0.1 -0.1)">
       <use xlink:href="#DejaVuSans-37"/>
       <use x="63.623047" xlink:href="#DejaVuSans-35"/>
      </g>
     </g>
    </g>
    <g id="ytick_5">
     <g id="line2d_10">
      <g>
       <use style="stroke:#000000;stroke-width:0.8;" x="36" xlink:href="#m25148666e3" y="109.08"/>
      </g>
     </g>
     <g id="text_11">
      <!-- 100 -->
      <g transform="translate(9.9125 112.879219)scale(0.1 -0.1)">
       <use xlink:href="#DejaVuSans-31"/>
       <use x="63.623047" xlink:href="#DejaVuSans-30"/>
       <use x="127.246094" xlink:href="#DejaVuSans-30"/>
      </g>
     </g>
    </g>
    <g id="ytick_6">
     <g id="line2d_11">
      <g>
       <use style="stroke:#000000;stroke-width:0.8;" x="36" xlink:href="#m25148666e3" y="88.29"/>
      </g>
     </g>
     <g id="text_12">
      <!-- 125 -->
      <g transform="translate(9.9125 92.089219)scale(0.1 -0.1)">
       <use xlink:href="#DejaVuSans-31"/>
       <use x="63.623047" xlink:href="#DejaVuSans-32"/>
       <use x="127.246094" xlink:href="#DejaVuSans-35"/>
      </g>
     </g>
    </g>
    <g id="ytick_7">
     <g id="line2d_12">
      <g>
       <use style="stroke:#000000;stroke-width:0.8;" x="36" xlink:href="#m25148666e3" y="67.5"/>
      </g>
     </g>
     <g id="text_13">
      <!-- 150 -->
      <g transform="translate(9.9125 71.299219)scale(0.1 -0.1)">
       <use xlink:href="#DejaVuSans-31"/>
       <use x="63.623047" xlink:href="#DejaVuSans-35"/>
       <use x="127.246094" xlink:href="#DejaVuSans-30"/>
      </g>
     </g>
    </g>
    <g id="ytick_8">
     <g id="line2d_13">
      <g>
       <use style="stroke:#000000;stroke-width:0.8;" x="36" xlink:href="#m25148666e3" y="46.71"/>
      </g>
     </g>
     <g id="text_14">
      <!-- 175 -->
      <g transform="translate(9.9125 50.509219)scale(0.1 -0.1)">
       <use xlink:href="#DejaVuSans-31"/>
       <use x="63.623047" xlink:href="#DejaVuSans-37"/>
       <use x="127.246094" xlink:href="#DejaVuSans-35"/>
      </g>
     </g>
    </g>
    <g id="ytick_9">
     <g id="line2d_14">
      <g>
       <use style="stroke:#000000;stroke-width:0.8;" x="36" xlink:href="#m25148666e3" y="25.92"/>
      </g>
     </g>
     <g id="text_15">
      <!-- 200 -->
      <g transform="translate(9.9125 29.719219)scale(0.1 -0.1)">
       <use xlink:href="#DejaVuSans-32"/>
       <use x="63.623047" xlink:href="#DejaVuSans-30"/>
       <use x="127.246094" xlink:href="#DejaVuSans-30"/>
      </g>
     </g>
    </g>
    <g id="text_16">
     <!-- Density -->
     <defs>
      <path d="M 54.890625 33.015625 
L 54.890625 0 
L 45.90625 0 
L 45.90625 32.71875 
Q 45.90625 40.484375 42.875 44.328125 
Q 39.84375 48.1875 33.796875 48.1875 
Q 26.515625 48.1875 22.3125 43.546875 
Q 18.109375 38.921875 18.109375 30.90625 
L 18.109375 0 
L 9.078125 0 
L 9.078125 54.6875 
L 18.109375 54.6875 
L 18.109375 46.1875 
Q 21.34375 51.125 25.703125 53.5625 
Q 30.078125 56 35.796875 56 
Q 45.21875 56 50.046875 50.171875 
Q 54.890625 44.34375 54.890625 33.015625 
z
" id="DejaVuSans-6e"/>
      <path d="M 44.28125 53.078125 
L 44.28125 44.578125 
Q 40.484375 46.53125 36.375 47.5 
Q 32.28125 48.484375 27.875 48.484375 
Q 21.1875 48.484375 17.84375 46.4375 
Q 14.5 44.390625 14.5 40.28125 
Q 14.5 37.15625 16.890625 35.375 
Q 19.28125 33.59375 26.515625 31.984375 
L 29.59375 31.296875 
Q 39.15625 29.25 43.1875 25.515625 
Q 47.21875 21.78125 47.21875 15.09375 
Q 47.21875 7.46875 41.1875 3.015625 
Q 35.15625 -1.421875 24.609375 -1.421875 
Q 20.21875 -1.421875 15.453125 -0.5625 
Q 10.6875 0.296875 5.421875 2 
L 5.421875 11.28125 
Q 10.40625 8.6875 15.234375 7.390625 
Q 20.0625 6.109375 24.8125 6.109375 
Q 31.15625 6.109375 34.5625 8.28125 
Q 37.984375 10.453125 37.984375 14.40625 
Q 37.984375 18.0625 35.515625 20.015625 
Q 33.0625 21.96875 24.703125 23.78125 
L 21.578125 24.515625 
Q 13.234375 26.265625 9.515625 29.90625 
Q 5.8125 33.546875 5.8125 39.890625 
Q 5.8125 47.609375 11.28125 51.796875 
Q 16.75 56 26.8125 56 
Q 31.78125 56 36.171875 55.265625 
Q 40.578125 54.546875 44.28125 53.078125 
z
" id="DejaVuSans-73"/>
      <path d="M 9.421875 54.6875 
L 18.40625 54.6875 
L 18.40625 0 
L 9.421875 0 
z
M 9.421875 75.984375 
L 18.40625 75.984375 
L 18.40625 64.59375 
L 9.421875 64.59375 
z
" id="DejaVuSans-69"/>
      <path d="M 32.171875 -5.078125 
Q 28.375 -14.84375 24.75 -17.8125 
Q 21.140625 -20.796875 15.09375 -20.796875 
L 7.90625 -20.796875 
L 7.90625 -13.28125 
L 13.1875 -13.28125 
Q 16.890625 -13.28125 18.9375 -11.515625 
Q 21 -9.765625 23.484375 -3.21875 
L 25.09375 0.875 
L 2.984375 54.6875 
L 12.5 54.6875 
L 29.59375 11.921875 
L 46.6875 54.6875 
L 56.203125 54.6875 
z
" id="DejaVuSans-79"/>
     </defs>
     <g transform="translate(3.832812 128.088594)rotate(-90)scale(0.1 -0.1)">
      <use xlink:href="#DejaVuSans-44"/>
      <use x="77.001953" xlink:href="#DejaVuSans-65"/>
      <use x="138.525391" xlink:href="#DejaVuSans-6e"/>
      <use x="201.904297" xlink:href="#DejaVuSans-73"/>
      <use x="254.003906" xlink:href="#DejaVuSans-69"/>
      <use x="281.787109" xlink:href="#DejaVuSans-74"/>
      <use x="320.996094" xlink:href="#DejaVuSans-79"/>
     </g>
    </g>
   </g>
   <g id="line2d_15">
    <path clip-path="url(#p4c85e1b770)" d="M 40.754851 192.19639 
L 43.216691 192.104688 
L 45.67853 191.782548 
L 48.140369 191.128465 
L 50.602209 190.323622 
L 51.833128 190.027561 
L 53.064048 189.895563 
L 54.294968 189.959462 
L 55.525888 190.20295 
L 60.449566 191.628031 
L 61.680486 191.789215 
L 62.911406 191.816259 
L 64.142325 191.707315 
L 66.604165 191.128548 
L 70.296924 190.037666 
L 71.527844 189.897402 
L 72.758763 189.949264 
L 75.220603 190.515471 
L 77.682442 191.178843 
L 78.913362 191.346452 
L 80.144281 191.345931 
L 81.375201 191.177394 
L 86.29888 189.944633 
L 87.5298 189.886733 
L 88.760719 190.010814 
L 93.684398 190.969527 
L 94.915318 190.869383 
L 96.146237 190.523305 
L 97.377157 189.944676 
L 99.838996 188.339436 
L 102.300836 186.780355 
L 103.531756 186.240406 
L 104.762675 185.90486 
L 108.455434 185.384283 
L 109.686354 184.884418 
L 110.917274 183.975431 
L 112.148193 182.611724 
L 114.610033 178.963209 
L 115.840952 177.166109 
L 117.071872 175.755005 
L 118.302792 174.893272 
L 119.533711 174.559601 
L 121.995551 174.428968 
L 123.226471 173.801982 
L 124.45739 172.211539 
L 125.68831 169.291825 
L 126.91923 164.78301 
L 128.150149 158.551557 
L 129.381069 150.611207 
L 130.611989 141.144709 
L 133.073828 119.229679 
L 135.535667 97.13417 
L 136.766587 87.422625 
L 137.997507 79.109449 
L 139.228427 72.393322 
L 140.459346 67.409943 
L 141.690266 64.320859 
L 142.921186 63.342406 
L 144.152105 64.680629 
L 145.383025 68.404124 
L 146.613945 74.3341 
L 147.844864 82.02173 
L 152.768543 117.292032 
L 153.999463 124.499626 
L 155.230383 130.532586 
L 156.461302 135.47923 
L 157.692222 139.619438 
L 161.384981 151.019527 
L 165.07774 163.577947 
L 166.30866 167.168642 
L 167.539579 170.165729 
L 168.770499 172.616606 
L 171.232339 176.5954 
L 176.156017 184.179796 
L 177.386937 185.634894 
L 178.617857 186.626585 
L 179.848776 187.135422 
L 181.079696 187.269292 
L 183.541535 187.237251 
L 184.772455 187.459473 
L 186.003375 187.955842 
L 188.465214 189.50572 
L 190.927054 190.984215 
L 192.157973 191.489782 
L 193.388893 191.827865 
L 195.850732 192.139756 
L 197.081652 192.188021 
L 197.081652 192.188021 
" style="fill:none;stroke:#808080;stroke-linecap:square;stroke-width:1.5;"/>
   </g>
   <g id="line2d_16">
    <path clip-path="url(#p4c85e1b770)" d="M 86.615955 192.186946 
L 89.800828 192.099256 
L 92.189484 191.832333 
L 94.578139 191.308054 
L 96.966794 190.539847 
L 101.744105 188.686654 
L 104.928979 187.24061 
L 107.317634 185.952732 
L 108.910071 184.926008 
L 110.502508 183.648284 
L 112.094944 181.982299 
L 113.687381 179.796558 
L 115.279818 176.989923 
L 116.872255 173.512318 
L 118.464692 169.411274 
L 126.426876 147.073428 
L 127.223095 144.365638 
L 128.019313 141.216768 
L 128.815531 137.527342 
L 130.407968 128.344488 
L 132.000405 117.036458 
L 135.185279 93.281549 
L 135.981497 88.396763 
L 136.777716 84.315271 
L 137.573934 81.143486 
L 138.370153 78.9246 
L 139.166371 77.640335 
L 139.962589 77.219536 
L 140.758808 77.5517 
L 141.555026 78.502955 
L 142.351245 79.931903 
L 143.943682 83.697723 
L 148.720992 96.739385 
L 150.313429 101.438018 
L 151.905866 106.963777 
L 153.498303 113.73652 
L 155.09074 121.768671 
L 159.86805 147.267095 
L 161.460487 154.164559 
L 163.052924 159.993097 
L 164.645361 164.894742 
L 166.237798 168.971016 
L 167.830235 172.281523 
L 169.422671 174.944694 
L 171.811327 178.265384 
L 174.199982 181.583391 
L 178.181074 187.365263 
L 179.773511 189.202421 
L 181.365948 190.535161 
L 182.958385 191.382168 
L 184.550822 191.853526 
L 186.143258 192.081702 
L 187.735695 192.172361 
L 187.735695 192.172361 
" style="fill:none;stroke:#a52a2a;stroke-linecap:square;stroke-width:1.5;"/>
   </g>
   <g id="patch_3">
    <path d="M 36 192.24 
L 36 25.92 
" style="fill:none;stroke:#000000;stroke-linecap:square;stroke-linejoin:miter;stroke-width:0.8;"/>
   </g>
   <g id="patch_4">
    <path d="M 259.2 192.24 
L 259.2 25.92 
" style="fill:none;stroke:#000000;stroke-linecap:square;stroke-linejoin:miter;stroke-width:0.8;"/>
   </g>
   <g id="patch_5">
    <path d="M 36 192.24 
L 259.2 192.24 
" style="fill:none;stroke:#000000;stroke-linecap:square;stroke-linejoin:miter;stroke-width:0.8;"/>
   </g>
   <g id="patch_6">
    <path d="M 36 25.92 
L 259.2 25.92 
" style="fill:none;stroke:#000000;stroke-linecap:square;stroke-linejoin:miter;stroke-width:0.8;"/>
   </g>
   <g id="text_17">
    <!-- p=0.741 -->
    <defs>
     <path d="M 18.109375 8.203125 
L 18.109375 -20.796875 
L 9.078125 -20.796875 
L 9.078125 54.6875 
L 18.109375 54.6875 
L 18.109375 46.390625 
Q 20.953125 51.265625 25.265625 53.625 
Q 29.59375 56 35.59375 56 
Q 45.5625 56 51.78125 48.09375 
Q 58.015625 40.1875 58.015625 27.296875 
Q 58.015625 14.40625 51.78125 6.484375 
Q 45.5625 -1.421875 35.59375 -1.421875 
Q 29.59375 -1.421875 25.265625 0.953125 
Q 20.953125 3.328125 18.109375 8.203125 
z
M 48.6875 27.296875 
Q 48.6875 37.203125 44.609375 42.84375 
Q 40.53125 48.484375 33.40625 48.484375 
Q 26.265625 48.484375 22.1875 42.84375 
Q 18.109375 37.203125 18.109375 27.296875 
Q 18.109375 17.390625 22.1875 11.75 
Q 26.265625 6.109375 33.40625 6.109375 
Q 40.53125 6.109375 44.609375 11.75 
Q 48.6875 17.390625 48.6875 27.296875 
z
" id="DejaVuSans-70"/>
     <path d="M 10.59375 45.40625 
L 73.1875 45.40625 
L 73.1875 37.203125 
L 10.59375 37.203125 
z
M 10.59375 25.484375 
L 73.1875 25.484375 
L 73.1875 17.1875 
L 10.59375 17.1875 
z
" id="DejaVuSans-3d"/>
     <path d="M 37.796875 64.3125 
L 12.890625 25.390625 
L 37.796875 25.390625 
z
M 35.203125 72.90625 
L 47.609375 72.90625 
L 47.609375 25.390625 
L 58.015625 25.390625 
L 58.015625 17.1875 
L 47.609375 17.1875 
L 47.609375 0 
L 37.796875 0 
L 37.796875 17.1875 
L 4.890625 17.1875 
L 4.890625 26.703125 
z
" id="DejaVuSans-34"/>
    </defs>
    <g transform="translate(178.848 67.5)scale(0.12 -0.12)">
     <use xlink:href="#DejaVuSans-70"/>
     <use x="63.476562" xlink:href="#DejaVuSans-3d"/>
     <use x="147.265625" xlink:href="#DejaVuSans-30"/>
     <use x="210.888672" xlink:href="#DejaVuSans-2e"/>
     <use x="242.675781" xlink:href="#DejaVuSans-37"/>
     <use x="306.298828" xlink:href="#DejaVuSans-34"/>
     <use x="369.921875" xlink:href="#DejaVuSans-31"/>
    </g>
   </g>
   <g id="text_18">
    <!-- DIP Rate Distribution -->
    <defs>
     <path d="M 41.109375 46.296875 
Q 39.59375 47.171875 37.8125 47.578125 
Q 36.03125 48 33.890625 48 
Q 26.265625 48 22.1875 43.046875 
Q 18.109375 38.09375 18.109375 28.8125 
L 18.109375 0 
L 9.078125 0 
L 9.078125 54.6875 
L 18.109375 54.6875 
L 18.109375 46.1875 
Q 20.953125 51.171875 25.484375 53.578125 
Q 30.03125 56 36.53125 56 
Q 37.453125 56 38.578125 55.875 
Q 39.703125 55.765625 41.0625 55.515625 
z
" id="DejaVuSans-72"/>
     <path d="M 48.6875 27.296875 
Q 48.6875 37.203125 44.609375 42.84375 
Q 40.53125 48.484375 33.40625 48.484375 
Q 26.265625 48.484375 22.1875 42.84375 
Q 18.109375 37.203125 18.109375 27.296875 
Q 18.109375 17.390625 22.1875 11.75 
Q 26.265625 6.109375 33.40625 6.109375 
Q 40.53125 6.109375 44.609375 11.75 
Q 48.6875 17.390625 48.6875 27.296875 
z
M 18.109375 46.390625 
Q 20.953125 51.265625 25.265625 53.625 
Q 29.59375 56 35.59375 56 
Q 45.5625 56 51.78125 48.09375 
Q 58.015625 40.1875 58.015625 27.296875 
Q 58.015625 14.40625 51.78125 6.484375 
Q 45.5625 -1.421875 35.59375 -1.421875 
Q 29.59375 -1.421875 25.265625 0.953125 
Q 20.953125 3.328125 18.109375 8.203125 
L 18.109375 0 
L 9.078125 0 
L 9.078125 75.984375 
L 18.109375 75.984375 
z
" id="DejaVuSans-62"/>
     <path d="M 8.5 21.578125 
L 8.5 54.6875 
L 17.484375 54.6875 
L 17.484375 21.921875 
Q 17.484375 14.15625 20.5 10.265625 
Q 23.53125 6.390625 29.59375 6.390625 
Q 36.859375 6.390625 41.078125 11.03125 
Q 45.3125 15.671875 45.3125 23.6875 
L 45.3125 54.6875 
L 54.296875 54.6875 
L 54.296875 0 
L 45.3125 0 
L 45.3125 8.40625 
Q 42.046875 3.421875 37.71875 1 
Q 33.40625 -1.421875 27.6875 -1.421875 
Q 18.265625 -1.421875 13.375 4.4375 
Q 8.5 10.296875 8.5 21.578125 
z
M 31.109375 56 
z
" id="DejaVuSans-75"/>
     <path d="M 30.609375 48.390625 
Q 23.390625 48.390625 19.1875 42.75 
Q 14.984375 37.109375 14.984375 27.296875 
Q 14.984375 17.484375 19.15625 11.84375 
Q 23.34375 6.203125 30.609375 6.203125 
Q 37.796875 6.203125 41.984375 11.859375 
Q 46.1875 17.53125 46.1875 27.296875 
Q 46.1875 37.015625 41.984375 42.703125 
Q 37.796875 48.390625 30.609375 48.390625 
z
M 30.609375 56 
Q 42.328125 56 49.015625 48.375 
Q 55.71875 40.765625 55.71875 27.296875 
Q 55.71875 13.875 49.015625 6.21875 
Q 42.328125 -1.421875 30.609375 -1.421875 
Q 18.84375 -1.421875 12.171875 6.21875 
Q 5.515625 13.875 5.515625 27.296875 
Q 5.515625 40.765625 12.171875 48.375 
Q 18.84375 56 30.609375 56 
z
" id="DejaVuSans-6f"/>
    </defs>
    <g transform="translate(84.887812 19.92)scale(0.12 -0.12)">
     <use xlink:href="#DejaVuSans-44"/>
     <use x="77.001953" xlink:href="#DejaVuSans-49"/>
     <use x="106.494141" xlink:href="#DejaVuSans-50"/>
     <use x="166.796875" xlink:href="#DejaVuSans-20"/>
     <use x="198.583984" xlink:href="#DejaVuSans-52"/>
     <use x="268.035156" xlink:href="#DejaVuSans-61"/>
     <use x="329.314453" xlink:href="#DejaVuSans-74"/>
     <use x="368.523438" xlink:href="#DejaVuSans-65"/>
     <use x="430.046875" xlink:href="#DejaVuSans-20"/>
     <use x="461.833984" xlink:href="#DejaVuSans-44"/>
     <use x="538.835938" xlink:href="#DejaVuSans-69"/>
     <use x="566.619141" xlink:href="#DejaVuSans-73"/>
     <use x="618.71875" xlink:href="#DejaVuSans-74"/>
     <use x="657.927734" xlink:href="#DejaVuSans-72"/>
     <use x="699.041016" xlink:href="#DejaVuSans-69"/>
     <use x="726.824219" xlink:href="#DejaVuSans-62"/>
     <use x="790.300781" xlink:href="#DejaVuSans-75"/>
     <use x="853.679688" xlink:href="#DejaVuSans-74"/>
     <use x="892.888672" xlink:href="#DejaVuSans-69"/>
     <use x="920.671875" xlink:href="#DejaVuSans-6f"/>
     <use x="981.853516" xlink:href="#DejaVuSans-6e"/>
    </g>
   </g>
   <g id="legend_1">
    <g id="patch_7">
     <path d="M 43 63.27625 
L 141.685938 63.27625 
Q 143.685938 63.27625 143.685938 61.27625 
L 143.685938 32.92 
Q 143.685938 30.92 141.685938 30.92 
L 43 30.92 
Q 41 30.92 41 32.92 
L 41 61.27625 
Q 41 63.27625 43 63.27625 
z
" style="fill:#ffffff;opacity:0.8;stroke:#cccccc;stroke-linejoin:miter;"/>
    </g>
    <g id="patch_8">
     <path d="M 45 42.518437 
L 65 42.518437 
L 65 35.518437 
L 45 35.518437 
z
" style="fill:#808080;opacity:0.25;"/>
    </g>
    <g id="text_19">
     <!-- Simulated -->
     <defs>
      <path d="M 53.515625 70.515625 
L 53.515625 60.890625 
Q 47.90625 63.578125 42.921875 64.890625 
Q 37.9375 66.21875 33.296875 66.21875 
Q 25.25 66.21875 20.875 63.09375 
Q 16.5 59.96875 16.5 54.203125 
Q 16.5 49.359375 19.40625 46.890625 
Q 22.3125 44.4375 30.421875 42.921875 
L 36.375 41.703125 
Q 47.40625 39.59375 52.65625 34.296875 
Q 57.90625 29 57.90625 20.125 
Q 57.90625 9.515625 50.796875 4.046875 
Q 43.703125 -1.421875 29.984375 -1.421875 
Q 24.8125 -1.421875 18.96875 -0.25 
Q 13.140625 0.921875 6.890625 3.21875 
L 6.890625 13.375 
Q 12.890625 10.015625 18.65625 8.296875 
Q 24.421875 6.59375 29.984375 6.59375 
Q 38.421875 6.59375 43.015625 9.90625 
Q 47.609375 13.234375 47.609375 19.390625 
Q 47.609375 24.75 44.3125 27.78125 
Q 41.015625 30.8125 33.5 32.328125 
L 27.484375 33.5 
Q 16.453125 35.6875 11.515625 40.375 
Q 6.59375 45.0625 6.59375 53.421875 
Q 6.59375 63.09375 13.40625 68.65625 
Q 20.21875 74.21875 32.171875 74.21875 
Q 37.3125 74.21875 42.625 73.28125 
Q 47.953125 72.359375 53.515625 70.515625 
z
" id="DejaVuSans-53"/>
      <path d="M 52 44.1875 
Q 55.375 50.25 60.0625 53.125 
Q 64.75 56 71.09375 56 
Q 79.640625 56 84.28125 50.015625 
Q 88.921875 44.046875 88.921875 33.015625 
L 88.921875 0 
L 79.890625 0 
L 79.890625 32.71875 
Q 79.890625 40.578125 77.09375 44.375 
Q 74.3125 48.1875 68.609375 48.1875 
Q 61.625 48.1875 57.5625 43.546875 
Q 53.515625 38.921875 53.515625 30.90625 
L 53.515625 0 
L 44.484375 0 
L 44.484375 32.71875 
Q 44.484375 40.625 41.703125 44.40625 
Q 38.921875 48.1875 33.109375 48.1875 
Q 26.21875 48.1875 22.15625 43.53125 
Q 18.109375 38.875 18.109375 30.90625 
L 18.109375 0 
L 9.078125 0 
L 9.078125 54.6875 
L 18.109375 54.6875 
L 18.109375 46.1875 
Q 21.1875 51.21875 25.484375 53.609375 
Q 29.78125 56 35.6875 56 
Q 41.65625 56 45.828125 52.96875 
Q 50 49.953125 52 44.1875 
z
" id="DejaVuSans-6d"/>
      <path d="M 9.421875 75.984375 
L 18.40625 75.984375 
L 18.40625 0 
L 9.421875 0 
z
" id="DejaVuSans-6c"/>
      <path d="M 45.40625 46.390625 
L 45.40625 75.984375 
L 54.390625 75.984375 
L 54.390625 0 
L 45.40625 0 
L 45.40625 8.203125 
Q 42.578125 3.328125 38.25 0.953125 
Q 33.9375 -1.421875 27.875 -1.421875 
Q 17.96875 -1.421875 11.734375 6.484375 
Q 5.515625 14.40625 5.515625 27.296875 
Q 5.515625 40.1875 11.734375 48.09375 
Q 17.96875 56 27.875 56 
Q 33.9375 56 38.25 53.625 
Q 42.578125 51.265625 45.40625 46.390625 
z
M 14.796875 27.296875 
Q 14.796875 17.390625 18.875 11.75 
Q 22.953125 6.109375 30.078125 6.109375 
Q 37.203125 6.109375 41.296875 11.75 
Q 45.40625 17.390625 45.40625 27.296875 
Q 45.40625 37.203125 41.296875 42.84375 
Q 37.203125 48.484375 30.078125 48.484375 
Q 22.953125 48.484375 18.875 42.84375 
Q 14.796875 37.203125 14.796875 27.296875 
z
" id="DejaVuSans-64"/>
     </defs>
     <g transform="translate(73 42.518437)scale(0.1 -0.1)">
      <use xlink:href="#DejaVuSans-53"/>
      <use x="63.476562" xlink:href="#DejaVuSans-69"/>
      <use x="91.259766" xlink:href="#DejaVuSans-6d"/>
      <use x="188.671875" xlink:href="#DejaVuSans-75"/>
      <use x="252.050781" xlink:href="#DejaVuSans-6c"/>
      <use x="279.833984" xlink:href="#DejaVuSans-61"/>
      <use x="341.113281" xlink:href="#DejaVuSans-74"/>
      <use x="380.322266" xlink:href="#DejaVuSans-65"/>
      <use x="441.845703" xlink:href="#DejaVuSans-64"/>
     </g>
    </g>
    <g id="patch_9">
     <path d="M 45 57.196562 
L 65 57.196562 
L 65 50.196562 
L 45 50.196562 
z
" style="fill:#a52a2a;opacity:0.25;"/>
    </g>
    <g id="text_20">
     <!-- Experimental -->
     <defs>
      <path d="M 9.8125 72.90625 
L 55.90625 72.90625 
L 55.90625 64.59375 
L 19.671875 64.59375 
L 19.671875 43.015625 
L 54.390625 43.015625 
L 54.390625 34.71875 
L 19.671875 34.71875 
L 19.671875 8.296875 
L 56.78125 8.296875 
L 56.78125 0 
L 9.8125 0 
z
" id="DejaVuSans-45"/>
      <path d="M 54.890625 54.6875 
L 35.109375 28.078125 
L 55.90625 0 
L 45.3125 0 
L 29.390625 21.484375 
L 13.484375 0 
L 2.875 0 
L 24.125 28.609375 
L 4.6875 54.6875 
L 15.28125 54.6875 
L 29.78125 35.203125 
L 44.28125 54.6875 
z
" id="DejaVuSans-78"/>
     </defs>
     <g transform="translate(73 57.196562)scale(0.1 -0.1)">
      <use xlink:href="#DejaVuSans-45"/>
      <use x="63.183594" xlink:href="#DejaVuSans-78"/>
      <use x="122.363281" xlink:href="#DejaVuSans-70"/>
      <use x="185.839844" xlink:href="#DejaVuSans-65"/>
      <use x="247.363281" xlink:href="#DejaVuSans-72"/>
      <use x="288.476562" xlink:href="#DejaVuSans-69"/>
      <use x="316.259766" xlink:href="#DejaVuSans-6d"/>
      <use x="413.671875" xlink:href="#DejaVuSans-65"/>
      <use x="475.195312" xlink:href="#DejaVuSans-6e"/>
      <use x="538.574219" xlink:href="#DejaVuSans-74"/>
      <use x="577.783203" xlink:href="#DejaVuSans-61"/>
      <use x="639.0625" xlink:href="#DejaVuSans-6c"/>
     </g>
    </g>
   </g>
  </g>
 </g>
 <defs>
  <clipPath id="p4c85e1b770">
   <rect height="166.32" width="223.2" x="36" y="25.92"/>
  </clipPath>
 </defs>
</svg>
