<?xml version="1.0" encoding="utf-8" standalone="no"?>
<!DOCTYPE svg PUBLIC "-//W3C//DTD SVG 1.1//EN"
  "http://www.w3.org/Graphics/SVG/1.1/DTD/svg11.dtd">
<!-- Created with matplotlib (http://matplotlib.org/) -->
<svg height="216pt" version="1.1" viewBox="0 0 288 216" width="288pt" xmlns="http://www.w3.org/2000/svg" xmlns:xlink="http://www.w3.org/1999/xlink">
 <defs>
  <style type="text/css">
*{stroke-linecap:butt;stroke-linejoin:round;}
  </style>
 </defs>
 <g id="figure_1">
  <g id="patch_1">
   <path d="M 0 216 
L 288 216 
L 288 0 
L 0 0 
z
" style="fill:#ffffff;"/>
  </g>
  <g id="axes_1">
   <g id="patch_2">
    <path d="M 36 192.24 
L 259.2 192.24 
L 259.2 25.92 
L 36 25.92 
z
" style="fill:#ffffff;"/>
   </g>
   <g id="PolyCollection_1">
    <path clip-path="url(#p13406ca778)" d="M 57.712731 192.203101 
L 57.712731 192.24 
L 58.9951 192.24 
L 60.27747 192.24 
L 61.559839 192.24 
L 62.842208 192.24 
L 64.124578 192.24 
L 65.406947 192.24 
L 66.689316 192.24 
L 67.971686 192.24 
L 69.254055 192.24 
L 70.536424 192.24 
L 71.818794 192.24 
L 73.101163 192.24 
L 74.383532 192.24 
L 75.665902 192.24 
L 76.948271 192.24 
L 78.23064 192.24 
L 79.51301 192.24 
L 80.795379 192.24 
L 82.077748 192.24 
L 83.360118 192.24 
L 84.642487 192.24 
L 85.924856 192.24 
L 87.207226 192.24 
L 88.489595 192.24 
L 89.771964 192.24 
L 91.054334 192.24 
L 92.336703 192.24 
L 93.619073 192.24 
L 94.901442 192.24 
L 96.183811 192.24 
L 97.466181 192.24 
L 98.74855 192.24 
L 100.030919 192.24 
L 101.313289 192.24 
L 102.595658 192.24 
L 103.878027 192.24 
L 105.160397 192.24 
L 106.442766 192.24 
L 107.725135 192.24 
L 109.007505 192.24 
L 110.289874 192.24 
L 111.572243 192.24 
L 112.854613 192.24 
L 114.136982 192.24 
L 115.419351 192.24 
L 116.701721 192.24 
L 117.98409 192.24 
L 119.266459 192.24 
L 120.548829 192.24 
L 121.831198 192.24 
L 123.113567 192.24 
L 124.395937 192.24 
L 125.678306 192.24 
L 126.960675 192.24 
L 128.243045 192.24 
L 129.525414 192.24 
L 130.807783 192.24 
L 132.090153 192.24 
L 133.372522 192.24 
L 134.654891 192.24 
L 135.937261 192.24 
L 137.21963 192.24 
L 138.501999 192.24 
L 139.784369 192.24 
L 141.066738 192.24 
L 142.349107 192.24 
L 143.631477 192.24 
L 144.913846 192.24 
L 146.196216 192.24 
L 147.478585 192.24 
L 148.760954 192.24 
L 150.043324 192.24 
L 151.325693 192.24 
L 152.608062 192.24 
L 153.890432 192.24 
L 155.172801 192.24 
L 156.45517 192.24 
L 157.73754 192.24 
L 159.019909 192.24 
L 160.302278 192.24 
L 161.584648 192.24 
L 162.867017 192.24 
L 164.149386 192.24 
L 165.431756 192.24 
L 166.714125 192.24 
L 167.996494 192.24 
L 169.278864 192.24 
L 170.561233 192.24 
L 171.843602 192.24 
L 173.125972 192.24 
L 174.408341 192.24 
L 175.69071 192.24 
L 176.97308 192.24 
L 178.255449 192.24 
L 179.537818 192.24 
L 180.820188 192.24 
L 182.102557 192.24 
L 183.384926 192.24 
L 184.667296 192.24 
L 185.949665 192.24 
L 187.232034 192.24 
L 188.514404 192.24 
L 189.796773 192.24 
L 191.079142 192.24 
L 192.361512 192.24 
L 193.643881 192.24 
L 194.926251 192.24 
L 196.20862 192.24 
L 197.490989 192.24 
L 198.773359 192.24 
L 200.055728 192.24 
L 201.338097 192.24 
L 202.620467 192.24 
L 203.902836 192.24 
L 205.185205 192.24 
L 206.467575 192.24 
L 207.749944 192.24 
L 209.032313 192.24 
L 210.314683 192.24 
L 211.597052 192.24 
L 212.879421 192.24 
L 214.161791 192.24 
L 215.44416 192.24 
L 216.726529 192.24 
L 218.008899 192.24 
L 219.291268 192.24 
L 220.573637 192.24 
L 220.573637 192.203101 
L 220.573637 192.203101 
L 219.291268 192.166531 
L 218.008899 192.077073 
L 216.726529 191.907117 
L 215.44416 191.630542 
L 214.161791 191.243611 
L 212.879421 190.785884 
L 211.597052 190.344797 
L 210.314683 190.030372 
L 209.032313 189.924769 
L 207.749944 190.033727 
L 206.467575 190.272926 
L 205.185205 190.503029 
L 203.902836 190.596263 
L 202.620467 190.497762 
L 201.338097 190.247672 
L 200.055728 189.95014 
L 198.773359 189.702458 
L 197.490989 189.521656 
L 196.20862 189.314083 
L 194.926251 188.915137 
L 193.643881 188.184769 
L 192.361512 187.10355 
L 191.079142 185.80419 
L 189.796773 184.509552 
L 188.514404 183.412125 
L 187.232034 182.574303 
L 185.949665 181.911813 
L 184.667296 181.253889 
L 183.384926 180.416891 
L 182.102557 179.237563 
L 180.820188 177.570005 
L 179.537818 175.286745 
L 178.255449 172.303547 
L 176.97308 168.606556 
L 175.69071 164.251934 
L 174.408341 159.332947 
L 173.125972 153.929758 
L 171.843602 148.055993 
L 170.561233 141.612116 
L 169.278864 134.367163 
L 167.996494 126.008185 
L 166.714125 116.291421 
L 165.431756 105.275103 
L 164.149386 93.524011 
L 162.867017 82.123503 
L 161.584648 72.4093 
L 160.302278 65.499001 
L 159.019909 61.871497 
L 157.73754 61.242132 
L 156.45517 62.811021 
L 155.172801 65.737542 
L 153.890432 69.564192 
L 152.608062 74.357791 
L 151.325693 80.521947 
L 150.043324 88.432938 
L 148.760954 98.12631 
L 147.478585 109.180791 
L 146.196216 120.802518 
L 144.913846 132.025936 
L 143.631477 141.950956 
L 142.349107 149.966262 
L 141.066738 155.905302 
L 139.784369 160.066159 
L 138.501999 163.062708 
L 137.21963 165.566118 
L 135.937261 168.066068 
L 134.654891 170.762346 
L 133.372522 173.607356 
L 132.090153 176.433847 
L 130.807783 179.07599 
L 129.525414 181.426519 
L 128.243045 183.431205 
L 126.960675 185.060135 
L 125.678306 186.290192 
L 124.395937 187.100529 
L 123.113567 187.465071 
L 121.831198 187.34417 
L 120.548829 186.703259 
L 119.266459 185.574197 
L 117.98409 184.12436 
L 116.701721 182.664626 
L 115.419351 181.560611 
L 114.136982 181.091797 
L 112.854613 181.35245 
L 111.572243 182.253922 
L 110.289874 183.6045 
L 109.007505 185.194001 
L 107.725135 186.835198 
L 106.442766 188.370599 
L 105.160397 189.677492 
L 103.878027 190.683703 
L 102.595658 191.379446 
L 101.313289 191.809156 
L 100.030919 192.045466 
L 98.74855 192.161001 
L 97.466181 192.211199 
L 96.183811 192.230585 
L 94.901442 192.237242 
L 93.619073 192.239277 
L 92.336703 192.23983 
L 91.054334 192.239964 
L 89.771964 192.239993 
L 88.489595 192.239995 
L 87.207226 192.239979 
L 85.924856 192.2399 
L 84.642487 192.239569 
L 83.360118 192.23834 
L 82.077748 192.234306 
L 80.795379 192.222593 
L 79.51301 192.192581 
L 78.23064 192.124897 
L 76.948271 191.991039 
L 75.665902 191.760157 
L 74.383532 191.415846 
L 73.101163 190.9785 
L 71.818794 190.519041 
L 70.536424 190.147317 
L 69.254055 189.971499 
L 67.971686 190.047506 
L 66.689316 190.350396 
L 65.406947 190.787515 
L 64.124578 191.244035 
L 62.842208 191.63064 
L 61.559839 191.907137 
L 60.27747 192.077077 
L 58.9951 192.166531 
L 57.712731 192.203101 
z
" style="fill:#808080;fill-opacity:0.25;"/>
   </g>
   <g id="PolyCollection_2">
    <path clip-path="url(#p13406ca778)" d="M 102.341388 192.211052 
L 102.341388 192.24 
L 103.348392 192.24 
L 104.355397 192.24 
L 105.362402 192.24 
L 106.369407 192.24 
L 107.376411 192.24 
L 108.383416 192.24 
L 109.390421 192.24 
L 110.397426 192.24 
L 111.404431 192.24 
L 112.411435 192.24 
L 113.41844 192.24 
L 114.425445 192.24 
L 115.43245 192.24 
L 116.439454 192.24 
L 117.446459 192.24 
L 118.453464 192.24 
L 119.460469 192.24 
L 120.467474 192.24 
L 121.474478 192.24 
L 122.481483 192.24 
L 123.488488 192.24 
L 124.495493 192.24 
L 125.502497 192.24 
L 126.509502 192.24 
L 127.516507 192.24 
L 128.523512 192.24 
L 129.530517 192.24 
L 130.537521 192.24 
L 131.544526 192.24 
L 132.551531 192.24 
L 133.558536 192.24 
L 134.56554 192.24 
L 135.572545 192.24 
L 136.57955 192.24 
L 137.586555 192.24 
L 138.59356 192.24 
L 139.600564 192.24 
L 140.607569 192.24 
L 141.614574 192.24 
L 142.621579 192.24 
L 143.628583 192.24 
L 144.635588 192.24 
L 145.642593 192.24 
L 146.649598 192.24 
L 147.656603 192.24 
L 148.663607 192.24 
L 149.670612 192.24 
L 150.677617 192.24 
L 151.684622 192.24 
L 152.691626 192.24 
L 153.698631 192.24 
L 154.705636 192.24 
L 155.712641 192.24 
L 156.719646 192.24 
L 157.72665 192.24 
L 158.733655 192.24 
L 159.74066 192.24 
L 160.747665 192.24 
L 161.754669 192.24 
L 162.761674 192.24 
L 163.768679 192.24 
L 164.775684 192.24 
L 165.782689 192.24 
L 166.789693 192.24 
L 167.796698 192.24 
L 168.803703 192.24 
L 169.810708 192.24 
L 170.817712 192.24 
L 171.824717 192.24 
L 172.831722 192.24 
L 173.838727 192.24 
L 174.845732 192.24 
L 175.852736 192.24 
L 176.859741 192.24 
L 177.866746 192.24 
L 178.873751 192.24 
L 179.880755 192.24 
L 180.88776 192.24 
L 181.894765 192.24 
L 182.90177 192.24 
L 183.908775 192.24 
L 184.915779 192.24 
L 185.922784 192.24 
L 186.929789 192.24 
L 187.936794 192.24 
L 188.943798 192.24 
L 189.950803 192.24 
L 190.957808 192.24 
L 191.964813 192.24 
L 192.971818 192.24 
L 193.978822 192.24 
L 194.985827 192.24 
L 195.992832 192.24 
L 196.999837 192.24 
L 198.006841 192.24 
L 199.013846 192.24 
L 200.020851 192.24 
L 201.027856 192.24 
L 202.034861 192.24 
L 203.041865 192.24 
L 204.04887 192.24 
L 205.055875 192.24 
L 206.06288 192.24 
L 207.069884 192.24 
L 208.076889 192.24 
L 209.083894 192.24 
L 210.090899 192.24 
L 211.097904 192.24 
L 212.104908 192.24 
L 213.111913 192.24 
L 214.118918 192.24 
L 215.125923 192.24 
L 216.132927 192.24 
L 217.139932 192.24 
L 218.146937 192.24 
L 219.153942 192.24 
L 220.160947 192.24 
L 221.167951 192.24 
L 222.174956 192.24 
L 223.181961 192.24 
L 224.188966 192.24 
L 225.19597 192.24 
L 226.202975 192.24 
L 227.20998 192.24 
L 228.216985 192.24 
L 229.22399 192.24 
L 230.230994 192.24 
L 230.230994 192.211052 
L 230.230994 192.211052 
L 229.22399 192.197804 
L 228.216985 192.168463 
L 227.20998 192.117752 
L 226.202975 192.038928 
L 225.19597 191.925452 
L 224.188966 191.773341 
L 223.181961 191.583851 
L 222.174956 191.3657 
L 221.167951 191.135848 
L 220.160947 190.917936 
L 219.153942 190.738175 
L 218.146937 190.619372 
L 217.139932 190.574701 
L 216.132927 190.603244 
L 215.125923 190.688953 
L 214.118918 190.80369 
L 213.111913 190.913687 
L 212.104908 190.987689 
L 211.097904 191.004523 
L 210.090899 190.958044 
L 209.083894 190.858081 
L 208.076889 190.7271 
L 207.069884 190.593382 
L 206.06288 190.482531 
L 205.055875 190.409689 
L 204.04887 190.374693 
L 203.041865 190.36155 
L 202.034861 190.342081 
L 201.027856 190.28211 
L 200.020851 190.147678 
L 199.013846 189.909028 
L 198.006841 189.541419 
L 196.999837 189.023662 
L 195.992832 188.336571 
L 194.985827 187.46365 
L 193.978822 186.394942 
L 192.971818 185.132811 
L 191.964813 183.696586 
L 190.957808 182.122757 
L 189.950803 180.459114 
L 188.943798 178.754194 
L 187.936794 177.046159 
L 186.929789 175.355988 
L 185.922784 173.688057 
L 184.915779 172.037571 
L 183.908775 170.400821 
L 182.90177 168.782927 
L 181.894765 167.199375 
L 180.88776 165.67114 
L 179.880755 164.216411 
L 178.873751 162.842777 
L 177.866746 161.542105 
L 176.859741 160.287559 
L 175.852736 159.030622 
L 174.845732 157.696838 
L 173.838727 156.18171 
L 172.831722 154.350701 
L 171.824717 152.047622 
L 170.817712 149.113249 
L 169.810708 145.412024 
L 168.803703 140.861229 
L 167.796698 135.455766 
L 166.789693 129.28274 
L 165.782689 122.522475 
L 164.775684 115.435096 
L 163.768679 108.333769 
L 162.761674 101.547469 
L 161.754669 95.378245 
L 160.747665 90.060373 
L 159.74066 85.730327 
L 158.733655 82.415827 
L 157.72665 80.048377 
L 156.719646 78.497419 
L 155.712641 77.617613 
L 154.705636 77.296265 
L 153.698631 77.487416 
L 152.691626 78.222796 
L 151.684622 79.596524 
L 150.677617 81.728118 
L 149.670612 84.714788 
L 148.663607 88.587469 
L 147.656603 93.284284 
L 146.649598 98.650107 
L 145.642593 104.462797 
L 144.635588 110.478181 
L 143.628583 116.47987 
L 142.621579 122.319021 
L 141.614574 127.9331 
L 140.607569 133.340045 
L 139.600564 138.611703 
L 138.59356 143.835805 
L 137.586555 149.077614 
L 136.57955 154.351208 
L 135.572545 159.606976 
L 134.56554 164.737461 
L 133.558536 169.59901 
L 132.551531 174.042752 
L 131.544526 177.946156 
L 130.537521 181.236622 
L 129.530517 183.901318 
L 128.523512 185.982015 
L 127.516507 187.558308 
L 126.509502 188.725679 
L 125.502497 189.575426 
L 124.495493 190.181572 
L 123.488488 190.596678 
L 122.481483 190.85532 
L 121.474478 190.981993 
L 120.467474 190.999669 
L 119.460469 190.935937 
L 118.453464 190.825006 
L 117.446459 190.705386 
L 116.439454 190.614405 
L 115.43245 190.581607 
L 114.425445 190.623326 
L 113.41844 190.740288 
L 112.411435 190.918994 
L 111.404431 191.136346 
L 110.397426 191.365921 
L 109.390421 191.583943 
L 108.383416 191.773378 
L 107.376411 191.925466 
L 106.369407 192.038933 
L 105.362402 192.117753 
L 104.355397 192.168464 
L 103.348392 192.197805 
L 102.341388 192.211052 
z
" style="fill:#ff7f50;fill-opacity:0.25;"/>
   </g>
   <g id="matplotlib.axis_1">
    <g id="xtick_1">
     <g id="line2d_1">
      <defs>
       <path d="M 0 0 
L 0 3.5 
" id="m9aa5c54eb9" style="stroke:#000000;stroke-width:0.8;"/>
      </defs>
      <g>
       <use style="stroke:#000000;stroke-width:0.8;" x="58.32" xlink:href="#m9aa5c54eb9" y="192.24"/>
      </g>
     </g>
     <g id="text_1">
      <!-- −0.02 -->
      <defs>
       <path d="M 10.59375 35.5 
L 73.1875 35.5 
L 73.1875 27.203125 
L 10.59375 27.203125 
z
" id="DejaVuSans-2212"/>
       <path d="M 31.78125 66.40625 
Q 24.171875 66.40625 20.328125 58.90625 
Q 16.5 51.421875 16.5 36.375 
Q 16.5 21.390625 20.328125 13.890625 
Q 24.171875 6.390625 31.78125 6.390625 
Q 39.453125 6.390625 43.28125 13.890625 
Q 47.125 21.390625 47.125 36.375 
Q 47.125 51.421875 43.28125 58.90625 
Q 39.453125 66.40625 31.78125 66.40625 
z
M 31.78125 74.21875 
Q 44.046875 74.21875 50.515625 64.515625 
Q 56.984375 54.828125 56.984375 36.375 
Q 56.984375 17.96875 50.515625 8.265625 
Q 44.046875 -1.421875 31.78125 -1.421875 
Q 19.53125 -1.421875 13.0625 8.265625 
Q 6.59375 17.96875 6.59375 36.375 
Q 6.59375 54.828125 13.0625 64.515625 
Q 19.53125 74.21875 31.78125 74.21875 
z
" id="DejaVuSans-30"/>
       <path d="M 10.6875 12.40625 
L 21 12.40625 
L 21 0 
L 10.6875 0 
z
" id="DejaVuSans-2e"/>
       <path d="M 19.1875 8.296875 
L 53.609375 8.296875 
L 53.609375 0 
L 7.328125 0 
L 7.328125 8.296875 
Q 12.9375 14.109375 22.625 23.890625 
Q 32.328125 33.6875 34.8125 36.53125 
Q 39.546875 41.84375 41.421875 45.53125 
Q 43.3125 49.21875 43.3125 52.78125 
Q 43.3125 58.59375 39.234375 62.25 
Q 35.15625 65.921875 28.609375 65.921875 
Q 23.96875 65.921875 18.8125 64.3125 
Q 13.671875 62.703125 7.8125 59.421875 
L 7.8125 69.390625 
Q 13.765625 71.78125 18.9375 73 
Q 24.125 74.21875 28.421875 74.21875 
Q 39.75 74.21875 46.484375 68.546875 
Q 53.21875 62.890625 53.21875 53.421875 
Q 53.21875 48.921875 51.53125 44.890625 
Q 49.859375 40.875 45.40625 35.40625 
Q 44.1875 33.984375 37.640625 27.21875 
Q 31.109375 20.453125 19.1875 8.296875 
z
" id="DejaVuSans-32"/>
      </defs>
      <g transform="translate(42.997344 206.838437)scale(0.1 -0.1)">
       <use xlink:href="#DejaVuSans-2212"/>
       <use x="83.789062" xlink:href="#DejaVuSans-30"/>
       <use x="147.412109" xlink:href="#DejaVuSans-2e"/>
       <use x="179.199219" xlink:href="#DejaVuSans-30"/>
       <use x="242.822266" xlink:href="#DejaVuSans-32"/>
      </g>
     </g>
    </g>
    <g id="xtick_2">
     <g id="line2d_2">
      <g>
       <use style="stroke:#000000;stroke-width:0.8;" x="102.96" xlink:href="#m9aa5c54eb9" y="192.24"/>
      </g>
     </g>
     <g id="text_2">
      <!-- −0.01 -->
      <defs>
       <path d="M 12.40625 8.296875 
L 28.515625 8.296875 
L 28.515625 63.921875 
L 10.984375 60.40625 
L 10.984375 69.390625 
L 28.421875 72.90625 
L 38.28125 72.90625 
L 38.28125 8.296875 
L 54.390625 8.296875 
L 54.390625 0 
L 12.40625 0 
z
" id="DejaVuSans-31"/>
      </defs>
      <g transform="translate(87.637344 206.838437)scale(0.1 -0.1)">
       <use xlink:href="#DejaVuSans-2212"/>
       <use x="83.789062" xlink:href="#DejaVuSans-30"/>
       <use x="147.412109" xlink:href="#DejaVuSans-2e"/>
       <use x="179.199219" xlink:href="#DejaVuSans-30"/>
       <use x="242.822266" xlink:href="#DejaVuSans-31"/>
      </g>
     </g>
    </g>
    <g id="xtick_3">
     <g id="line2d_3">
      <g>
       <use style="stroke:#000000;stroke-width:0.8;" x="147.6" xlink:href="#m9aa5c54eb9" y="192.24"/>
      </g>
     </g>
     <g id="text_3">
      <!-- 0.00 -->
      <g transform="translate(136.467187 206.838437)scale(0.1 -0.1)">
       <use xlink:href="#DejaVuSans-30"/>
       <use x="63.623047" xlink:href="#DejaVuSans-2e"/>
       <use x="95.410156" xlink:href="#DejaVuSans-30"/>
       <use x="159.033203" xlink:href="#DejaVuSans-30"/>
      </g>
     </g>
    </g>
    <g id="xtick_4">
     <g id="line2d_4">
      <g>
       <use style="stroke:#000000;stroke-width:0.8;" x="192.24" xlink:href="#m9aa5c54eb9" y="192.24"/>
      </g>
     </g>
     <g id="text_4">
      <!-- 0.01 -->
      <g transform="translate(181.107188 206.838437)scale(0.1 -0.1)">
       <use xlink:href="#DejaVuSans-30"/>
       <use x="63.623047" xlink:href="#DejaVuSans-2e"/>
       <use x="95.410156" xlink:href="#DejaVuSans-30"/>
       <use x="159.033203" xlink:href="#DejaVuSans-31"/>
      </g>
     </g>
    </g>
    <g id="xtick_5">
     <g id="line2d_5">
      <g>
       <use style="stroke:#000000;stroke-width:0.8;" x="236.88" xlink:href="#m9aa5c54eb9" y="192.24"/>
      </g>
     </g>
     <g id="text_5">
      <!-- 0.02 -->
      <g transform="translate(225.747187 206.838437)scale(0.1 -0.1)">
       <use xlink:href="#DejaVuSans-30"/>
       <use x="63.623047" xlink:href="#DejaVuSans-2e"/>
       <use x="95.410156" xlink:href="#DejaVuSans-30"/>
       <use x="159.033203" xlink:href="#DejaVuSans-32"/>
      </g>
     </g>
    </g>
    <g id="text_6">
     <!-- DIP Rate -->
     <defs>
      <path d="M 19.671875 64.796875 
L 19.671875 8.109375 
L 31.59375 8.109375 
Q 46.6875 8.109375 53.6875 14.9375 
Q 60.6875 21.78125 60.6875 36.53125 
Q 60.6875 51.171875 53.6875 57.984375 
Q 46.6875 64.796875 31.59375 64.796875 
z
M 9.8125 72.90625 
L 30.078125 72.90625 
Q 51.265625 72.90625 61.171875 64.09375 
Q 71.09375 55.28125 71.09375 36.53125 
Q 71.09375 17.671875 61.125 8.828125 
Q 51.171875 0 30.078125 0 
L 9.8125 0 
z
" id="DejaVuSans-44"/>
      <path d="M 9.8125 72.90625 
L 19.671875 72.90625 
L 19.671875 0 
L 9.8125 0 
z
" id="DejaVuSans-49"/>
      <path d="M 19.671875 64.796875 
L 19.671875 37.40625 
L 32.078125 37.40625 
Q 38.96875 37.40625 42.71875 40.96875 
Q 46.484375 44.53125 46.484375 51.125 
Q 46.484375 57.671875 42.71875 61.234375 
Q 38.96875 64.796875 32.078125 64.796875 
z
M 9.8125 72.90625 
L 32.078125 72.90625 
Q 44.34375 72.90625 50.609375 67.359375 
Q 56.890625 61.8125 56.890625 51.125 
Q 56.890625 40.328125 50.609375 34.8125 
Q 44.34375 29.296875 32.078125 29.296875 
L 19.671875 29.296875 
L 19.671875 0 
L 9.8125 0 
z
" id="DejaVuSans-50"/>
      <path id="DejaVuSans-20"/>
      <path d="M 44.390625 34.1875 
Q 47.5625 33.109375 50.5625 29.59375 
Q 53.5625 26.078125 56.59375 19.921875 
L 66.609375 0 
L 56 0 
L 46.6875 18.703125 
Q 43.0625 26.03125 39.671875 28.421875 
Q 36.28125 30.8125 30.421875 30.8125 
L 19.671875 30.8125 
L 19.671875 0 
L 9.8125 0 
L 9.8125 72.90625 
L 32.078125 72.90625 
Q 44.578125 72.90625 50.734375 67.671875 
Q 56.890625 62.453125 56.890625 51.90625 
Q 56.890625 45.015625 53.6875 40.46875 
Q 50.484375 35.9375 44.390625 34.1875 
z
M 19.671875 64.796875 
L 19.671875 38.921875 
L 32.078125 38.921875 
Q 39.203125 38.921875 42.84375 42.21875 
Q 46.484375 45.515625 46.484375 51.90625 
Q 46.484375 58.296875 42.84375 61.546875 
Q 39.203125 64.796875 32.078125 64.796875 
z
" id="DejaVuSans-52"/>
      <path d="M 34.28125 27.484375 
Q 23.390625 27.484375 19.1875 25 
Q 14.984375 22.515625 14.984375 16.5 
Q 14.984375 11.71875 18.140625 8.90625 
Q 21.296875 6.109375 26.703125 6.109375 
Q 34.1875 6.109375 38.703125 11.40625 
Q 43.21875 16.703125 43.21875 25.484375 
L 43.21875 27.484375 
z
M 52.203125 31.203125 
L 52.203125 0 
L 43.21875 0 
L 43.21875 8.296875 
Q 40.140625 3.328125 35.546875 0.953125 
Q 30.953125 -1.421875 24.3125 -1.421875 
Q 15.921875 -1.421875 10.953125 3.296875 
Q 6 8.015625 6 15.921875 
Q 6 25.140625 12.171875 29.828125 
Q 18.359375 34.515625 30.609375 34.515625 
L 43.21875 34.515625 
L 43.21875 35.40625 
Q 43.21875 41.609375 39.140625 45 
Q 35.0625 48.390625 27.6875 48.390625 
Q 23 48.390625 18.546875 47.265625 
Q 14.109375 46.140625 10.015625 43.890625 
L 10.015625 52.203125 
Q 14.9375 54.109375 19.578125 55.046875 
Q 24.21875 56 28.609375 56 
Q 40.484375 56 46.34375 49.84375 
Q 52.203125 43.703125 52.203125 31.203125 
z
" id="DejaVuSans-61"/>
      <path d="M 18.3125 70.21875 
L 18.3125 54.6875 
L 36.8125 54.6875 
L 36.8125 47.703125 
L 18.3125 47.703125 
L 18.3125 18.015625 
Q 18.3125 11.328125 20.140625 9.421875 
Q 21.96875 7.515625 27.59375 7.515625 
L 36.8125 7.515625 
L 36.8125 0 
L 27.59375 0 
Q 17.1875 0 13.234375 3.875 
Q 9.28125 7.765625 9.28125 18.015625 
L 9.28125 47.703125 
L 2.6875 47.703125 
L 2.6875 54.6875 
L 9.28125 54.6875 
L 9.28125 70.21875 
z
" id="DejaVuSans-74"/>
      <path d="M 56.203125 29.59375 
L 56.203125 25.203125 
L 14.890625 25.203125 
Q 15.484375 15.921875 20.484375 11.0625 
Q 25.484375 6.203125 34.421875 6.203125 
Q 39.59375 6.203125 44.453125 7.46875 
Q 49.3125 8.734375 54.109375 11.28125 
L 54.109375 2.78125 
Q 49.265625 0.734375 44.1875 -0.34375 
Q 39.109375 -1.421875 33.890625 -1.421875 
Q 20.796875 -1.421875 13.15625 6.1875 
Q 5.515625 13.8125 5.515625 26.8125 
Q 5.515625 40.234375 12.765625 48.109375 
Q 20.015625 56 32.328125 56 
Q 43.359375 56 49.78125 48.890625 
Q 56.203125 41.796875 56.203125 29.59375 
z
M 47.21875 32.234375 
Q 47.125 39.59375 43.09375 43.984375 
Q 39.0625 48.390625 32.421875 48.390625 
Q 24.90625 48.390625 20.390625 44.140625 
Q 15.875 39.890625 15.1875 32.171875 
z
" id="DejaVuSans-65"/>
     </defs>
     <g transform="translate(126.097656 220.516562)scale(0.1 -0.1)">
      <use xlink:href="#DejaVuSans-44"/>
      <use x="77.001953" xlink:href="#DejaVuSans-49"/>
      <use x="106.494141" xlink:href="#DejaVuSans-50"/>
      <use x="166.796875" xlink:href="#DejaVuSans-20"/>
      <use x="198.583984" xlink:href="#DejaVuSans-52"/>
      <use x="268.035156" xlink:href="#DejaVuSans-61"/>
      <use x="329.314453" xlink:href="#DejaVuSans-74"/>
      <use x="368.523438" xlink:href="#DejaVuSans-65"/>
     </g>
    </g>
   </g>
   <g id="matplotlib.axis_2">
    <g id="ytick_1">
     <g id="line2d_6">
      <defs>
       <path d="M 0 0 
L -3.5 0 
" id="me24fd8c6ca" style="stroke:#000000;stroke-width:0.8;"/>
      </defs>
      <g>
       <use style="stroke:#000000;stroke-width:0.8;" x="36" xlink:href="#me24fd8c6ca" y="192.24"/>
      </g>
     </g>
     <g id="text_7">
      <!-- 0 -->
      <g transform="translate(22.6375 196.039219)scale(0.1 -0.1)">
       <use xlink:href="#DejaVuSans-30"/>
      </g>
     </g>
    </g>
    <g id="ytick_2">
     <g id="line2d_7">
      <g>
       <use style="stroke:#000000;stroke-width:0.8;" x="36" xlink:href="#me24fd8c6ca" y="171.45"/>
      </g>
     </g>
     <g id="text_8">
      <!-- 25 -->
      <defs>
       <path d="M 10.796875 72.90625 
L 49.515625 72.90625 
L 49.515625 64.59375 
L 19.828125 64.59375 
L 19.828125 46.734375 
Q 21.96875 47.46875 24.109375 47.828125 
Q 26.265625 48.1875 28.421875 48.1875 
Q 40.625 48.1875 47.75 41.5 
Q 54.890625 34.8125 54.890625 23.390625 
Q 54.890625 11.625 47.5625 5.09375 
Q 40.234375 -1.421875 26.90625 -1.421875 
Q 22.3125 -1.421875 17.546875 -0.640625 
Q 12.796875 0.140625 7.71875 1.703125 
L 7.71875 11.625 
Q 12.109375 9.234375 16.796875 8.0625 
Q 21.484375 6.890625 26.703125 6.890625 
Q 35.15625 6.890625 40.078125 11.328125 
Q 45.015625 15.765625 45.015625 23.390625 
Q 45.015625 31 40.078125 35.4375 
Q 35.15625 39.890625 26.703125 39.890625 
Q 22.75 39.890625 18.8125 39.015625 
Q 14.890625 38.140625 10.796875 36.28125 
z
" id="DejaVuSans-35"/>
      </defs>
      <g transform="translate(16.275 175.249219)scale(0.1 -0.1)">
       <use xlink:href="#DejaVuSans-32"/>
       <use x="63.623047" xlink:href="#DejaVuSans-35"/>
      </g>
     </g>
    </g>
    <g id="ytick_3">
     <g id="line2d_8">
      <g>
       <use style="stroke:#000000;stroke-width:0.8;" x="36" xlink:href="#me24fd8c6ca" y="150.66"/>
      </g>
     </g>
     <g id="text_9">
      <!-- 50 -->
      <g transform="translate(16.275 154.459219)scale(0.1 -0.1)">
       <use xlink:href="#DejaVuSans-35"/>
       <use x="63.623047" xlink:href="#DejaVuSans-30"/>
      </g>
     </g>
    </g>
    <g id="ytick_4">
     <g id="line2d_9">
      <g>
       <use style="stroke:#000000;stroke-width:0.8;" x="36" xlink:href="#me24fd8c6ca" y="129.87"/>
      </g>
     </g>
     <g id="text_10">
      <!-- 75 -->
      <defs>
       <path d="M 8.203125 72.90625 
L 55.078125 72.90625 
L 55.078125 68.703125 
L 28.609375 0 
L 18.3125 0 
L 43.21875 64.59375 
L 8.203125 64.59375 
z
" id="DejaVuSans-37"/>
      </defs>
      <g transform="translate(16.275 133.669219)scale(0.1 -0.1)">
       <use xlink:href="#DejaVuSans-37"/>
       <use x="63.623047" xlink:href="#DejaVuSans-35"/>
      </g>
     </g>
    </g>
    <g id="ytick_5">
     <g id="line2d_10">
      <g>
       <use style="stroke:#000000;stroke-width:0.8;" x="36" xlink:href="#me24fd8c6ca" y="109.08"/>
      </g>
     </g>
     <g id="text_11">
      <!-- 100 -->
      <g transform="translate(9.9125 112.879219)scale(0.1 -0.1)">
       <use xlink:href="#DejaVuSans-31"/>
       <use x="63.623047" xlink:href="#DejaVuSans-30"/>
       <use x="127.246094" xlink:href="#DejaVuSans-30"/>
      </g>
     </g>
    </g>
    <g id="ytick_6">
     <g id="line2d_11">
      <g>
       <use style="stroke:#000000;stroke-width:0.8;" x="36" xlink:href="#me24fd8c6ca" y="88.29"/>
      </g>
     </g>
     <g id="text_12">
      <!-- 125 -->
      <g transform="translate(9.9125 92.089219)scale(0.1 -0.1)">
       <use xlink:href="#DejaVuSans-31"/>
       <use x="63.623047" xlink:href="#DejaVuSans-32"/>
       <use x="127.246094" xlink:href="#DejaVuSans-35"/>
      </g>
     </g>
    </g>
    <g id="ytick_7">
     <g id="line2d_12">
      <g>
       <use style="stroke:#000000;stroke-width:0.8;" x="36" xlink:href="#me24fd8c6ca" y="67.5"/>
      </g>
     </g>
     <g id="text_13">
      <!-- 150 -->
      <g transform="translate(9.9125 71.299219)scale(0.1 -0.1)">
       <use xlink:href="#DejaVuSans-31"/>
       <use x="63.623047" xlink:href="#DejaVuSans-35"/>
       <use x="127.246094" xlink:href="#DejaVuSans-30"/>
      </g>
     </g>
    </g>
    <g id="ytick_8">
     <g id="line2d_13">
      <g>
       <use style="stroke:#000000;stroke-width:0.8;" x="36" xlink:href="#me24fd8c6ca" y="46.71"/>
      </g>
     </g>
     <g id="text_14">
      <!-- 175 -->
      <g transform="translate(9.9125 50.509219)scale(0.1 -0.1)">
       <use xlink:href="#DejaVuSans-31"/>
       <use x="63.623047" xlink:href="#DejaVuSans-37"/>
       <use x="127.246094" xlink:href="#DejaVuSans-35"/>
      </g>
     </g>
    </g>
    <g id="ytick_9">
     <g id="line2d_14">
      <g>
       <use style="stroke:#000000;stroke-width:0.8;" x="36" xlink:href="#me24fd8c6ca" y="25.92"/>
      </g>
     </g>
     <g id="text_15">
      <!-- 200 -->
      <g transform="translate(9.9125 29.719219)scale(0.1 -0.1)">
       <use xlink:href="#DejaVuSans-32"/>
       <use x="63.623047" xlink:href="#DejaVuSans-30"/>
       <use x="127.246094" xlink:href="#DejaVuSans-30"/>
      </g>
     </g>
    </g>
    <g id="text_16">
     <!-- Density -->
     <defs>
      <path d="M 54.890625 33.015625 
L 54.890625 0 
L 45.90625 0 
L 45.90625 32.71875 
Q 45.90625 40.484375 42.875 44.328125 
Q 39.84375 48.1875 33.796875 48.1875 
Q 26.515625 48.1875 22.3125 43.546875 
Q 18.109375 38.921875 18.109375 30.90625 
L 18.109375 0 
L 9.078125 0 
L 9.078125 54.6875 
L 18.109375 54.6875 
L 18.109375 46.1875 
Q 21.34375 51.125 25.703125 53.5625 
Q 30.078125 56 35.796875 56 
Q 45.21875 56 50.046875 50.171875 
Q 54.890625 44.34375 54.890625 33.015625 
z
" id="DejaVuSans-6e"/>
      <path d="M 44.28125 53.078125 
L 44.28125 44.578125 
Q 40.484375 46.53125 36.375 47.5 
Q 32.28125 48.484375 27.875 48.484375 
Q 21.1875 48.484375 17.84375 46.4375 
Q 14.5 44.390625 14.5 40.28125 
Q 14.5 37.15625 16.890625 35.375 
Q 19.28125 33.59375 26.515625 31.984375 
L 29.59375 31.296875 
Q 39.15625 29.25 43.1875 25.515625 
Q 47.21875 21.78125 47.21875 15.09375 
Q 47.21875 7.46875 41.1875 3.015625 
Q 35.15625 -1.421875 24.609375 -1.421875 
Q 20.21875 -1.421875 15.453125 -0.5625 
Q 10.6875 0.296875 5.421875 2 
L 5.421875 11.28125 
Q 10.40625 8.6875 15.234375 7.390625 
Q 20.0625 6.109375 24.8125 6.109375 
Q 31.15625 6.109375 34.5625 8.28125 
Q 37.984375 10.453125 37.984375 14.40625 
Q 37.984375 18.0625 35.515625 20.015625 
Q 33.0625 21.96875 24.703125 23.78125 
L 21.578125 24.515625 
Q 13.234375 26.265625 9.515625 29.90625 
Q 5.8125 33.546875 5.8125 39.890625 
Q 5.8125 47.609375 11.28125 51.796875 
Q 16.75 56 26.8125 56 
Q 31.78125 56 36.171875 55.265625 
Q 40.578125 54.546875 44.28125 53.078125 
z
" id="DejaVuSans-73"/>
      <path d="M 9.421875 54.6875 
L 18.40625 54.6875 
L 18.40625 0 
L 9.421875 0 
z
M 9.421875 75.984375 
L 18.40625 75.984375 
L 18.40625 64.59375 
L 9.421875 64.59375 
z
" id="DejaVuSans-69"/>
      <path d="M 32.171875 -5.078125 
Q 28.375 -14.84375 24.75 -17.8125 
Q 21.140625 -20.796875 15.09375 -20.796875 
L 7.90625 -20.796875 
L 7.90625 -13.28125 
L 13.1875 -13.28125 
Q 16.890625 -13.28125 18.9375 -11.515625 
Q 21 -9.765625 23.484375 -3.21875 
L 25.09375 0.875 
L 2.984375 54.6875 
L 12.5 54.6875 
L 29.59375 11.921875 
L 46.6875 54.6875 
L 56.203125 54.6875 
z
" id="DejaVuSans-79"/>
     </defs>
     <g transform="translate(3.832812 128.088594)rotate(-90)scale(0.1 -0.1)">
      <use xlink:href="#DejaVuSans-44"/>
      <use x="77.001953" xlink:href="#DejaVuSans-65"/>
      <use x="138.525391" xlink:href="#DejaVuSans-6e"/>
      <use x="201.904297" xlink:href="#DejaVuSans-73"/>
      <use x="254.003906" xlink:href="#DejaVuSans-69"/>
      <use x="281.787109" xlink:href="#DejaVuSans-74"/>
      <use x="320.996094" xlink:href="#DejaVuSans-79"/>
     </g>
    </g>
   </g>
   <g id="line2d_15">
    <path clip-path="url(#p13406ca778)" d="M 57.712731 192.203101 
L 60.27747 192.077077 
L 62.842208 191.63064 
L 65.406947 190.787515 
L 66.689316 190.350396 
L 67.971686 190.047506 
L 69.254055 189.971499 
L 70.536424 190.147317 
L 73.101163 190.9785 
L 75.665902 191.760157 
L 78.23064 192.124897 
L 82.077748 192.234306 
L 97.466181 192.211199 
L 100.030919 192.045466 
L 101.313289 191.809156 
L 102.595658 191.379446 
L 103.878027 190.683703 
L 105.160397 189.677492 
L 106.442766 188.370599 
L 111.572243 182.253922 
L 112.854613 181.35245 
L 114.136982 181.091797 
L 115.419351 181.560611 
L 116.701721 182.664626 
L 119.266459 185.574197 
L 120.548829 186.703259 
L 121.831198 187.34417 
L 123.113567 187.465071 
L 124.395937 187.100529 
L 125.678306 186.290192 
L 126.960675 185.060135 
L 128.243045 183.431205 
L 129.525414 181.426519 
L 130.807783 179.07599 
L 133.372522 173.607356 
L 135.937261 168.066068 
L 138.501999 163.062708 
L 139.784369 160.066159 
L 141.066738 155.905302 
L 142.349107 149.966262 
L 143.631477 141.950956 
L 144.913846 132.025936 
L 148.760954 98.12631 
L 150.043324 88.432938 
L 151.325693 80.521947 
L 152.608062 74.357791 
L 153.890432 69.564192 
L 155.172801 65.737542 
L 156.45517 62.811021 
L 157.73754 61.242132 
L 159.019909 61.871497 
L 160.302278 65.499001 
L 161.584648 72.4093 
L 162.867017 82.123503 
L 166.714125 116.291421 
L 167.996494 126.008185 
L 169.278864 134.367163 
L 170.561233 141.612116 
L 171.843602 148.055993 
L 174.408341 159.332947 
L 175.69071 164.251934 
L 176.97308 168.606556 
L 178.255449 172.303547 
L 179.537818 175.286745 
L 180.820188 177.570005 
L 182.102557 179.237563 
L 183.384926 180.416891 
L 184.667296 181.253889 
L 187.232034 182.574303 
L 188.514404 183.412125 
L 189.796773 184.509552 
L 192.361512 187.10355 
L 193.643881 188.184769 
L 194.926251 188.915137 
L 196.20862 189.314083 
L 201.338097 190.247672 
L 202.620467 190.497762 
L 203.902836 190.596263 
L 205.185205 190.503029 
L 209.032313 189.924769 
L 210.314683 190.030372 
L 211.597052 190.344797 
L 215.44416 191.630542 
L 218.008899 192.077073 
L 220.573637 192.203101 
L 220.573637 192.203101 
" style="fill:none;stroke:#808080;stroke-linecap:square;stroke-width:1.5;"/>
   </g>
   <g id="line2d_16">
    <path clip-path="url(#p13406ca778)" d="M 102.341388 192.211052 
L 105.362402 192.117753 
L 108.383416 191.773378 
L 114.425445 190.623326 
L 116.439454 190.614405 
L 121.474478 190.981993 
L 122.481483 190.85532 
L 123.488488 190.596678 
L 124.495493 190.181572 
L 125.502497 189.575426 
L 126.509502 188.725679 
L 127.516507 187.558308 
L 128.523512 185.982015 
L 129.530517 183.901318 
L 130.537521 181.236622 
L 131.544526 177.946156 
L 132.551531 174.042752 
L 134.56554 164.737461 
L 139.600564 138.611703 
L 142.621579 122.319021 
L 147.656603 93.284284 
L 148.663607 88.587469 
L 149.670612 84.714788 
L 150.677617 81.728118 
L 151.684622 79.596524 
L 152.691626 78.222796 
L 153.698631 77.487416 
L 154.705636 77.296265 
L 155.712641 77.617613 
L 156.719646 78.497419 
L 157.72665 80.048377 
L 158.733655 82.415827 
L 159.74066 85.730327 
L 160.747665 90.060373 
L 161.754669 95.378245 
L 163.768679 108.333769 
L 166.789693 129.28274 
L 167.796698 135.455766 
L 168.803703 140.861229 
L 169.810708 145.412024 
L 170.817712 149.113249 
L 171.824717 152.047622 
L 172.831722 154.350701 
L 173.838727 156.18171 
L 175.852736 159.030622 
L 179.880755 164.216411 
L 181.894765 167.199375 
L 185.922784 173.688057 
L 191.964813 183.696586 
L 193.978822 186.394942 
L 194.985827 187.46365 
L 195.992832 188.336571 
L 196.999837 189.023662 
L 198.006841 189.541419 
L 199.013846 189.909028 
L 201.027856 190.28211 
L 204.04887 190.374693 
L 206.06288 190.482531 
L 211.097904 191.004523 
L 213.111913 190.913687 
L 217.139932 190.574701 
L 219.153942 190.738175 
L 222.174956 191.3657 
L 225.19597 191.925452 
L 228.216985 192.168463 
L 230.230994 192.211052 
L 230.230994 192.211052 
" style="fill:none;stroke:#ff7f50;stroke-linecap:square;stroke-width:1.5;"/>
   </g>
   <g id="patch_3">
    <path d="M 36 192.24 
L 36 25.92 
" style="fill:none;stroke:#000000;stroke-linecap:square;stroke-linejoin:miter;stroke-width:0.8;"/>
   </g>
   <g id="patch_4">
    <path d="M 259.2 192.24 
L 259.2 25.92 
" style="fill:none;stroke:#000000;stroke-linecap:square;stroke-linejoin:miter;stroke-width:0.8;"/>
   </g>
   <g id="patch_5">
    <path d="M 36 192.24 
L 259.2 192.24 
" style="fill:none;stroke:#000000;stroke-linecap:square;stroke-linejoin:miter;stroke-width:0.8;"/>
   </g>
   <g id="patch_6">
    <path d="M 36 25.92 
L 259.2 25.92 
" style="fill:none;stroke:#000000;stroke-linecap:square;stroke-linejoin:miter;stroke-width:0.8;"/>
   </g>
   <g id="text_17">
    <!-- p=0.840 -->
    <defs>
     <path d="M 18.109375 8.203125 
L 18.109375 -20.796875 
L 9.078125 -20.796875 
L 9.078125 54.6875 
L 18.109375 54.6875 
L 18.109375 46.390625 
Q 20.953125 51.265625 25.265625 53.625 
Q 29.59375 56 35.59375 56 
Q 45.5625 56 51.78125 48.09375 
Q 58.015625 40.1875 58.015625 27.296875 
Q 58.015625 14.40625 51.78125 6.484375 
Q 45.5625 -1.421875 35.59375 -1.421875 
Q 29.59375 -1.421875 25.265625 0.953125 
Q 20.953125 3.328125 18.109375 8.203125 
z
M 48.6875 27.296875 
Q 48.6875 37.203125 44.609375 42.84375 
Q 40.53125 48.484375 33.40625 48.484375 
Q 26.265625 48.484375 22.1875 42.84375 
Q 18.109375 37.203125 18.109375 27.296875 
Q 18.109375 17.390625 22.1875 11.75 
Q 26.265625 6.109375 33.40625 6.109375 
Q 40.53125 6.109375 44.609375 11.75 
Q 48.6875 17.390625 48.6875 27.296875 
z
" id="DejaVuSans-70"/>
     <path d="M 10.59375 45.40625 
L 73.1875 45.40625 
L 73.1875 37.203125 
L 10.59375 37.203125 
z
M 10.59375 25.484375 
L 73.1875 25.484375 
L 73.1875 17.1875 
L 10.59375 17.1875 
z
" id="DejaVuSans-3d"/>
     <path d="M 31.78125 34.625 
Q 24.75 34.625 20.71875 30.859375 
Q 16.703125 27.09375 16.703125 20.515625 
Q 16.703125 13.921875 20.71875 10.15625 
Q 24.75 6.390625 31.78125 6.390625 
Q 38.8125 6.390625 42.859375 10.171875 
Q 46.921875 13.96875 46.921875 20.515625 
Q 46.921875 27.09375 42.890625 30.859375 
Q 38.875 34.625 31.78125 34.625 
z
M 21.921875 38.8125 
Q 15.578125 40.375 12.03125 44.71875 
Q 8.5 49.078125 8.5 55.328125 
Q 8.5 64.0625 14.71875 69.140625 
Q 20.953125 74.21875 31.78125 74.21875 
Q 42.671875 74.21875 48.875 69.140625 
Q 55.078125 64.0625 55.078125 55.328125 
Q 55.078125 49.078125 51.53125 44.71875 
Q 48 40.375 41.703125 38.8125 
Q 48.828125 37.15625 52.796875 32.3125 
Q 56.78125 27.484375 56.78125 20.515625 
Q 56.78125 9.90625 50.3125 4.234375 
Q 43.84375 -1.421875 31.78125 -1.421875 
Q 19.734375 -1.421875 13.25 4.234375 
Q 6.78125 9.90625 6.78125 20.515625 
Q 6.78125 27.484375 10.78125 32.3125 
Q 14.796875 37.15625 21.921875 38.8125 
z
M 18.3125 54.390625 
Q 18.3125 48.734375 21.84375 45.5625 
Q 25.390625 42.390625 31.78125 42.390625 
Q 38.140625 42.390625 41.71875 45.5625 
Q 45.3125 48.734375 45.3125 54.390625 
Q 45.3125 60.0625 41.71875 63.234375 
Q 38.140625 66.40625 31.78125 66.40625 
Q 25.390625 66.40625 21.84375 63.234375 
Q 18.3125 60.0625 18.3125 54.390625 
z
" id="DejaVuSans-38"/>
     <path d="M 37.796875 64.3125 
L 12.890625 25.390625 
L 37.796875 25.390625 
z
M 35.203125 72.90625 
L 47.609375 72.90625 
L 47.609375 25.390625 
L 58.015625 25.390625 
L 58.015625 17.1875 
L 47.609375 17.1875 
L 47.609375 0 
L 37.796875 0 
L 37.796875 17.1875 
L 4.890625 17.1875 
L 4.890625 26.703125 
z
" id="DejaVuSans-34"/>
    </defs>
    <g transform="translate(178.848 67.5)scale(0.12 -0.12)">
     <use xlink:href="#DejaVuSans-70"/>
     <use x="63.476562" xlink:href="#DejaVuSans-3d"/>
     <use x="147.265625" xlink:href="#DejaVuSans-30"/>
     <use x="210.888672" xlink:href="#DejaVuSans-2e"/>
     <use x="242.675781" xlink:href="#DejaVuSans-38"/>
     <use x="306.298828" xlink:href="#DejaVuSans-34"/>
     <use x="369.921875" xlink:href="#DejaVuSans-30"/>
    </g>
   </g>
   <g id="text_18">
    <!-- DIP Rate Distribution -->
    <defs>
     <path d="M 41.109375 46.296875 
Q 39.59375 47.171875 37.8125 47.578125 
Q 36.03125 48 33.890625 48 
Q 26.265625 48 22.1875 43.046875 
Q 18.109375 38.09375 18.109375 28.8125 
L 18.109375 0 
L 9.078125 0 
L 9.078125 54.6875 
L 18.109375 54.6875 
L 18.109375 46.1875 
Q 20.953125 51.171875 25.484375 53.578125 
Q 30.03125 56 36.53125 56 
Q 37.453125 56 38.578125 55.875 
Q 39.703125 55.765625 41.0625 55.515625 
z
" id="DejaVuSans-72"/>
     <path d="M 48.6875 27.296875 
Q 48.6875 37.203125 44.609375 42.84375 
Q 40.53125 48.484375 33.40625 48.484375 
Q 26.265625 48.484375 22.1875 42.84375 
Q 18.109375 37.203125 18.109375 27.296875 
Q 18.109375 17.390625 22.1875 11.75 
Q 26.265625 6.109375 33.40625 6.109375 
Q 40.53125 6.109375 44.609375 11.75 
Q 48.6875 17.390625 48.6875 27.296875 
z
M 18.109375 46.390625 
Q 20.953125 51.265625 25.265625 53.625 
Q 29.59375 56 35.59375 56 
Q 45.5625 56 51.78125 48.09375 
Q 58.015625 40.1875 58.015625 27.296875 
Q 58.015625 14.40625 51.78125 6.484375 
Q 45.5625 -1.421875 35.59375 -1.421875 
Q 29.59375 -1.421875 25.265625 0.953125 
Q 20.953125 3.328125 18.109375 8.203125 
L 18.109375 0 
L 9.078125 0 
L 9.078125 75.984375 
L 18.109375 75.984375 
z
" id="DejaVuSans-62"/>
     <path d="M 8.5 21.578125 
L 8.5 54.6875 
L 17.484375 54.6875 
L 17.484375 21.921875 
Q 17.484375 14.15625 20.5 10.265625 
Q 23.53125 6.390625 29.59375 6.390625 
Q 36.859375 6.390625 41.078125 11.03125 
Q 45.3125 15.671875 45.3125 23.6875 
L 45.3125 54.6875 
L 54.296875 54.6875 
L 54.296875 0 
L 45.3125 0 
L 45.3125 8.40625 
Q 42.046875 3.421875 37.71875 1 
Q 33.40625 -1.421875 27.6875 -1.421875 
Q 18.265625 -1.421875 13.375 4.4375 
Q 8.5 10.296875 8.5 21.578125 
z
M 31.109375 56 
z
" id="DejaVuSans-75"/>
     <path d="M 30.609375 48.390625 
Q 23.390625 48.390625 19.1875 42.75 
Q 14.984375 37.109375 14.984375 27.296875 
Q 14.984375 17.484375 19.15625 11.84375 
Q 23.34375 6.203125 30.609375 6.203125 
Q 37.796875 6.203125 41.984375 11.859375 
Q 46.1875 17.53125 46.1875 27.296875 
Q 46.1875 37.015625 41.984375 42.703125 
Q 37.796875 48.390625 30.609375 48.390625 
z
M 30.609375 56 
Q 42.328125 56 49.015625 48.375 
Q 55.71875 40.765625 55.71875 27.296875 
Q 55.71875 13.875 49.015625 6.21875 
Q 42.328125 -1.421875 30.609375 -1.421875 
Q 18.84375 -1.421875 12.171875 6.21875 
Q 5.515625 13.875 5.515625 27.296875 
Q 5.515625 40.765625 12.171875 48.375 
Q 18.84375 56 30.609375 56 
z
" id="DejaVuSans-6f"/>
    </defs>
    <g transform="translate(84.887812 19.92)scale(0.12 -0.12)">
     <use xlink:href="#DejaVuSans-44"/>
     <use x="77.001953" xlink:href="#DejaVuSans-49"/>
     <use x="106.494141" xlink:href="#DejaVuSans-50"/>
     <use x="166.796875" xlink:href="#DejaVuSans-20"/>
     <use x="198.583984" xlink:href="#DejaVuSans-52"/>
     <use x="268.035156" xlink:href="#DejaVuSans-61"/>
     <use x="329.314453" xlink:href="#DejaVuSans-74"/>
     <use x="368.523438" xlink:href="#DejaVuSans-65"/>
     <use x="430.046875" xlink:href="#DejaVuSans-20"/>
     <use x="461.833984" xlink:href="#DejaVuSans-44"/>
     <use x="538.835938" xlink:href="#DejaVuSans-69"/>
     <use x="566.619141" xlink:href="#DejaVuSans-73"/>
     <use x="618.71875" xlink:href="#DejaVuSans-74"/>
     <use x="657.927734" xlink:href="#DejaVuSans-72"/>
     <use x="699.041016" xlink:href="#DejaVuSans-69"/>
     <use x="726.824219" xlink:href="#DejaVuSans-62"/>
     <use x="790.300781" xlink:href="#DejaVuSans-75"/>
     <use x="853.679688" xlink:href="#DejaVuSans-74"/>
     <use x="892.888672" xlink:href="#DejaVuSans-69"/>
     <use x="920.671875" xlink:href="#DejaVuSans-6f"/>
     <use x="981.853516" xlink:href="#DejaVuSans-6e"/>
    </g>
   </g>
   <g id="legend_1">
    <g id="patch_7">
     <path d="M 43 63.27625 
L 141.685938 63.27625 
Q 143.685938 63.27625 143.685938 61.27625 
L 143.685938 32.92 
Q 143.685938 30.92 141.685938 30.92 
L 43 30.92 
Q 41 30.92 41 32.92 
L 41 61.27625 
Q 41 63.27625 43 63.27625 
z
" style="fill:#ffffff;opacity:0.8;stroke:#cccccc;stroke-linejoin:miter;"/>
    </g>
    <g id="patch_8">
     <path d="M 45 42.518437 
L 65 42.518437 
L 65 35.518437 
L 45 35.518437 
z
" style="fill:#808080;opacity:0.25;"/>
    </g>
    <g id="text_19">
     <!-- Simulated -->
     <defs>
      <path d="M 53.515625 70.515625 
L 53.515625 60.890625 
Q 47.90625 63.578125 42.921875 64.890625 
Q 37.9375 66.21875 33.296875 66.21875 
Q 25.25 66.21875 20.875 63.09375 
Q 16.5 59.96875 16.5 54.203125 
Q 16.5 49.359375 19.40625 46.890625 
Q 22.3125 44.4375 30.421875 42.921875 
L 36.375 41.703125 
Q 47.40625 39.59375 52.65625 34.296875 
Q 57.90625 29 57.90625 20.125 
Q 57.90625 9.515625 50.796875 4.046875 
Q 43.703125 -1.421875 29.984375 -1.421875 
Q 24.8125 -1.421875 18.96875 -0.25 
Q 13.140625 0.921875 6.890625 3.21875 
L 6.890625 13.375 
Q 12.890625 10.015625 18.65625 8.296875 
Q 24.421875 6.59375 29.984375 6.59375 
Q 38.421875 6.59375 43.015625 9.90625 
Q 47.609375 13.234375 47.609375 19.390625 
Q 47.609375 24.75 44.3125 27.78125 
Q 41.015625 30.8125 33.5 32.328125 
L 27.484375 33.5 
Q 16.453125 35.6875 11.515625 40.375 
Q 6.59375 45.0625 6.59375 53.421875 
Q 6.59375 63.09375 13.40625 68.65625 
Q 20.21875 74.21875 32.171875 74.21875 
Q 37.3125 74.21875 42.625 73.28125 
Q 47.953125 72.359375 53.515625 70.515625 
z
" id="DejaVuSans-53"/>
      <path d="M 52 44.1875 
Q 55.375 50.25 60.0625 53.125 
Q 64.75 56 71.09375 56 
Q 79.640625 56 84.28125 50.015625 
Q 88.921875 44.046875 88.921875 33.015625 
L 88.921875 0 
L 79.890625 0 
L 79.890625 32.71875 
Q 79.890625 40.578125 77.09375 44.375 
Q 74.3125 48.1875 68.609375 48.1875 
Q 61.625 48.1875 57.5625 43.546875 
Q 53.515625 38.921875 53.515625 30.90625 
L 53.515625 0 
L 44.484375 0 
L 44.484375 32.71875 
Q 44.484375 40.625 41.703125 44.40625 
Q 38.921875 48.1875 33.109375 48.1875 
Q 26.21875 48.1875 22.15625 43.53125 
Q 18.109375 38.875 18.109375 30.90625 
L 18.109375 0 
L 9.078125 0 
L 9.078125 54.6875 
L 18.109375 54.6875 
L 18.109375 46.1875 
Q 21.1875 51.21875 25.484375 53.609375 
Q 29.78125 56 35.6875 56 
Q 41.65625 56 45.828125 52.96875 
Q 50 49.953125 52 44.1875 
z
" id="DejaVuSans-6d"/>
      <path d="M 9.421875 75.984375 
L 18.40625 75.984375 
L 18.40625 0 
L 9.421875 0 
z
" id="DejaVuSans-6c"/>
      <path d="M 45.40625 46.390625 
L 45.40625 75.984375 
L 54.390625 75.984375 
L 54.390625 0 
L 45.40625 0 
L 45.40625 8.203125 
Q 42.578125 3.328125 38.25 0.953125 
Q 33.9375 -1.421875 27.875 -1.421875 
Q 17.96875 -1.421875 11.734375 6.484375 
Q 5.515625 14.40625 5.515625 27.296875 
Q 5.515625 40.1875 11.734375 48.09375 
Q 17.96875 56 27.875 56 
Q 33.9375 56 38.25 53.625 
Q 42.578125 51.265625 45.40625 46.390625 
z
M 14.796875 27.296875 
Q 14.796875 17.390625 18.875 11.75 
Q 22.953125 6.109375 30.078125 6.109375 
Q 37.203125 6.109375 41.296875 11.75 
Q 45.40625 17.390625 45.40625 27.296875 
Q 45.40625 37.203125 41.296875 42.84375 
Q 37.203125 48.484375 30.078125 48.484375 
Q 22.953125 48.484375 18.875 42.84375 
Q 14.796875 37.203125 14.796875 27.296875 
z
" id="DejaVuSans-64"/>
     </defs>
     <g transform="translate(73 42.518437)scale(0.1 -0.1)">
      <use xlink:href="#DejaVuSans-53"/>
      <use x="63.476562" xlink:href="#DejaVuSans-69"/>
      <use x="91.259766" xlink:href="#DejaVuSans-6d"/>
      <use x="188.671875" xlink:href="#DejaVuSans-75"/>
      <use x="252.050781" xlink:href="#DejaVuSans-6c"/>
      <use x="279.833984" xlink:href="#DejaVuSans-61"/>
      <use x="341.113281" xlink:href="#DejaVuSans-74"/>
      <use x="380.322266" xlink:href="#DejaVuSans-65"/>
      <use x="441.845703" xlink:href="#DejaVuSans-64"/>
     </g>
    </g>
    <g id="patch_9">
     <path d="M 45 57.196562 
L 65 57.196562 
L 65 50.196562 
L 45 50.196562 
z
" style="fill:#ff7f50;opacity:0.25;"/>
    </g>
    <g id="text_20">
     <!-- Experimental -->
     <defs>
      <path d="M 9.8125 72.90625 
L 55.90625 72.90625 
L 55.90625 64.59375 
L 19.671875 64.59375 
L 19.671875 43.015625 
L 54.390625 43.015625 
L 54.390625 34.71875 
L 19.671875 34.71875 
L 19.671875 8.296875 
L 56.78125 8.296875 
L 56.78125 0 
L 9.8125 0 
z
" id="DejaVuSans-45"/>
      <path d="M 54.890625 54.6875 
L 35.109375 28.078125 
L 55.90625 0 
L 45.3125 0 
L 29.390625 21.484375 
L 13.484375 0 
L 2.875 0 
L 24.125 28.609375 
L 4.6875 54.6875 
L 15.28125 54.6875 
L 29.78125 35.203125 
L 44.28125 54.6875 
z
" id="DejaVuSans-78"/>
     </defs>
     <g transform="translate(73 57.196562)scale(0.1 -0.1)">
      <use xlink:href="#DejaVuSans-45"/>
      <use x="63.183594" xlink:href="#DejaVuSans-78"/>
      <use x="122.363281" xlink:href="#DejaVuSans-70"/>
      <use x="185.839844" xlink:href="#DejaVuSans-65"/>
      <use x="247.363281" xlink:href="#DejaVuSans-72"/>
      <use x="288.476562" xlink:href="#DejaVuSans-69"/>
      <use x="316.259766" xlink:href="#DejaVuSans-6d"/>
      <use x="413.671875" xlink:href="#DejaVuSans-65"/>
      <use x="475.195312" xlink:href="#DejaVuSans-6e"/>
      <use x="538.574219" xlink:href="#DejaVuSans-74"/>
      <use x="577.783203" xlink:href="#DejaVuSans-61"/>
      <use x="639.0625" xlink:href="#DejaVuSans-6c"/>
     </g>
    </g>
   </g>
  </g>
 </g>
 <defs>
  <clipPath id="p13406ca778">
   <rect height="166.32" width="223.2" x="36" y="25.92"/>
  </clipPath>
 </defs>
</svg>
