<?xml version="1.0" encoding="utf-8" standalone="no"?>
<!DOCTYPE svg PUBLIC "-//W3C//DTD SVG 1.1//EN"
  "http://www.w3.org/Graphics/SVG/1.1/DTD/svg11.dtd">
<!-- Created with matplotlib (http://matplotlib.org/) -->
<svg height="216pt" version="1.1" viewBox="0 0 288 216" width="288pt" xmlns="http://www.w3.org/2000/svg" xmlns:xlink="http://www.w3.org/1999/xlink">
 <defs>
  <style type="text/css">
*{stroke-linecap:butt;stroke-linejoin:round;}
  </style>
 </defs>
 <g id="figure_1">
  <g id="patch_1">
   <path d="M 0 216 
L 288 216 
L 288 0 
L 0 0 
z
" style="fill:#ffffff;"/>
  </g>
  <g id="axes_1">
   <g id="patch_2">
    <path d="M 36 192.24 
L 259.2 192.24 
L 259.2 25.92 
L 36 25.92 
z
" style="fill:#ffffff;"/>
   </g>
   <g id="PolyCollection_1">
    <path clip-path="url(#p23a5f0f359)" d="M 43.525228 192.222268 
L 43.525228 192.24 
L 45.111378 192.24 
L 46.697527 192.24 
L 48.283676 192.24 
L 49.869825 192.24 
L 51.455974 192.24 
L 53.042124 192.24 
L 54.628273 192.24 
L 56.214422 192.24 
L 57.800571 192.24 
L 59.38672 192.24 
L 60.972869 192.24 
L 62.559019 192.24 
L 64.145168 192.24 
L 65.731317 192.24 
L 67.317466 192.24 
L 68.903615 192.24 
L 70.489765 192.24 
L 72.075914 192.24 
L 73.662063 192.24 
L 75.248212 192.24 
L 76.834361 192.24 
L 78.420511 192.24 
L 80.00666 192.24 
L 81.592809 192.24 
L 83.178958 192.24 
L 84.765107 192.24 
L 86.351257 192.24 
L 87.937406 192.24 
L 89.523555 192.24 
L 91.109704 192.24 
L 92.695853 192.24 
L 94.282003 192.24 
L 95.868152 192.24 
L 97.454301 192.24 
L 99.04045 192.24 
L 100.626599 192.24 
L 102.212749 192.24 
L 103.798898 192.24 
L 105.385047 192.24 
L 106.971196 192.24 
L 108.557345 192.24 
L 110.143495 192.24 
L 111.729644 192.24 
L 113.315793 192.24 
L 114.901942 192.24 
L 116.488091 192.24 
L 118.074241 192.24 
L 119.66039 192.24 
L 121.246539 192.24 
L 122.832688 192.24 
L 124.418837 192.24 
L 126.004986 192.24 
L 127.591136 192.24 
L 129.177285 192.24 
L 130.763434 192.24 
L 132.349583 192.24 
L 133.935732 192.24 
L 135.521882 192.24 
L 137.108031 192.24 
L 138.69418 192.24 
L 140.280329 192.24 
L 141.866478 192.24 
L 143.452628 192.24 
L 145.038777 192.24 
L 146.624926 192.24 
L 148.211075 192.24 
L 149.797224 192.24 
L 151.383374 192.24 
L 152.969523 192.24 
L 154.555672 192.24 
L 156.141821 192.24 
L 157.72797 192.24 
L 159.31412 192.24 
L 160.900269 192.24 
L 162.486418 192.24 
L 164.072567 192.24 
L 165.658716 192.24 
L 167.244866 192.24 
L 168.831015 192.24 
L 170.417164 192.24 
L 172.003313 192.24 
L 173.589462 192.24 
L 175.175612 192.24 
L 176.761761 192.24 
L 178.34791 192.24 
L 179.934059 192.24 
L 181.520208 192.24 
L 183.106358 192.24 
L 184.692507 192.24 
L 186.278656 192.24 
L 187.864805 192.24 
L 189.450954 192.24 
L 191.037103 192.24 
L 192.623253 192.24 
L 194.209402 192.24 
L 195.795551 192.24 
L 197.3817 192.24 
L 198.967849 192.24 
L 200.553999 192.24 
L 202.140148 192.24 
L 203.726297 192.24 
L 205.312446 192.24 
L 206.898595 192.24 
L 208.484745 192.24 
L 210.070894 192.24 
L 211.657043 192.24 
L 213.243192 192.24 
L 214.829341 192.24 
L 216.415491 192.24 
L 218.00164 192.24 
L 219.587789 192.24 
L 221.173938 192.24 
L 222.760087 192.24 
L 224.346237 192.24 
L 225.932386 192.24 
L 227.518535 192.24 
L 229.104684 192.24 
L 230.690833 192.24 
L 232.276983 192.24 
L 233.863132 192.24 
L 235.449281 192.24 
L 237.03543 192.24 
L 238.621579 192.24 
L 240.207729 192.24 
L 241.793878 192.24 
L 243.380027 192.24 
L 244.966176 192.24 
L 244.966176 192.219524 
L 244.966176 192.219524 
L 243.380027 192.208194 
L 241.793878 192.185494 
L 240.207729 192.146955 
L 238.621579 192.086787 
L 237.03543 191.998714 
L 235.449281 191.877319 
L 233.863132 191.71981 
L 232.276983 191.527832 
L 230.690833 191.308735 
L 229.104684 191.075628 
L 227.518535 190.84573 
L 225.932386 190.637002 
L 224.346237 190.463596 
L 222.760087 190.331175 
L 221.173938 190.233269 
L 219.587789 190.149538 
L 218.00164 190.046149 
L 216.415491 189.877787 
L 214.829341 189.590448 
L 213.243192 189.124271 
L 211.657043 188.416248 
L 210.070894 187.403349 
L 208.484745 186.027049 
L 206.898595 184.240096 
L 205.312446 182.015614 
L 203.726297 179.357467 
L 202.140148 176.309674 
L 200.553999 172.962033 
L 198.967849 169.44931 
L 197.3817 165.942458 
L 195.795551 162.632125 
L 194.209402 159.706597 
L 192.623253 157.327862 
L 191.037103 155.610063 
L 189.450954 154.604185 
L 187.864805 154.291494 
L 186.278656 154.586462 
L 184.692507 155.348012 
L 183.106358 156.39645 
L 181.520208 157.532524 
L 179.934059 158.555085 
L 178.34791 159.274696 
L 176.761761 159.522226 
L 175.175612 159.153407 
L 173.589462 158.051814 
L 172.003313 156.133097 
L 170.417164 153.352263 
L 168.831015 149.713848 
L 167.244866 145.282709 
L 165.658716 140.191973 
L 164.072567 134.644769 
L 162.486418 128.907681 
L 160.900269 123.295535 
L 159.31412 118.148661 
L 157.72797 113.804699 
L 156.141821 110.567662 
L 154.555672 108.677566 
L 152.969523 108.28459 
L 151.383374 109.432026 
L 149.797224 112.051627 
L 148.211075 115.973042 
L 146.624926 120.946219 
L 145.038777 126.672762 
L 143.452628 132.840422 
L 141.866478 139.154717 
L 140.280329 145.363095 
L 138.69418 151.269392 
L 137.108031 156.738616 
L 135.521882 161.693725 
L 133.935732 166.106714 
L 132.349583 169.986391 
L 130.763434 173.364951 
L 129.177285 176.285266 
L 127.591136 178.790659 
L 126.004986 180.918608 
L 124.418837 182.699061 
L 122.832688 184.15695 
L 121.246539 185.317252 
L 119.66039 186.210172 
L 118.074241 186.874109 
L 116.488091 187.355025 
L 114.901942 187.702362 
L 113.315793 187.963042 
L 111.729644 188.175801 
L 110.143495 188.367816 
L 108.557345 188.554525 
L 106.971196 188.742207 
L 105.385047 188.931889 
L 103.798898 189.122914 
L 102.212749 189.315007 
L 100.626599 189.508656 
L 99.04045 189.704399 
L 97.454301 189.90201 
L 95.868152 190.100281 
L 94.282003 190.297525 
L 92.695853 190.492358 
L 91.109704 190.684136 
L 89.523555 190.872673 
L 87.937406 191.05732 
L 86.351257 191.235883 
L 84.765107 191.40396 
L 83.178958 191.555058 
L 81.592809 191.681501 
L 80.00666 191.775847 
L 78.420511 191.832414 
L 76.834361 191.848594 
L 75.248212 191.82575 
L 73.662063 191.769605 
L 72.075914 191.690044 
L 70.489765 191.600226 
L 68.903615 191.514997 
L 67.317466 191.448736 
L 65.731317 191.413 
L 64.145168 191.414526 
L 62.559019 191.454127 
L 60.972869 191.526838 
L 59.38672 191.623283 
L 57.800571 191.731854 
L 56.214422 191.841094 
L 54.628273 191.941649 
L 53.042124 192.027387 
L 51.455974 192.095589 
L 49.869825 192.146389 
L 48.283676 192.181791 
L 46.697527 192.204597 
L 45.111378 192.217475 
L 43.525228 192.222268 
z
" style="fill:#808080;fill-opacity:0.25;"/>
   </g>
   <g id="PolyCollection_2">
    <path clip-path="url(#p23a5f0f359)" d="M 105.1266 192.219548 
L 105.1266 192.24 
L 106.237984 192.24 
L 107.349367 192.24 
L 108.460751 192.24 
L 109.572135 192.24 
L 110.683518 192.24 
L 111.794902 192.24 
L 112.906286 192.24 
L 114.01767 192.24 
L 115.129053 192.24 
L 116.240437 192.24 
L 117.351821 192.24 
L 118.463205 192.24 
L 119.574588 192.24 
L 120.685972 192.24 
L 121.797356 192.24 
L 122.90874 192.24 
L 124.020123 192.24 
L 125.131507 192.24 
L 126.242891 192.24 
L 127.354275 192.24 
L 128.465658 192.24 
L 129.577042 192.24 
L 130.688426 192.24 
L 131.79981 192.24 
L 132.911193 192.24 
L 134.022577 192.24 
L 135.133961 192.24 
L 136.245345 192.24 
L 137.356728 192.24 
L 138.468112 192.24 
L 139.579496 192.24 
L 140.69088 192.24 
L 141.802263 192.24 
L 142.913647 192.24 
L 144.025031 192.24 
L 145.136415 192.24 
L 146.247798 192.24 
L 147.359182 192.24 
L 148.470566 192.24 
L 149.58195 192.24 
L 150.693333 192.24 
L 151.804717 192.24 
L 152.916101 192.24 
L 154.027485 192.24 
L 155.138868 192.24 
L 156.250252 192.24 
L 157.361636 192.24 
L 158.47302 192.24 
L 159.584403 192.24 
L 160.695787 192.24 
L 161.807171 192.24 
L 162.918554 192.24 
L 164.029938 192.24 
L 165.141322 192.24 
L 166.252706 192.24 
L 167.364089 192.24 
L 168.475473 192.24 
L 169.586857 192.24 
L 170.698241 192.24 
L 171.809624 192.24 
L 172.921008 192.24 
L 174.032392 192.24 
L 175.143776 192.24 
L 176.255159 192.24 
L 177.366543 192.24 
L 178.477927 192.24 
L 179.589311 192.24 
L 180.700694 192.24 
L 181.812078 192.24 
L 182.923462 192.24 
L 184.034846 192.24 
L 185.146229 192.24 
L 186.257613 192.24 
L 187.368997 192.24 
L 188.480381 192.24 
L 189.591764 192.24 
L 190.703148 192.24 
L 191.814532 192.24 
L 192.925916 192.24 
L 194.037299 192.24 
L 195.148683 192.24 
L 196.260067 192.24 
L 197.371451 192.24 
L 198.482834 192.24 
L 199.594218 192.24 
L 200.705602 192.24 
L 201.816986 192.24 
L 202.928369 192.24 
L 204.039753 192.24 
L 205.151137 192.24 
L 206.262521 192.24 
L 207.373904 192.24 
L 208.485288 192.24 
L 209.596672 192.24 
L 210.708056 192.24 
L 211.819439 192.24 
L 212.930823 192.24 
L 214.042207 192.24 
L 215.15359 192.24 
L 216.264974 192.24 
L 217.376358 192.24 
L 218.487742 192.24 
L 219.599125 192.24 
L 220.710509 192.24 
L 221.821893 192.24 
L 222.933277 192.24 
L 224.04466 192.24 
L 225.156044 192.24 
L 226.267428 192.24 
L 227.378812 192.24 
L 228.490195 192.24 
L 229.601579 192.24 
L 230.712963 192.24 
L 231.824347 192.24 
L 232.93573 192.24 
L 234.047114 192.24 
L 235.158498 192.24 
L 236.269882 192.24 
L 237.381265 192.24 
L 238.492649 192.24 
L 239.604033 192.24 
L 240.715417 192.24 
L 241.8268 192.24 
L 242.938184 192.24 
L 244.049568 192.24 
L 245.160952 192.24 
L 246.272335 192.24 
L 246.272335 192.217996 
L 246.272335 192.217996 
L 245.160952 192.2117 
L 244.049568 192.199796 
L 242.938184 192.18078 
L 241.8268 192.15248 
L 240.715417 192.112035 
L 239.604033 192.055903 
L 238.492649 191.979911 
L 237.381265 191.879373 
L 236.269882 191.749275 
L 235.158498 191.584542 
L 234.047114 191.380365 
L 232.93573 191.132568 
L 231.824347 190.837976 
L 230.712963 190.494719 
L 229.601579 190.102434 
L 228.490195 189.662309 
L 227.378812 189.176928 
L 226.267428 188.649934 
L 225.156044 188.08552 
L 224.04466 187.487834 
L 222.933277 186.860374 
L 221.821893 186.205501 
L 220.710509 185.524164 
L 219.599125 184.815906 
L 218.487742 184.079191 
L 217.376358 183.312008 
L 216.264974 182.512654 
L 215.15359 181.680543 
L 214.042207 180.816876 
L 212.930823 179.924987 
L 211.819439 179.010266 
L 210.708056 178.079588 
L 209.596672 177.14031 
L 208.485288 176.198978 
L 207.373904 175.259959 
L 206.262521 174.324254 
L 205.151137 173.388748 
L 204.039753 172.446095 
L 202.928369 171.485313 
L 201.816986 170.493096 
L 200.705602 169.455669 
L 199.594218 168.36095 
L 198.482834 167.200696 
L 197.371451 165.972324 
L 196.260067 164.680132 
L 195.148683 163.335722 
L 194.037299 161.9576 
L 192.925916 160.569993 
L 191.814532 159.201087 
L 190.703148 157.880936 
L 189.591764 156.639322 
L 188.480381 155.50383 
L 187.368997 154.498293 
L 186.257613 153.641711 
L 185.146229 152.947606 
L 184.034846 152.423713 
L 182.923462 152.071845 
L 181.812078 151.887791 
L 180.700694 151.861124 
L 179.589311 151.974875 
L 178.477927 152.205105 
L 177.366543 152.520489 
L 176.255159 152.882035 
L 175.143776 153.243122 
L 174.032392 153.54999 
L 172.921008 153.742792 
L 171.809624 153.757282 
L 170.698241 153.527167 
L 169.586857 152.987128 
L 168.475473 152.076459 
L 167.364089 150.743252 
L 166.252706 148.948962 
L 165.141322 146.673117 
L 164.029938 143.917809 
L 162.918554 140.711511 
L 161.807171 137.111671 
L 160.695787 133.205548 
L 159.584403 129.108827 
L 158.47302 124.961741 
L 157.361636 120.922698 
L 156.250252 117.159746 
L 155.138868 113.840507 
L 154.027485 111.121506 
L 152.916101 109.137903 
L 151.804717 107.994673 
L 150.693333 107.7601 
L 149.58195 108.462152 
L 148.470566 110.08797 
L 147.359182 112.58634 
L 146.247798 115.872683 
L 145.136415 119.835917 
L 144.025031 124.346402 
L 142.913647 129.264218 
L 141.802263 134.447095 
L 140.69088 139.757481 
L 139.579496 145.068373 
L 138.468112 150.267744 
L 137.356728 155.261479 
L 136.245345 159.974903 
L 135.133961 164.353023 
L 134.022577 168.359692 
L 132.911193 171.975928 
L 131.79981 175.197626 
L 130.688426 178.032942 
L 129.577042 180.499547 
L 128.465658 182.621978 
L 127.354275 184.429216 
L 126.242891 185.952611 
L 125.131507 187.224188 
L 124.020123 188.275354 
L 122.90874 189.135967 
L 121.797356 189.83373 
L 120.685972 190.393841 
L 119.574588 190.838837 
L 118.463205 191.18859 
L 117.351821 191.460398 
L 116.240437 191.669128 
L 115.129053 191.827413 
L 114.01767 191.94585 
L 112.906286 192.033212 
L 111.794902 192.096661 
L 110.683518 192.14194 
L 109.572135 192.173565 
L 108.460751 192.19499 
L 107.349367 192.208753 
L 106.237984 192.216594 
L 105.1266 192.219548 
z
" style="fill:#2e8b57;fill-opacity:0.25;"/>
   </g>
   <g id="matplotlib.axis_1">
    <g id="xtick_1">
     <g id="line2d_1">
      <defs>
       <path d="M 0 0 
L 0 3.5 
" id="m2233042f2b" style="stroke:#000000;stroke-width:0.8;"/>
      </defs>
      <g>
       <use style="stroke:#000000;stroke-width:0.8;" x="58.32" xlink:href="#m2233042f2b" y="192.24"/>
      </g>
     </g>
     <g id="text_1">
      <!-- −0.02 -->
      <defs>
       <path d="M 10.59375 35.5 
L 73.1875 35.5 
L 73.1875 27.203125 
L 10.59375 27.203125 
z
" id="DejaVuSans-2212"/>
       <path d="M 31.78125 66.40625 
Q 24.171875 66.40625 20.328125 58.90625 
Q 16.5 51.421875 16.5 36.375 
Q 16.5 21.390625 20.328125 13.890625 
Q 24.171875 6.390625 31.78125 6.390625 
Q 39.453125 6.390625 43.28125 13.890625 
Q 47.125 21.390625 47.125 36.375 
Q 47.125 51.421875 43.28125 58.90625 
Q 39.453125 66.40625 31.78125 66.40625 
z
M 31.78125 74.21875 
Q 44.046875 74.21875 50.515625 64.515625 
Q 56.984375 54.828125 56.984375 36.375 
Q 56.984375 17.96875 50.515625 8.265625 
Q 44.046875 -1.421875 31.78125 -1.421875 
Q 19.53125 -1.421875 13.0625 8.265625 
Q 6.59375 17.96875 6.59375 36.375 
Q 6.59375 54.828125 13.0625 64.515625 
Q 19.53125 74.21875 31.78125 74.21875 
z
" id="DejaVuSans-30"/>
       <path d="M 10.6875 12.40625 
L 21 12.40625 
L 21 0 
L 10.6875 0 
z
" id="DejaVuSans-2e"/>
       <path d="M 19.1875 8.296875 
L 53.609375 8.296875 
L 53.609375 0 
L 7.328125 0 
L 7.328125 8.296875 
Q 12.9375 14.109375 22.625 23.890625 
Q 32.328125 33.6875 34.8125 36.53125 
Q 39.546875 41.84375 41.421875 45.53125 
Q 43.3125 49.21875 43.3125 52.78125 
Q 43.3125 58.59375 39.234375 62.25 
Q 35.15625 65.921875 28.609375 65.921875 
Q 23.96875 65.921875 18.8125 64.3125 
Q 13.671875 62.703125 7.8125 59.421875 
L 7.8125 69.390625 
Q 13.765625 71.78125 18.9375 73 
Q 24.125 74.21875 28.421875 74.21875 
Q 39.75 74.21875 46.484375 68.546875 
Q 53.21875 62.890625 53.21875 53.421875 
Q 53.21875 48.921875 51.53125 44.890625 
Q 49.859375 40.875 45.40625 35.40625 
Q 44.1875 33.984375 37.640625 27.21875 
Q 31.109375 20.453125 19.1875 8.296875 
z
" id="DejaVuSans-32"/>
      </defs>
      <g transform="translate(42.997344 206.838437)scale(0.1 -0.1)">
       <use xlink:href="#DejaVuSans-2212"/>
       <use x="83.789062" xlink:href="#DejaVuSans-30"/>
       <use x="147.412109" xlink:href="#DejaVuSans-2e"/>
       <use x="179.199219" xlink:href="#DejaVuSans-30"/>
       <use x="242.822266" xlink:href="#DejaVuSans-32"/>
      </g>
     </g>
    </g>
    <g id="xtick_2">
     <g id="line2d_2">
      <g>
       <use style="stroke:#000000;stroke-width:0.8;" x="102.96" xlink:href="#m2233042f2b" y="192.24"/>
      </g>
     </g>
     <g id="text_2">
      <!-- −0.01 -->
      <defs>
       <path d="M 12.40625 8.296875 
L 28.515625 8.296875 
L 28.515625 63.921875 
L 10.984375 60.40625 
L 10.984375 69.390625 
L 28.421875 72.90625 
L 38.28125 72.90625 
L 38.28125 8.296875 
L 54.390625 8.296875 
L 54.390625 0 
L 12.40625 0 
z
" id="DejaVuSans-31"/>
      </defs>
      <g transform="translate(87.637344 206.838437)scale(0.1 -0.1)">
       <use xlink:href="#DejaVuSans-2212"/>
       <use x="83.789062" xlink:href="#DejaVuSans-30"/>
       <use x="147.412109" xlink:href="#DejaVuSans-2e"/>
       <use x="179.199219" xlink:href="#DejaVuSans-30"/>
       <use x="242.822266" xlink:href="#DejaVuSans-31"/>
      </g>
     </g>
    </g>
    <g id="xtick_3">
     <g id="line2d_3">
      <g>
       <use style="stroke:#000000;stroke-width:0.8;" x="147.6" xlink:href="#m2233042f2b" y="192.24"/>
      </g>
     </g>
     <g id="text_3">
      <!-- 0.00 -->
      <g transform="translate(136.467187 206.838437)scale(0.1 -0.1)">
       <use xlink:href="#DejaVuSans-30"/>
       <use x="63.623047" xlink:href="#DejaVuSans-2e"/>
       <use x="95.410156" xlink:href="#DejaVuSans-30"/>
       <use x="159.033203" xlink:href="#DejaVuSans-30"/>
      </g>
     </g>
    </g>
    <g id="xtick_4">
     <g id="line2d_4">
      <g>
       <use style="stroke:#000000;stroke-width:0.8;" x="192.24" xlink:href="#m2233042f2b" y="192.24"/>
      </g>
     </g>
     <g id="text_4">
      <!-- 0.01 -->
      <g transform="translate(181.107188 206.838437)scale(0.1 -0.1)">
       <use xlink:href="#DejaVuSans-30"/>
       <use x="63.623047" xlink:href="#DejaVuSans-2e"/>
       <use x="95.410156" xlink:href="#DejaVuSans-30"/>
       <use x="159.033203" xlink:href="#DejaVuSans-31"/>
      </g>
     </g>
    </g>
    <g id="xtick_5">
     <g id="line2d_5">
      <g>
       <use style="stroke:#000000;stroke-width:0.8;" x="236.88" xlink:href="#m2233042f2b" y="192.24"/>
      </g>
     </g>
     <g id="text_5">
      <!-- 0.02 -->
      <g transform="translate(225.747187 206.838437)scale(0.1 -0.1)">
       <use xlink:href="#DejaVuSans-30"/>
       <use x="63.623047" xlink:href="#DejaVuSans-2e"/>
       <use x="95.410156" xlink:href="#DejaVuSans-30"/>
       <use x="159.033203" xlink:href="#DejaVuSans-32"/>
      </g>
     </g>
    </g>
    <g id="text_6">
     <!-- DIP Rate -->
     <defs>
      <path d="M 19.671875 64.796875 
L 19.671875 8.109375 
L 31.59375 8.109375 
Q 46.6875 8.109375 53.6875 14.9375 
Q 60.6875 21.78125 60.6875 36.53125 
Q 60.6875 51.171875 53.6875 57.984375 
Q 46.6875 64.796875 31.59375 64.796875 
z
M 9.8125 72.90625 
L 30.078125 72.90625 
Q 51.265625 72.90625 61.171875 64.09375 
Q 71.09375 55.28125 71.09375 36.53125 
Q 71.09375 17.671875 61.125 8.828125 
Q 51.171875 0 30.078125 0 
L 9.8125 0 
z
" id="DejaVuSans-44"/>
      <path d="M 9.8125 72.90625 
L 19.671875 72.90625 
L 19.671875 0 
L 9.8125 0 
z
" id="DejaVuSans-49"/>
      <path d="M 19.671875 64.796875 
L 19.671875 37.40625 
L 32.078125 37.40625 
Q 38.96875 37.40625 42.71875 40.96875 
Q 46.484375 44.53125 46.484375 51.125 
Q 46.484375 57.671875 42.71875 61.234375 
Q 38.96875 64.796875 32.078125 64.796875 
z
M 9.8125 72.90625 
L 32.078125 72.90625 
Q 44.34375 72.90625 50.609375 67.359375 
Q 56.890625 61.8125 56.890625 51.125 
Q 56.890625 40.328125 50.609375 34.8125 
Q 44.34375 29.296875 32.078125 29.296875 
L 19.671875 29.296875 
L 19.671875 0 
L 9.8125 0 
z
" id="DejaVuSans-50"/>
      <path id="DejaVuSans-20"/>
      <path d="M 44.390625 34.1875 
Q 47.5625 33.109375 50.5625 29.59375 
Q 53.5625 26.078125 56.59375 19.921875 
L 66.609375 0 
L 56 0 
L 46.6875 18.703125 
Q 43.0625 26.03125 39.671875 28.421875 
Q 36.28125 30.8125 30.421875 30.8125 
L 19.671875 30.8125 
L 19.671875 0 
L 9.8125 0 
L 9.8125 72.90625 
L 32.078125 72.90625 
Q 44.578125 72.90625 50.734375 67.671875 
Q 56.890625 62.453125 56.890625 51.90625 
Q 56.890625 45.015625 53.6875 40.46875 
Q 50.484375 35.9375 44.390625 34.1875 
z
M 19.671875 64.796875 
L 19.671875 38.921875 
L 32.078125 38.921875 
Q 39.203125 38.921875 42.84375 42.21875 
Q 46.484375 45.515625 46.484375 51.90625 
Q 46.484375 58.296875 42.84375 61.546875 
Q 39.203125 64.796875 32.078125 64.796875 
z
" id="DejaVuSans-52"/>
      <path d="M 34.28125 27.484375 
Q 23.390625 27.484375 19.1875 25 
Q 14.984375 22.515625 14.984375 16.5 
Q 14.984375 11.71875 18.140625 8.90625 
Q 21.296875 6.109375 26.703125 6.109375 
Q 34.1875 6.109375 38.703125 11.40625 
Q 43.21875 16.703125 43.21875 25.484375 
L 43.21875 27.484375 
z
M 52.203125 31.203125 
L 52.203125 0 
L 43.21875 0 
L 43.21875 8.296875 
Q 40.140625 3.328125 35.546875 0.953125 
Q 30.953125 -1.421875 24.3125 -1.421875 
Q 15.921875 -1.421875 10.953125 3.296875 
Q 6 8.015625 6 15.921875 
Q 6 25.140625 12.171875 29.828125 
Q 18.359375 34.515625 30.609375 34.515625 
L 43.21875 34.515625 
L 43.21875 35.40625 
Q 43.21875 41.609375 39.140625 45 
Q 35.0625 48.390625 27.6875 48.390625 
Q 23 48.390625 18.546875 47.265625 
Q 14.109375 46.140625 10.015625 43.890625 
L 10.015625 52.203125 
Q 14.9375 54.109375 19.578125 55.046875 
Q 24.21875 56 28.609375 56 
Q 40.484375 56 46.34375 49.84375 
Q 52.203125 43.703125 52.203125 31.203125 
z
" id="DejaVuSans-61"/>
      <path d="M 18.3125 70.21875 
L 18.3125 54.6875 
L 36.8125 54.6875 
L 36.8125 47.703125 
L 18.3125 47.703125 
L 18.3125 18.015625 
Q 18.3125 11.328125 20.140625 9.421875 
Q 21.96875 7.515625 27.59375 7.515625 
L 36.8125 7.515625 
L 36.8125 0 
L 27.59375 0 
Q 17.1875 0 13.234375 3.875 
Q 9.28125 7.765625 9.28125 18.015625 
L 9.28125 47.703125 
L 2.6875 47.703125 
L 2.6875 54.6875 
L 9.28125 54.6875 
L 9.28125 70.21875 
z
" id="DejaVuSans-74"/>
      <path d="M 56.203125 29.59375 
L 56.203125 25.203125 
L 14.890625 25.203125 
Q 15.484375 15.921875 20.484375 11.0625 
Q 25.484375 6.203125 34.421875 6.203125 
Q 39.59375 6.203125 44.453125 7.46875 
Q 49.3125 8.734375 54.109375 11.28125 
L 54.109375 2.78125 
Q 49.265625 0.734375 44.1875 -0.34375 
Q 39.109375 -1.421875 33.890625 -1.421875 
Q 20.796875 -1.421875 13.15625 6.1875 
Q 5.515625 13.8125 5.515625 26.8125 
Q 5.515625 40.234375 12.765625 48.109375 
Q 20.015625 56 32.328125 56 
Q 43.359375 56 49.78125 48.890625 
Q 56.203125 41.796875 56.203125 29.59375 
z
M 47.21875 32.234375 
Q 47.125 39.59375 43.09375 43.984375 
Q 39.0625 48.390625 32.421875 48.390625 
Q 24.90625 48.390625 20.390625 44.140625 
Q 15.875 39.890625 15.1875 32.171875 
z
" id="DejaVuSans-65"/>
     </defs>
     <g transform="translate(126.097656 220.516562)scale(0.1 -0.1)">
      <use xlink:href="#DejaVuSans-44"/>
      <use x="77.001953" xlink:href="#DejaVuSans-49"/>
      <use x="106.494141" xlink:href="#DejaVuSans-50"/>
      <use x="166.796875" xlink:href="#DejaVuSans-20"/>
      <use x="198.583984" xlink:href="#DejaVuSans-52"/>
      <use x="268.035156" xlink:href="#DejaVuSans-61"/>
      <use x="329.314453" xlink:href="#DejaVuSans-74"/>
      <use x="368.523438" xlink:href="#DejaVuSans-65"/>
     </g>
    </g>
   </g>
   <g id="matplotlib.axis_2">
    <g id="ytick_1">
     <g id="line2d_6">
      <defs>
       <path d="M 0 0 
L -3.5 0 
" id="m58d276a129" style="stroke:#000000;stroke-width:0.8;"/>
      </defs>
      <g>
       <use style="stroke:#000000;stroke-width:0.8;" x="36" xlink:href="#m58d276a129" y="192.24"/>
      </g>
     </g>
     <g id="text_7">
      <!-- 0 -->
      <g transform="translate(22.6375 196.039219)scale(0.1 -0.1)">
       <use xlink:href="#DejaVuSans-30"/>
      </g>
     </g>
    </g>
    <g id="ytick_2">
     <g id="line2d_7">
      <g>
       <use style="stroke:#000000;stroke-width:0.8;" x="36" xlink:href="#m58d276a129" y="171.45"/>
      </g>
     </g>
     <g id="text_8">
      <!-- 25 -->
      <defs>
       <path d="M 10.796875 72.90625 
L 49.515625 72.90625 
L 49.515625 64.59375 
L 19.828125 64.59375 
L 19.828125 46.734375 
Q 21.96875 47.46875 24.109375 47.828125 
Q 26.265625 48.1875 28.421875 48.1875 
Q 40.625 48.1875 47.75 41.5 
Q 54.890625 34.8125 54.890625 23.390625 
Q 54.890625 11.625 47.5625 5.09375 
Q 40.234375 -1.421875 26.90625 -1.421875 
Q 22.3125 -1.421875 17.546875 -0.640625 
Q 12.796875 0.140625 7.71875 1.703125 
L 7.71875 11.625 
Q 12.109375 9.234375 16.796875 8.0625 
Q 21.484375 6.890625 26.703125 6.890625 
Q 35.15625 6.890625 40.078125 11.328125 
Q 45.015625 15.765625 45.015625 23.390625 
Q 45.015625 31 40.078125 35.4375 
Q 35.15625 39.890625 26.703125 39.890625 
Q 22.75 39.890625 18.8125 39.015625 
Q 14.890625 38.140625 10.796875 36.28125 
z
" id="DejaVuSans-35"/>
      </defs>
      <g transform="translate(16.275 175.249219)scale(0.1 -0.1)">
       <use xlink:href="#DejaVuSans-32"/>
       <use x="63.623047" xlink:href="#DejaVuSans-35"/>
      </g>
     </g>
    </g>
    <g id="ytick_3">
     <g id="line2d_8">
      <g>
       <use style="stroke:#000000;stroke-width:0.8;" x="36" xlink:href="#m58d276a129" y="150.66"/>
      </g>
     </g>
     <g id="text_9">
      <!-- 50 -->
      <g transform="translate(16.275 154.459219)scale(0.1 -0.1)">
       <use xlink:href="#DejaVuSans-35"/>
       <use x="63.623047" xlink:href="#DejaVuSans-30"/>
      </g>
     </g>
    </g>
    <g id="ytick_4">
     <g id="line2d_9">
      <g>
       <use style="stroke:#000000;stroke-width:0.8;" x="36" xlink:href="#m58d276a129" y="129.87"/>
      </g>
     </g>
     <g id="text_10">
      <!-- 75 -->
      <defs>
       <path d="M 8.203125 72.90625 
L 55.078125 72.90625 
L 55.078125 68.703125 
L 28.609375 0 
L 18.3125 0 
L 43.21875 64.59375 
L 8.203125 64.59375 
z
" id="DejaVuSans-37"/>
      </defs>
      <g transform="translate(16.275 133.669219)scale(0.1 -0.1)">
       <use xlink:href="#DejaVuSans-37"/>
       <use x="63.623047" xlink:href="#DejaVuSans-35"/>
      </g>
     </g>
    </g>
    <g id="ytick_5">
     <g id="line2d_10">
      <g>
       <use style="stroke:#000000;stroke-width:0.8;" x="36" xlink:href="#m58d276a129" y="109.08"/>
      </g>
     </g>
     <g id="text_11">
      <!-- 100 -->
      <g transform="translate(9.9125 112.879219)scale(0.1 -0.1)">
       <use xlink:href="#DejaVuSans-31"/>
       <use x="63.623047" xlink:href="#DejaVuSans-30"/>
       <use x="127.246094" xlink:href="#DejaVuSans-30"/>
      </g>
     </g>
    </g>
    <g id="ytick_6">
     <g id="line2d_11">
      <g>
       <use style="stroke:#000000;stroke-width:0.8;" x="36" xlink:href="#m58d276a129" y="88.29"/>
      </g>
     </g>
     <g id="text_12">
      <!-- 125 -->
      <g transform="translate(9.9125 92.089219)scale(0.1 -0.1)">
       <use xlink:href="#DejaVuSans-31"/>
       <use x="63.623047" xlink:href="#DejaVuSans-32"/>
       <use x="127.246094" xlink:href="#DejaVuSans-35"/>
      </g>
     </g>
    </g>
    <g id="ytick_7">
     <g id="line2d_12">
      <g>
       <use style="stroke:#000000;stroke-width:0.8;" x="36" xlink:href="#m58d276a129" y="67.5"/>
      </g>
     </g>
     <g id="text_13">
      <!-- 150 -->
      <g transform="translate(9.9125 71.299219)scale(0.1 -0.1)">
       <use xlink:href="#DejaVuSans-31"/>
       <use x="63.623047" xlink:href="#DejaVuSans-35"/>
       <use x="127.246094" xlink:href="#DejaVuSans-30"/>
      </g>
     </g>
    </g>
    <g id="ytick_8">
     <g id="line2d_13">
      <g>
       <use style="stroke:#000000;stroke-width:0.8;" x="36" xlink:href="#m58d276a129" y="46.71"/>
      </g>
     </g>
     <g id="text_14">
      <!-- 175 -->
      <g transform="translate(9.9125 50.509219)scale(0.1 -0.1)">
       <use xlink:href="#DejaVuSans-31"/>
       <use x="63.623047" xlink:href="#DejaVuSans-37"/>
       <use x="127.246094" xlink:href="#DejaVuSans-35"/>
      </g>
     </g>
    </g>
    <g id="ytick_9">
     <g id="line2d_14">
      <g>
       <use style="stroke:#000000;stroke-width:0.8;" x="36" xlink:href="#m58d276a129" y="25.92"/>
      </g>
     </g>
     <g id="text_15">
      <!-- 200 -->
      <g transform="translate(9.9125 29.719219)scale(0.1 -0.1)">
       <use xlink:href="#DejaVuSans-32"/>
       <use x="63.623047" xlink:href="#DejaVuSans-30"/>
       <use x="127.246094" xlink:href="#DejaVuSans-30"/>
      </g>
     </g>
    </g>
    <g id="text_16">
     <!-- Density -->
     <defs>
      <path d="M 54.890625 33.015625 
L 54.890625 0 
L 45.90625 0 
L 45.90625 32.71875 
Q 45.90625 40.484375 42.875 44.328125 
Q 39.84375 48.1875 33.796875 48.1875 
Q 26.515625 48.1875 22.3125 43.546875 
Q 18.109375 38.921875 18.109375 30.90625 
L 18.109375 0 
L 9.078125 0 
L 9.078125 54.6875 
L 18.109375 54.6875 
L 18.109375 46.1875 
Q 21.34375 51.125 25.703125 53.5625 
Q 30.078125 56 35.796875 56 
Q 45.21875 56 50.046875 50.171875 
Q 54.890625 44.34375 54.890625 33.015625 
z
" id="DejaVuSans-6e"/>
      <path d="M 44.28125 53.078125 
L 44.28125 44.578125 
Q 40.484375 46.53125 36.375 47.5 
Q 32.28125 48.484375 27.875 48.484375 
Q 21.1875 48.484375 17.84375 46.4375 
Q 14.5 44.390625 14.5 40.28125 
Q 14.5 37.15625 16.890625 35.375 
Q 19.28125 33.59375 26.515625 31.984375 
L 29.59375 31.296875 
Q 39.15625 29.25 43.1875 25.515625 
Q 47.21875 21.78125 47.21875 15.09375 
Q 47.21875 7.46875 41.1875 3.015625 
Q 35.15625 -1.421875 24.609375 -1.421875 
Q 20.21875 -1.421875 15.453125 -0.5625 
Q 10.6875 0.296875 5.421875 2 
L 5.421875 11.28125 
Q 10.40625 8.6875 15.234375 7.390625 
Q 20.0625 6.109375 24.8125 6.109375 
Q 31.15625 6.109375 34.5625 8.28125 
Q 37.984375 10.453125 37.984375 14.40625 
Q 37.984375 18.0625 35.515625 20.015625 
Q 33.0625 21.96875 24.703125 23.78125 
L 21.578125 24.515625 
Q 13.234375 26.265625 9.515625 29.90625 
Q 5.8125 33.546875 5.8125 39.890625 
Q 5.8125 47.609375 11.28125 51.796875 
Q 16.75 56 26.8125 56 
Q 31.78125 56 36.171875 55.265625 
Q 40.578125 54.546875 44.28125 53.078125 
z
" id="DejaVuSans-73"/>
      <path d="M 9.421875 54.6875 
L 18.40625 54.6875 
L 18.40625 0 
L 9.421875 0 
z
M 9.421875 75.984375 
L 18.40625 75.984375 
L 18.40625 64.59375 
L 9.421875 64.59375 
z
" id="DejaVuSans-69"/>
      <path d="M 32.171875 -5.078125 
Q 28.375 -14.84375 24.75 -17.8125 
Q 21.140625 -20.796875 15.09375 -20.796875 
L 7.90625 -20.796875 
L 7.90625 -13.28125 
L 13.1875 -13.28125 
Q 16.890625 -13.28125 18.9375 -11.515625 
Q 21 -9.765625 23.484375 -3.21875 
L 25.09375 0.875 
L 2.984375 54.6875 
L 12.5 54.6875 
L 29.59375 11.921875 
L 46.6875 54.6875 
L 56.203125 54.6875 
z
" id="DejaVuSans-79"/>
     </defs>
     <g transform="translate(3.832812 128.088594)rotate(-90)scale(0.1 -0.1)">
      <use xlink:href="#DejaVuSans-44"/>
      <use x="77.001953" xlink:href="#DejaVuSans-65"/>
      <use x="138.525391" xlink:href="#DejaVuSans-6e"/>
      <use x="201.904297" xlink:href="#DejaVuSans-73"/>
      <use x="254.003906" xlink:href="#DejaVuSans-69"/>
      <use x="281.787109" xlink:href="#DejaVuSans-74"/>
      <use x="320.996094" xlink:href="#DejaVuSans-79"/>
     </g>
    </g>
   </g>
   <g id="line2d_15">
    <path clip-path="url(#p23a5f0f359)" d="M 43.525228 192.222268 
L 51.455974 192.095589 
L 57.800571 191.731854 
L 62.559019 191.454127 
L 65.731317 191.413 
L 70.489765 191.600226 
L 76.834361 191.848594 
L 80.00666 191.775847 
L 84.765107 191.40396 
L 94.282003 190.297525 
L 114.901942 187.702362 
L 116.488091 187.355025 
L 118.074241 186.874109 
L 119.66039 186.210172 
L 121.246539 185.317252 
L 122.832688 184.15695 
L 124.418837 182.699061 
L 126.004986 180.918608 
L 127.591136 178.790659 
L 129.177285 176.285266 
L 130.763434 173.364951 
L 132.349583 169.986391 
L 133.935732 166.106714 
L 135.521882 161.693725 
L 137.108031 156.738616 
L 138.69418 151.269392 
L 141.866478 139.154717 
L 145.038777 126.672762 
L 146.624926 120.946219 
L 148.211075 115.973042 
L 149.797224 112.051627 
L 151.383374 109.432026 
L 152.969523 108.28459 
L 154.555672 108.677566 
L 156.141821 110.567662 
L 157.72797 113.804699 
L 159.31412 118.148661 
L 160.900269 123.295535 
L 165.658716 140.191973 
L 167.244866 145.282709 
L 168.831015 149.713848 
L 170.417164 153.352263 
L 172.003313 156.133097 
L 173.589462 158.051814 
L 175.175612 159.153407 
L 176.761761 159.522226 
L 178.34791 159.274696 
L 179.934059 158.555085 
L 183.106358 156.39645 
L 184.692507 155.348012 
L 186.278656 154.586462 
L 187.864805 154.291494 
L 189.450954 154.604185 
L 191.037103 155.610063 
L 192.623253 157.327862 
L 194.209402 159.706597 
L 195.795551 162.632125 
L 198.967849 169.44931 
L 202.140148 176.309674 
L 203.726297 179.357467 
L 205.312446 182.015614 
L 206.898595 184.240096 
L 208.484745 186.027049 
L 210.070894 187.403349 
L 211.657043 188.416248 
L 213.243192 189.124271 
L 214.829341 189.590448 
L 216.415491 189.877787 
L 219.587789 190.149538 
L 224.346237 190.463596 
L 229.104684 191.075628 
L 233.863132 191.71981 
L 238.621579 192.086787 
L 244.966176 192.219524 
L 244.966176 192.219524 
" style="fill:none;stroke:#808080;stroke-linecap:square;stroke-width:1.5;"/>
   </g>
   <g id="line2d_16">
    <path clip-path="url(#p23a5f0f359)" d="M 105.1266 192.219548 
L 111.794902 192.096661 
L 115.129053 191.827413 
L 117.351821 191.460398 
L 119.574588 190.838837 
L 121.797356 189.83373 
L 122.90874 189.135967 
L 124.020123 188.275354 
L 125.131507 187.224188 
L 126.242891 185.952611 
L 127.354275 184.429216 
L 128.465658 182.621978 
L 129.577042 180.499547 
L 130.688426 178.032942 
L 131.79981 175.197626 
L 132.911193 171.975928 
L 134.022577 168.359692 
L 136.245345 159.974903 
L 138.468112 150.267744 
L 144.025031 124.346402 
L 145.136415 119.835917 
L 146.247798 115.872683 
L 147.359182 112.58634 
L 148.470566 110.08797 
L 149.58195 108.462152 
L 150.693333 107.7601 
L 151.804717 107.994673 
L 152.916101 109.137903 
L 154.027485 111.121506 
L 155.138868 113.840507 
L 156.250252 117.159746 
L 158.47302 124.961741 
L 161.807171 137.111671 
L 162.918554 140.711511 
L 164.029938 143.917809 
L 165.141322 146.673117 
L 166.252706 148.948962 
L 167.364089 150.743252 
L 168.475473 152.076459 
L 169.586857 152.987128 
L 170.698241 153.527167 
L 171.809624 153.757282 
L 172.921008 153.742792 
L 174.032392 153.54999 
L 177.366543 152.520489 
L 179.589311 151.974875 
L 180.700694 151.861124 
L 181.812078 151.887791 
L 182.923462 152.071845 
L 184.034846 152.423713 
L 185.146229 152.947606 
L 186.257613 153.641711 
L 187.368997 154.498293 
L 189.591764 156.639322 
L 191.814532 159.201087 
L 197.371451 165.972324 
L 199.594218 168.36095 
L 201.816986 170.493096 
L 206.262521 174.324254 
L 215.15359 181.680543 
L 218.487742 184.079191 
L 221.821893 186.205501 
L 225.156044 188.08552 
L 228.490195 189.662309 
L 230.712963 190.494719 
L 232.93573 191.132568 
L 235.158498 191.584542 
L 238.492649 191.979911 
L 242.938184 192.18078 
L 246.272335 192.217996 
L 246.272335 192.217996 
" style="fill:none;stroke:#2e8b57;stroke-linecap:square;stroke-width:1.5;"/>
   </g>
   <g id="patch_3">
    <path d="M 36 192.24 
L 36 25.92 
" style="fill:none;stroke:#000000;stroke-linecap:square;stroke-linejoin:miter;stroke-width:0.8;"/>
   </g>
   <g id="patch_4">
    <path d="M 259.2 192.24 
L 259.2 25.92 
" style="fill:none;stroke:#000000;stroke-linecap:square;stroke-linejoin:miter;stroke-width:0.8;"/>
   </g>
   <g id="patch_5">
    <path d="M 36 192.24 
L 259.2 192.24 
" style="fill:none;stroke:#000000;stroke-linecap:square;stroke-linejoin:miter;stroke-width:0.8;"/>
   </g>
   <g id="patch_6">
    <path d="M 36 25.92 
L 259.2 25.92 
" style="fill:none;stroke:#000000;stroke-linecap:square;stroke-linejoin:miter;stroke-width:0.8;"/>
   </g>
   <g id="text_17">
    <!-- p=0.231 -->
    <defs>
     <path d="M 18.109375 8.203125 
L 18.109375 -20.796875 
L 9.078125 -20.796875 
L 9.078125 54.6875 
L 18.109375 54.6875 
L 18.109375 46.390625 
Q 20.953125 51.265625 25.265625 53.625 
Q 29.59375 56 35.59375 56 
Q 45.5625 56 51.78125 48.09375 
Q 58.015625 40.1875 58.015625 27.296875 
Q 58.015625 14.40625 51.78125 6.484375 
Q 45.5625 -1.421875 35.59375 -1.421875 
Q 29.59375 -1.421875 25.265625 0.953125 
Q 20.953125 3.328125 18.109375 8.203125 
z
M 48.6875 27.296875 
Q 48.6875 37.203125 44.609375 42.84375 
Q 40.53125 48.484375 33.40625 48.484375 
Q 26.265625 48.484375 22.1875 42.84375 
Q 18.109375 37.203125 18.109375 27.296875 
Q 18.109375 17.390625 22.1875 11.75 
Q 26.265625 6.109375 33.40625 6.109375 
Q 40.53125 6.109375 44.609375 11.75 
Q 48.6875 17.390625 48.6875 27.296875 
z
" id="DejaVuSans-70"/>
     <path d="M 10.59375 45.40625 
L 73.1875 45.40625 
L 73.1875 37.203125 
L 10.59375 37.203125 
z
M 10.59375 25.484375 
L 73.1875 25.484375 
L 73.1875 17.1875 
L 10.59375 17.1875 
z
" id="DejaVuSans-3d"/>
     <path d="M 40.578125 39.3125 
Q 47.65625 37.796875 51.625 33 
Q 55.609375 28.21875 55.609375 21.1875 
Q 55.609375 10.40625 48.1875 4.484375 
Q 40.765625 -1.421875 27.09375 -1.421875 
Q 22.515625 -1.421875 17.65625 -0.515625 
Q 12.796875 0.390625 7.625 2.203125 
L 7.625 11.71875 
Q 11.71875 9.328125 16.59375 8.109375 
Q 21.484375 6.890625 26.8125 6.890625 
Q 36.078125 6.890625 40.9375 10.546875 
Q 45.796875 14.203125 45.796875 21.1875 
Q 45.796875 27.640625 41.28125 31.265625 
Q 36.765625 34.90625 28.71875 34.90625 
L 20.21875 34.90625 
L 20.21875 43.015625 
L 29.109375 43.015625 
Q 36.375 43.015625 40.234375 45.921875 
Q 44.09375 48.828125 44.09375 54.296875 
Q 44.09375 59.90625 40.109375 62.90625 
Q 36.140625 65.921875 28.71875 65.921875 
Q 24.65625 65.921875 20.015625 65.03125 
Q 15.375 64.15625 9.8125 62.3125 
L 9.8125 71.09375 
Q 15.4375 72.65625 20.34375 73.4375 
Q 25.25 74.21875 29.59375 74.21875 
Q 40.828125 74.21875 47.359375 69.109375 
Q 53.90625 64.015625 53.90625 55.328125 
Q 53.90625 49.265625 50.4375 45.09375 
Q 46.96875 40.921875 40.578125 39.3125 
z
" id="DejaVuSans-33"/>
    </defs>
    <g transform="translate(192.24 67.5)scale(0.11 -0.11)">
     <use xlink:href="#DejaVuSans-70"/>
     <use x="63.476562" xlink:href="#DejaVuSans-3d"/>
     <use x="147.265625" xlink:href="#DejaVuSans-30"/>
     <use x="210.888672" xlink:href="#DejaVuSans-2e"/>
     <use x="242.675781" xlink:href="#DejaVuSans-32"/>
     <use x="306.298828" xlink:href="#DejaVuSans-33"/>
     <use x="369.921875" xlink:href="#DejaVuSans-31"/>
    </g>
   </g>
   <g id="legend_1">
    <g id="patch_7">
     <path d="M 43 63.27625 
L 141.685938 63.27625 
Q 143.685938 63.27625 143.685938 61.27625 
L 143.685938 32.92 
Q 143.685938 30.92 141.685938 30.92 
L 43 30.92 
Q 41 30.92 41 32.92 
L 41 61.27625 
Q 41 63.27625 43 63.27625 
z
" style="fill:#ffffff;opacity:0.8;stroke:#cccccc;stroke-linejoin:miter;"/>
    </g>
    <g id="patch_8">
     <path d="M 45 42.518437 
L 65 42.518437 
L 65 35.518437 
L 45 35.518437 
z
" style="fill:#808080;opacity:0.25;"/>
    </g>
    <g id="text_18">
     <!-- Simulated -->
     <defs>
      <path d="M 53.515625 70.515625 
L 53.515625 60.890625 
Q 47.90625 63.578125 42.921875 64.890625 
Q 37.9375 66.21875 33.296875 66.21875 
Q 25.25 66.21875 20.875 63.09375 
Q 16.5 59.96875 16.5 54.203125 
Q 16.5 49.359375 19.40625 46.890625 
Q 22.3125 44.4375 30.421875 42.921875 
L 36.375 41.703125 
Q 47.40625 39.59375 52.65625 34.296875 
Q 57.90625 29 57.90625 20.125 
Q 57.90625 9.515625 50.796875 4.046875 
Q 43.703125 -1.421875 29.984375 -1.421875 
Q 24.8125 -1.421875 18.96875 -0.25 
Q 13.140625 0.921875 6.890625 3.21875 
L 6.890625 13.375 
Q 12.890625 10.015625 18.65625 8.296875 
Q 24.421875 6.59375 29.984375 6.59375 
Q 38.421875 6.59375 43.015625 9.90625 
Q 47.609375 13.234375 47.609375 19.390625 
Q 47.609375 24.75 44.3125 27.78125 
Q 41.015625 30.8125 33.5 32.328125 
L 27.484375 33.5 
Q 16.453125 35.6875 11.515625 40.375 
Q 6.59375 45.0625 6.59375 53.421875 
Q 6.59375 63.09375 13.40625 68.65625 
Q 20.21875 74.21875 32.171875 74.21875 
Q 37.3125 74.21875 42.625 73.28125 
Q 47.953125 72.359375 53.515625 70.515625 
z
" id="DejaVuSans-53"/>
      <path d="M 52 44.1875 
Q 55.375 50.25 60.0625 53.125 
Q 64.75 56 71.09375 56 
Q 79.640625 56 84.28125 50.015625 
Q 88.921875 44.046875 88.921875 33.015625 
L 88.921875 0 
L 79.890625 0 
L 79.890625 32.71875 
Q 79.890625 40.578125 77.09375 44.375 
Q 74.3125 48.1875 68.609375 48.1875 
Q 61.625 48.1875 57.5625 43.546875 
Q 53.515625 38.921875 53.515625 30.90625 
L 53.515625 0 
L 44.484375 0 
L 44.484375 32.71875 
Q 44.484375 40.625 41.703125 44.40625 
Q 38.921875 48.1875 33.109375 48.1875 
Q 26.21875 48.1875 22.15625 43.53125 
Q 18.109375 38.875 18.109375 30.90625 
L 18.109375 0 
L 9.078125 0 
L 9.078125 54.6875 
L 18.109375 54.6875 
L 18.109375 46.1875 
Q 21.1875 51.21875 25.484375 53.609375 
Q 29.78125 56 35.6875 56 
Q 41.65625 56 45.828125 52.96875 
Q 50 49.953125 52 44.1875 
z
" id="DejaVuSans-6d"/>
      <path d="M 8.5 21.578125 
L 8.5 54.6875 
L 17.484375 54.6875 
L 17.484375 21.921875 
Q 17.484375 14.15625 20.5 10.265625 
Q 23.53125 6.390625 29.59375 6.390625 
Q 36.859375 6.390625 41.078125 11.03125 
Q 45.3125 15.671875 45.3125 23.6875 
L 45.3125 54.6875 
L 54.296875 54.6875 
L 54.296875 0 
L 45.3125 0 
L 45.3125 8.40625 
Q 42.046875 3.421875 37.71875 1 
Q 33.40625 -1.421875 27.6875 -1.421875 
Q 18.265625 -1.421875 13.375 4.4375 
Q 8.5 10.296875 8.5 21.578125 
z
M 31.109375 56 
z
" id="DejaVuSans-75"/>
      <path d="M 9.421875 75.984375 
L 18.40625 75.984375 
L 18.40625 0 
L 9.421875 0 
z
" id="DejaVuSans-6c"/>
      <path d="M 45.40625 46.390625 
L 45.40625 75.984375 
L 54.390625 75.984375 
L 54.390625 0 
L 45.40625 0 
L 45.40625 8.203125 
Q 42.578125 3.328125 38.25 0.953125 
Q 33.9375 -1.421875 27.875 -1.421875 
Q 17.96875 -1.421875 11.734375 6.484375 
Q 5.515625 14.40625 5.515625 27.296875 
Q 5.515625 40.1875 11.734375 48.09375 
Q 17.96875 56 27.875 56 
Q 33.9375 56 38.25 53.625 
Q 42.578125 51.265625 45.40625 46.390625 
z
M 14.796875 27.296875 
Q 14.796875 17.390625 18.875 11.75 
Q 22.953125 6.109375 30.078125 6.109375 
Q 37.203125 6.109375 41.296875 11.75 
Q 45.40625 17.390625 45.40625 27.296875 
Q 45.40625 37.203125 41.296875 42.84375 
Q 37.203125 48.484375 30.078125 48.484375 
Q 22.953125 48.484375 18.875 42.84375 
Q 14.796875 37.203125 14.796875 27.296875 
z
" id="DejaVuSans-64"/>
     </defs>
     <g transform="translate(73 42.518437)scale(0.1 -0.1)">
      <use xlink:href="#DejaVuSans-53"/>
      <use x="63.476562" xlink:href="#DejaVuSans-69"/>
      <use x="91.259766" xlink:href="#DejaVuSans-6d"/>
      <use x="188.671875" xlink:href="#DejaVuSans-75"/>
      <use x="252.050781" xlink:href="#DejaVuSans-6c"/>
      <use x="279.833984" xlink:href="#DejaVuSans-61"/>
      <use x="341.113281" xlink:href="#DejaVuSans-74"/>
      <use x="380.322266" xlink:href="#DejaVuSans-65"/>
      <use x="441.845703" xlink:href="#DejaVuSans-64"/>
     </g>
    </g>
    <g id="patch_9">
     <path d="M 45 57.196562 
L 65 57.196562 
L 65 50.196562 
L 45 50.196562 
z
" style="fill:#2e8b57;opacity:0.25;"/>
    </g>
    <g id="text_19">
     <!-- Experimental -->
     <defs>
      <path d="M 9.8125 72.90625 
L 55.90625 72.90625 
L 55.90625 64.59375 
L 19.671875 64.59375 
L 19.671875 43.015625 
L 54.390625 43.015625 
L 54.390625 34.71875 
L 19.671875 34.71875 
L 19.671875 8.296875 
L 56.78125 8.296875 
L 56.78125 0 
L 9.8125 0 
z
" id="DejaVuSans-45"/>
      <path d="M 54.890625 54.6875 
L 35.109375 28.078125 
L 55.90625 0 
L 45.3125 0 
L 29.390625 21.484375 
L 13.484375 0 
L 2.875 0 
L 24.125 28.609375 
L 4.6875 54.6875 
L 15.28125 54.6875 
L 29.78125 35.203125 
L 44.28125 54.6875 
z
" id="DejaVuSans-78"/>
      <path d="M 41.109375 46.296875 
Q 39.59375 47.171875 37.8125 47.578125 
Q 36.03125 48 33.890625 48 
Q 26.265625 48 22.1875 43.046875 
Q 18.109375 38.09375 18.109375 28.8125 
L 18.109375 0 
L 9.078125 0 
L 9.078125 54.6875 
L 18.109375 54.6875 
L 18.109375 46.1875 
Q 20.953125 51.171875 25.484375 53.578125 
Q 30.03125 56 36.53125 56 
Q 37.453125 56 38.578125 55.875 
Q 39.703125 55.765625 41.0625 55.515625 
z
" id="DejaVuSans-72"/>
     </defs>
     <g transform="translate(73 57.196562)scale(0.1 -0.1)">
      <use xlink:href="#DejaVuSans-45"/>
      <use x="63.183594" xlink:href="#DejaVuSans-78"/>
      <use x="122.363281" xlink:href="#DejaVuSans-70"/>
      <use x="185.839844" xlink:href="#DejaVuSans-65"/>
      <use x="247.363281" xlink:href="#DejaVuSans-72"/>
      <use x="288.476562" xlink:href="#DejaVuSans-69"/>
      <use x="316.259766" xlink:href="#DejaVuSans-6d"/>
      <use x="413.671875" xlink:href="#DejaVuSans-65"/>
      <use x="475.195312" xlink:href="#DejaVuSans-6e"/>
      <use x="538.574219" xlink:href="#DejaVuSans-74"/>
      <use x="577.783203" xlink:href="#DejaVuSans-61"/>
      <use x="639.0625" xlink:href="#DejaVuSans-6c"/>
     </g>
    </g>
   </g>
  </g>
 </g>
 <defs>
  <clipPath id="p23a5f0f359">
   <rect height="166.32" width="223.2" x="36" y="25.92"/>
  </clipPath>
 </defs>
</svg>
