<?xml version="1.0" encoding="utf-8" standalone="no"?>
<!DOCTYPE svg PUBLIC "-//W3C//DTD SVG 1.1//EN"
  "http://www.w3.org/Graphics/SVG/1.1/DTD/svg11.dtd">
<!-- Created with matplotlib (http://matplotlib.org/) -->
<svg height="216pt" version="1.1" viewBox="0 0 288 216" width="288pt" xmlns="http://www.w3.org/2000/svg" xmlns:xlink="http://www.w3.org/1999/xlink">
 <defs>
  <style type="text/css">
*{stroke-linecap:butt;stroke-linejoin:round;}
  </style>
 </defs>
 <g id="figure_1">
  <g id="patch_1">
   <path d="M 0 216 
L 288 216 
L 288 0 
L 0 0 
z
" style="fill:#ffffff;"/>
  </g>
  <g id="axes_1">
   <g id="patch_2">
    <path d="M 36 192.24 
L 259.2 192.24 
L 259.2 25.92 
L 36 25.92 
z
" style="fill:#ffffff;"/>
   </g>
   <g id="PolyCollection_1">
    <path clip-path="url(#p7c4079e2af)" d="M 108.575563 192.193322 
L 108.575563 192.24 
L 109.630479 192.24 
L 110.685395 192.24 
L 111.740311 192.24 
L 112.795227 192.24 
L 113.850143 192.24 
L 114.905059 192.24 
L 115.959975 192.24 
L 117.014891 192.24 
L 118.069807 192.24 
L 119.124723 192.24 
L 120.179639 192.24 
L 121.234555 192.24 
L 122.289471 192.24 
L 123.344387 192.24 
L 124.399303 192.24 
L 125.454219 192.24 
L 126.509135 192.24 
L 127.564051 192.24 
L 128.618967 192.24 
L 129.673883 192.24 
L 130.728799 192.24 
L 131.783715 192.24 
L 132.838631 192.24 
L 133.893547 192.24 
L 134.948463 192.24 
L 136.003379 192.24 
L 137.058295 192.24 
L 138.113211 192.24 
L 139.168127 192.24 
L 140.223043 192.24 
L 141.277959 192.24 
L 142.332875 192.24 
L 143.387791 192.24 
L 144.442707 192.24 
L 145.497623 192.24 
L 146.552539 192.24 
L 147.607455 192.24 
L 148.662371 192.24 
L 149.717287 192.24 
L 150.772203 192.24 
L 151.827119 192.24 
L 152.882035 192.24 
L 153.936951 192.24 
L 154.991867 192.24 
L 156.046783 192.24 
L 157.101699 192.24 
L 158.156615 192.24 
L 159.211531 192.24 
L 160.266447 192.24 
L 161.321363 192.24 
L 162.376279 192.24 
L 163.431195 192.24 
L 164.486111 192.24 
L 165.541027 192.24 
L 166.595943 192.24 
L 167.650859 192.24 
L 168.705775 192.24 
L 169.760691 192.24 
L 170.815607 192.24 
L 171.870523 192.24 
L 172.925439 192.24 
L 173.980355 192.24 
L 175.035271 192.24 
L 176.090187 192.24 
L 177.145103 192.24 
L 178.200019 192.24 
L 179.254935 192.24 
L 180.309851 192.24 
L 181.364767 192.24 
L 182.419683 192.24 
L 183.474599 192.24 
L 184.529515 192.24 
L 185.584431 192.24 
L 186.639347 192.24 
L 187.694263 192.24 
L 188.749179 192.24 
L 189.804095 192.24 
L 190.859011 192.24 
L 191.913927 192.24 
L 192.968843 192.24 
L 194.023759 192.24 
L 195.078675 192.24 
L 196.133591 192.24 
L 197.188507 192.24 
L 198.243423 192.24 
L 199.298339 192.24 
L 200.353255 192.24 
L 201.408171 192.24 
L 202.463087 192.24 
L 203.518003 192.24 
L 204.572919 192.24 
L 205.627835 192.24 
L 206.682751 192.24 
L 207.737667 192.24 
L 208.792583 192.24 
L 209.847499 192.24 
L 210.902415 192.24 
L 211.957331 192.24 
L 213.012247 192.24 
L 214.067163 192.24 
L 215.122079 192.24 
L 216.176995 192.24 
L 217.231911 192.24 
L 218.286827 192.24 
L 219.341743 192.24 
L 220.396659 192.24 
L 221.451575 192.24 
L 222.506491 192.24 
L 223.561407 192.24 
L 224.616323 192.24 
L 225.671239 192.24 
L 226.726155 192.24 
L 227.781071 192.24 
L 228.835987 192.24 
L 229.890903 192.24 
L 230.945819 192.24 
L 232.000735 192.24 
L 233.055651 192.24 
L 234.110567 192.24 
L 235.165483 192.24 
L 236.220399 192.24 
L 237.275315 192.24 
L 238.330231 192.24 
L 239.385147 192.24 
L 240.440063 192.24 
L 241.494979 192.24 
L 242.549895 192.24 
L 242.549895 192.194701 
L 242.549895 192.194701 
L 241.494979 192.11942 
L 240.440063 191.91417 
L 239.385147 191.498294 
L 238.330231 190.838055 
L 237.275315 190.043862 
L 236.220399 189.391805 
L 235.165483 189.184439 
L 234.110567 189.530276 
L 233.055651 190.254573 
L 232.000735 191.038458 
L 230.945819 191.639493 
L 229.890903 191.992147 
L 228.835987 192.155507 
L 227.781071 192.216204 
L 226.726155 192.234462 
L 225.671239 192.238933 
L 224.616323 192.239812 
L 223.561407 192.239835 
L 222.506491 192.239092 
L 221.451575 192.235243 
L 220.396659 192.219295 
L 219.341743 192.165208 
L 218.286827 192.015377 
L 217.231911 191.677377 
L 216.176995 191.058659 
L 215.122079 190.143944 
L 214.067163 189.061025 
L 213.012247 188.058544 
L 211.957331 187.398478 
L 210.902415 187.254086 
L 209.847499 187.667131 
L 208.792583 188.535141 
L 207.737667 189.6243 
L 206.682751 190.653008 
L 205.627835 191.421814 
L 204.572919 191.884318 
L 203.518003 192.110151 
L 202.463087 192.199656 
L 201.408171 192.225937 
L 200.353255 192.220427 
L 199.298339 192.176124 
L 198.243423 192.047987 
L 197.188507 191.75845 
L 196.133591 191.23739 
L 195.078675 190.506959 
L 194.023759 189.752316 
L 192.968843 189.273353 
L 191.913927 189.297943 
L 190.859011 189.80346 
L 189.804095 190.519286 
L 188.749179 191.098487 
L 187.694263 191.287611 
L 186.639347 190.984088 
L 185.584431 190.210253 
L 184.529515 189.036784 
L 183.474599 187.42894 
L 182.419683 185.081774 
L 181.364767 181.477108 
L 180.309851 176.278499 
L 179.254935 169.747092 
L 178.200019 162.658196 
L 177.145103 155.635727 
L 176.090187 148.471727 
L 175.035271 140.09276 
L 173.980355 129.258465 
L 172.925439 115.412622 
L 171.870523 98.937583 
L 170.815607 80.596327 
L 169.760691 60.834206 
L 168.705775 39.874689 
L 167.650859 18.611038 
L 166.595943 -0.764012 
L 165.541027 -15.177731 
L 164.486111 -21.794576 
L 163.431195 -19.067677 
L 162.376279 -7.359195 
L 161.321363 11.08759 
L 160.266447 33.033781 
L 159.211531 55.589526 
L 158.156615 77.035065 
L 157.101699 96.630025 
L 156.046783 113.960165 
L 154.991867 128.607242 
L 153.936951 140.248651 
L 152.882035 148.787797 
L 151.827119 154.362819 
L 150.772203 157.423573 
L 149.717287 158.865024 
L 148.662371 159.896779 
L 147.607455 161.546992 
L 146.552539 164.175612 
L 145.497623 167.430149 
L 144.442707 170.652454 
L 143.387791 173.380546 
L 142.332875 175.612485 
L 141.277959 177.704452 
L 140.223043 179.983216 
L 139.168127 182.390197 
L 138.113211 184.513221 
L 137.058295 185.972013 
L 136.003379 186.723931 
L 134.948463 187.00481 
L 133.893547 187.073204 
L 132.838631 187.044681 
L 131.783715 186.870417 
L 130.728799 186.391375 
L 129.673883 185.464958 
L 128.618967 184.143252 
L 127.564051 182.776605 
L 126.509135 181.925385 
L 125.454219 182.086807 
L 124.399303 183.373461 
L 123.344387 185.364217 
L 122.289471 187.285116 
L 121.234555 188.431288 
L 120.179639 188.538851 
L 119.124723 187.87683 
L 118.069807 187.049546 
L 117.014891 186.658948 
L 115.959975 187.013862 
L 114.905059 188.026785 
L 113.850143 189.33229 
L 112.795227 190.530668 
L 111.740311 191.388178 
L 110.685395 191.881427 
L 109.630479 192.111367 
L 108.575563 192.193322 
z
" style="fill:#808080;fill-opacity:0.25;"/>
   </g>
   <g id="PolyCollection_2">
    <path clip-path="url(#p7c4079e2af)" d="M 91.950128 192.206253 
L 91.950128 192.24 
L 92.753516 192.24 
L 93.556903 192.24 
L 94.360291 192.24 
L 95.163679 192.24 
L 95.967067 192.24 
L 96.770454 192.24 
L 97.573842 192.24 
L 98.37723 192.24 
L 99.180618 192.24 
L 99.984006 192.24 
L 100.787393 192.24 
L 101.590781 192.24 
L 102.394169 192.24 
L 103.197557 192.24 
L 104.000944 192.24 
L 104.804332 192.24 
L 105.60772 192.24 
L 106.411108 192.24 
L 107.214496 192.24 
L 108.017883 192.24 
L 108.821271 192.24 
L 109.624659 192.24 
L 110.428047 192.24 
L 111.231434 192.24 
L 112.034822 192.24 
L 112.83821 192.24 
L 113.641598 192.24 
L 114.444985 192.24 
L 115.248373 192.24 
L 116.051761 192.24 
L 116.855149 192.24 
L 117.658537 192.24 
L 118.461924 192.24 
L 119.265312 192.24 
L 120.0687 192.24 
L 120.872088 192.24 
L 121.675475 192.24 
L 122.478863 192.24 
L 123.282251 192.24 
L 124.085639 192.24 
L 124.889026 192.24 
L 125.692414 192.24 
L 126.495802 192.24 
L 127.29919 192.24 
L 128.102578 192.24 
L 128.905965 192.24 
L 129.709353 192.24 
L 130.512741 192.24 
L 131.316129 192.24 
L 132.119516 192.24 
L 132.922904 192.24 
L 133.726292 192.24 
L 134.52968 192.24 
L 135.333068 192.24 
L 136.136455 192.24 
L 136.939843 192.24 
L 137.743231 192.24 
L 138.546619 192.24 
L 139.350006 192.24 
L 140.153394 192.24 
L 140.956782 192.24 
L 141.76017 192.24 
L 142.563557 192.24 
L 143.366945 192.24 
L 144.170333 192.24 
L 144.973721 192.24 
L 145.777109 192.24 
L 146.580496 192.24 
L 147.383884 192.24 
L 148.187272 192.24 
L 148.99066 192.24 
L 149.794047 192.24 
L 150.597435 192.24 
L 151.400823 192.24 
L 152.204211 192.24 
L 153.007598 192.24 
L 153.810986 192.24 
L 154.614374 192.24 
L 155.417762 192.24 
L 156.22115 192.24 
L 157.024537 192.24 
L 157.827925 192.24 
L 158.631313 192.24 
L 159.434701 192.24 
L 160.238088 192.24 
L 161.041476 192.24 
L 161.844864 192.24 
L 162.648252 192.24 
L 163.451639 192.24 
L 164.255027 192.24 
L 165.058415 192.24 
L 165.861803 192.24 
L 166.665191 192.24 
L 167.468578 192.24 
L 168.271966 192.24 
L 169.075354 192.24 
L 169.878742 192.24 
L 170.682129 192.24 
L 171.485517 192.24 
L 172.288905 192.24 
L 173.092293 192.24 
L 173.895681 192.24 
L 174.699068 192.24 
L 175.502456 192.24 
L 176.305844 192.24 
L 177.109232 192.24 
L 177.912619 192.24 
L 178.716007 192.24 
L 179.519395 192.24 
L 180.322783 192.24 
L 181.12617 192.24 
L 181.929558 192.24 
L 182.732946 192.24 
L 183.536334 192.24 
L 184.339722 192.24 
L 185.143109 192.24 
L 185.946497 192.24 
L 186.749885 192.24 
L 187.553273 192.24 
L 188.35666 192.24 
L 189.160048 192.24 
L 189.963436 192.24 
L 190.766824 192.24 
L 191.570211 192.24 
L 192.373599 192.24 
L 193.176987 192.24 
L 193.980375 192.24 
L 193.980375 192.204642 
L 193.980375 192.204642 
L 193.176987 192.185845 
L 192.373599 192.144172 
L 191.570211 192.068952 
L 190.766824 191.944207 
L 189.963436 191.748682 
L 189.160048 191.456458 
L 188.35666 191.038215 
L 187.553273 190.46303 
L 186.749885 189.700378 
L 185.946497 188.721888 
L 185.143109 187.502469 
L 184.339722 186.020545 
L 183.536334 184.257389 
L 182.732946 182.195826 
L 181.929558 179.818864 
L 181.12617 177.109162 
L 180.322783 174.050478 
L 179.519395 170.632052 
L 178.716007 166.85616 
L 177.912619 162.747557 
L 177.109232 158.361873 
L 176.305844 153.78882 
L 175.502456 149.146374 
L 174.699068 144.564202 
L 173.895681 140.158146 
L 173.092293 136.001198 
L 172.288905 132.098631 
L 171.485517 128.374635 
L 170.682129 124.675162 
L 169.878742 120.787618 
L 169.075354 116.474151 
L 168.271966 111.512799 
L 167.468578 105.73987 
L 166.665191 99.087453 
L 165.861803 91.610914 
L 165.058415 83.502091 
L 164.255027 75.084786 
L 163.451639 66.790431 
L 162.648252 59.114488 
L 161.844864 52.558011 
L 161.041476 47.563047 
L 160.238088 44.453435 
L 159.434701 43.392612 
L 158.631313 44.366912 
L 157.827925 47.197365 
L 157.024537 51.57688 
L 156.22115 57.124202 
L 155.417762 63.442577 
L 154.614374 70.170193 
L 153.810986 77.012007 
L 153.007598 83.748274 
L 152.204211 90.222745 
L 151.400823 96.320501 
L 150.597435 101.948799 
L 149.794047 107.03224 
L 148.99066 111.526446 
L 148.187272 115.444783 
L 147.383884 118.884556 
L 146.580496 122.036226 
L 145.777109 125.163425 
L 144.973721 128.552103 
L 144.170333 132.440152 
L 143.366945 136.948908 
L 142.563557 142.040185 
L 141.76017 147.515137 
L 140.956782 153.057062 
L 140.153394 158.305145 
L 139.350006 162.936534 
L 138.546619 166.733469 
L 137.743231 169.619554 
L 136.939843 171.660344 
L 136.136455 173.033573 
L 135.333068 173.980496 
L 134.52968 174.751661 
L 133.726292 175.559101 
L 132.922904 176.543869 
L 132.119516 177.763597 
L 131.316129 179.199971 
L 130.512741 180.781239 
L 129.709353 182.411566 
L 128.905965 183.998302 
L 128.102578 185.470444 
L 127.29919 186.785678 
L 126.495802 187.927701 
L 125.692414 188.898169 
L 124.889026 189.707983 
L 124.085639 190.371095 
L 123.282251 190.901746 
L 122.478863 191.31425 
L 121.675475 191.623736 
L 120.872088 191.84654 
L 120.0687 191.999732 
L 119.265312 192.099975 
L 118.461924 192.162239 
L 117.658537 192.198862 
L 116.855149 192.219167 
L 116.051761 192.229595 
L 115.248373 192.234118 
L 114.444985 192.234718 
L 113.641598 192.231711 
L 112.83821 192.223858 
L 112.034822 192.208249 
L 111.231434 192.180111 
L 110.428047 192.132774 
L 109.624659 192.058109 
L 108.821271 191.947766 
L 108.017883 191.795333 
L 107.214496 191.599201 
L 106.411108 191.365427 
L 105.60772 191.109522 
L 104.804332 190.856036 
L 104.000944 190.635314 
L 103.197557 190.477765 
L 102.394169 190.407042 
L 101.590781 190.43423 
L 100.787393 190.554996 
L 99.984006 190.750724 
L 99.180618 190.993212 
L 98.37723 191.251305 
L 97.573842 191.49733 
L 96.770454 191.711532 
L 95.967067 191.883703 
L 95.163679 192.01223 
L 94.360291 192.101515 
L 93.556903 192.158892 
L 92.753516 192.191892 
L 91.950128 192.206253 
z
" style="fill:#9932cc;fill-opacity:0.25;"/>
   </g>
   <g id="matplotlib.axis_1">
    <g id="xtick_1">
     <g id="line2d_1">
      <defs>
       <path d="M 0 0 
L 0 3.5 
" id="m7ac2f1d06c" style="stroke:#000000;stroke-width:0.8;"/>
      </defs>
      <g>
       <use style="stroke:#000000;stroke-width:0.8;" x="58.32" xlink:href="#m7ac2f1d06c" y="192.24"/>
      </g>
     </g>
     <g id="text_1">
      <!-- −0.02 -->
      <defs>
       <path d="M 10.59375 35.5 
L 73.1875 35.5 
L 73.1875 27.203125 
L 10.59375 27.203125 
z
" id="DejaVuSans-2212"/>
       <path d="M 31.78125 66.40625 
Q 24.171875 66.40625 20.328125 58.90625 
Q 16.5 51.421875 16.5 36.375 
Q 16.5 21.390625 20.328125 13.890625 
Q 24.171875 6.390625 31.78125 6.390625 
Q 39.453125 6.390625 43.28125 13.890625 
Q 47.125 21.390625 47.125 36.375 
Q 47.125 51.421875 43.28125 58.90625 
Q 39.453125 66.40625 31.78125 66.40625 
z
M 31.78125 74.21875 
Q 44.046875 74.21875 50.515625 64.515625 
Q 56.984375 54.828125 56.984375 36.375 
Q 56.984375 17.96875 50.515625 8.265625 
Q 44.046875 -1.421875 31.78125 -1.421875 
Q 19.53125 -1.421875 13.0625 8.265625 
Q 6.59375 17.96875 6.59375 36.375 
Q 6.59375 54.828125 13.0625 64.515625 
Q 19.53125 74.21875 31.78125 74.21875 
z
" id="DejaVuSans-30"/>
       <path d="M 10.6875 12.40625 
L 21 12.40625 
L 21 0 
L 10.6875 0 
z
" id="DejaVuSans-2e"/>
       <path d="M 19.1875 8.296875 
L 53.609375 8.296875 
L 53.609375 0 
L 7.328125 0 
L 7.328125 8.296875 
Q 12.9375 14.109375 22.625 23.890625 
Q 32.328125 33.6875 34.8125 36.53125 
Q 39.546875 41.84375 41.421875 45.53125 
Q 43.3125 49.21875 43.3125 52.78125 
Q 43.3125 58.59375 39.234375 62.25 
Q 35.15625 65.921875 28.609375 65.921875 
Q 23.96875 65.921875 18.8125 64.3125 
Q 13.671875 62.703125 7.8125 59.421875 
L 7.8125 69.390625 
Q 13.765625 71.78125 18.9375 73 
Q 24.125 74.21875 28.421875 74.21875 
Q 39.75 74.21875 46.484375 68.546875 
Q 53.21875 62.890625 53.21875 53.421875 
Q 53.21875 48.921875 51.53125 44.890625 
Q 49.859375 40.875 45.40625 35.40625 
Q 44.1875 33.984375 37.640625 27.21875 
Q 31.109375 20.453125 19.1875 8.296875 
z
" id="DejaVuSans-32"/>
      </defs>
      <g transform="translate(42.997344 206.838437)scale(0.1 -0.1)">
       <use xlink:href="#DejaVuSans-2212"/>
       <use x="83.789062" xlink:href="#DejaVuSans-30"/>
       <use x="147.412109" xlink:href="#DejaVuSans-2e"/>
       <use x="179.199219" xlink:href="#DejaVuSans-30"/>
       <use x="242.822266" xlink:href="#DejaVuSans-32"/>
      </g>
     </g>
    </g>
    <g id="xtick_2">
     <g id="line2d_2">
      <g>
       <use style="stroke:#000000;stroke-width:0.8;" x="102.96" xlink:href="#m7ac2f1d06c" y="192.24"/>
      </g>
     </g>
     <g id="text_2">
      <!-- −0.01 -->
      <defs>
       <path d="M 12.40625 8.296875 
L 28.515625 8.296875 
L 28.515625 63.921875 
L 10.984375 60.40625 
L 10.984375 69.390625 
L 28.421875 72.90625 
L 38.28125 72.90625 
L 38.28125 8.296875 
L 54.390625 8.296875 
L 54.390625 0 
L 12.40625 0 
z
" id="DejaVuSans-31"/>
      </defs>
      <g transform="translate(87.637344 206.838437)scale(0.1 -0.1)">
       <use xlink:href="#DejaVuSans-2212"/>
       <use x="83.789062" xlink:href="#DejaVuSans-30"/>
       <use x="147.412109" xlink:href="#DejaVuSans-2e"/>
       <use x="179.199219" xlink:href="#DejaVuSans-30"/>
       <use x="242.822266" xlink:href="#DejaVuSans-31"/>
      </g>
     </g>
    </g>
    <g id="xtick_3">
     <g id="line2d_3">
      <g>
       <use style="stroke:#000000;stroke-width:0.8;" x="147.6" xlink:href="#m7ac2f1d06c" y="192.24"/>
      </g>
     </g>
     <g id="text_3">
      <!-- 0.00 -->
      <g transform="translate(136.467187 206.838437)scale(0.1 -0.1)">
       <use xlink:href="#DejaVuSans-30"/>
       <use x="63.623047" xlink:href="#DejaVuSans-2e"/>
       <use x="95.410156" xlink:href="#DejaVuSans-30"/>
       <use x="159.033203" xlink:href="#DejaVuSans-30"/>
      </g>
     </g>
    </g>
    <g id="xtick_4">
     <g id="line2d_4">
      <g>
       <use style="stroke:#000000;stroke-width:0.8;" x="192.24" xlink:href="#m7ac2f1d06c" y="192.24"/>
      </g>
     </g>
     <g id="text_4">
      <!-- 0.01 -->
      <g transform="translate(181.107188 206.838437)scale(0.1 -0.1)">
       <use xlink:href="#DejaVuSans-30"/>
       <use x="63.623047" xlink:href="#DejaVuSans-2e"/>
       <use x="95.410156" xlink:href="#DejaVuSans-30"/>
       <use x="159.033203" xlink:href="#DejaVuSans-31"/>
      </g>
     </g>
    </g>
    <g id="xtick_5">
     <g id="line2d_5">
      <g>
       <use style="stroke:#000000;stroke-width:0.8;" x="236.88" xlink:href="#m7ac2f1d06c" y="192.24"/>
      </g>
     </g>
     <g id="text_5">
      <!-- 0.02 -->
      <g transform="translate(225.747187 206.838437)scale(0.1 -0.1)">
       <use xlink:href="#DejaVuSans-30"/>
       <use x="63.623047" xlink:href="#DejaVuSans-2e"/>
       <use x="95.410156" xlink:href="#DejaVuSans-30"/>
       <use x="159.033203" xlink:href="#DejaVuSans-32"/>
      </g>
     </g>
    </g>
    <g id="text_6">
     <!-- DIP Rate -->
     <defs>
      <path d="M 19.671875 64.796875 
L 19.671875 8.109375 
L 31.59375 8.109375 
Q 46.6875 8.109375 53.6875 14.9375 
Q 60.6875 21.78125 60.6875 36.53125 
Q 60.6875 51.171875 53.6875 57.984375 
Q 46.6875 64.796875 31.59375 64.796875 
z
M 9.8125 72.90625 
L 30.078125 72.90625 
Q 51.265625 72.90625 61.171875 64.09375 
Q 71.09375 55.28125 71.09375 36.53125 
Q 71.09375 17.671875 61.125 8.828125 
Q 51.171875 0 30.078125 0 
L 9.8125 0 
z
" id="DejaVuSans-44"/>
      <path d="M 9.8125 72.90625 
L 19.671875 72.90625 
L 19.671875 0 
L 9.8125 0 
z
" id="DejaVuSans-49"/>
      <path d="M 19.671875 64.796875 
L 19.671875 37.40625 
L 32.078125 37.40625 
Q 38.96875 37.40625 42.71875 40.96875 
Q 46.484375 44.53125 46.484375 51.125 
Q 46.484375 57.671875 42.71875 61.234375 
Q 38.96875 64.796875 32.078125 64.796875 
z
M 9.8125 72.90625 
L 32.078125 72.90625 
Q 44.34375 72.90625 50.609375 67.359375 
Q 56.890625 61.8125 56.890625 51.125 
Q 56.890625 40.328125 50.609375 34.8125 
Q 44.34375 29.296875 32.078125 29.296875 
L 19.671875 29.296875 
L 19.671875 0 
L 9.8125 0 
z
" id="DejaVuSans-50"/>
      <path id="DejaVuSans-20"/>
      <path d="M 44.390625 34.1875 
Q 47.5625 33.109375 50.5625 29.59375 
Q 53.5625 26.078125 56.59375 19.921875 
L 66.609375 0 
L 56 0 
L 46.6875 18.703125 
Q 43.0625 26.03125 39.671875 28.421875 
Q 36.28125 30.8125 30.421875 30.8125 
L 19.671875 30.8125 
L 19.671875 0 
L 9.8125 0 
L 9.8125 72.90625 
L 32.078125 72.90625 
Q 44.578125 72.90625 50.734375 67.671875 
Q 56.890625 62.453125 56.890625 51.90625 
Q 56.890625 45.015625 53.6875 40.46875 
Q 50.484375 35.9375 44.390625 34.1875 
z
M 19.671875 64.796875 
L 19.671875 38.921875 
L 32.078125 38.921875 
Q 39.203125 38.921875 42.84375 42.21875 
Q 46.484375 45.515625 46.484375 51.90625 
Q 46.484375 58.296875 42.84375 61.546875 
Q 39.203125 64.796875 32.078125 64.796875 
z
" id="DejaVuSans-52"/>
      <path d="M 34.28125 27.484375 
Q 23.390625 27.484375 19.1875 25 
Q 14.984375 22.515625 14.984375 16.5 
Q 14.984375 11.71875 18.140625 8.90625 
Q 21.296875 6.109375 26.703125 6.109375 
Q 34.1875 6.109375 38.703125 11.40625 
Q 43.21875 16.703125 43.21875 25.484375 
L 43.21875 27.484375 
z
M 52.203125 31.203125 
L 52.203125 0 
L 43.21875 0 
L 43.21875 8.296875 
Q 40.140625 3.328125 35.546875 0.953125 
Q 30.953125 -1.421875 24.3125 -1.421875 
Q 15.921875 -1.421875 10.953125 3.296875 
Q 6 8.015625 6 15.921875 
Q 6 25.140625 12.171875 29.828125 
Q 18.359375 34.515625 30.609375 34.515625 
L 43.21875 34.515625 
L 43.21875 35.40625 
Q 43.21875 41.609375 39.140625 45 
Q 35.0625 48.390625 27.6875 48.390625 
Q 23 48.390625 18.546875 47.265625 
Q 14.109375 46.140625 10.015625 43.890625 
L 10.015625 52.203125 
Q 14.9375 54.109375 19.578125 55.046875 
Q 24.21875 56 28.609375 56 
Q 40.484375 56 46.34375 49.84375 
Q 52.203125 43.703125 52.203125 31.203125 
z
" id="DejaVuSans-61"/>
      <path d="M 18.3125 70.21875 
L 18.3125 54.6875 
L 36.8125 54.6875 
L 36.8125 47.703125 
L 18.3125 47.703125 
L 18.3125 18.015625 
Q 18.3125 11.328125 20.140625 9.421875 
Q 21.96875 7.515625 27.59375 7.515625 
L 36.8125 7.515625 
L 36.8125 0 
L 27.59375 0 
Q 17.1875 0 13.234375 3.875 
Q 9.28125 7.765625 9.28125 18.015625 
L 9.28125 47.703125 
L 2.6875 47.703125 
L 2.6875 54.6875 
L 9.28125 54.6875 
L 9.28125 70.21875 
z
" id="DejaVuSans-74"/>
      <path d="M 56.203125 29.59375 
L 56.203125 25.203125 
L 14.890625 25.203125 
Q 15.484375 15.921875 20.484375 11.0625 
Q 25.484375 6.203125 34.421875 6.203125 
Q 39.59375 6.203125 44.453125 7.46875 
Q 49.3125 8.734375 54.109375 11.28125 
L 54.109375 2.78125 
Q 49.265625 0.734375 44.1875 -0.34375 
Q 39.109375 -1.421875 33.890625 -1.421875 
Q 20.796875 -1.421875 13.15625 6.1875 
Q 5.515625 13.8125 5.515625 26.8125 
Q 5.515625 40.234375 12.765625 48.109375 
Q 20.015625 56 32.328125 56 
Q 43.359375 56 49.78125 48.890625 
Q 56.203125 41.796875 56.203125 29.59375 
z
M 47.21875 32.234375 
Q 47.125 39.59375 43.09375 43.984375 
Q 39.0625 48.390625 32.421875 48.390625 
Q 24.90625 48.390625 20.390625 44.140625 
Q 15.875 39.890625 15.1875 32.171875 
z
" id="DejaVuSans-65"/>
     </defs>
     <g transform="translate(126.097656 220.516562)scale(0.1 -0.1)">
      <use xlink:href="#DejaVuSans-44"/>
      <use x="77.001953" xlink:href="#DejaVuSans-49"/>
      <use x="106.494141" xlink:href="#DejaVuSans-50"/>
      <use x="166.796875" xlink:href="#DejaVuSans-20"/>
      <use x="198.583984" xlink:href="#DejaVuSans-52"/>
      <use x="268.035156" xlink:href="#DejaVuSans-61"/>
      <use x="329.314453" xlink:href="#DejaVuSans-74"/>
      <use x="368.523438" xlink:href="#DejaVuSans-65"/>
     </g>
    </g>
   </g>
   <g id="matplotlib.axis_2">
    <g id="ytick_1">
     <g id="line2d_6">
      <defs>
       <path d="M 0 0 
L -3.5 0 
" id="m3658ee5c62" style="stroke:#000000;stroke-width:0.8;"/>
      </defs>
      <g>
       <use style="stroke:#000000;stroke-width:0.8;" x="36" xlink:href="#m3658ee5c62" y="192.24"/>
      </g>
     </g>
     <g id="text_7">
      <!-- 0 -->
      <g transform="translate(22.6375 196.039219)scale(0.1 -0.1)">
       <use xlink:href="#DejaVuSans-30"/>
      </g>
     </g>
    </g>
    <g id="ytick_2">
     <g id="line2d_7">
      <g>
       <use style="stroke:#000000;stroke-width:0.8;" x="36" xlink:href="#m3658ee5c62" y="171.45"/>
      </g>
     </g>
     <g id="text_8">
      <!-- 25 -->
      <defs>
       <path d="M 10.796875 72.90625 
L 49.515625 72.90625 
L 49.515625 64.59375 
L 19.828125 64.59375 
L 19.828125 46.734375 
Q 21.96875 47.46875 24.109375 47.828125 
Q 26.265625 48.1875 28.421875 48.1875 
Q 40.625 48.1875 47.75 41.5 
Q 54.890625 34.8125 54.890625 23.390625 
Q 54.890625 11.625 47.5625 5.09375 
Q 40.234375 -1.421875 26.90625 -1.421875 
Q 22.3125 -1.421875 17.546875 -0.640625 
Q 12.796875 0.140625 7.71875 1.703125 
L 7.71875 11.625 
Q 12.109375 9.234375 16.796875 8.0625 
Q 21.484375 6.890625 26.703125 6.890625 
Q 35.15625 6.890625 40.078125 11.328125 
Q 45.015625 15.765625 45.015625 23.390625 
Q 45.015625 31 40.078125 35.4375 
Q 35.15625 39.890625 26.703125 39.890625 
Q 22.75 39.890625 18.8125 39.015625 
Q 14.890625 38.140625 10.796875 36.28125 
z
" id="DejaVuSans-35"/>
      </defs>
      <g transform="translate(16.275 175.249219)scale(0.1 -0.1)">
       <use xlink:href="#DejaVuSans-32"/>
       <use x="63.623047" xlink:href="#DejaVuSans-35"/>
      </g>
     </g>
    </g>
    <g id="ytick_3">
     <g id="line2d_8">
      <g>
       <use style="stroke:#000000;stroke-width:0.8;" x="36" xlink:href="#m3658ee5c62" y="150.66"/>
      </g>
     </g>
     <g id="text_9">
      <!-- 50 -->
      <g transform="translate(16.275 154.459219)scale(0.1 -0.1)">
       <use xlink:href="#DejaVuSans-35"/>
       <use x="63.623047" xlink:href="#DejaVuSans-30"/>
      </g>
     </g>
    </g>
    <g id="ytick_4">
     <g id="line2d_9">
      <g>
       <use style="stroke:#000000;stroke-width:0.8;" x="36" xlink:href="#m3658ee5c62" y="129.87"/>
      </g>
     </g>
     <g id="text_10">
      <!-- 75 -->
      <defs>
       <path d="M 8.203125 72.90625 
L 55.078125 72.90625 
L 55.078125 68.703125 
L 28.609375 0 
L 18.3125 0 
L 43.21875 64.59375 
L 8.203125 64.59375 
z
" id="DejaVuSans-37"/>
      </defs>
      <g transform="translate(16.275 133.669219)scale(0.1 -0.1)">
       <use xlink:href="#DejaVuSans-37"/>
       <use x="63.623047" xlink:href="#DejaVuSans-35"/>
      </g>
     </g>
    </g>
    <g id="ytick_5">
     <g id="line2d_10">
      <g>
       <use style="stroke:#000000;stroke-width:0.8;" x="36" xlink:href="#m3658ee5c62" y="109.08"/>
      </g>
     </g>
     <g id="text_11">
      <!-- 100 -->
      <g transform="translate(9.9125 112.879219)scale(0.1 -0.1)">
       <use xlink:href="#DejaVuSans-31"/>
       <use x="63.623047" xlink:href="#DejaVuSans-30"/>
       <use x="127.246094" xlink:href="#DejaVuSans-30"/>
      </g>
     </g>
    </g>
    <g id="ytick_6">
     <g id="line2d_11">
      <g>
       <use style="stroke:#000000;stroke-width:0.8;" x="36" xlink:href="#m3658ee5c62" y="88.29"/>
      </g>
     </g>
     <g id="text_12">
      <!-- 125 -->
      <g transform="translate(9.9125 92.089219)scale(0.1 -0.1)">
       <use xlink:href="#DejaVuSans-31"/>
       <use x="63.623047" xlink:href="#DejaVuSans-32"/>
       <use x="127.246094" xlink:href="#DejaVuSans-35"/>
      </g>
     </g>
    </g>
    <g id="ytick_7">
     <g id="line2d_12">
      <g>
       <use style="stroke:#000000;stroke-width:0.8;" x="36" xlink:href="#m3658ee5c62" y="67.5"/>
      </g>
     </g>
     <g id="text_13">
      <!-- 150 -->
      <g transform="translate(9.9125 71.299219)scale(0.1 -0.1)">
       <use xlink:href="#DejaVuSans-31"/>
       <use x="63.623047" xlink:href="#DejaVuSans-35"/>
       <use x="127.246094" xlink:href="#DejaVuSans-30"/>
      </g>
     </g>
    </g>
    <g id="ytick_8">
     <g id="line2d_13">
      <g>
       <use style="stroke:#000000;stroke-width:0.8;" x="36" xlink:href="#m3658ee5c62" y="46.71"/>
      </g>
     </g>
     <g id="text_14">
      <!-- 175 -->
      <g transform="translate(9.9125 50.509219)scale(0.1 -0.1)">
       <use xlink:href="#DejaVuSans-31"/>
       <use x="63.623047" xlink:href="#DejaVuSans-37"/>
       <use x="127.246094" xlink:href="#DejaVuSans-35"/>
      </g>
     </g>
    </g>
    <g id="ytick_9">
     <g id="line2d_14">
      <g>
       <use style="stroke:#000000;stroke-width:0.8;" x="36" xlink:href="#m3658ee5c62" y="25.92"/>
      </g>
     </g>
     <g id="text_15">
      <!-- 200 -->
      <g transform="translate(9.9125 29.719219)scale(0.1 -0.1)">
       <use xlink:href="#DejaVuSans-32"/>
       <use x="63.623047" xlink:href="#DejaVuSans-30"/>
       <use x="127.246094" xlink:href="#DejaVuSans-30"/>
      </g>
     </g>
    </g>
    <g id="text_16">
     <!-- Density -->
     <defs>
      <path d="M 54.890625 33.015625 
L 54.890625 0 
L 45.90625 0 
L 45.90625 32.71875 
Q 45.90625 40.484375 42.875 44.328125 
Q 39.84375 48.1875 33.796875 48.1875 
Q 26.515625 48.1875 22.3125 43.546875 
Q 18.109375 38.921875 18.109375 30.90625 
L 18.109375 0 
L 9.078125 0 
L 9.078125 54.6875 
L 18.109375 54.6875 
L 18.109375 46.1875 
Q 21.34375 51.125 25.703125 53.5625 
Q 30.078125 56 35.796875 56 
Q 45.21875 56 50.046875 50.171875 
Q 54.890625 44.34375 54.890625 33.015625 
z
" id="DejaVuSans-6e"/>
      <path d="M 44.28125 53.078125 
L 44.28125 44.578125 
Q 40.484375 46.53125 36.375 47.5 
Q 32.28125 48.484375 27.875 48.484375 
Q 21.1875 48.484375 17.84375 46.4375 
Q 14.5 44.390625 14.5 40.28125 
Q 14.5 37.15625 16.890625 35.375 
Q 19.28125 33.59375 26.515625 31.984375 
L 29.59375 31.296875 
Q 39.15625 29.25 43.1875 25.515625 
Q 47.21875 21.78125 47.21875 15.09375 
Q 47.21875 7.46875 41.1875 3.015625 
Q 35.15625 -1.421875 24.609375 -1.421875 
Q 20.21875 -1.421875 15.453125 -0.5625 
Q 10.6875 0.296875 5.421875 2 
L 5.421875 11.28125 
Q 10.40625 8.6875 15.234375 7.390625 
Q 20.0625 6.109375 24.8125 6.109375 
Q 31.15625 6.109375 34.5625 8.28125 
Q 37.984375 10.453125 37.984375 14.40625 
Q 37.984375 18.0625 35.515625 20.015625 
Q 33.0625 21.96875 24.703125 23.78125 
L 21.578125 24.515625 
Q 13.234375 26.265625 9.515625 29.90625 
Q 5.8125 33.546875 5.8125 39.890625 
Q 5.8125 47.609375 11.28125 51.796875 
Q 16.75 56 26.8125 56 
Q 31.78125 56 36.171875 55.265625 
Q 40.578125 54.546875 44.28125 53.078125 
z
" id="DejaVuSans-73"/>
      <path d="M 9.421875 54.6875 
L 18.40625 54.6875 
L 18.40625 0 
L 9.421875 0 
z
M 9.421875 75.984375 
L 18.40625 75.984375 
L 18.40625 64.59375 
L 9.421875 64.59375 
z
" id="DejaVuSans-69"/>
      <path d="M 32.171875 -5.078125 
Q 28.375 -14.84375 24.75 -17.8125 
Q 21.140625 -20.796875 15.09375 -20.796875 
L 7.90625 -20.796875 
L 7.90625 -13.28125 
L 13.1875 -13.28125 
Q 16.890625 -13.28125 18.9375 -11.515625 
Q 21 -9.765625 23.484375 -3.21875 
L 25.09375 0.875 
L 2.984375 54.6875 
L 12.5 54.6875 
L 29.59375 11.921875 
L 46.6875 54.6875 
L 56.203125 54.6875 
z
" id="DejaVuSans-79"/>
     </defs>
     <g transform="translate(3.832812 128.088594)rotate(-90)scale(0.1 -0.1)">
      <use xlink:href="#DejaVuSans-44"/>
      <use x="77.001953" xlink:href="#DejaVuSans-65"/>
      <use x="138.525391" xlink:href="#DejaVuSans-6e"/>
      <use x="201.904297" xlink:href="#DejaVuSans-73"/>
      <use x="254.003906" xlink:href="#DejaVuSans-69"/>
      <use x="281.787109" xlink:href="#DejaVuSans-74"/>
      <use x="320.996094" xlink:href="#DejaVuSans-79"/>
     </g>
    </g>
   </g>
   <g id="line2d_15">
    <path clip-path="url(#p7c4079e2af)" d="M 108.575563 192.193322 
L 109.630479 192.111367 
L 110.685395 191.881427 
L 111.740311 191.388178 
L 112.795227 190.530668 
L 115.959975 187.013862 
L 117.014891 186.658948 
L 118.069807 187.049546 
L 119.124723 187.87683 
L 120.179639 188.538851 
L 121.234555 188.431288 
L 122.289471 187.285116 
L 124.399303 183.373461 
L 125.454219 182.086807 
L 126.509135 181.925385 
L 127.564051 182.776605 
L 129.673883 185.464958 
L 130.728799 186.391375 
L 131.783715 186.870417 
L 132.838631 187.044681 
L 134.948463 187.00481 
L 136.003379 186.723931 
L 137.058295 185.972013 
L 138.113211 184.513221 
L 139.168127 182.390197 
L 141.277959 177.704452 
L 143.387791 173.380546 
L 144.442707 170.652454 
L 146.552539 164.175612 
L 147.607455 161.546992 
L 148.662371 159.896779 
L 149.717287 158.865024 
L 150.772203 157.423573 
L 151.827119 154.362819 
L 152.882035 148.787797 
L 153.936951 140.248651 
L 154.991867 128.607242 
L 156.046783 113.960165 
L 157.101699 96.630025 
L 159.211531 55.589526 
L 161.321363 11.08759 
L 162.012616 -1 
M 166.578672 -1 
L 166.595943 -0.764012 
L 168.705775 39.874689 
L 170.815607 80.596327 
L 172.925439 115.412622 
L 173.980355 129.258465 
L 175.035271 140.09276 
L 176.090187 148.471727 
L 179.254935 169.747092 
L 180.309851 176.278499 
L 181.364767 181.477108 
L 182.419683 185.081774 
L 183.474599 187.42894 
L 184.529515 189.036784 
L 185.584431 190.210253 
L 186.639347 190.984088 
L 187.694263 191.287611 
L 188.749179 191.098487 
L 189.804095 190.519286 
L 190.859011 189.80346 
L 191.913927 189.297943 
L 192.968843 189.273353 
L 194.023759 189.752316 
L 196.133591 191.23739 
L 197.188507 191.75845 
L 198.243423 192.047987 
L 200.353255 192.220427 
L 202.463087 192.199656 
L 203.518003 192.110151 
L 204.572919 191.884318 
L 205.627835 191.421814 
L 206.682751 190.653008 
L 209.847499 187.667131 
L 210.902415 187.254086 
L 211.957331 187.398478 
L 213.012247 188.058544 
L 216.176995 191.058659 
L 217.231911 191.677377 
L 218.286827 192.015377 
L 220.396659 192.219295 
L 226.726155 192.234462 
L 228.835987 192.155507 
L 229.890903 191.992147 
L 230.945819 191.639493 
L 232.000735 191.038458 
L 234.110567 189.530276 
L 235.165483 189.184439 
L 236.220399 189.391805 
L 237.275315 190.043862 
L 239.385147 191.498294 
L 240.440063 191.91417 
L 241.494979 192.11942 
L 242.549895 192.194701 
L 242.549895 192.194701 
" style="fill:none;stroke:#808080;stroke-linecap:square;stroke-width:1.5;"/>
   </g>
   <g id="line2d_16">
    <path clip-path="url(#p7c4079e2af)" d="M 91.950128 192.206253 
L 94.360291 192.101515 
L 95.967067 191.883703 
L 97.573842 191.49733 
L 100.787393 190.554996 
L 102.394169 190.407042 
L 104.000944 190.635314 
L 108.821271 191.947766 
L 111.231434 192.180111 
L 115.248373 192.234118 
L 118.461924 192.162239 
L 120.0687 191.999732 
L 121.675475 191.623736 
L 123.282251 190.901746 
L 124.889026 189.707983 
L 125.692414 188.898169 
L 127.29919 186.785678 
L 128.905965 183.998302 
L 132.119516 177.763597 
L 132.922904 176.543869 
L 133.726292 175.559101 
L 136.136455 173.033573 
L 136.939843 171.660344 
L 137.743231 169.619554 
L 138.546619 166.733469 
L 139.350006 162.936534 
L 140.956782 153.057062 
L 143.366945 136.948908 
L 144.973721 128.552103 
L 146.580496 122.036226 
L 148.187272 115.444783 
L 148.99066 111.526446 
L 150.597435 101.948799 
L 152.204211 90.222745 
L 157.024537 51.57688 
L 157.827925 47.197365 
L 158.631313 44.366912 
L 159.434701 43.392612 
L 160.238088 44.453435 
L 161.041476 47.563047 
L 161.844864 52.558011 
L 162.648252 59.114488 
L 164.255027 75.084786 
L 165.861803 91.610914 
L 167.468578 105.73987 
L 168.271966 111.512799 
L 169.878742 120.787618 
L 174.699068 144.564202 
L 178.716007 166.85616 
L 180.322783 174.050478 
L 181.929558 179.818864 
L 183.536334 184.257389 
L 184.339722 186.020545 
L 185.143109 187.502469 
L 185.946497 188.721888 
L 186.749885 189.700378 
L 187.553273 190.46303 
L 188.35666 191.038215 
L 189.160048 191.456458 
L 190.766824 191.944207 
L 192.373599 192.144172 
L 193.980375 192.204642 
L 193.980375 192.204642 
" style="fill:none;stroke:#9932cc;stroke-linecap:square;stroke-width:1.5;"/>
   </g>
   <g id="patch_3">
    <path d="M 36 192.24 
L 36 25.92 
" style="fill:none;stroke:#000000;stroke-linecap:square;stroke-linejoin:miter;stroke-width:0.8;"/>
   </g>
   <g id="patch_4">
    <path d="M 259.2 192.24 
L 259.2 25.92 
" style="fill:none;stroke:#000000;stroke-linecap:square;stroke-linejoin:miter;stroke-width:0.8;"/>
   </g>
   <g id="patch_5">
    <path d="M 36 192.24 
L 259.2 192.24 
" style="fill:none;stroke:#000000;stroke-linecap:square;stroke-linejoin:miter;stroke-width:0.8;"/>
   </g>
   <g id="patch_6">
    <path d="M 36 25.92 
L 259.2 25.92 
" style="fill:none;stroke:#000000;stroke-linecap:square;stroke-linejoin:miter;stroke-width:0.8;"/>
   </g>
   <g id="text_17">
    <!-- p=0.000 -->
    <defs>
     <path d="M 18.109375 8.203125 
L 18.109375 -20.796875 
L 9.078125 -20.796875 
L 9.078125 54.6875 
L 18.109375 54.6875 
L 18.109375 46.390625 
Q 20.953125 51.265625 25.265625 53.625 
Q 29.59375 56 35.59375 56 
Q 45.5625 56 51.78125 48.09375 
Q 58.015625 40.1875 58.015625 27.296875 
Q 58.015625 14.40625 51.78125 6.484375 
Q 45.5625 -1.421875 35.59375 -1.421875 
Q 29.59375 -1.421875 25.265625 0.953125 
Q 20.953125 3.328125 18.109375 8.203125 
z
M 48.6875 27.296875 
Q 48.6875 37.203125 44.609375 42.84375 
Q 40.53125 48.484375 33.40625 48.484375 
Q 26.265625 48.484375 22.1875 42.84375 
Q 18.109375 37.203125 18.109375 27.296875 
Q 18.109375 17.390625 22.1875 11.75 
Q 26.265625 6.109375 33.40625 6.109375 
Q 40.53125 6.109375 44.609375 11.75 
Q 48.6875 17.390625 48.6875 27.296875 
z
" id="DejaVuSans-70"/>
     <path d="M 10.59375 45.40625 
L 73.1875 45.40625 
L 73.1875 37.203125 
L 10.59375 37.203125 
z
M 10.59375 25.484375 
L 73.1875 25.484375 
L 73.1875 17.1875 
L 10.59375 17.1875 
z
" id="DejaVuSans-3d"/>
    </defs>
    <g transform="translate(178.848 67.5)scale(0.12 -0.12)">
     <use xlink:href="#DejaVuSans-70"/>
     <use x="63.476562" xlink:href="#DejaVuSans-3d"/>
     <use x="147.265625" xlink:href="#DejaVuSans-30"/>
     <use x="210.888672" xlink:href="#DejaVuSans-2e"/>
     <use x="242.675781" xlink:href="#DejaVuSans-30"/>
     <use x="306.298828" xlink:href="#DejaVuSans-30"/>
     <use x="369.921875" xlink:href="#DejaVuSans-30"/>
    </g>
   </g>
   <g id="text_18">
    <!-- DIP Rate Distribution -->
    <defs>
     <path d="M 41.109375 46.296875 
Q 39.59375 47.171875 37.8125 47.578125 
Q 36.03125 48 33.890625 48 
Q 26.265625 48 22.1875 43.046875 
Q 18.109375 38.09375 18.109375 28.8125 
L 18.109375 0 
L 9.078125 0 
L 9.078125 54.6875 
L 18.109375 54.6875 
L 18.109375 46.1875 
Q 20.953125 51.171875 25.484375 53.578125 
Q 30.03125 56 36.53125 56 
Q 37.453125 56 38.578125 55.875 
Q 39.703125 55.765625 41.0625 55.515625 
z
" id="DejaVuSans-72"/>
     <path d="M 48.6875 27.296875 
Q 48.6875 37.203125 44.609375 42.84375 
Q 40.53125 48.484375 33.40625 48.484375 
Q 26.265625 48.484375 22.1875 42.84375 
Q 18.109375 37.203125 18.109375 27.296875 
Q 18.109375 17.390625 22.1875 11.75 
Q 26.265625 6.109375 33.40625 6.109375 
Q 40.53125 6.109375 44.609375 11.75 
Q 48.6875 17.390625 48.6875 27.296875 
z
M 18.109375 46.390625 
Q 20.953125 51.265625 25.265625 53.625 
Q 29.59375 56 35.59375 56 
Q 45.5625 56 51.78125 48.09375 
Q 58.015625 40.1875 58.015625 27.296875 
Q 58.015625 14.40625 51.78125 6.484375 
Q 45.5625 -1.421875 35.59375 -1.421875 
Q 29.59375 -1.421875 25.265625 0.953125 
Q 20.953125 3.328125 18.109375 8.203125 
L 18.109375 0 
L 9.078125 0 
L 9.078125 75.984375 
L 18.109375 75.984375 
z
" id="DejaVuSans-62"/>
     <path d="M 8.5 21.578125 
L 8.5 54.6875 
L 17.484375 54.6875 
L 17.484375 21.921875 
Q 17.484375 14.15625 20.5 10.265625 
Q 23.53125 6.390625 29.59375 6.390625 
Q 36.859375 6.390625 41.078125 11.03125 
Q 45.3125 15.671875 45.3125 23.6875 
L 45.3125 54.6875 
L 54.296875 54.6875 
L 54.296875 0 
L 45.3125 0 
L 45.3125 8.40625 
Q 42.046875 3.421875 37.71875 1 
Q 33.40625 -1.421875 27.6875 -1.421875 
Q 18.265625 -1.421875 13.375 4.4375 
Q 8.5 10.296875 8.5 21.578125 
z
M 31.109375 56 
z
" id="DejaVuSans-75"/>
     <path d="M 30.609375 48.390625 
Q 23.390625 48.390625 19.1875 42.75 
Q 14.984375 37.109375 14.984375 27.296875 
Q 14.984375 17.484375 19.15625 11.84375 
Q 23.34375 6.203125 30.609375 6.203125 
Q 37.796875 6.203125 41.984375 11.859375 
Q 46.1875 17.53125 46.1875 27.296875 
Q 46.1875 37.015625 41.984375 42.703125 
Q 37.796875 48.390625 30.609375 48.390625 
z
M 30.609375 56 
Q 42.328125 56 49.015625 48.375 
Q 55.71875 40.765625 55.71875 27.296875 
Q 55.71875 13.875 49.015625 6.21875 
Q 42.328125 -1.421875 30.609375 -1.421875 
Q 18.84375 -1.421875 12.171875 6.21875 
Q 5.515625 13.875 5.515625 27.296875 
Q 5.515625 40.765625 12.171875 48.375 
Q 18.84375 56 30.609375 56 
z
" id="DejaVuSans-6f"/>
    </defs>
    <g transform="translate(84.887812 19.92)scale(0.12 -0.12)">
     <use xlink:href="#DejaVuSans-44"/>
     <use x="77.001953" xlink:href="#DejaVuSans-49"/>
     <use x="106.494141" xlink:href="#DejaVuSans-50"/>
     <use x="166.796875" xlink:href="#DejaVuSans-20"/>
     <use x="198.583984" xlink:href="#DejaVuSans-52"/>
     <use x="268.035156" xlink:href="#DejaVuSans-61"/>
     <use x="329.314453" xlink:href="#DejaVuSans-74"/>
     <use x="368.523438" xlink:href="#DejaVuSans-65"/>
     <use x="430.046875" xlink:href="#DejaVuSans-20"/>
     <use x="461.833984" xlink:href="#DejaVuSans-44"/>
     <use x="538.835938" xlink:href="#DejaVuSans-69"/>
     <use x="566.619141" xlink:href="#DejaVuSans-73"/>
     <use x="618.71875" xlink:href="#DejaVuSans-74"/>
     <use x="657.927734" xlink:href="#DejaVuSans-72"/>
     <use x="699.041016" xlink:href="#DejaVuSans-69"/>
     <use x="726.824219" xlink:href="#DejaVuSans-62"/>
     <use x="790.300781" xlink:href="#DejaVuSans-75"/>
     <use x="853.679688" xlink:href="#DejaVuSans-74"/>
     <use x="892.888672" xlink:href="#DejaVuSans-69"/>
     <use x="920.671875" xlink:href="#DejaVuSans-6f"/>
     <use x="981.853516" xlink:href="#DejaVuSans-6e"/>
    </g>
   </g>
   <g id="legend_1">
    <g id="patch_7">
     <path d="M 43 63.27625 
L 141.685938 63.27625 
Q 143.685938 63.27625 143.685938 61.27625 
L 143.685938 32.92 
Q 143.685938 30.92 141.685938 30.92 
L 43 30.92 
Q 41 30.92 41 32.92 
L 41 61.27625 
Q 41 63.27625 43 63.27625 
z
" style="fill:#ffffff;opacity:0.8;stroke:#cccccc;stroke-linejoin:miter;"/>
    </g>
    <g id="patch_8">
     <path d="M 45 42.518437 
L 65 42.518437 
L 65 35.518437 
L 45 35.518437 
z
" style="fill:#808080;opacity:0.25;"/>
    </g>
    <g id="text_19">
     <!-- Simulated -->
     <defs>
      <path d="M 53.515625 70.515625 
L 53.515625 60.890625 
Q 47.90625 63.578125 42.921875 64.890625 
Q 37.9375 66.21875 33.296875 66.21875 
Q 25.25 66.21875 20.875 63.09375 
Q 16.5 59.96875 16.5 54.203125 
Q 16.5 49.359375 19.40625 46.890625 
Q 22.3125 44.4375 30.421875 42.921875 
L 36.375 41.703125 
Q 47.40625 39.59375 52.65625 34.296875 
Q 57.90625 29 57.90625 20.125 
Q 57.90625 9.515625 50.796875 4.046875 
Q 43.703125 -1.421875 29.984375 -1.421875 
Q 24.8125 -1.421875 18.96875 -0.25 
Q 13.140625 0.921875 6.890625 3.21875 
L 6.890625 13.375 
Q 12.890625 10.015625 18.65625 8.296875 
Q 24.421875 6.59375 29.984375 6.59375 
Q 38.421875 6.59375 43.015625 9.90625 
Q 47.609375 13.234375 47.609375 19.390625 
Q 47.609375 24.75 44.3125 27.78125 
Q 41.015625 30.8125 33.5 32.328125 
L 27.484375 33.5 
Q 16.453125 35.6875 11.515625 40.375 
Q 6.59375 45.0625 6.59375 53.421875 
Q 6.59375 63.09375 13.40625 68.65625 
Q 20.21875 74.21875 32.171875 74.21875 
Q 37.3125 74.21875 42.625 73.28125 
Q 47.953125 72.359375 53.515625 70.515625 
z
" id="DejaVuSans-53"/>
      <path d="M 52 44.1875 
Q 55.375 50.25 60.0625 53.125 
Q 64.75 56 71.09375 56 
Q 79.640625 56 84.28125 50.015625 
Q 88.921875 44.046875 88.921875 33.015625 
L 88.921875 0 
L 79.890625 0 
L 79.890625 32.71875 
Q 79.890625 40.578125 77.09375 44.375 
Q 74.3125 48.1875 68.609375 48.1875 
Q 61.625 48.1875 57.5625 43.546875 
Q 53.515625 38.921875 53.515625 30.90625 
L 53.515625 0 
L 44.484375 0 
L 44.484375 32.71875 
Q 44.484375 40.625 41.703125 44.40625 
Q 38.921875 48.1875 33.109375 48.1875 
Q 26.21875 48.1875 22.15625 43.53125 
Q 18.109375 38.875 18.109375 30.90625 
L 18.109375 0 
L 9.078125 0 
L 9.078125 54.6875 
L 18.109375 54.6875 
L 18.109375 46.1875 
Q 21.1875 51.21875 25.484375 53.609375 
Q 29.78125 56 35.6875 56 
Q 41.65625 56 45.828125 52.96875 
Q 50 49.953125 52 44.1875 
z
" id="DejaVuSans-6d"/>
      <path d="M 9.421875 75.984375 
L 18.40625 75.984375 
L 18.40625 0 
L 9.421875 0 
z
" id="DejaVuSans-6c"/>
      <path d="M 45.40625 46.390625 
L 45.40625 75.984375 
L 54.390625 75.984375 
L 54.390625 0 
L 45.40625 0 
L 45.40625 8.203125 
Q 42.578125 3.328125 38.25 0.953125 
Q 33.9375 -1.421875 27.875 -1.421875 
Q 17.96875 -1.421875 11.734375 6.484375 
Q 5.515625 14.40625 5.515625 27.296875 
Q 5.515625 40.1875 11.734375 48.09375 
Q 17.96875 56 27.875 56 
Q 33.9375 56 38.25 53.625 
Q 42.578125 51.265625 45.40625 46.390625 
z
M 14.796875 27.296875 
Q 14.796875 17.390625 18.875 11.75 
Q 22.953125 6.109375 30.078125 6.109375 
Q 37.203125 6.109375 41.296875 11.75 
Q 45.40625 17.390625 45.40625 27.296875 
Q 45.40625 37.203125 41.296875 42.84375 
Q 37.203125 48.484375 30.078125 48.484375 
Q 22.953125 48.484375 18.875 42.84375 
Q 14.796875 37.203125 14.796875 27.296875 
z
" id="DejaVuSans-64"/>
     </defs>
     <g transform="translate(73 42.518437)scale(0.1 -0.1)">
      <use xlink:href="#DejaVuSans-53"/>
      <use x="63.476562" xlink:href="#DejaVuSans-69"/>
      <use x="91.259766" xlink:href="#DejaVuSans-6d"/>
      <use x="188.671875" xlink:href="#DejaVuSans-75"/>
      <use x="252.050781" xlink:href="#DejaVuSans-6c"/>
      <use x="279.833984" xlink:href="#DejaVuSans-61"/>
      <use x="341.113281" xlink:href="#DejaVuSans-74"/>
      <use x="380.322266" xlink:href="#DejaVuSans-65"/>
      <use x="441.845703" xlink:href="#DejaVuSans-64"/>
     </g>
    </g>
    <g id="patch_9">
     <path d="M 45 57.196562 
L 65 57.196562 
L 65 50.196562 
L 45 50.196562 
z
" style="fill:#9932cc;opacity:0.25;"/>
    </g>
    <g id="text_20">
     <!-- Experimental -->
     <defs>
      <path d="M 9.8125 72.90625 
L 55.90625 72.90625 
L 55.90625 64.59375 
L 19.671875 64.59375 
L 19.671875 43.015625 
L 54.390625 43.015625 
L 54.390625 34.71875 
L 19.671875 34.71875 
L 19.671875 8.296875 
L 56.78125 8.296875 
L 56.78125 0 
L 9.8125 0 
z
" id="DejaVuSans-45"/>
      <path d="M 54.890625 54.6875 
L 35.109375 28.078125 
L 55.90625 0 
L 45.3125 0 
L 29.390625 21.484375 
L 13.484375 0 
L 2.875 0 
L 24.125 28.609375 
L 4.6875 54.6875 
L 15.28125 54.6875 
L 29.78125 35.203125 
L 44.28125 54.6875 
z
" id="DejaVuSans-78"/>
     </defs>
     <g transform="translate(73 57.196562)scale(0.1 -0.1)">
      <use xlink:href="#DejaVuSans-45"/>
      <use x="63.183594" xlink:href="#DejaVuSans-78"/>
      <use x="122.363281" xlink:href="#DejaVuSans-70"/>
      <use x="185.839844" xlink:href="#DejaVuSans-65"/>
      <use x="247.363281" xlink:href="#DejaVuSans-72"/>
      <use x="288.476562" xlink:href="#DejaVuSans-69"/>
      <use x="316.259766" xlink:href="#DejaVuSans-6d"/>
      <use x="413.671875" xlink:href="#DejaVuSans-65"/>
      <use x="475.195312" xlink:href="#DejaVuSans-6e"/>
      <use x="538.574219" xlink:href="#DejaVuSans-74"/>
      <use x="577.783203" xlink:href="#DejaVuSans-61"/>
      <use x="639.0625" xlink:href="#DejaVuSans-6c"/>
     </g>
    </g>
   </g>
  </g>
 </g>
 <defs>
  <clipPath id="p7c4079e2af">
   <rect height="166.32" width="223.2" x="36" y="25.92"/>
  </clipPath>
 </defs>
</svg>
