<?xml version="1.0" encoding="utf-8" standalone="no"?>
<!DOCTYPE svg PUBLIC "-//W3C//DTD SVG 1.1//EN"
  "http://www.w3.org/Graphics/SVG/1.1/DTD/svg11.dtd">
<!-- Created with matplotlib (http://matplotlib.org/) -->
<svg height="216pt" version="1.1" viewBox="0 0 288 216" width="288pt" xmlns="http://www.w3.org/2000/svg" xmlns:xlink="http://www.w3.org/1999/xlink">
 <defs>
  <style type="text/css">
*{stroke-linecap:butt;stroke-linejoin:round;}
  </style>
 </defs>
 <g id="figure_1">
  <g id="patch_1">
   <path d="M 0 216 
L 288 216 
L 288 0 
L 0 0 
z
" style="fill:#ffffff;"/>
  </g>
  <g id="axes_1">
   <g id="patch_2">
    <path d="M 36 192.24 
L 259.2 192.24 
L 259.2 25.92 
L 36 25.92 
z
" style="fill:#ffffff;"/>
   </g>
   <g id="PolyCollection_1">
    <path clip-path="url(#pd87b237b44)" d="M 85.898566 192.201013 
L 85.898566 192.24 
L 87.235101 192.24 
L 88.571636 192.24 
L 89.908171 192.24 
L 91.244706 192.24 
L 92.581241 192.24 
L 93.917776 192.24 
L 95.25431 192.24 
L 96.590845 192.24 
L 97.92738 192.24 
L 99.263915 192.24 
L 100.60045 192.24 
L 101.936985 192.24 
L 103.27352 192.24 
L 104.610055 192.24 
L 105.946589 192.24 
L 107.283124 192.24 
L 108.619659 192.24 
L 109.956194 192.24 
L 111.292729 192.24 
L 112.629264 192.24 
L 113.965799 192.24 
L 115.302334 192.24 
L 116.638868 192.24 
L 117.975403 192.24 
L 119.311938 192.24 
L 120.648473 192.24 
L 121.985008 192.24 
L 123.321543 192.24 
L 124.658078 192.24 
L 125.994613 192.24 
L 127.331147 192.24 
L 128.667682 192.24 
L 130.004217 192.24 
L 131.340752 192.24 
L 132.677287 192.24 
L 134.013822 192.24 
L 135.350357 192.24 
L 136.686891 192.24 
L 138.023426 192.24 
L 139.359961 192.24 
L 140.696496 192.24 
L 142.033031 192.24 
L 143.369566 192.24 
L 144.706101 192.24 
L 146.042636 192.24 
L 147.37917 192.24 
L 148.715705 192.24 
L 150.05224 192.24 
L 151.388775 192.24 
L 152.72531 192.24 
L 154.061845 192.24 
L 155.39838 192.24 
L 156.734915 192.24 
L 158.071449 192.24 
L 159.407984 192.24 
L 160.744519 192.24 
L 162.081054 192.24 
L 163.417589 192.24 
L 164.754124 192.24 
L 166.090659 192.24 
L 167.427194 192.24 
L 168.763728 192.24 
L 170.100263 192.24 
L 171.436798 192.24 
L 172.773333 192.24 
L 174.109868 192.24 
L 175.446403 192.24 
L 176.782938 192.24 
L 178.119473 192.24 
L 179.456007 192.24 
L 180.792542 192.24 
L 182.129077 192.24 
L 183.465612 192.24 
L 184.802147 192.24 
L 186.138682 192.24 
L 187.475217 192.24 
L 188.811751 192.24 
L 190.148286 192.24 
L 191.484821 192.24 
L 192.821356 192.24 
L 194.157891 192.24 
L 195.494426 192.24 
L 196.830961 192.24 
L 198.167496 192.24 
L 199.50403 192.24 
L 200.840565 192.24 
L 202.1771 192.24 
L 203.513635 192.24 
L 204.85017 192.24 
L 206.186705 192.24 
L 207.52324 192.24 
L 208.859775 192.24 
L 210.196309 192.24 
L 211.532844 192.24 
L 212.869379 192.24 
L 214.205914 192.24 
L 215.542449 192.24 
L 216.878984 192.24 
L 218.215519 192.24 
L 219.552054 192.24 
L 220.888588 192.24 
L 222.225123 192.24 
L 223.561658 192.24 
L 224.898193 192.24 
L 226.234728 192.24 
L 227.571263 192.24 
L 228.907798 192.24 
L 230.244333 192.24 
L 231.580867 192.24 
L 232.917402 192.24 
L 234.253937 192.24 
L 235.590472 192.24 
L 236.927007 192.24 
L 238.263542 192.24 
L 239.600077 192.24 
L 240.936611 192.24 
L 242.273146 192.24 
L 243.609681 192.24 
L 244.946216 192.24 
L 246.282751 192.24 
L 247.619286 192.24 
L 248.955821 192.24 
L 250.292356 192.24 
L 251.62889 192.24 
L 252.965425 192.24 
L 254.30196 192.24 
L 255.638495 192.24 
L 255.638495 192.201014 
L 255.638495 192.201014 
L 254.30196 192.170499 
L 252.965425 192.098353 
L 251.62889 191.964828 
L 250.292356 191.747861 
L 248.955821 191.434154 
L 247.619286 191.032961 
L 246.282751 190.586388 
L 244.946216 190.168056 
L 243.609681 189.865607 
L 242.273146 189.751369 
L 240.936611 189.854346 
L 239.600077 190.148284 
L 238.263542 190.562516 
L 236.927007 191.009477 
L 235.590472 191.414314 
L 234.253937 191.733178 
L 232.917402 191.9554 
L 231.580867 192.093788 
L 230.244333 192.171272 
L 228.907798 192.210433 
L 227.571263 192.22833 
L 226.234728 192.235664 
L 224.898193 192.238078 
L 223.561658 192.23775 
L 222.225123 192.23419 
L 220.888588 192.223771 
L 219.552054 192.197779 
L 218.215519 192.13924 
L 216.878984 192.0197 
L 215.542449 191.798738 
L 214.205914 191.430179 
L 212.869379 190.877947 
L 211.532844 190.139653 
L 210.196309 189.26836 
L 208.859775 188.377424 
L 207.52324 187.616715 
L 206.186705 187.12287 
L 204.85017 186.96456 
L 203.513635 187.112125 
L 202.1771 187.449775 
L 200.840565 187.822578 
L 199.50403 188.08768 
L 198.167496 188.137191 
L 196.830961 187.881814 
L 195.494426 187.214184 
L 194.157891 185.986849 
L 192.821356 184.028898 
L 191.484821 181.193921 
L 190.148286 177.402952 
L 188.811751 172.643511 
L 187.475217 166.917723 
L 186.138682 160.179572 
L 184.802147 152.326148 
L 183.465612 143.280828 
L 182.129077 133.135828 
L 180.792542 122.257654 
L 179.456007 111.259737 
L 178.119473 100.826899 
L 176.782938 91.484534 
L 175.446403 83.457577 
L 174.109868 76.712995 
L 172.773333 71.157503 
L 171.436798 66.858559 
L 170.100263 64.1454 
L 168.763728 63.530466 
L 167.427194 65.504492 
L 166.090659 70.322988 
L 164.754124 77.884612 
L 163.417589 87.731408 
L 162.081054 99.135487 
L 160.744519 111.217144 
L 159.407984 123.061917 
L 158.071449 133.833446 
L 156.734915 142.884756 
L 155.39838 149.852519 
L 154.061845 154.702329 
L 152.72531 157.701338 
L 151.388775 159.325848 
L 150.05224 160.140928 
L 148.715705 160.693184 
L 147.37917 161.436244 
L 146.042636 162.683715 
L 144.706101 164.577997 
L 143.369566 167.076341 
L 142.033031 169.969015 
L 140.696496 172.940923 
L 139.359961 175.667093 
L 138.023426 177.910361 
L 136.686891 179.583504 
L 135.350357 180.753265 
L 134.013822 181.590583 
L 132.677287 182.293764 
L 131.340752 183.018004 
L 130.004217 183.835795 
L 128.667682 184.736424 
L 127.331147 185.657147 
L 125.994613 186.527827 
L 124.658078 187.307023 
L 123.321543 187.992951 
L 121.985008 188.606968 
L 120.648473 189.163326 
L 119.311938 189.646699 
L 117.975403 190.012971 
L 116.638868 190.213276 
L 115.302334 190.226893 
L 113.965799 190.083469 
L 112.629264 189.860824 
L 111.292729 189.657263 
L 109.956194 189.5508 
L 108.619659 189.565689 
L 107.283124 189.664421 
L 105.946589 189.770891 
L 104.610055 189.813554 
L 103.27352 189.765936 
L 101.936985 189.662796 
L 100.60045 189.583647 
L 99.263915 189.61329 
L 97.92738 189.801175 
L 96.590845 190.140552 
L 95.25431 190.575646 
L 93.917776 191.029124 
L 92.581241 191.4329 
L 91.244706 191.747486 
L 89.908171 191.964725 
L 88.571636 192.098327 
L 87.235101 192.170493 
L 85.898566 192.201013 
z
" style="fill:#808080;fill-opacity:0.25;"/>
   </g>
   <g id="PolyCollection_2">
    <path clip-path="url(#pd87b237b44)" d="M 123.169229 192.185989 
L 123.169229 192.24 
L 123.888074 192.24 
L 124.60692 192.24 
L 125.325766 192.24 
L 126.044612 192.24 
L 126.763458 192.24 
L 127.482304 192.24 
L 128.20115 192.24 
L 128.919996 192.24 
L 129.638842 192.24 
L 130.357688 192.24 
L 131.076534 192.24 
L 131.79538 192.24 
L 132.514226 192.24 
L 133.233072 192.24 
L 133.951918 192.24 
L 134.670764 192.24 
L 135.38961 192.24 
L 136.108456 192.24 
L 136.827302 192.24 
L 137.546147 192.24 
L 138.264993 192.24 
L 138.983839 192.24 
L 139.702685 192.24 
L 140.421531 192.24 
L 141.140377 192.24 
L 141.859223 192.24 
L 142.578069 192.24 
L 143.296915 192.24 
L 144.015761 192.24 
L 144.734607 192.24 
L 145.453453 192.24 
L 146.172299 192.24 
L 146.891145 192.24 
L 147.609991 192.24 
L 148.328837 192.24 
L 149.047683 192.24 
L 149.766529 192.24 
L 150.485374 192.24 
L 151.20422 192.24 
L 151.923066 192.24 
L 152.641912 192.24 
L 153.360758 192.24 
L 154.079604 192.24 
L 154.79845 192.24 
L 155.517296 192.24 
L 156.236142 192.24 
L 156.954988 192.24 
L 157.673834 192.24 
L 158.39268 192.24 
L 159.111526 192.24 
L 159.830372 192.24 
L 160.549218 192.24 
L 161.268064 192.24 
L 161.98691 192.24 
L 162.705756 192.24 
L 163.424601 192.24 
L 164.143447 192.24 
L 164.862293 192.24 
L 165.581139 192.24 
L 166.299985 192.24 
L 167.018831 192.24 
L 167.737677 192.24 
L 168.456523 192.24 
L 169.175369 192.24 
L 169.894215 192.24 
L 170.613061 192.24 
L 171.331907 192.24 
L 172.050753 192.24 
L 172.769599 192.24 
L 173.488445 192.24 
L 174.207291 192.24 
L 174.926137 192.24 
L 175.644983 192.24 
L 176.363829 192.24 
L 177.082674 192.24 
L 177.80152 192.24 
L 178.520366 192.24 
L 179.239212 192.24 
L 179.958058 192.24 
L 180.676904 192.24 
L 181.39575 192.24 
L 182.114596 192.24 
L 182.833442 192.24 
L 183.552288 192.24 
L 184.271134 192.24 
L 184.98998 192.24 
L 185.708826 192.24 
L 186.427672 192.24 
L 187.146518 192.24 
L 187.865364 192.24 
L 188.58421 192.24 
L 189.303056 192.24 
L 190.021901 192.24 
L 190.740747 192.24 
L 191.459593 192.24 
L 192.178439 192.24 
L 192.897285 192.24 
L 193.616131 192.24 
L 194.334977 192.24 
L 195.053823 192.24 
L 195.772669 192.24 
L 196.491515 192.24 
L 197.210361 192.24 
L 197.929207 192.24 
L 198.648053 192.24 
L 199.366899 192.24 
L 200.085745 192.24 
L 200.804591 192.24 
L 201.523437 192.24 
L 202.242283 192.24 
L 202.961128 192.24 
L 203.679974 192.24 
L 204.39882 192.24 
L 205.117666 192.24 
L 205.836512 192.24 
L 206.555358 192.24 
L 207.274204 192.24 
L 207.99305 192.24 
L 208.711896 192.24 
L 209.430742 192.24 
L 210.149588 192.24 
L 210.868434 192.24 
L 211.58728 192.24 
L 212.306126 192.24 
L 213.024972 192.24 
L 213.743818 192.24 
L 214.462664 192.24 
L 214.462664 192.18753 
L 214.462664 192.18753 
L 213.743818 192.174722 
L 213.024972 192.145772 
L 212.306126 192.096765 
L 211.58728 192.021763 
L 210.868434 191.913014 
L 210.149588 191.761332 
L 209.430742 191.556708 
L 208.711896 191.289179 
L 207.99305 190.949938 
L 207.274204 190.532564 
L 206.555358 190.034249 
L 205.836512 189.456798 
L 205.117666 188.80722 
L 204.39882 188.097721 
L 203.679974 187.345048 
L 202.961128 186.56918 
L 202.242283 185.791518 
L 201.523437 185.032793 
L 200.804591 184.310975 
L 200.085745 183.63943 
L 199.366899 183.025541 
L 198.648053 182.469912 
L 197.929207 181.966158 
L 197.210361 181.501237 
L 196.491515 181.056191 
L 195.772669 180.607185 
L 195.053823 180.126732 
L 194.334977 179.585036 
L 193.616131 178.951414 
L 192.897285 178.195776 
L 192.178439 177.290126 
L 191.459593 176.209986 
L 190.740747 174.935612 
L 190.021901 173.452758 
L 189.303056 171.752774 
L 188.58421 169.831836 
L 187.865364 167.68924 
L 187.146518 165.324919 
L 186.427672 162.736577 
L 185.708826 159.917048 
L 184.98998 156.852587 
L 184.271134 153.522706 
L 183.552288 149.901875 
L 182.833442 145.962998 
L 182.114596 141.682147 
L 181.39575 137.043721 
L 180.676904 132.04517 
L 179.958058 126.700586 
L 179.239212 121.042917 
L 178.520366 115.124898 
L 177.80152 109.019102 
L 177.082674 102.817487 
L 176.363829 96.630504 
L 175.644983 90.585465 
L 174.926137 84.82349 
L 174.207291 79.494298 
L 173.488445 74.748397 
L 172.769599 70.726848 
L 172.050753 67.549552 
L 171.331907 65.303682 
L 170.613061 64.034191 
L 169.894215 63.738215 
L 169.175369 64.364588 
L 168.456523 65.818818 
L 167.737677 67.972848 
L 167.018831 70.678159 
L 166.299985 73.78021 
L 165.581139 77.132134 
L 164.862293 80.605895 
L 164.143447 84.099666 
L 163.424601 87.540941 
L 162.705756 90.885632 
L 161.98691 94.11401 
L 161.268064 97.224757 
L 160.549218 100.228516 
L 159.830372 103.142183 
L 159.111526 105.98483 
L 158.39268 108.775628 
L 157.673834 111.533648 
L 156.954988 114.278955 
L 156.236142 117.034154 
L 155.517296 119.825512 
L 154.79845 122.682915 
L 154.079604 125.638263 
L 153.360758 128.72229 
L 152.641912 131.960183 
L 151.923066 135.366712 
L 151.20422 138.941698 
L 150.485374 142.666725 
L 149.766529 146.503791 
L 149.047683 150.396378 
L 148.328837 154.273028 
L 147.609991 158.05314 
L 146.891145 161.654327 
L 146.172299 165.00041 
L 145.453453 168.028957 
L 144.734607 170.697356 
L 144.015761 172.986566 
L 143.296915 174.902101 
L 142.578069 176.472193 
L 141.859223 177.74354 
L 141.140377 178.775361 
L 140.421531 179.632642 
L 139.702685 180.379508 
L 138.983839 181.073473 
L 138.264993 181.761095 
L 137.546147 182.47533 
L 136.827302 183.234587 
L 136.108456 184.043357 
L 135.38961 184.894113 
L 134.670764 185.770139 
L 133.951918 186.648891 
L 133.233072 187.505481 
L 132.514226 188.315907 
L 131.79538 189.059699 
L 131.076534 189.721751 
L 130.357688 190.293238 
L 129.638842 190.771637 
L 128.919996 191.160002 
L 128.20115 191.465729 
L 127.482304 191.69907 
L 126.763458 191.871642 
L 126.044612 191.995121 
L 125.325766 192.080235 
L 124.60692 192.136077 
L 123.888074 192.169708 
L 123.169229 192.185989 
z
" style="fill:#00bfff;fill-opacity:0.25;"/>
   </g>
   <g id="matplotlib.axis_1">
    <g id="xtick_1">
     <g id="line2d_1">
      <defs>
       <path d="M 0 0 
L 0 3.5 
" id="mb3c1f61ef4" style="stroke:#000000;stroke-width:0.8;"/>
      </defs>
      <g>
       <use style="stroke:#000000;stroke-width:0.8;" x="58.32" xlink:href="#mb3c1f61ef4" y="192.24"/>
      </g>
     </g>
     <g id="text_1">
      <!-- −0.02 -->
      <defs>
       <path d="M 10.59375 35.5 
L 73.1875 35.5 
L 73.1875 27.203125 
L 10.59375 27.203125 
z
" id="DejaVuSans-2212"/>
       <path d="M 31.78125 66.40625 
Q 24.171875 66.40625 20.328125 58.90625 
Q 16.5 51.421875 16.5 36.375 
Q 16.5 21.390625 20.328125 13.890625 
Q 24.171875 6.390625 31.78125 6.390625 
Q 39.453125 6.390625 43.28125 13.890625 
Q 47.125 21.390625 47.125 36.375 
Q 47.125 51.421875 43.28125 58.90625 
Q 39.453125 66.40625 31.78125 66.40625 
z
M 31.78125 74.21875 
Q 44.046875 74.21875 50.515625 64.515625 
Q 56.984375 54.828125 56.984375 36.375 
Q 56.984375 17.96875 50.515625 8.265625 
Q 44.046875 -1.421875 31.78125 -1.421875 
Q 19.53125 -1.421875 13.0625 8.265625 
Q 6.59375 17.96875 6.59375 36.375 
Q 6.59375 54.828125 13.0625 64.515625 
Q 19.53125 74.21875 31.78125 74.21875 
z
" id="DejaVuSans-30"/>
       <path d="M 10.6875 12.40625 
L 21 12.40625 
L 21 0 
L 10.6875 0 
z
" id="DejaVuSans-2e"/>
       <path d="M 19.1875 8.296875 
L 53.609375 8.296875 
L 53.609375 0 
L 7.328125 0 
L 7.328125 8.296875 
Q 12.9375 14.109375 22.625 23.890625 
Q 32.328125 33.6875 34.8125 36.53125 
Q 39.546875 41.84375 41.421875 45.53125 
Q 43.3125 49.21875 43.3125 52.78125 
Q 43.3125 58.59375 39.234375 62.25 
Q 35.15625 65.921875 28.609375 65.921875 
Q 23.96875 65.921875 18.8125 64.3125 
Q 13.671875 62.703125 7.8125 59.421875 
L 7.8125 69.390625 
Q 13.765625 71.78125 18.9375 73 
Q 24.125 74.21875 28.421875 74.21875 
Q 39.75 74.21875 46.484375 68.546875 
Q 53.21875 62.890625 53.21875 53.421875 
Q 53.21875 48.921875 51.53125 44.890625 
Q 49.859375 40.875 45.40625 35.40625 
Q 44.1875 33.984375 37.640625 27.21875 
Q 31.109375 20.453125 19.1875 8.296875 
z
" id="DejaVuSans-32"/>
      </defs>
      <g transform="translate(42.997344 206.838437)scale(0.1 -0.1)">
       <use xlink:href="#DejaVuSans-2212"/>
       <use x="83.789062" xlink:href="#DejaVuSans-30"/>
       <use x="147.412109" xlink:href="#DejaVuSans-2e"/>
       <use x="179.199219" xlink:href="#DejaVuSans-30"/>
       <use x="242.822266" xlink:href="#DejaVuSans-32"/>
      </g>
     </g>
    </g>
    <g id="xtick_2">
     <g id="line2d_2">
      <g>
       <use style="stroke:#000000;stroke-width:0.8;" x="102.96" xlink:href="#mb3c1f61ef4" y="192.24"/>
      </g>
     </g>
     <g id="text_2">
      <!-- −0.01 -->
      <defs>
       <path d="M 12.40625 8.296875 
L 28.515625 8.296875 
L 28.515625 63.921875 
L 10.984375 60.40625 
L 10.984375 69.390625 
L 28.421875 72.90625 
L 38.28125 72.90625 
L 38.28125 8.296875 
L 54.390625 8.296875 
L 54.390625 0 
L 12.40625 0 
z
" id="DejaVuSans-31"/>
      </defs>
      <g transform="translate(87.637344 206.838437)scale(0.1 -0.1)">
       <use xlink:href="#DejaVuSans-2212"/>
       <use x="83.789062" xlink:href="#DejaVuSans-30"/>
       <use x="147.412109" xlink:href="#DejaVuSans-2e"/>
       <use x="179.199219" xlink:href="#DejaVuSans-30"/>
       <use x="242.822266" xlink:href="#DejaVuSans-31"/>
      </g>
     </g>
    </g>
    <g id="xtick_3">
     <g id="line2d_3">
      <g>
       <use style="stroke:#000000;stroke-width:0.8;" x="147.6" xlink:href="#mb3c1f61ef4" y="192.24"/>
      </g>
     </g>
     <g id="text_3">
      <!-- 0.00 -->
      <g transform="translate(136.467187 206.838437)scale(0.1 -0.1)">
       <use xlink:href="#DejaVuSans-30"/>
       <use x="63.623047" xlink:href="#DejaVuSans-2e"/>
       <use x="95.410156" xlink:href="#DejaVuSans-30"/>
       <use x="159.033203" xlink:href="#DejaVuSans-30"/>
      </g>
     </g>
    </g>
    <g id="xtick_4">
     <g id="line2d_4">
      <g>
       <use style="stroke:#000000;stroke-width:0.8;" x="192.24" xlink:href="#mb3c1f61ef4" y="192.24"/>
      </g>
     </g>
     <g id="text_4">
      <!-- 0.01 -->
      <g transform="translate(181.107188 206.838437)scale(0.1 -0.1)">
       <use xlink:href="#DejaVuSans-30"/>
       <use x="63.623047" xlink:href="#DejaVuSans-2e"/>
       <use x="95.410156" xlink:href="#DejaVuSans-30"/>
       <use x="159.033203" xlink:href="#DejaVuSans-31"/>
      </g>
     </g>
    </g>
    <g id="xtick_5">
     <g id="line2d_5">
      <g>
       <use style="stroke:#000000;stroke-width:0.8;" x="236.88" xlink:href="#mb3c1f61ef4" y="192.24"/>
      </g>
     </g>
     <g id="text_5">
      <!-- 0.02 -->
      <g transform="translate(225.747187 206.838437)scale(0.1 -0.1)">
       <use xlink:href="#DejaVuSans-30"/>
       <use x="63.623047" xlink:href="#DejaVuSans-2e"/>
       <use x="95.410156" xlink:href="#DejaVuSans-30"/>
       <use x="159.033203" xlink:href="#DejaVuSans-32"/>
      </g>
     </g>
    </g>
    <g id="text_6">
     <!-- DIP Rate -->
     <defs>
      <path d="M 19.671875 64.796875 
L 19.671875 8.109375 
L 31.59375 8.109375 
Q 46.6875 8.109375 53.6875 14.9375 
Q 60.6875 21.78125 60.6875 36.53125 
Q 60.6875 51.171875 53.6875 57.984375 
Q 46.6875 64.796875 31.59375 64.796875 
z
M 9.8125 72.90625 
L 30.078125 72.90625 
Q 51.265625 72.90625 61.171875 64.09375 
Q 71.09375 55.28125 71.09375 36.53125 
Q 71.09375 17.671875 61.125 8.828125 
Q 51.171875 0 30.078125 0 
L 9.8125 0 
z
" id="DejaVuSans-44"/>
      <path d="M 9.8125 72.90625 
L 19.671875 72.90625 
L 19.671875 0 
L 9.8125 0 
z
" id="DejaVuSans-49"/>
      <path d="M 19.671875 64.796875 
L 19.671875 37.40625 
L 32.078125 37.40625 
Q 38.96875 37.40625 42.71875 40.96875 
Q 46.484375 44.53125 46.484375 51.125 
Q 46.484375 57.671875 42.71875 61.234375 
Q 38.96875 64.796875 32.078125 64.796875 
z
M 9.8125 72.90625 
L 32.078125 72.90625 
Q 44.34375 72.90625 50.609375 67.359375 
Q 56.890625 61.8125 56.890625 51.125 
Q 56.890625 40.328125 50.609375 34.8125 
Q 44.34375 29.296875 32.078125 29.296875 
L 19.671875 29.296875 
L 19.671875 0 
L 9.8125 0 
z
" id="DejaVuSans-50"/>
      <path id="DejaVuSans-20"/>
      <path d="M 44.390625 34.1875 
Q 47.5625 33.109375 50.5625 29.59375 
Q 53.5625 26.078125 56.59375 19.921875 
L 66.609375 0 
L 56 0 
L 46.6875 18.703125 
Q 43.0625 26.03125 39.671875 28.421875 
Q 36.28125 30.8125 30.421875 30.8125 
L 19.671875 30.8125 
L 19.671875 0 
L 9.8125 0 
L 9.8125 72.90625 
L 32.078125 72.90625 
Q 44.578125 72.90625 50.734375 67.671875 
Q 56.890625 62.453125 56.890625 51.90625 
Q 56.890625 45.015625 53.6875 40.46875 
Q 50.484375 35.9375 44.390625 34.1875 
z
M 19.671875 64.796875 
L 19.671875 38.921875 
L 32.078125 38.921875 
Q 39.203125 38.921875 42.84375 42.21875 
Q 46.484375 45.515625 46.484375 51.90625 
Q 46.484375 58.296875 42.84375 61.546875 
Q 39.203125 64.796875 32.078125 64.796875 
z
" id="DejaVuSans-52"/>
      <path d="M 34.28125 27.484375 
Q 23.390625 27.484375 19.1875 25 
Q 14.984375 22.515625 14.984375 16.5 
Q 14.984375 11.71875 18.140625 8.90625 
Q 21.296875 6.109375 26.703125 6.109375 
Q 34.1875 6.109375 38.703125 11.40625 
Q 43.21875 16.703125 43.21875 25.484375 
L 43.21875 27.484375 
z
M 52.203125 31.203125 
L 52.203125 0 
L 43.21875 0 
L 43.21875 8.296875 
Q 40.140625 3.328125 35.546875 0.953125 
Q 30.953125 -1.421875 24.3125 -1.421875 
Q 15.921875 -1.421875 10.953125 3.296875 
Q 6 8.015625 6 15.921875 
Q 6 25.140625 12.171875 29.828125 
Q 18.359375 34.515625 30.609375 34.515625 
L 43.21875 34.515625 
L 43.21875 35.40625 
Q 43.21875 41.609375 39.140625 45 
Q 35.0625 48.390625 27.6875 48.390625 
Q 23 48.390625 18.546875 47.265625 
Q 14.109375 46.140625 10.015625 43.890625 
L 10.015625 52.203125 
Q 14.9375 54.109375 19.578125 55.046875 
Q 24.21875 56 28.609375 56 
Q 40.484375 56 46.34375 49.84375 
Q 52.203125 43.703125 52.203125 31.203125 
z
" id="DejaVuSans-61"/>
      <path d="M 18.3125 70.21875 
L 18.3125 54.6875 
L 36.8125 54.6875 
L 36.8125 47.703125 
L 18.3125 47.703125 
L 18.3125 18.015625 
Q 18.3125 11.328125 20.140625 9.421875 
Q 21.96875 7.515625 27.59375 7.515625 
L 36.8125 7.515625 
L 36.8125 0 
L 27.59375 0 
Q 17.1875 0 13.234375 3.875 
Q 9.28125 7.765625 9.28125 18.015625 
L 9.28125 47.703125 
L 2.6875 47.703125 
L 2.6875 54.6875 
L 9.28125 54.6875 
L 9.28125 70.21875 
z
" id="DejaVuSans-74"/>
      <path d="M 56.203125 29.59375 
L 56.203125 25.203125 
L 14.890625 25.203125 
Q 15.484375 15.921875 20.484375 11.0625 
Q 25.484375 6.203125 34.421875 6.203125 
Q 39.59375 6.203125 44.453125 7.46875 
Q 49.3125 8.734375 54.109375 11.28125 
L 54.109375 2.78125 
Q 49.265625 0.734375 44.1875 -0.34375 
Q 39.109375 -1.421875 33.890625 -1.421875 
Q 20.796875 -1.421875 13.15625 6.1875 
Q 5.515625 13.8125 5.515625 26.8125 
Q 5.515625 40.234375 12.765625 48.109375 
Q 20.015625 56 32.328125 56 
Q 43.359375 56 49.78125 48.890625 
Q 56.203125 41.796875 56.203125 29.59375 
z
M 47.21875 32.234375 
Q 47.125 39.59375 43.09375 43.984375 
Q 39.0625 48.390625 32.421875 48.390625 
Q 24.90625 48.390625 20.390625 44.140625 
Q 15.875 39.890625 15.1875 32.171875 
z
" id="DejaVuSans-65"/>
     </defs>
     <g transform="translate(126.097656 220.516562)scale(0.1 -0.1)">
      <use xlink:href="#DejaVuSans-44"/>
      <use x="77.001953" xlink:href="#DejaVuSans-49"/>
      <use x="106.494141" xlink:href="#DejaVuSans-50"/>
      <use x="166.796875" xlink:href="#DejaVuSans-20"/>
      <use x="198.583984" xlink:href="#DejaVuSans-52"/>
      <use x="268.035156" xlink:href="#DejaVuSans-61"/>
      <use x="329.314453" xlink:href="#DejaVuSans-74"/>
      <use x="368.523438" xlink:href="#DejaVuSans-65"/>
     </g>
    </g>
   </g>
   <g id="matplotlib.axis_2">
    <g id="ytick_1">
     <g id="line2d_6">
      <defs>
       <path d="M 0 0 
L -3.5 0 
" id="mbe3510d9f0" style="stroke:#000000;stroke-width:0.8;"/>
      </defs>
      <g>
       <use style="stroke:#000000;stroke-width:0.8;" x="36" xlink:href="#mbe3510d9f0" y="192.24"/>
      </g>
     </g>
     <g id="text_7">
      <!-- 0 -->
      <g transform="translate(22.6375 196.039219)scale(0.1 -0.1)">
       <use xlink:href="#DejaVuSans-30"/>
      </g>
     </g>
    </g>
    <g id="ytick_2">
     <g id="line2d_7">
      <g>
       <use style="stroke:#000000;stroke-width:0.8;" x="36" xlink:href="#mbe3510d9f0" y="171.45"/>
      </g>
     </g>
     <g id="text_8">
      <!-- 25 -->
      <defs>
       <path d="M 10.796875 72.90625 
L 49.515625 72.90625 
L 49.515625 64.59375 
L 19.828125 64.59375 
L 19.828125 46.734375 
Q 21.96875 47.46875 24.109375 47.828125 
Q 26.265625 48.1875 28.421875 48.1875 
Q 40.625 48.1875 47.75 41.5 
Q 54.890625 34.8125 54.890625 23.390625 
Q 54.890625 11.625 47.5625 5.09375 
Q 40.234375 -1.421875 26.90625 -1.421875 
Q 22.3125 -1.421875 17.546875 -0.640625 
Q 12.796875 0.140625 7.71875 1.703125 
L 7.71875 11.625 
Q 12.109375 9.234375 16.796875 8.0625 
Q 21.484375 6.890625 26.703125 6.890625 
Q 35.15625 6.890625 40.078125 11.328125 
Q 45.015625 15.765625 45.015625 23.390625 
Q 45.015625 31 40.078125 35.4375 
Q 35.15625 39.890625 26.703125 39.890625 
Q 22.75 39.890625 18.8125 39.015625 
Q 14.890625 38.140625 10.796875 36.28125 
z
" id="DejaVuSans-35"/>
      </defs>
      <g transform="translate(16.275 175.249219)scale(0.1 -0.1)">
       <use xlink:href="#DejaVuSans-32"/>
       <use x="63.623047" xlink:href="#DejaVuSans-35"/>
      </g>
     </g>
    </g>
    <g id="ytick_3">
     <g id="line2d_8">
      <g>
       <use style="stroke:#000000;stroke-width:0.8;" x="36" xlink:href="#mbe3510d9f0" y="150.66"/>
      </g>
     </g>
     <g id="text_9">
      <!-- 50 -->
      <g transform="translate(16.275 154.459219)scale(0.1 -0.1)">
       <use xlink:href="#DejaVuSans-35"/>
       <use x="63.623047" xlink:href="#DejaVuSans-30"/>
      </g>
     </g>
    </g>
    <g id="ytick_4">
     <g id="line2d_9">
      <g>
       <use style="stroke:#000000;stroke-width:0.8;" x="36" xlink:href="#mbe3510d9f0" y="129.87"/>
      </g>
     </g>
     <g id="text_10">
      <!-- 75 -->
      <defs>
       <path d="M 8.203125 72.90625 
L 55.078125 72.90625 
L 55.078125 68.703125 
L 28.609375 0 
L 18.3125 0 
L 43.21875 64.59375 
L 8.203125 64.59375 
z
" id="DejaVuSans-37"/>
      </defs>
      <g transform="translate(16.275 133.669219)scale(0.1 -0.1)">
       <use xlink:href="#DejaVuSans-37"/>
       <use x="63.623047" xlink:href="#DejaVuSans-35"/>
      </g>
     </g>
    </g>
    <g id="ytick_5">
     <g id="line2d_10">
      <g>
       <use style="stroke:#000000;stroke-width:0.8;" x="36" xlink:href="#mbe3510d9f0" y="109.08"/>
      </g>
     </g>
     <g id="text_11">
      <!-- 100 -->
      <g transform="translate(9.9125 112.879219)scale(0.1 -0.1)">
       <use xlink:href="#DejaVuSans-31"/>
       <use x="63.623047" xlink:href="#DejaVuSans-30"/>
       <use x="127.246094" xlink:href="#DejaVuSans-30"/>
      </g>
     </g>
    </g>
    <g id="ytick_6">
     <g id="line2d_11">
      <g>
       <use style="stroke:#000000;stroke-width:0.8;" x="36" xlink:href="#mbe3510d9f0" y="88.29"/>
      </g>
     </g>
     <g id="text_12">
      <!-- 125 -->
      <g transform="translate(9.9125 92.089219)scale(0.1 -0.1)">
       <use xlink:href="#DejaVuSans-31"/>
       <use x="63.623047" xlink:href="#DejaVuSans-32"/>
       <use x="127.246094" xlink:href="#DejaVuSans-35"/>
      </g>
     </g>
    </g>
    <g id="ytick_7">
     <g id="line2d_12">
      <g>
       <use style="stroke:#000000;stroke-width:0.8;" x="36" xlink:href="#mbe3510d9f0" y="67.5"/>
      </g>
     </g>
     <g id="text_13">
      <!-- 150 -->
      <g transform="translate(9.9125 71.299219)scale(0.1 -0.1)">
       <use xlink:href="#DejaVuSans-31"/>
       <use x="63.623047" xlink:href="#DejaVuSans-35"/>
       <use x="127.246094" xlink:href="#DejaVuSans-30"/>
      </g>
     </g>
    </g>
    <g id="ytick_8">
     <g id="line2d_13">
      <g>
       <use style="stroke:#000000;stroke-width:0.8;" x="36" xlink:href="#mbe3510d9f0" y="46.71"/>
      </g>
     </g>
     <g id="text_14">
      <!-- 175 -->
      <g transform="translate(9.9125 50.509219)scale(0.1 -0.1)">
       <use xlink:href="#DejaVuSans-31"/>
       <use x="63.623047" xlink:href="#DejaVuSans-37"/>
       <use x="127.246094" xlink:href="#DejaVuSans-35"/>
      </g>
     </g>
    </g>
    <g id="ytick_9">
     <g id="line2d_14">
      <g>
       <use style="stroke:#000000;stroke-width:0.8;" x="36" xlink:href="#mbe3510d9f0" y="25.92"/>
      </g>
     </g>
     <g id="text_15">
      <!-- 200 -->
      <g transform="translate(9.9125 29.719219)scale(0.1 -0.1)">
       <use xlink:href="#DejaVuSans-32"/>
       <use x="63.623047" xlink:href="#DejaVuSans-30"/>
       <use x="127.246094" xlink:href="#DejaVuSans-30"/>
      </g>
     </g>
    </g>
    <g id="text_16">
     <!-- Density -->
     <defs>
      <path d="M 54.890625 33.015625 
L 54.890625 0 
L 45.90625 0 
L 45.90625 32.71875 
Q 45.90625 40.484375 42.875 44.328125 
Q 39.84375 48.1875 33.796875 48.1875 
Q 26.515625 48.1875 22.3125 43.546875 
Q 18.109375 38.921875 18.109375 30.90625 
L 18.109375 0 
L 9.078125 0 
L 9.078125 54.6875 
L 18.109375 54.6875 
L 18.109375 46.1875 
Q 21.34375 51.125 25.703125 53.5625 
Q 30.078125 56 35.796875 56 
Q 45.21875 56 50.046875 50.171875 
Q 54.890625 44.34375 54.890625 33.015625 
z
" id="DejaVuSans-6e"/>
      <path d="M 44.28125 53.078125 
L 44.28125 44.578125 
Q 40.484375 46.53125 36.375 47.5 
Q 32.28125 48.484375 27.875 48.484375 
Q 21.1875 48.484375 17.84375 46.4375 
Q 14.5 44.390625 14.5 40.28125 
Q 14.5 37.15625 16.890625 35.375 
Q 19.28125 33.59375 26.515625 31.984375 
L 29.59375 31.296875 
Q 39.15625 29.25 43.1875 25.515625 
Q 47.21875 21.78125 47.21875 15.09375 
Q 47.21875 7.46875 41.1875 3.015625 
Q 35.15625 -1.421875 24.609375 -1.421875 
Q 20.21875 -1.421875 15.453125 -0.5625 
Q 10.6875 0.296875 5.421875 2 
L 5.421875 11.28125 
Q 10.40625 8.6875 15.234375 7.390625 
Q 20.0625 6.109375 24.8125 6.109375 
Q 31.15625 6.109375 34.5625 8.28125 
Q 37.984375 10.453125 37.984375 14.40625 
Q 37.984375 18.0625 35.515625 20.015625 
Q 33.0625 21.96875 24.703125 23.78125 
L 21.578125 24.515625 
Q 13.234375 26.265625 9.515625 29.90625 
Q 5.8125 33.546875 5.8125 39.890625 
Q 5.8125 47.609375 11.28125 51.796875 
Q 16.75 56 26.8125 56 
Q 31.78125 56 36.171875 55.265625 
Q 40.578125 54.546875 44.28125 53.078125 
z
" id="DejaVuSans-73"/>
      <path d="M 9.421875 54.6875 
L 18.40625 54.6875 
L 18.40625 0 
L 9.421875 0 
z
M 9.421875 75.984375 
L 18.40625 75.984375 
L 18.40625 64.59375 
L 9.421875 64.59375 
z
" id="DejaVuSans-69"/>
      <path d="M 32.171875 -5.078125 
Q 28.375 -14.84375 24.75 -17.8125 
Q 21.140625 -20.796875 15.09375 -20.796875 
L 7.90625 -20.796875 
L 7.90625 -13.28125 
L 13.1875 -13.28125 
Q 16.890625 -13.28125 18.9375 -11.515625 
Q 21 -9.765625 23.484375 -3.21875 
L 25.09375 0.875 
L 2.984375 54.6875 
L 12.5 54.6875 
L 29.59375 11.921875 
L 46.6875 54.6875 
L 56.203125 54.6875 
z
" id="DejaVuSans-79"/>
     </defs>
     <g transform="translate(3.832812 128.088594)rotate(-90)scale(0.1 -0.1)">
      <use xlink:href="#DejaVuSans-44"/>
      <use x="77.001953" xlink:href="#DejaVuSans-65"/>
      <use x="138.525391" xlink:href="#DejaVuSans-6e"/>
      <use x="201.904297" xlink:href="#DejaVuSans-73"/>
      <use x="254.003906" xlink:href="#DejaVuSans-69"/>
      <use x="281.787109" xlink:href="#DejaVuSans-74"/>
      <use x="320.996094" xlink:href="#DejaVuSans-79"/>
     </g>
    </g>
   </g>
   <g id="line2d_15">
    <path clip-path="url(#pd87b237b44)" d="M 85.898566 192.201013 
L 88.571636 192.098327 
L 91.244706 191.747486 
L 93.917776 191.029124 
L 96.590845 190.140552 
L 97.92738 189.801175 
L 99.263915 189.61329 
L 101.936985 189.662796 
L 104.610055 189.813554 
L 107.283124 189.664421 
L 109.956194 189.5508 
L 112.629264 189.860824 
L 115.302334 190.226893 
L 116.638868 190.213276 
L 117.975403 190.012971 
L 119.311938 189.646699 
L 121.985008 188.606968 
L 124.658078 187.307023 
L 127.331147 185.657147 
L 131.340752 183.018004 
L 135.350357 180.753265 
L 136.686891 179.583504 
L 138.023426 177.910361 
L 139.359961 175.667093 
L 142.033031 169.969015 
L 143.369566 167.076341 
L 144.706101 164.577997 
L 146.042636 162.683715 
L 147.37917 161.436244 
L 148.715705 160.693184 
L 150.05224 160.140928 
L 151.388775 159.325848 
L 152.72531 157.701338 
L 154.061845 154.702329 
L 155.39838 149.852519 
L 156.734915 142.884756 
L 158.071449 133.833446 
L 159.407984 123.061917 
L 163.417589 87.731408 
L 164.754124 77.884612 
L 166.090659 70.322988 
L 167.427194 65.504492 
L 168.763728 63.530466 
L 170.100263 64.1454 
L 171.436798 66.858559 
L 172.773333 71.157503 
L 174.109868 76.712995 
L 175.446403 83.457577 
L 176.782938 91.484534 
L 178.119473 100.826899 
L 180.792542 122.257654 
L 183.465612 143.280828 
L 184.802147 152.326148 
L 186.138682 160.179572 
L 187.475217 166.917723 
L 188.811751 172.643511 
L 190.148286 177.402952 
L 191.484821 181.193921 
L 192.821356 184.028898 
L 194.157891 185.986849 
L 195.494426 187.214184 
L 196.830961 187.881814 
L 198.167496 188.137191 
L 199.50403 188.08768 
L 202.1771 187.449775 
L 203.513635 187.112125 
L 204.85017 186.96456 
L 206.186705 187.12287 
L 207.52324 187.616715 
L 208.859775 188.377424 
L 211.532844 190.139653 
L 212.869379 190.877947 
L 214.205914 191.430179 
L 215.542449 191.798738 
L 218.215519 192.13924 
L 222.225123 192.23419 
L 230.244333 192.171272 
L 232.917402 191.9554 
L 235.590472 191.414314 
L 240.936611 189.854346 
L 242.273146 189.751369 
L 243.609681 189.865607 
L 244.946216 190.168056 
L 250.292356 191.747861 
L 252.965425 192.098353 
L 255.638495 192.201014 
L 255.638495 192.201014 
" style="fill:none;stroke:#808080;stroke-linecap:square;stroke-width:1.5;"/>
   </g>
   <g id="line2d_16">
    <path clip-path="url(#pd87b237b44)" d="M 123.169229 192.185989 
L 125.325766 192.080235 
L 126.763458 191.871642 
L 128.20115 191.465729 
L 129.638842 190.771637 
L 131.076534 189.721751 
L 132.514226 188.315907 
L 134.670764 185.770139 
L 136.827302 183.234587 
L 138.983839 181.073473 
L 140.421531 179.632642 
L 141.140377 178.775361 
L 141.859223 177.74354 
L 142.578069 176.472193 
L 143.296915 174.902101 
L 144.015761 172.986566 
L 144.734607 170.697356 
L 146.172299 165.00041 
L 147.609991 158.05314 
L 152.641912 131.960183 
L 154.79845 122.682915 
L 159.111526 105.98483 
L 161.268064 97.224757 
L 163.424601 87.540941 
L 167.018831 70.678159 
L 167.737677 67.972848 
L 168.456523 65.818818 
L 169.175369 64.364588 
L 169.894215 63.738215 
L 170.613061 64.034191 
L 171.331907 65.303682 
L 172.050753 67.549552 
L 172.769599 70.726848 
L 173.488445 74.748397 
L 174.926137 84.82349 
L 177.082674 102.817487 
L 179.958058 126.700586 
L 181.39575 137.043721 
L 182.833442 145.962998 
L 184.271134 153.522706 
L 185.708826 159.917048 
L 187.146518 165.324919 
L 188.58421 169.831836 
L 190.021901 173.452758 
L 191.459593 176.209986 
L 192.897285 178.195776 
L 194.334977 179.585036 
L 195.772669 180.607185 
L 198.648053 182.469912 
L 200.085745 183.63943 
L 202.242283 185.791518 
L 205.117666 188.80722 
L 206.555358 190.034249 
L 207.99305 190.949938 
L 209.430742 191.556708 
L 210.868434 191.913014 
L 213.024972 192.145772 
L 214.462664 192.18753 
L 214.462664 192.18753 
" style="fill:none;stroke:#00bfff;stroke-linecap:square;stroke-width:1.5;"/>
   </g>
   <g id="patch_3">
    <path d="M 36 192.24 
L 36 25.92 
" style="fill:none;stroke:#000000;stroke-linecap:square;stroke-linejoin:miter;stroke-width:0.8;"/>
   </g>
   <g id="patch_4">
    <path d="M 259.2 192.24 
L 259.2 25.92 
" style="fill:none;stroke:#000000;stroke-linecap:square;stroke-linejoin:miter;stroke-width:0.8;"/>
   </g>
   <g id="patch_5">
    <path d="M 36 192.24 
L 259.2 192.24 
" style="fill:none;stroke:#000000;stroke-linecap:square;stroke-linejoin:miter;stroke-width:0.8;"/>
   </g>
   <g id="patch_6">
    <path d="M 36 25.92 
L 259.2 25.92 
" style="fill:none;stroke:#000000;stroke-linecap:square;stroke-linejoin:miter;stroke-width:0.8;"/>
   </g>
   <g id="text_17">
    <!-- p=0.683 -->
    <defs>
     <path d="M 18.109375 8.203125 
L 18.109375 -20.796875 
L 9.078125 -20.796875 
L 9.078125 54.6875 
L 18.109375 54.6875 
L 18.109375 46.390625 
Q 20.953125 51.265625 25.265625 53.625 
Q 29.59375 56 35.59375 56 
Q 45.5625 56 51.78125 48.09375 
Q 58.015625 40.1875 58.015625 27.296875 
Q 58.015625 14.40625 51.78125 6.484375 
Q 45.5625 -1.421875 35.59375 -1.421875 
Q 29.59375 -1.421875 25.265625 0.953125 
Q 20.953125 3.328125 18.109375 8.203125 
z
M 48.6875 27.296875 
Q 48.6875 37.203125 44.609375 42.84375 
Q 40.53125 48.484375 33.40625 48.484375 
Q 26.265625 48.484375 22.1875 42.84375 
Q 18.109375 37.203125 18.109375 27.296875 
Q 18.109375 17.390625 22.1875 11.75 
Q 26.265625 6.109375 33.40625 6.109375 
Q 40.53125 6.109375 44.609375 11.75 
Q 48.6875 17.390625 48.6875 27.296875 
z
" id="DejaVuSans-70"/>
     <path d="M 10.59375 45.40625 
L 73.1875 45.40625 
L 73.1875 37.203125 
L 10.59375 37.203125 
z
M 10.59375 25.484375 
L 73.1875 25.484375 
L 73.1875 17.1875 
L 10.59375 17.1875 
z
" id="DejaVuSans-3d"/>
     <path d="M 33.015625 40.375 
Q 26.375 40.375 22.484375 35.828125 
Q 18.609375 31.296875 18.609375 23.390625 
Q 18.609375 15.53125 22.484375 10.953125 
Q 26.375 6.390625 33.015625 6.390625 
Q 39.65625 6.390625 43.53125 10.953125 
Q 47.40625 15.53125 47.40625 23.390625 
Q 47.40625 31.296875 43.53125 35.828125 
Q 39.65625 40.375 33.015625 40.375 
z
M 52.59375 71.296875 
L 52.59375 62.3125 
Q 48.875 64.0625 45.09375 64.984375 
Q 41.3125 65.921875 37.59375 65.921875 
Q 27.828125 65.921875 22.671875 59.328125 
Q 17.53125 52.734375 16.796875 39.40625 
Q 19.671875 43.65625 24.015625 45.921875 
Q 28.375 48.1875 33.59375 48.1875 
Q 44.578125 48.1875 50.953125 41.515625 
Q 57.328125 34.859375 57.328125 23.390625 
Q 57.328125 12.15625 50.6875 5.359375 
Q 44.046875 -1.421875 33.015625 -1.421875 
Q 20.359375 -1.421875 13.671875 8.265625 
Q 6.984375 17.96875 6.984375 36.375 
Q 6.984375 53.65625 15.1875 63.9375 
Q 23.390625 74.21875 37.203125 74.21875 
Q 40.921875 74.21875 44.703125 73.484375 
Q 48.484375 72.75 52.59375 71.296875 
z
" id="DejaVuSans-36"/>
     <path d="M 31.78125 34.625 
Q 24.75 34.625 20.71875 30.859375 
Q 16.703125 27.09375 16.703125 20.515625 
Q 16.703125 13.921875 20.71875 10.15625 
Q 24.75 6.390625 31.78125 6.390625 
Q 38.8125 6.390625 42.859375 10.171875 
Q 46.921875 13.96875 46.921875 20.515625 
Q 46.921875 27.09375 42.890625 30.859375 
Q 38.875 34.625 31.78125 34.625 
z
M 21.921875 38.8125 
Q 15.578125 40.375 12.03125 44.71875 
Q 8.5 49.078125 8.5 55.328125 
Q 8.5 64.0625 14.71875 69.140625 
Q 20.953125 74.21875 31.78125 74.21875 
Q 42.671875 74.21875 48.875 69.140625 
Q 55.078125 64.0625 55.078125 55.328125 
Q 55.078125 49.078125 51.53125 44.71875 
Q 48 40.375 41.703125 38.8125 
Q 48.828125 37.15625 52.796875 32.3125 
Q 56.78125 27.484375 56.78125 20.515625 
Q 56.78125 9.90625 50.3125 4.234375 
Q 43.84375 -1.421875 31.78125 -1.421875 
Q 19.734375 -1.421875 13.25 4.234375 
Q 6.78125 9.90625 6.78125 20.515625 
Q 6.78125 27.484375 10.78125 32.3125 
Q 14.796875 37.15625 21.921875 38.8125 
z
M 18.3125 54.390625 
Q 18.3125 48.734375 21.84375 45.5625 
Q 25.390625 42.390625 31.78125 42.390625 
Q 38.140625 42.390625 41.71875 45.5625 
Q 45.3125 48.734375 45.3125 54.390625 
Q 45.3125 60.0625 41.71875 63.234375 
Q 38.140625 66.40625 31.78125 66.40625 
Q 25.390625 66.40625 21.84375 63.234375 
Q 18.3125 60.0625 18.3125 54.390625 
z
" id="DejaVuSans-38"/>
     <path d="M 40.578125 39.3125 
Q 47.65625 37.796875 51.625 33 
Q 55.609375 28.21875 55.609375 21.1875 
Q 55.609375 10.40625 48.1875 4.484375 
Q 40.765625 -1.421875 27.09375 -1.421875 
Q 22.515625 -1.421875 17.65625 -0.515625 
Q 12.796875 0.390625 7.625 2.203125 
L 7.625 11.71875 
Q 11.71875 9.328125 16.59375 8.109375 
Q 21.484375 6.890625 26.8125 6.890625 
Q 36.078125 6.890625 40.9375 10.546875 
Q 45.796875 14.203125 45.796875 21.1875 
Q 45.796875 27.640625 41.28125 31.265625 
Q 36.765625 34.90625 28.71875 34.90625 
L 20.21875 34.90625 
L 20.21875 43.015625 
L 29.109375 43.015625 
Q 36.375 43.015625 40.234375 45.921875 
Q 44.09375 48.828125 44.09375 54.296875 
Q 44.09375 59.90625 40.109375 62.90625 
Q 36.140625 65.921875 28.71875 65.921875 
Q 24.65625 65.921875 20.015625 65.03125 
Q 15.375 64.15625 9.8125 62.3125 
L 9.8125 71.09375 
Q 15.4375 72.65625 20.34375 73.4375 
Q 25.25 74.21875 29.59375 74.21875 
Q 40.828125 74.21875 47.359375 69.109375 
Q 53.90625 64.015625 53.90625 55.328125 
Q 53.90625 49.265625 50.4375 45.09375 
Q 46.96875 40.921875 40.578125 39.3125 
z
" id="DejaVuSans-33"/>
    </defs>
    <g transform="translate(178.848 67.5)scale(0.12 -0.12)">
     <use xlink:href="#DejaVuSans-70"/>
     <use x="63.476562" xlink:href="#DejaVuSans-3d"/>
     <use x="147.265625" xlink:href="#DejaVuSans-30"/>
     <use x="210.888672" xlink:href="#DejaVuSans-2e"/>
     <use x="242.675781" xlink:href="#DejaVuSans-36"/>
     <use x="306.298828" xlink:href="#DejaVuSans-38"/>
     <use x="369.921875" xlink:href="#DejaVuSans-33"/>
    </g>
   </g>
   <g id="text_18">
    <!-- DIP Rate Distribution -->
    <defs>
     <path d="M 41.109375 46.296875 
Q 39.59375 47.171875 37.8125 47.578125 
Q 36.03125 48 33.890625 48 
Q 26.265625 48 22.1875 43.046875 
Q 18.109375 38.09375 18.109375 28.8125 
L 18.109375 0 
L 9.078125 0 
L 9.078125 54.6875 
L 18.109375 54.6875 
L 18.109375 46.1875 
Q 20.953125 51.171875 25.484375 53.578125 
Q 30.03125 56 36.53125 56 
Q 37.453125 56 38.578125 55.875 
Q 39.703125 55.765625 41.0625 55.515625 
z
" id="DejaVuSans-72"/>
     <path d="M 48.6875 27.296875 
Q 48.6875 37.203125 44.609375 42.84375 
Q 40.53125 48.484375 33.40625 48.484375 
Q 26.265625 48.484375 22.1875 42.84375 
Q 18.109375 37.203125 18.109375 27.296875 
Q 18.109375 17.390625 22.1875 11.75 
Q 26.265625 6.109375 33.40625 6.109375 
Q 40.53125 6.109375 44.609375 11.75 
Q 48.6875 17.390625 48.6875 27.296875 
z
M 18.109375 46.390625 
Q 20.953125 51.265625 25.265625 53.625 
Q 29.59375 56 35.59375 56 
Q 45.5625 56 51.78125 48.09375 
Q 58.015625 40.1875 58.015625 27.296875 
Q 58.015625 14.40625 51.78125 6.484375 
Q 45.5625 -1.421875 35.59375 -1.421875 
Q 29.59375 -1.421875 25.265625 0.953125 
Q 20.953125 3.328125 18.109375 8.203125 
L 18.109375 0 
L 9.078125 0 
L 9.078125 75.984375 
L 18.109375 75.984375 
z
" id="DejaVuSans-62"/>
     <path d="M 8.5 21.578125 
L 8.5 54.6875 
L 17.484375 54.6875 
L 17.484375 21.921875 
Q 17.484375 14.15625 20.5 10.265625 
Q 23.53125 6.390625 29.59375 6.390625 
Q 36.859375 6.390625 41.078125 11.03125 
Q 45.3125 15.671875 45.3125 23.6875 
L 45.3125 54.6875 
L 54.296875 54.6875 
L 54.296875 0 
L 45.3125 0 
L 45.3125 8.40625 
Q 42.046875 3.421875 37.71875 1 
Q 33.40625 -1.421875 27.6875 -1.421875 
Q 18.265625 -1.421875 13.375 4.4375 
Q 8.5 10.296875 8.5 21.578125 
z
M 31.109375 56 
z
" id="DejaVuSans-75"/>
     <path d="M 30.609375 48.390625 
Q 23.390625 48.390625 19.1875 42.75 
Q 14.984375 37.109375 14.984375 27.296875 
Q 14.984375 17.484375 19.15625 11.84375 
Q 23.34375 6.203125 30.609375 6.203125 
Q 37.796875 6.203125 41.984375 11.859375 
Q 46.1875 17.53125 46.1875 27.296875 
Q 46.1875 37.015625 41.984375 42.703125 
Q 37.796875 48.390625 30.609375 48.390625 
z
M 30.609375 56 
Q 42.328125 56 49.015625 48.375 
Q 55.71875 40.765625 55.71875 27.296875 
Q 55.71875 13.875 49.015625 6.21875 
Q 42.328125 -1.421875 30.609375 -1.421875 
Q 18.84375 -1.421875 12.171875 6.21875 
Q 5.515625 13.875 5.515625 27.296875 
Q 5.515625 40.765625 12.171875 48.375 
Q 18.84375 56 30.609375 56 
z
" id="DejaVuSans-6f"/>
    </defs>
    <g transform="translate(84.887812 19.92)scale(0.12 -0.12)">
     <use xlink:href="#DejaVuSans-44"/>
     <use x="77.001953" xlink:href="#DejaVuSans-49"/>
     <use x="106.494141" xlink:href="#DejaVuSans-50"/>
     <use x="166.796875" xlink:href="#DejaVuSans-20"/>
     <use x="198.583984" xlink:href="#DejaVuSans-52"/>
     <use x="268.035156" xlink:href="#DejaVuSans-61"/>
     <use x="329.314453" xlink:href="#DejaVuSans-74"/>
     <use x="368.523438" xlink:href="#DejaVuSans-65"/>
     <use x="430.046875" xlink:href="#DejaVuSans-20"/>
     <use x="461.833984" xlink:href="#DejaVuSans-44"/>
     <use x="538.835938" xlink:href="#DejaVuSans-69"/>
     <use x="566.619141" xlink:href="#DejaVuSans-73"/>
     <use x="618.71875" xlink:href="#DejaVuSans-74"/>
     <use x="657.927734" xlink:href="#DejaVuSans-72"/>
     <use x="699.041016" xlink:href="#DejaVuSans-69"/>
     <use x="726.824219" xlink:href="#DejaVuSans-62"/>
     <use x="790.300781" xlink:href="#DejaVuSans-75"/>
     <use x="853.679688" xlink:href="#DejaVuSans-74"/>
     <use x="892.888672" xlink:href="#DejaVuSans-69"/>
     <use x="920.671875" xlink:href="#DejaVuSans-6f"/>
     <use x="981.853516" xlink:href="#DejaVuSans-6e"/>
    </g>
   </g>
   <g id="legend_1">
    <g id="patch_7">
     <path d="M 43 63.27625 
L 141.685938 63.27625 
Q 143.685938 63.27625 143.685938 61.27625 
L 143.685938 32.92 
Q 143.685938 30.92 141.685938 30.92 
L 43 30.92 
Q 41 30.92 41 32.92 
L 41 61.27625 
Q 41 63.27625 43 63.27625 
z
" style="fill:#ffffff;opacity:0.8;stroke:#cccccc;stroke-linejoin:miter;"/>
    </g>
    <g id="patch_8">
     <path d="M 45 42.518437 
L 65 42.518437 
L 65 35.518437 
L 45 35.518437 
z
" style="fill:#808080;opacity:0.25;"/>
    </g>
    <g id="text_19">
     <!-- Simulated -->
     <defs>
      <path d="M 53.515625 70.515625 
L 53.515625 60.890625 
Q 47.90625 63.578125 42.921875 64.890625 
Q 37.9375 66.21875 33.296875 66.21875 
Q 25.25 66.21875 20.875 63.09375 
Q 16.5 59.96875 16.5 54.203125 
Q 16.5 49.359375 19.40625 46.890625 
Q 22.3125 44.4375 30.421875 42.921875 
L 36.375 41.703125 
Q 47.40625 39.59375 52.65625 34.296875 
Q 57.90625 29 57.90625 20.125 
Q 57.90625 9.515625 50.796875 4.046875 
Q 43.703125 -1.421875 29.984375 -1.421875 
Q 24.8125 -1.421875 18.96875 -0.25 
Q 13.140625 0.921875 6.890625 3.21875 
L 6.890625 13.375 
Q 12.890625 10.015625 18.65625 8.296875 
Q 24.421875 6.59375 29.984375 6.59375 
Q 38.421875 6.59375 43.015625 9.90625 
Q 47.609375 13.234375 47.609375 19.390625 
Q 47.609375 24.75 44.3125 27.78125 
Q 41.015625 30.8125 33.5 32.328125 
L 27.484375 33.5 
Q 16.453125 35.6875 11.515625 40.375 
Q 6.59375 45.0625 6.59375 53.421875 
Q 6.59375 63.09375 13.40625 68.65625 
Q 20.21875 74.21875 32.171875 74.21875 
Q 37.3125 74.21875 42.625 73.28125 
Q 47.953125 72.359375 53.515625 70.515625 
z
" id="DejaVuSans-53"/>
      <path d="M 52 44.1875 
Q 55.375 50.25 60.0625 53.125 
Q 64.75 56 71.09375 56 
Q 79.640625 56 84.28125 50.015625 
Q 88.921875 44.046875 88.921875 33.015625 
L 88.921875 0 
L 79.890625 0 
L 79.890625 32.71875 
Q 79.890625 40.578125 77.09375 44.375 
Q 74.3125 48.1875 68.609375 48.1875 
Q 61.625 48.1875 57.5625 43.546875 
Q 53.515625 38.921875 53.515625 30.90625 
L 53.515625 0 
L 44.484375 0 
L 44.484375 32.71875 
Q 44.484375 40.625 41.703125 44.40625 
Q 38.921875 48.1875 33.109375 48.1875 
Q 26.21875 48.1875 22.15625 43.53125 
Q 18.109375 38.875 18.109375 30.90625 
L 18.109375 0 
L 9.078125 0 
L 9.078125 54.6875 
L 18.109375 54.6875 
L 18.109375 46.1875 
Q 21.1875 51.21875 25.484375 53.609375 
Q 29.78125 56 35.6875 56 
Q 41.65625 56 45.828125 52.96875 
Q 50 49.953125 52 44.1875 
z
" id="DejaVuSans-6d"/>
      <path d="M 9.421875 75.984375 
L 18.40625 75.984375 
L 18.40625 0 
L 9.421875 0 
z
" id="DejaVuSans-6c"/>
      <path d="M 45.40625 46.390625 
L 45.40625 75.984375 
L 54.390625 75.984375 
L 54.390625 0 
L 45.40625 0 
L 45.40625 8.203125 
Q 42.578125 3.328125 38.25 0.953125 
Q 33.9375 -1.421875 27.875 -1.421875 
Q 17.96875 -1.421875 11.734375 6.484375 
Q 5.515625 14.40625 5.515625 27.296875 
Q 5.515625 40.1875 11.734375 48.09375 
Q 17.96875 56 27.875 56 
Q 33.9375 56 38.25 53.625 
Q 42.578125 51.265625 45.40625 46.390625 
z
M 14.796875 27.296875 
Q 14.796875 17.390625 18.875 11.75 
Q 22.953125 6.109375 30.078125 6.109375 
Q 37.203125 6.109375 41.296875 11.75 
Q 45.40625 17.390625 45.40625 27.296875 
Q 45.40625 37.203125 41.296875 42.84375 
Q 37.203125 48.484375 30.078125 48.484375 
Q 22.953125 48.484375 18.875 42.84375 
Q 14.796875 37.203125 14.796875 27.296875 
z
" id="DejaVuSans-64"/>
     </defs>
     <g transform="translate(73 42.518437)scale(0.1 -0.1)">
      <use xlink:href="#DejaVuSans-53"/>
      <use x="63.476562" xlink:href="#DejaVuSans-69"/>
      <use x="91.259766" xlink:href="#DejaVuSans-6d"/>
      <use x="188.671875" xlink:href="#DejaVuSans-75"/>
      <use x="252.050781" xlink:href="#DejaVuSans-6c"/>
      <use x="279.833984" xlink:href="#DejaVuSans-61"/>
      <use x="341.113281" xlink:href="#DejaVuSans-74"/>
      <use x="380.322266" xlink:href="#DejaVuSans-65"/>
      <use x="441.845703" xlink:href="#DejaVuSans-64"/>
     </g>
    </g>
    <g id="patch_9">
     <path d="M 45 57.196562 
L 65 57.196562 
L 65 50.196562 
L 45 50.196562 
z
" style="fill:#00bfff;opacity:0.25;"/>
    </g>
    <g id="text_20">
     <!-- Experimental -->
     <defs>
      <path d="M 9.8125 72.90625 
L 55.90625 72.90625 
L 55.90625 64.59375 
L 19.671875 64.59375 
L 19.671875 43.015625 
L 54.390625 43.015625 
L 54.390625 34.71875 
L 19.671875 34.71875 
L 19.671875 8.296875 
L 56.78125 8.296875 
L 56.78125 0 
L 9.8125 0 
z
" id="DejaVuSans-45"/>
      <path d="M 54.890625 54.6875 
L 35.109375 28.078125 
L 55.90625 0 
L 45.3125 0 
L 29.390625 21.484375 
L 13.484375 0 
L 2.875 0 
L 24.125 28.609375 
L 4.6875 54.6875 
L 15.28125 54.6875 
L 29.78125 35.203125 
L 44.28125 54.6875 
z
" id="DejaVuSans-78"/>
     </defs>
     <g transform="translate(73 57.196562)scale(0.1 -0.1)">
      <use xlink:href="#DejaVuSans-45"/>
      <use x="63.183594" xlink:href="#DejaVuSans-78"/>
      <use x="122.363281" xlink:href="#DejaVuSans-70"/>
      <use x="185.839844" xlink:href="#DejaVuSans-65"/>
      <use x="247.363281" xlink:href="#DejaVuSans-72"/>
      <use x="288.476562" xlink:href="#DejaVuSans-69"/>
      <use x="316.259766" xlink:href="#DejaVuSans-6d"/>
      <use x="413.671875" xlink:href="#DejaVuSans-65"/>
      <use x="475.195312" xlink:href="#DejaVuSans-6e"/>
      <use x="538.574219" xlink:href="#DejaVuSans-74"/>
      <use x="577.783203" xlink:href="#DejaVuSans-61"/>
      <use x="639.0625" xlink:href="#DejaVuSans-6c"/>
     </g>
    </g>
   </g>
  </g>
 </g>
 <defs>
  <clipPath id="pd87b237b44">
   <rect height="166.32" width="223.2" x="36" y="25.92"/>
  </clipPath>
 </defs>
</svg>
