<?xml version="1.0" encoding="utf-8" standalone="no"?>
<!DOCTYPE svg PUBLIC "-//W3C//DTD SVG 1.1//EN"
  "http://www.w3.org/Graphics/SVG/1.1/DTD/svg11.dtd">
<!-- Created with matplotlib (http://matplotlib.org/) -->
<svg height="216pt" version="1.1" viewBox="0 0 288 216" width="288pt" xmlns="http://www.w3.org/2000/svg" xmlns:xlink="http://www.w3.org/1999/xlink">
 <defs>
  <style type="text/css">
*{stroke-linecap:butt;stroke-linejoin:round;}
  </style>
 </defs>
 <g id="figure_1">
  <g id="patch_1">
   <path d="M 0 216 
L 288 216 
L 288 0 
L 0 0 
z
" style="fill:#ffffff;"/>
  </g>
  <g id="axes_1">
   <g id="patch_2">
    <path d="M 36 192.24 
L 259.2 192.24 
L 259.2 25.92 
L 36 25.92 
z
" style="fill:#ffffff;"/>
   </g>
   <g id="PolyCollection_1">
    <path clip-path="url(#p8adac04141)" d="M 127.058051 192.194414 
L 127.058051 192.24 
L 127.636256 192.24 
L 128.214461 192.24 
L 128.792666 192.24 
L 129.370872 192.24 
L 129.949077 192.24 
L 130.527282 192.24 
L 131.105487 192.24 
L 131.683692 192.24 
L 132.261898 192.24 
L 132.840103 192.24 
L 133.418308 192.24 
L 133.996513 192.24 
L 134.574718 192.24 
L 135.152924 192.24 
L 135.731129 192.24 
L 136.309334 192.24 
L 136.887539 192.24 
L 137.465744 192.24 
L 138.043949 192.24 
L 138.622155 192.24 
L 139.20036 192.24 
L 139.778565 192.24 
L 140.35677 192.24 
L 140.934975 192.24 
L 141.513181 192.24 
L 142.091386 192.24 
L 142.669591 192.24 
L 143.247796 192.24 
L 143.826001 192.24 
L 144.404207 192.24 
L 144.982412 192.24 
L 145.560617 192.24 
L 146.138822 192.24 
L 146.717027 192.24 
L 147.295232 192.24 
L 147.873438 192.24 
L 148.451643 192.24 
L 149.029848 192.24 
L 149.608053 192.24 
L 150.186258 192.24 
L 150.764464 192.24 
L 151.342669 192.24 
L 151.920874 192.24 
L 152.499079 192.24 
L 153.077284 192.24 
L 153.65549 192.24 
L 154.233695 192.24 
L 154.8119 192.24 
L 155.390105 192.24 
L 155.96831 192.24 
L 156.546515 192.24 
L 157.124721 192.24 
L 157.702926 192.24 
L 158.281131 192.24 
L 158.859336 192.24 
L 159.437541 192.24 
L 160.015747 192.24 
L 160.593952 192.24 
L 161.172157 192.24 
L 161.750362 192.24 
L 162.328567 192.24 
L 162.906773 192.24 
L 163.484978 192.24 
L 164.063183 192.24 
L 164.641388 192.24 
L 165.219593 192.24 
L 165.797798 192.24 
L 166.376004 192.24 
L 166.954209 192.24 
L 167.532414 192.24 
L 168.110619 192.24 
L 168.688824 192.24 
L 169.26703 192.24 
L 169.845235 192.24 
L 170.42344 192.24 
L 171.001645 192.24 
L 171.57985 192.24 
L 172.158055 192.24 
L 172.736261 192.24 
L 173.314466 192.24 
L 173.892671 192.24 
L 174.470876 192.24 
L 175.049081 192.24 
L 175.627287 192.24 
L 176.205492 192.24 
L 176.783697 192.24 
L 177.361902 192.24 
L 177.940107 192.24 
L 178.518313 192.24 
L 179.096518 192.24 
L 179.674723 192.24 
L 180.252928 192.24 
L 180.831133 192.24 
L 181.409338 192.24 
L 181.987544 192.24 
L 182.565749 192.24 
L 183.143954 192.24 
L 183.722159 192.24 
L 184.300364 192.24 
L 184.87857 192.24 
L 185.456775 192.24 
L 186.03498 192.24 
L 186.613185 192.24 
L 187.19139 192.24 
L 187.769596 192.24 
L 188.347801 192.24 
L 188.926006 192.24 
L 189.504211 192.24 
L 190.082416 192.24 
L 190.660621 192.24 
L 191.238827 192.24 
L 191.817032 192.24 
L 192.395237 192.24 
L 192.973442 192.24 
L 193.551647 192.24 
L 194.129853 192.24 
L 194.708058 192.24 
L 195.286263 192.24 
L 195.864468 192.24 
L 196.442673 192.24 
L 197.020879 192.24 
L 197.599084 192.24 
L 198.177289 192.24 
L 198.755494 192.24 
L 199.333699 192.24 
L 199.911904 192.24 
L 200.49011 192.24 
L 200.49011 192.191531 
L 200.49011 192.191531 
L 199.911904 192.164425 
L 199.333699 192.105082 
L 198.755494 191.998939 
L 198.177289 191.825479 
L 197.599084 191.560251 
L 197.020879 191.178939 
L 196.442673 190.663647 
L 195.864468 190.010676 
L 195.286263 189.238038 
L 194.708058 188.390158 
L 194.129853 187.537199 
L 193.551647 186.767449 
L 192.973442 186.173227 
L 192.395237 185.833123 
L 191.817032 185.795123 
L 191.238827 186.065568 
L 190.660621 186.607372 
L 190.082416 187.348174 
L 189.504211 188.195872 
L 188.926006 189.056854 
L 188.347801 189.851717 
L 187.769596 190.524667 
L 187.19139 191.045229 
L 186.613185 191.403481 
L 186.03498 191.601749 
L 185.456775 191.646212 
L 184.87857 191.541298 
L 184.300364 191.28837 
L 183.722159 190.888539 
L 183.143954 190.3478 
L 182.565749 189.681551 
L 181.987544 188.915423 
L 181.409338 188.080492 
L 180.831133 187.20348 
L 180.252928 186.295413 
L 179.674723 185.344099 
L 179.096518 184.315204 
L 178.518313 183.163274 
L 177.940107 181.848997 
L 177.361902 180.354928 
L 176.783697 178.691467 
L 176.205492 176.888928 
L 175.627287 174.978494 
L 175.049081 172.970955 
L 174.470876 170.843707 
L 173.892671 168.542228 
L 173.314466 165.994185 
L 172.736261 163.126909 
L 172.158055 159.87663 
L 171.57985 156.182175 
L 171.001645 151.964931 
L 170.42344 147.106057 
L 169.845235 141.436501 
L 169.26703 134.752699 
L 168.688824 126.861763 
L 168.110619 117.648138 
L 167.532414 107.14376 
L 166.954209 95.579652 
L 166.376004 83.400107 
L 165.797798 71.230094 
L 165.219593 59.799236 
L 164.641388 49.837561 
L 164.063183 41.965908 
L 163.484978 36.605369 
L 162.906773 33.925336 
L 162.328567 33.84 
L 161.750362 36.051033 
L 161.172157 40.122782 
L 160.593952 45.568775 
L 160.015747 51.927228 
L 159.437541 58.809089 
L 158.859336 65.913158 
L 158.281131 73.014678 
L 157.702926 79.94189 
L 157.124721 86.556444 
L 156.546515 92.748174 
L 155.96831 98.445747 
L 155.390105 103.635834 
L 154.8119 108.378513 
L 154.233695 112.807124 
L 153.65549 117.106597 
L 153.077284 121.472988 
L 152.499079 126.065269 
L 151.920874 130.964663 
L 151.342669 136.154954 
L 150.764464 141.529818 
L 150.186258 146.923517 
L 149.608053 152.15346 
L 149.029848 157.060271 
L 148.451643 161.533845 
L 147.873438 165.520437 
L 147.295232 169.013161 
L 146.717027 172.033487 
L 146.138822 174.612824 
L 145.560617 176.781059 
L 144.982412 178.564462 
L 144.404207 179.990621 
L 143.826001 181.095368 
L 143.247796 181.926666 
L 142.669591 182.542949 
L 142.091386 183.006634 
L 141.513181 183.3757 
L 140.934975 183.696623 
L 140.35677 184.000712 
L 139.778565 184.304304 
L 139.20036 184.612053 
L 138.622155 184.922137 
L 138.043949 185.232053 
L 137.465744 185.543646 
L 136.887539 185.865983 
L 136.309334 186.214994 
L 135.731129 186.609706 
L 135.152924 187.066111 
L 134.574718 187.590777 
L 133.996513 188.176592 
L 133.418308 188.802334 
L 132.840103 189.436353 
L 132.261898 190.043157 
L 131.683692 190.590713 
L 131.105487 191.056271 
L 130.527282 191.429218 
L 129.949077 191.710718 
L 129.370872 191.910859 
L 128.792666 192.044631 
L 128.214461 192.127972 
L 127.636256 192.174681 
L 127.058051 192.194414 
z
" style="fill:#0000ff;fill-opacity:0.25;"/>
   </g>
   <g id="PolyCollection_2">
    <path clip-path="url(#p8adac04141)" d="M 102.341388 192.219851 
L 102.341388 192.24 
L 103.348392 192.24 
L 104.355397 192.24 
L 105.362402 192.24 
L 106.369407 192.24 
L 107.376411 192.24 
L 108.383416 192.24 
L 109.390421 192.24 
L 110.397426 192.24 
L 111.404431 192.24 
L 112.411435 192.24 
L 113.41844 192.24 
L 114.425445 192.24 
L 115.43245 192.24 
L 116.439454 192.24 
L 117.446459 192.24 
L 118.453464 192.24 
L 119.460469 192.24 
L 120.467474 192.24 
L 121.474478 192.24 
L 122.481483 192.24 
L 123.488488 192.24 
L 124.495493 192.24 
L 125.502497 192.24 
L 126.509502 192.24 
L 127.516507 192.24 
L 128.523512 192.24 
L 129.530517 192.24 
L 130.537521 192.24 
L 131.544526 192.24 
L 132.551531 192.24 
L 133.558536 192.24 
L 134.56554 192.24 
L 135.572545 192.24 
L 136.57955 192.24 
L 137.586555 192.24 
L 138.59356 192.24 
L 139.600564 192.24 
L 140.607569 192.24 
L 141.614574 192.24 
L 142.621579 192.24 
L 143.628583 192.24 
L 144.635588 192.24 
L 145.642593 192.24 
L 146.649598 192.24 
L 147.656603 192.24 
L 148.663607 192.24 
L 149.670612 192.24 
L 150.677617 192.24 
L 151.684622 192.24 
L 152.691626 192.24 
L 153.698631 192.24 
L 154.705636 192.24 
L 155.712641 192.24 
L 156.719646 192.24 
L 157.72665 192.24 
L 158.733655 192.24 
L 159.74066 192.24 
L 160.747665 192.24 
L 161.754669 192.24 
L 162.761674 192.24 
L 163.768679 192.24 
L 164.775684 192.24 
L 165.782689 192.24 
L 166.789693 192.24 
L 167.796698 192.24 
L 168.803703 192.24 
L 169.810708 192.24 
L 170.817712 192.24 
L 171.824717 192.24 
L 172.831722 192.24 
L 173.838727 192.24 
L 174.845732 192.24 
L 175.852736 192.24 
L 176.859741 192.24 
L 177.866746 192.24 
L 178.873751 192.24 
L 179.880755 192.24 
L 180.88776 192.24 
L 181.894765 192.24 
L 182.90177 192.24 
L 183.908775 192.24 
L 184.915779 192.24 
L 185.922784 192.24 
L 186.929789 192.24 
L 187.936794 192.24 
L 188.943798 192.24 
L 189.950803 192.24 
L 190.957808 192.24 
L 191.964813 192.24 
L 192.971818 192.24 
L 193.978822 192.24 
L 194.985827 192.24 
L 195.992832 192.24 
L 196.999837 192.24 
L 198.006841 192.24 
L 199.013846 192.24 
L 200.020851 192.24 
L 201.027856 192.24 
L 202.034861 192.24 
L 203.041865 192.24 
L 204.04887 192.24 
L 205.055875 192.24 
L 206.06288 192.24 
L 207.069884 192.24 
L 208.076889 192.24 
L 209.083894 192.24 
L 210.090899 192.24 
L 211.097904 192.24 
L 212.104908 192.24 
L 213.111913 192.24 
L 214.118918 192.24 
L 215.125923 192.24 
L 216.132927 192.24 
L 217.139932 192.24 
L 218.146937 192.24 
L 219.153942 192.24 
L 220.160947 192.24 
L 221.167951 192.24 
L 222.174956 192.24 
L 223.181961 192.24 
L 224.188966 192.24 
L 225.19597 192.24 
L 226.202975 192.24 
L 227.20998 192.24 
L 228.216985 192.24 
L 229.22399 192.24 
L 230.230994 192.24 
L 230.230994 192.219851 
L 230.230994 192.219851 
L 229.22399 192.21063 
L 228.216985 192.190208 
L 227.20998 192.154911 
L 226.202975 192.100047 
L 225.19597 192.021063 
L 224.188966 191.915189 
L 223.181961 191.783297 
L 222.174956 191.631456 
L 221.167951 191.471471 
L 220.160947 191.319796 
L 219.153942 191.194676 
L 218.146937 191.111985 
L 217.139932 191.080893 
L 216.132927 191.10076 
L 215.125923 191.160416 
L 214.118918 191.240277 
L 213.111913 191.316839 
L 212.104908 191.368347 
L 211.097904 191.380064 
L 210.090899 191.347713 
L 209.083894 191.278135 
L 208.076889 191.186968 
L 207.069884 191.093895 
L 206.06288 191.016739 
L 205.055875 190.966038 
L 204.04887 190.94168 
L 203.041865 190.932532 
L 202.034861 190.91898 
L 201.027856 190.877238 
L 200.020851 190.783669 
L 199.013846 190.61756 
L 198.006841 190.361691 
L 196.999837 190.001314 
L 195.992832 189.523074 
L 194.985827 188.91549 
L 193.978822 188.171631 
L 192.971818 187.293143 
L 191.964813 186.293479 
L 190.957808 185.198038 
L 189.950803 184.040083 
L 188.943798 182.853398 
L 187.936794 181.664545 
L 186.929789 180.488125 
L 185.922784 179.327185 
L 184.915779 178.178388 
L 183.908775 177.039152 
L 182.90177 175.91304 
L 181.894765 174.810831 
L 180.88776 173.747125 
L 179.880755 172.734582 
L 178.873751 171.778484 
L 177.866746 170.873169 
L 176.859741 169.999961 
L 175.852736 169.125088 
L 174.845732 168.196727 
L 173.838727 167.142143 
L 172.831722 165.867696 
L 171.824717 164.264671 
L 170.817712 162.222242 
L 169.810708 159.646058 
L 168.803703 156.478542 
L 167.796698 152.716147 
L 166.789693 148.4195 
L 165.782689 143.714115 
L 164.775684 138.781046 
L 163.768679 133.838269 
L 162.761674 129.114762 
L 161.754669 124.820762 
L 160.747665 121.119333 
L 159.74066 118.105466 
L 158.733655 115.798457 
L 157.72665 114.150627 
L 156.719646 113.071105 
L 155.712641 112.458728 
L 154.705636 112.235059 
L 153.698631 112.368107 
L 152.691626 112.879957 
L 151.684622 113.836121 
L 150.677617 115.319786 
L 149.670612 117.398615 
L 148.663607 120.094139 
L 147.656603 123.36329 
L 146.649598 127.098094 
L 145.642593 131.143935 
L 144.635588 135.330856 
L 143.628583 139.508246 
L 142.621579 143.572503 
L 141.614574 147.480103 
L 140.607569 151.243529 
L 139.600564 154.912792 
L 138.59356 158.548953 
L 137.586555 162.197439 
L 136.57955 165.868048 
L 135.572545 169.526251 
L 134.56554 173.097251 
L 133.558536 176.481063 
L 132.551531 179.574066 
L 131.544526 182.290975 
L 130.537521 184.581256 
L 129.530517 186.435979 
L 128.523512 187.884219 
L 127.516507 188.981375 
L 126.509502 189.793907 
L 125.502497 190.385361 
L 124.495493 190.807261 
L 123.488488 191.09619 
L 122.481483 191.276214 
L 121.474478 191.364382 
L 120.467474 191.376685 
L 119.460469 191.332326 
L 118.453464 191.255114 
L 117.446459 191.171854 
L 116.439454 191.108528 
L 115.43245 191.085699 
L 114.425445 191.114737 
L 113.41844 191.196147 
L 112.411435 191.320532 
L 111.404431 191.471817 
L 110.397426 191.63161 
L 109.390421 191.783361 
L 108.383416 191.915214 
L 107.376411 192.021073 
L 106.369407 192.10005 
L 105.362402 192.154912 
L 104.355397 192.190208 
L 103.348392 192.21063 
L 102.341388 192.219851 
z
" style="fill:#008000;fill-opacity:0.25;"/>
   </g>
   <g id="matplotlib.axis_1">
    <g id="xtick_1">
     <g id="line2d_1">
      <defs>
       <path d="M 0 0 
L 0 3.5 
" id="mf35675b1b2" style="stroke:#000000;stroke-width:0.8;"/>
      </defs>
      <g>
       <use style="stroke:#000000;stroke-width:0.8;" x="58.32" xlink:href="#mf35675b1b2" y="192.24"/>
      </g>
     </g>
     <g id="text_1">
      <!-- −0.02 -->
      <defs>
       <path d="M 10.59375 35.5 
L 73.1875 35.5 
L 73.1875 27.203125 
L 10.59375 27.203125 
z
" id="DejaVuSans-2212"/>
       <path d="M 31.78125 66.40625 
Q 24.171875 66.40625 20.328125 58.90625 
Q 16.5 51.421875 16.5 36.375 
Q 16.5 21.390625 20.328125 13.890625 
Q 24.171875 6.390625 31.78125 6.390625 
Q 39.453125 6.390625 43.28125 13.890625 
Q 47.125 21.390625 47.125 36.375 
Q 47.125 51.421875 43.28125 58.90625 
Q 39.453125 66.40625 31.78125 66.40625 
z
M 31.78125 74.21875 
Q 44.046875 74.21875 50.515625 64.515625 
Q 56.984375 54.828125 56.984375 36.375 
Q 56.984375 17.96875 50.515625 8.265625 
Q 44.046875 -1.421875 31.78125 -1.421875 
Q 19.53125 -1.421875 13.0625 8.265625 
Q 6.59375 17.96875 6.59375 36.375 
Q 6.59375 54.828125 13.0625 64.515625 
Q 19.53125 74.21875 31.78125 74.21875 
z
" id="DejaVuSans-30"/>
       <path d="M 10.6875 12.40625 
L 21 12.40625 
L 21 0 
L 10.6875 0 
z
" id="DejaVuSans-2e"/>
       <path d="M 19.1875 8.296875 
L 53.609375 8.296875 
L 53.609375 0 
L 7.328125 0 
L 7.328125 8.296875 
Q 12.9375 14.109375 22.625 23.890625 
Q 32.328125 33.6875 34.8125 36.53125 
Q 39.546875 41.84375 41.421875 45.53125 
Q 43.3125 49.21875 43.3125 52.78125 
Q 43.3125 58.59375 39.234375 62.25 
Q 35.15625 65.921875 28.609375 65.921875 
Q 23.96875 65.921875 18.8125 64.3125 
Q 13.671875 62.703125 7.8125 59.421875 
L 7.8125 69.390625 
Q 13.765625 71.78125 18.9375 73 
Q 24.125 74.21875 28.421875 74.21875 
Q 39.75 74.21875 46.484375 68.546875 
Q 53.21875 62.890625 53.21875 53.421875 
Q 53.21875 48.921875 51.53125 44.890625 
Q 49.859375 40.875 45.40625 35.40625 
Q 44.1875 33.984375 37.640625 27.21875 
Q 31.109375 20.453125 19.1875 8.296875 
z
" id="DejaVuSans-32"/>
      </defs>
      <g transform="translate(42.997344 206.838437)scale(0.1 -0.1)">
       <use xlink:href="#DejaVuSans-2212"/>
       <use x="83.789062" xlink:href="#DejaVuSans-30"/>
       <use x="147.412109" xlink:href="#DejaVuSans-2e"/>
       <use x="179.199219" xlink:href="#DejaVuSans-30"/>
       <use x="242.822266" xlink:href="#DejaVuSans-32"/>
      </g>
     </g>
    </g>
    <g id="xtick_2">
     <g id="line2d_2">
      <g>
       <use style="stroke:#000000;stroke-width:0.8;" x="102.96" xlink:href="#mf35675b1b2" y="192.24"/>
      </g>
     </g>
     <g id="text_2">
      <!-- −0.01 -->
      <defs>
       <path d="M 12.40625 8.296875 
L 28.515625 8.296875 
L 28.515625 63.921875 
L 10.984375 60.40625 
L 10.984375 69.390625 
L 28.421875 72.90625 
L 38.28125 72.90625 
L 38.28125 8.296875 
L 54.390625 8.296875 
L 54.390625 0 
L 12.40625 0 
z
" id="DejaVuSans-31"/>
      </defs>
      <g transform="translate(87.637344 206.838437)scale(0.1 -0.1)">
       <use xlink:href="#DejaVuSans-2212"/>
       <use x="83.789062" xlink:href="#DejaVuSans-30"/>
       <use x="147.412109" xlink:href="#DejaVuSans-2e"/>
       <use x="179.199219" xlink:href="#DejaVuSans-30"/>
       <use x="242.822266" xlink:href="#DejaVuSans-31"/>
      </g>
     </g>
    </g>
    <g id="xtick_3">
     <g id="line2d_3">
      <g>
       <use style="stroke:#000000;stroke-width:0.8;" x="147.6" xlink:href="#mf35675b1b2" y="192.24"/>
      </g>
     </g>
     <g id="text_3">
      <!-- 0.00 -->
      <g transform="translate(136.467187 206.838437)scale(0.1 -0.1)">
       <use xlink:href="#DejaVuSans-30"/>
       <use x="63.623047" xlink:href="#DejaVuSans-2e"/>
       <use x="95.410156" xlink:href="#DejaVuSans-30"/>
       <use x="159.033203" xlink:href="#DejaVuSans-30"/>
      </g>
     </g>
    </g>
    <g id="xtick_4">
     <g id="line2d_4">
      <g>
       <use style="stroke:#000000;stroke-width:0.8;" x="192.24" xlink:href="#mf35675b1b2" y="192.24"/>
      </g>
     </g>
     <g id="text_4">
      <!-- 0.01 -->
      <g transform="translate(181.107188 206.838437)scale(0.1 -0.1)">
       <use xlink:href="#DejaVuSans-30"/>
       <use x="63.623047" xlink:href="#DejaVuSans-2e"/>
       <use x="95.410156" xlink:href="#DejaVuSans-30"/>
       <use x="159.033203" xlink:href="#DejaVuSans-31"/>
      </g>
     </g>
    </g>
    <g id="xtick_5">
     <g id="line2d_5">
      <g>
       <use style="stroke:#000000;stroke-width:0.8;" x="236.88" xlink:href="#mf35675b1b2" y="192.24"/>
      </g>
     </g>
     <g id="text_5">
      <!-- 0.02 -->
      <g transform="translate(225.747187 206.838437)scale(0.1 -0.1)">
       <use xlink:href="#DejaVuSans-30"/>
       <use x="63.623047" xlink:href="#DejaVuSans-2e"/>
       <use x="95.410156" xlink:href="#DejaVuSans-30"/>
       <use x="159.033203" xlink:href="#DejaVuSans-32"/>
      </g>
     </g>
    </g>
    <g id="text_6">
     <!-- DIP Rate -->
     <defs>
      <path d="M 19.671875 64.796875 
L 19.671875 8.109375 
L 31.59375 8.109375 
Q 46.6875 8.109375 53.6875 14.9375 
Q 60.6875 21.78125 60.6875 36.53125 
Q 60.6875 51.171875 53.6875 57.984375 
Q 46.6875 64.796875 31.59375 64.796875 
z
M 9.8125 72.90625 
L 30.078125 72.90625 
Q 51.265625 72.90625 61.171875 64.09375 
Q 71.09375 55.28125 71.09375 36.53125 
Q 71.09375 17.671875 61.125 8.828125 
Q 51.171875 0 30.078125 0 
L 9.8125 0 
z
" id="DejaVuSans-44"/>
      <path d="M 9.8125 72.90625 
L 19.671875 72.90625 
L 19.671875 0 
L 9.8125 0 
z
" id="DejaVuSans-49"/>
      <path d="M 19.671875 64.796875 
L 19.671875 37.40625 
L 32.078125 37.40625 
Q 38.96875 37.40625 42.71875 40.96875 
Q 46.484375 44.53125 46.484375 51.125 
Q 46.484375 57.671875 42.71875 61.234375 
Q 38.96875 64.796875 32.078125 64.796875 
z
M 9.8125 72.90625 
L 32.078125 72.90625 
Q 44.34375 72.90625 50.609375 67.359375 
Q 56.890625 61.8125 56.890625 51.125 
Q 56.890625 40.328125 50.609375 34.8125 
Q 44.34375 29.296875 32.078125 29.296875 
L 19.671875 29.296875 
L 19.671875 0 
L 9.8125 0 
z
" id="DejaVuSans-50"/>
      <path id="DejaVuSans-20"/>
      <path d="M 44.390625 34.1875 
Q 47.5625 33.109375 50.5625 29.59375 
Q 53.5625 26.078125 56.59375 19.921875 
L 66.609375 0 
L 56 0 
L 46.6875 18.703125 
Q 43.0625 26.03125 39.671875 28.421875 
Q 36.28125 30.8125 30.421875 30.8125 
L 19.671875 30.8125 
L 19.671875 0 
L 9.8125 0 
L 9.8125 72.90625 
L 32.078125 72.90625 
Q 44.578125 72.90625 50.734375 67.671875 
Q 56.890625 62.453125 56.890625 51.90625 
Q 56.890625 45.015625 53.6875 40.46875 
Q 50.484375 35.9375 44.390625 34.1875 
z
M 19.671875 64.796875 
L 19.671875 38.921875 
L 32.078125 38.921875 
Q 39.203125 38.921875 42.84375 42.21875 
Q 46.484375 45.515625 46.484375 51.90625 
Q 46.484375 58.296875 42.84375 61.546875 
Q 39.203125 64.796875 32.078125 64.796875 
z
" id="DejaVuSans-52"/>
      <path d="M 34.28125 27.484375 
Q 23.390625 27.484375 19.1875 25 
Q 14.984375 22.515625 14.984375 16.5 
Q 14.984375 11.71875 18.140625 8.90625 
Q 21.296875 6.109375 26.703125 6.109375 
Q 34.1875 6.109375 38.703125 11.40625 
Q 43.21875 16.703125 43.21875 25.484375 
L 43.21875 27.484375 
z
M 52.203125 31.203125 
L 52.203125 0 
L 43.21875 0 
L 43.21875 8.296875 
Q 40.140625 3.328125 35.546875 0.953125 
Q 30.953125 -1.421875 24.3125 -1.421875 
Q 15.921875 -1.421875 10.953125 3.296875 
Q 6 8.015625 6 15.921875 
Q 6 25.140625 12.171875 29.828125 
Q 18.359375 34.515625 30.609375 34.515625 
L 43.21875 34.515625 
L 43.21875 35.40625 
Q 43.21875 41.609375 39.140625 45 
Q 35.0625 48.390625 27.6875 48.390625 
Q 23 48.390625 18.546875 47.265625 
Q 14.109375 46.140625 10.015625 43.890625 
L 10.015625 52.203125 
Q 14.9375 54.109375 19.578125 55.046875 
Q 24.21875 56 28.609375 56 
Q 40.484375 56 46.34375 49.84375 
Q 52.203125 43.703125 52.203125 31.203125 
z
" id="DejaVuSans-61"/>
      <path d="M 18.3125 70.21875 
L 18.3125 54.6875 
L 36.8125 54.6875 
L 36.8125 47.703125 
L 18.3125 47.703125 
L 18.3125 18.015625 
Q 18.3125 11.328125 20.140625 9.421875 
Q 21.96875 7.515625 27.59375 7.515625 
L 36.8125 7.515625 
L 36.8125 0 
L 27.59375 0 
Q 17.1875 0 13.234375 3.875 
Q 9.28125 7.765625 9.28125 18.015625 
L 9.28125 47.703125 
L 2.6875 47.703125 
L 2.6875 54.6875 
L 9.28125 54.6875 
L 9.28125 70.21875 
z
" id="DejaVuSans-74"/>
      <path d="M 56.203125 29.59375 
L 56.203125 25.203125 
L 14.890625 25.203125 
Q 15.484375 15.921875 20.484375 11.0625 
Q 25.484375 6.203125 34.421875 6.203125 
Q 39.59375 6.203125 44.453125 7.46875 
Q 49.3125 8.734375 54.109375 11.28125 
L 54.109375 2.78125 
Q 49.265625 0.734375 44.1875 -0.34375 
Q 39.109375 -1.421875 33.890625 -1.421875 
Q 20.796875 -1.421875 13.15625 6.1875 
Q 5.515625 13.8125 5.515625 26.8125 
Q 5.515625 40.234375 12.765625 48.109375 
Q 20.015625 56 32.328125 56 
Q 43.359375 56 49.78125 48.890625 
Q 56.203125 41.796875 56.203125 29.59375 
z
M 47.21875 32.234375 
Q 47.125 39.59375 43.09375 43.984375 
Q 39.0625 48.390625 32.421875 48.390625 
Q 24.90625 48.390625 20.390625 44.140625 
Q 15.875 39.890625 15.1875 32.171875 
z
" id="DejaVuSans-65"/>
     </defs>
     <g transform="translate(126.097656 220.516562)scale(0.1 -0.1)">
      <use xlink:href="#DejaVuSans-44"/>
      <use x="77.001953" xlink:href="#DejaVuSans-49"/>
      <use x="106.494141" xlink:href="#DejaVuSans-50"/>
      <use x="166.796875" xlink:href="#DejaVuSans-20"/>
      <use x="198.583984" xlink:href="#DejaVuSans-52"/>
      <use x="268.035156" xlink:href="#DejaVuSans-61"/>
      <use x="329.314453" xlink:href="#DejaVuSans-74"/>
      <use x="368.523438" xlink:href="#DejaVuSans-65"/>
     </g>
    </g>
   </g>
   <g id="matplotlib.axis_2">
    <g id="ytick_1">
     <g id="line2d_6">
      <defs>
       <path d="M 0 0 
L -3.5 0 
" id="mf2e061105b" style="stroke:#000000;stroke-width:0.8;"/>
      </defs>
      <g>
       <use style="stroke:#000000;stroke-width:0.8;" x="36" xlink:href="#mf2e061105b" y="192.24"/>
      </g>
     </g>
     <g id="text_7">
      <!-- 0 -->
      <g transform="translate(22.6375 196.039219)scale(0.1 -0.1)">
       <use xlink:href="#DejaVuSans-30"/>
      </g>
     </g>
    </g>
    <g id="ytick_2">
     <g id="line2d_7">
      <g>
       <use style="stroke:#000000;stroke-width:0.8;" x="36" xlink:href="#mf2e061105b" y="163.298836"/>
      </g>
     </g>
     <g id="text_8">
      <!-- 50 -->
      <defs>
       <path d="M 10.796875 72.90625 
L 49.515625 72.90625 
L 49.515625 64.59375 
L 19.828125 64.59375 
L 19.828125 46.734375 
Q 21.96875 47.46875 24.109375 47.828125 
Q 26.265625 48.1875 28.421875 48.1875 
Q 40.625 48.1875 47.75 41.5 
Q 54.890625 34.8125 54.890625 23.390625 
Q 54.890625 11.625 47.5625 5.09375 
Q 40.234375 -1.421875 26.90625 -1.421875 
Q 22.3125 -1.421875 17.546875 -0.640625 
Q 12.796875 0.140625 7.71875 1.703125 
L 7.71875 11.625 
Q 12.109375 9.234375 16.796875 8.0625 
Q 21.484375 6.890625 26.703125 6.890625 
Q 35.15625 6.890625 40.078125 11.328125 
Q 45.015625 15.765625 45.015625 23.390625 
Q 45.015625 31 40.078125 35.4375 
Q 35.15625 39.890625 26.703125 39.890625 
Q 22.75 39.890625 18.8125 39.015625 
Q 14.890625 38.140625 10.796875 36.28125 
z
" id="DejaVuSans-35"/>
      </defs>
      <g transform="translate(16.275 167.098055)scale(0.1 -0.1)">
       <use xlink:href="#DejaVuSans-35"/>
       <use x="63.623047" xlink:href="#DejaVuSans-30"/>
      </g>
     </g>
    </g>
    <g id="ytick_3">
     <g id="line2d_8">
      <g>
       <use style="stroke:#000000;stroke-width:0.8;" x="36" xlink:href="#mf2e061105b" y="134.357672"/>
      </g>
     </g>
     <g id="text_9">
      <!-- 100 -->
      <g transform="translate(9.9125 138.156891)scale(0.1 -0.1)">
       <use xlink:href="#DejaVuSans-31"/>
       <use x="63.623047" xlink:href="#DejaVuSans-30"/>
       <use x="127.246094" xlink:href="#DejaVuSans-30"/>
      </g>
     </g>
    </g>
    <g id="ytick_4">
     <g id="line2d_9">
      <g>
       <use style="stroke:#000000;stroke-width:0.8;" x="36" xlink:href="#mf2e061105b" y="105.416508"/>
      </g>
     </g>
     <g id="text_10">
      <!-- 150 -->
      <g transform="translate(9.9125 109.215727)scale(0.1 -0.1)">
       <use xlink:href="#DejaVuSans-31"/>
       <use x="63.623047" xlink:href="#DejaVuSans-35"/>
       <use x="127.246094" xlink:href="#DejaVuSans-30"/>
      </g>
     </g>
    </g>
    <g id="ytick_5">
     <g id="line2d_10">
      <g>
       <use style="stroke:#000000;stroke-width:0.8;" x="36" xlink:href="#mf2e061105b" y="76.475345"/>
      </g>
     </g>
     <g id="text_11">
      <!-- 200 -->
      <g transform="translate(9.9125 80.274563)scale(0.1 -0.1)">
       <use xlink:href="#DejaVuSans-32"/>
       <use x="63.623047" xlink:href="#DejaVuSans-30"/>
       <use x="127.246094" xlink:href="#DejaVuSans-30"/>
      </g>
     </g>
    </g>
    <g id="ytick_6">
     <g id="line2d_11">
      <g>
       <use style="stroke:#000000;stroke-width:0.8;" x="36" xlink:href="#mf2e061105b" y="47.534181"/>
      </g>
     </g>
     <g id="text_12">
      <!-- 250 -->
      <g transform="translate(9.9125 51.333399)scale(0.1 -0.1)">
       <use xlink:href="#DejaVuSans-32"/>
       <use x="63.623047" xlink:href="#DejaVuSans-35"/>
       <use x="127.246094" xlink:href="#DejaVuSans-30"/>
      </g>
     </g>
    </g>
    <g id="text_13">
     <!-- Density -->
     <defs>
      <path d="M 54.890625 33.015625 
L 54.890625 0 
L 45.90625 0 
L 45.90625 32.71875 
Q 45.90625 40.484375 42.875 44.328125 
Q 39.84375 48.1875 33.796875 48.1875 
Q 26.515625 48.1875 22.3125 43.546875 
Q 18.109375 38.921875 18.109375 30.90625 
L 18.109375 0 
L 9.078125 0 
L 9.078125 54.6875 
L 18.109375 54.6875 
L 18.109375 46.1875 
Q 21.34375 51.125 25.703125 53.5625 
Q 30.078125 56 35.796875 56 
Q 45.21875 56 50.046875 50.171875 
Q 54.890625 44.34375 54.890625 33.015625 
z
" id="DejaVuSans-6e"/>
      <path d="M 44.28125 53.078125 
L 44.28125 44.578125 
Q 40.484375 46.53125 36.375 47.5 
Q 32.28125 48.484375 27.875 48.484375 
Q 21.1875 48.484375 17.84375 46.4375 
Q 14.5 44.390625 14.5 40.28125 
Q 14.5 37.15625 16.890625 35.375 
Q 19.28125 33.59375 26.515625 31.984375 
L 29.59375 31.296875 
Q 39.15625 29.25 43.1875 25.515625 
Q 47.21875 21.78125 47.21875 15.09375 
Q 47.21875 7.46875 41.1875 3.015625 
Q 35.15625 -1.421875 24.609375 -1.421875 
Q 20.21875 -1.421875 15.453125 -0.5625 
Q 10.6875 0.296875 5.421875 2 
L 5.421875 11.28125 
Q 10.40625 8.6875 15.234375 7.390625 
Q 20.0625 6.109375 24.8125 6.109375 
Q 31.15625 6.109375 34.5625 8.28125 
Q 37.984375 10.453125 37.984375 14.40625 
Q 37.984375 18.0625 35.515625 20.015625 
Q 33.0625 21.96875 24.703125 23.78125 
L 21.578125 24.515625 
Q 13.234375 26.265625 9.515625 29.90625 
Q 5.8125 33.546875 5.8125 39.890625 
Q 5.8125 47.609375 11.28125 51.796875 
Q 16.75 56 26.8125 56 
Q 31.78125 56 36.171875 55.265625 
Q 40.578125 54.546875 44.28125 53.078125 
z
" id="DejaVuSans-73"/>
      <path d="M 9.421875 54.6875 
L 18.40625 54.6875 
L 18.40625 0 
L 9.421875 0 
z
M 9.421875 75.984375 
L 18.40625 75.984375 
L 18.40625 64.59375 
L 9.421875 64.59375 
z
" id="DejaVuSans-69"/>
      <path d="M 32.171875 -5.078125 
Q 28.375 -14.84375 24.75 -17.8125 
Q 21.140625 -20.796875 15.09375 -20.796875 
L 7.90625 -20.796875 
L 7.90625 -13.28125 
L 13.1875 -13.28125 
Q 16.890625 -13.28125 18.9375 -11.515625 
Q 21 -9.765625 23.484375 -3.21875 
L 25.09375 0.875 
L 2.984375 54.6875 
L 12.5 54.6875 
L 29.59375 11.921875 
L 46.6875 54.6875 
L 56.203125 54.6875 
z
" id="DejaVuSans-79"/>
     </defs>
     <g transform="translate(3.832812 128.088594)rotate(-90)scale(0.1 -0.1)">
      <use xlink:href="#DejaVuSans-44"/>
      <use x="77.001953" xlink:href="#DejaVuSans-65"/>
      <use x="138.525391" xlink:href="#DejaVuSans-6e"/>
      <use x="201.904297" xlink:href="#DejaVuSans-73"/>
      <use x="254.003906" xlink:href="#DejaVuSans-69"/>
      <use x="281.787109" xlink:href="#DejaVuSans-74"/>
      <use x="320.996094" xlink:href="#DejaVuSans-79"/>
     </g>
    </g>
   </g>
   <g id="line2d_12">
    <path clip-path="url(#p8adac04141)" d="M 127.058051 192.194414 
L 128.792666 192.044631 
L 129.949077 191.710718 
L 131.105487 191.056271 
L 132.261898 190.043157 
L 135.152924 187.066111 
L 136.309334 186.214994 
L 138.622155 184.922137 
L 142.091386 183.006634 
L 142.669591 182.542949 
L 143.247796 181.926666 
L 143.826001 181.095368 
L 144.404207 179.990621 
L 144.982412 178.564462 
L 145.560617 176.781059 
L 146.717027 172.033487 
L 147.873438 165.520437 
L 149.029848 157.060271 
L 150.764464 141.529818 
L 152.499079 126.065269 
L 155.96831 98.445747 
L 157.124721 86.556444 
L 158.859336 65.913158 
L 160.593952 45.568775 
L 161.172157 40.122782 
L 161.750362 36.051033 
L 162.328567 33.84 
L 162.906773 33.925336 
L 163.484978 36.605369 
L 164.063183 41.965908 
L 164.641388 49.837561 
L 165.797798 71.230094 
L 168.110619 117.648138 
L 169.26703 134.752699 
L 170.42344 147.106057 
L 171.57985 156.182175 
L 172.736261 163.126909 
L 173.892671 168.542228 
L 175.049081 172.970955 
L 176.783697 178.691467 
L 177.940107 181.848997 
L 179.096518 184.315204 
L 180.831133 187.20348 
L 182.565749 189.681551 
L 183.722159 190.888539 
L 184.300364 191.28837 
L 184.87857 191.541298 
L 185.456775 191.646212 
L 186.03498 191.601749 
L 186.613185 191.403481 
L 187.19139 191.045229 
L 187.769596 190.524667 
L 188.926006 189.056854 
L 190.660621 186.607372 
L 191.238827 186.065568 
L 191.817032 185.795123 
L 192.395237 185.833123 
L 192.973442 186.173227 
L 193.551647 186.767449 
L 196.442673 190.663647 
L 197.599084 191.560251 
L 198.755494 191.998939 
L 199.911904 192.164425 
L 200.49011 192.191531 
L 200.49011 192.191531 
" style="fill:none;stroke:#0000ff;stroke-linecap:square;stroke-width:1.5;"/>
   </g>
   <g id="line2d_13">
    <path clip-path="url(#p8adac04141)" d="M 102.341388 192.219851 
L 106.369407 192.10005 
L 109.390421 191.783361 
L 114.425445 191.114737 
L 116.439454 191.108528 
L 121.474478 191.364382 
L 123.488488 191.09619 
L 124.495493 190.807261 
L 125.502497 190.385361 
L 126.509502 189.793907 
L 127.516507 188.981375 
L 128.523512 187.884219 
L 129.530517 186.435979 
L 130.537521 184.581256 
L 131.544526 182.290975 
L 132.551531 179.574066 
L 134.56554 173.097251 
L 139.600564 154.912792 
L 142.621579 143.572503 
L 147.656603 123.36329 
L 148.663607 120.094139 
L 149.670612 117.398615 
L 150.677617 115.319786 
L 151.684622 113.836121 
L 152.691626 112.879957 
L 153.698631 112.368107 
L 154.705636 112.235059 
L 155.712641 112.458728 
L 156.719646 113.071105 
L 157.72665 114.150627 
L 158.733655 115.798457 
L 159.74066 118.105466 
L 160.747665 121.119333 
L 161.754669 124.820762 
L 163.768679 133.838269 
L 166.789693 148.4195 
L 167.796698 152.716147 
L 168.803703 156.478542 
L 169.810708 159.646058 
L 170.817712 162.222242 
L 171.824717 164.264671 
L 172.831722 165.867696 
L 173.838727 167.142143 
L 175.852736 169.125088 
L 179.880755 172.734582 
L 182.90177 175.91304 
L 187.936794 181.664545 
L 191.964813 186.293479 
L 193.978822 188.171631 
L 195.992832 189.523074 
L 198.006841 190.361691 
L 200.020851 190.783669 
L 202.034861 190.91898 
L 207.069884 191.093895 
L 211.097904 191.380064 
L 214.118918 191.240277 
L 217.139932 191.080893 
L 219.153942 191.194676 
L 227.20998 192.154911 
L 230.230994 192.219851 
L 230.230994 192.219851 
" style="fill:none;stroke:#008000;stroke-linecap:square;stroke-width:1.5;"/>
   </g>
   <g id="patch_3">
    <path d="M 36 192.24 
L 36 25.92 
" style="fill:none;stroke:#000000;stroke-linecap:square;stroke-linejoin:miter;stroke-width:0.8;"/>
   </g>
   <g id="patch_4">
    <path d="M 259.2 192.24 
L 259.2 25.92 
" style="fill:none;stroke:#000000;stroke-linecap:square;stroke-linejoin:miter;stroke-width:0.8;"/>
   </g>
   <g id="patch_5">
    <path d="M 36 192.24 
L 259.2 192.24 
" style="fill:none;stroke:#000000;stroke-linecap:square;stroke-linejoin:miter;stroke-width:0.8;"/>
   </g>
   <g id="patch_6">
    <path d="M 36 25.92 
L 259.2 25.92 
" style="fill:none;stroke:#000000;stroke-linecap:square;stroke-linejoin:miter;stroke-width:0.8;"/>
   </g>
   <g id="text_14">
    <!-- Mean (Exp)=0.002 -->
    <defs>
     <path d="M 9.8125 72.90625 
L 24.515625 72.90625 
L 43.109375 23.296875 
L 61.8125 72.90625 
L 76.515625 72.90625 
L 76.515625 0 
L 66.890625 0 
L 66.890625 64.015625 
L 48.09375 14.015625 
L 38.1875 14.015625 
L 19.390625 64.015625 
L 19.390625 0 
L 9.8125 0 
z
" id="DejaVuSans-4d"/>
     <path d="M 31 75.875 
Q 24.46875 64.65625 21.28125 53.65625 
Q 18.109375 42.671875 18.109375 31.390625 
Q 18.109375 20.125 21.3125 9.0625 
Q 24.515625 -2 31 -13.1875 
L 23.1875 -13.1875 
Q 15.875 -1.703125 12.234375 9.375 
Q 8.59375 20.453125 8.59375 31.390625 
Q 8.59375 42.28125 12.203125 53.3125 
Q 15.828125 64.359375 23.1875 75.875 
z
" id="DejaVuSans-28"/>
     <path d="M 9.8125 72.90625 
L 55.90625 72.90625 
L 55.90625 64.59375 
L 19.671875 64.59375 
L 19.671875 43.015625 
L 54.390625 43.015625 
L 54.390625 34.71875 
L 19.671875 34.71875 
L 19.671875 8.296875 
L 56.78125 8.296875 
L 56.78125 0 
L 9.8125 0 
z
" id="DejaVuSans-45"/>
     <path d="M 54.890625 54.6875 
L 35.109375 28.078125 
L 55.90625 0 
L 45.3125 0 
L 29.390625 21.484375 
L 13.484375 0 
L 2.875 0 
L 24.125 28.609375 
L 4.6875 54.6875 
L 15.28125 54.6875 
L 29.78125 35.203125 
L 44.28125 54.6875 
z
" id="DejaVuSans-78"/>
     <path d="M 18.109375 8.203125 
L 18.109375 -20.796875 
L 9.078125 -20.796875 
L 9.078125 54.6875 
L 18.109375 54.6875 
L 18.109375 46.390625 
Q 20.953125 51.265625 25.265625 53.625 
Q 29.59375 56 35.59375 56 
Q 45.5625 56 51.78125 48.09375 
Q 58.015625 40.1875 58.015625 27.296875 
Q 58.015625 14.40625 51.78125 6.484375 
Q 45.5625 -1.421875 35.59375 -1.421875 
Q 29.59375 -1.421875 25.265625 0.953125 
Q 20.953125 3.328125 18.109375 8.203125 
z
M 48.6875 27.296875 
Q 48.6875 37.203125 44.609375 42.84375 
Q 40.53125 48.484375 33.40625 48.484375 
Q 26.265625 48.484375 22.1875 42.84375 
Q 18.109375 37.203125 18.109375 27.296875 
Q 18.109375 17.390625 22.1875 11.75 
Q 26.265625 6.109375 33.40625 6.109375 
Q 40.53125 6.109375 44.609375 11.75 
Q 48.6875 17.390625 48.6875 27.296875 
z
" id="DejaVuSans-70"/>
     <path d="M 8.015625 75.875 
L 15.828125 75.875 
Q 23.140625 64.359375 26.78125 53.3125 
Q 30.421875 42.28125 30.421875 31.390625 
Q 30.421875 20.453125 26.78125 9.375 
Q 23.140625 -1.703125 15.828125 -13.1875 
L 8.015625 -13.1875 
Q 14.5 -2 17.703125 9.0625 
Q 20.90625 20.125 20.90625 31.390625 
Q 20.90625 42.671875 17.703125 53.65625 
Q 14.5 64.65625 8.015625 75.875 
z
" id="DejaVuSans-29"/>
     <path d="M 10.59375 45.40625 
L 73.1875 45.40625 
L 73.1875 37.203125 
L 10.59375 37.203125 
z
M 10.59375 25.484375 
L 73.1875 25.484375 
L 73.1875 17.1875 
L 10.59375 17.1875 
z
" id="DejaVuSans-3d"/>
    </defs>
    <g transform="translate(178.848 76.475345)scale(0.08 -0.08)">
     <use xlink:href="#DejaVuSans-4d"/>
     <use x="86.279297" xlink:href="#DejaVuSans-65"/>
     <use x="147.802734" xlink:href="#DejaVuSans-61"/>
     <use x="209.082031" xlink:href="#DejaVuSans-6e"/>
     <use x="272.460938" xlink:href="#DejaVuSans-20"/>
     <use x="304.248047" xlink:href="#DejaVuSans-28"/>
     <use x="343.261719" xlink:href="#DejaVuSans-45"/>
     <use x="406.445312" xlink:href="#DejaVuSans-78"/>
     <use x="465.625" xlink:href="#DejaVuSans-70"/>
     <use x="529.101562" xlink:href="#DejaVuSans-29"/>
     <use x="568.115234" xlink:href="#DejaVuSans-3d"/>
     <use x="651.904297" xlink:href="#DejaVuSans-30"/>
     <use x="715.527344" xlink:href="#DejaVuSans-2e"/>
     <use x="747.314453" xlink:href="#DejaVuSans-30"/>
     <use x="810.9375" xlink:href="#DejaVuSans-30"/>
     <use x="874.560547" xlink:href="#DejaVuSans-32"/>
    </g>
   </g>
   <g id="text_15">
    <!-- SD (Exp)=0.0032 -->
    <defs>
     <path d="M 53.515625 70.515625 
L 53.515625 60.890625 
Q 47.90625 63.578125 42.921875 64.890625 
Q 37.9375 66.21875 33.296875 66.21875 
Q 25.25 66.21875 20.875 63.09375 
Q 16.5 59.96875 16.5 54.203125 
Q 16.5 49.359375 19.40625 46.890625 
Q 22.3125 44.4375 30.421875 42.921875 
L 36.375 41.703125 
Q 47.40625 39.59375 52.65625 34.296875 
Q 57.90625 29 57.90625 20.125 
Q 57.90625 9.515625 50.796875 4.046875 
Q 43.703125 -1.421875 29.984375 -1.421875 
Q 24.8125 -1.421875 18.96875 -0.25 
Q 13.140625 0.921875 6.890625 3.21875 
L 6.890625 13.375 
Q 12.890625 10.015625 18.65625 8.296875 
Q 24.421875 6.59375 29.984375 6.59375 
Q 38.421875 6.59375 43.015625 9.90625 
Q 47.609375 13.234375 47.609375 19.390625 
Q 47.609375 24.75 44.3125 27.78125 
Q 41.015625 30.8125 33.5 32.328125 
L 27.484375 33.5 
Q 16.453125 35.6875 11.515625 40.375 
Q 6.59375 45.0625 6.59375 53.421875 
Q 6.59375 63.09375 13.40625 68.65625 
Q 20.21875 74.21875 32.171875 74.21875 
Q 37.3125 74.21875 42.625 73.28125 
Q 47.953125 72.359375 53.515625 70.515625 
z
" id="DejaVuSans-53"/>
     <path d="M 40.578125 39.3125 
Q 47.65625 37.796875 51.625 33 
Q 55.609375 28.21875 55.609375 21.1875 
Q 55.609375 10.40625 48.1875 4.484375 
Q 40.765625 -1.421875 27.09375 -1.421875 
Q 22.515625 -1.421875 17.65625 -0.515625 
Q 12.796875 0.390625 7.625 2.203125 
L 7.625 11.71875 
Q 11.71875 9.328125 16.59375 8.109375 
Q 21.484375 6.890625 26.8125 6.890625 
Q 36.078125 6.890625 40.9375 10.546875 
Q 45.796875 14.203125 45.796875 21.1875 
Q 45.796875 27.640625 41.28125 31.265625 
Q 36.765625 34.90625 28.71875 34.90625 
L 20.21875 34.90625 
L 20.21875 43.015625 
L 29.109375 43.015625 
Q 36.375 43.015625 40.234375 45.921875 
Q 44.09375 48.828125 44.09375 54.296875 
Q 44.09375 59.90625 40.109375 62.90625 
Q 36.140625 65.921875 28.71875 65.921875 
Q 24.65625 65.921875 20.015625 65.03125 
Q 15.375 64.15625 9.8125 62.3125 
L 9.8125 71.09375 
Q 15.4375 72.65625 20.34375 73.4375 
Q 25.25 74.21875 29.59375 74.21875 
Q 40.828125 74.21875 47.359375 69.109375 
Q 53.90625 64.015625 53.90625 55.328125 
Q 53.90625 49.265625 50.4375 45.09375 
Q 46.96875 40.921875 40.578125 39.3125 
z
" id="DejaVuSans-33"/>
    </defs>
    <g transform="translate(178.848 88.05181)scale(0.08 -0.08)">
     <use xlink:href="#DejaVuSans-53"/>
     <use x="63.476562" xlink:href="#DejaVuSans-44"/>
     <use x="140.478516" xlink:href="#DejaVuSans-20"/>
     <use x="172.265625" xlink:href="#DejaVuSans-28"/>
     <use x="211.279297" xlink:href="#DejaVuSans-45"/>
     <use x="274.462891" xlink:href="#DejaVuSans-78"/>
     <use x="333.642578" xlink:href="#DejaVuSans-70"/>
     <use x="397.119141" xlink:href="#DejaVuSans-29"/>
     <use x="436.132812" xlink:href="#DejaVuSans-3d"/>
     <use x="519.921875" xlink:href="#DejaVuSans-30"/>
     <use x="583.544922" xlink:href="#DejaVuSans-2e"/>
     <use x="615.332031" xlink:href="#DejaVuSans-30"/>
     <use x="678.955078" xlink:href="#DejaVuSans-30"/>
     <use x="742.578125" xlink:href="#DejaVuSans-33"/>
     <use x="806.201172" xlink:href="#DejaVuSans-32"/>
    </g>
   </g>
   <g id="text_16">
    <!-- Mean (Sim)=0.003 -->
    <defs>
     <path d="M 52 44.1875 
Q 55.375 50.25 60.0625 53.125 
Q 64.75 56 71.09375 56 
Q 79.640625 56 84.28125 50.015625 
Q 88.921875 44.046875 88.921875 33.015625 
L 88.921875 0 
L 79.890625 0 
L 79.890625 32.71875 
Q 79.890625 40.578125 77.09375 44.375 
Q 74.3125 48.1875 68.609375 48.1875 
Q 61.625 48.1875 57.5625 43.546875 
Q 53.515625 38.921875 53.515625 30.90625 
L 53.515625 0 
L 44.484375 0 
L 44.484375 32.71875 
Q 44.484375 40.625 41.703125 44.40625 
Q 38.921875 48.1875 33.109375 48.1875 
Q 26.21875 48.1875 22.15625 43.53125 
Q 18.109375 38.875 18.109375 30.90625 
L 18.109375 0 
L 9.078125 0 
L 9.078125 54.6875 
L 18.109375 54.6875 
L 18.109375 46.1875 
Q 21.1875 51.21875 25.484375 53.609375 
Q 29.78125 56 35.6875 56 
Q 41.65625 56 45.828125 52.96875 
Q 50 49.953125 52 44.1875 
z
" id="DejaVuSans-6d"/>
    </defs>
    <g transform="translate(178.848 99.628276)scale(0.08 -0.08)">
     <use xlink:href="#DejaVuSans-4d"/>
     <use x="86.279297" xlink:href="#DejaVuSans-65"/>
     <use x="147.802734" xlink:href="#DejaVuSans-61"/>
     <use x="209.082031" xlink:href="#DejaVuSans-6e"/>
     <use x="272.460938" xlink:href="#DejaVuSans-20"/>
     <use x="304.248047" xlink:href="#DejaVuSans-28"/>
     <use x="343.261719" xlink:href="#DejaVuSans-53"/>
     <use x="406.738281" xlink:href="#DejaVuSans-69"/>
     <use x="434.521484" xlink:href="#DejaVuSans-6d"/>
     <use x="531.933594" xlink:href="#DejaVuSans-29"/>
     <use x="570.947266" xlink:href="#DejaVuSans-3d"/>
     <use x="654.736328" xlink:href="#DejaVuSans-30"/>
     <use x="718.359375" xlink:href="#DejaVuSans-2e"/>
     <use x="750.146484" xlink:href="#DejaVuSans-30"/>
     <use x="813.769531" xlink:href="#DejaVuSans-30"/>
     <use x="877.392578" xlink:href="#DejaVuSans-33"/>
    </g>
   </g>
   <g id="text_17">
    <!-- SD (Sim)=0.0019 -->
    <defs>
     <path d="M 10.984375 1.515625 
L 10.984375 10.5 
Q 14.703125 8.734375 18.5 7.8125 
Q 22.3125 6.890625 25.984375 6.890625 
Q 35.75 6.890625 40.890625 13.453125 
Q 46.046875 20.015625 46.78125 33.40625 
Q 43.953125 29.203125 39.59375 26.953125 
Q 35.25 24.703125 29.984375 24.703125 
Q 19.046875 24.703125 12.671875 31.3125 
Q 6.296875 37.9375 6.296875 49.421875 
Q 6.296875 60.640625 12.9375 67.421875 
Q 19.578125 74.21875 30.609375 74.21875 
Q 43.265625 74.21875 49.921875 64.515625 
Q 56.59375 54.828125 56.59375 36.375 
Q 56.59375 19.140625 48.40625 8.859375 
Q 40.234375 -1.421875 26.421875 -1.421875 
Q 22.703125 -1.421875 18.890625 -0.6875 
Q 15.09375 0.046875 10.984375 1.515625 
z
M 30.609375 32.421875 
Q 37.25 32.421875 41.125 36.953125 
Q 45.015625 41.5 45.015625 49.421875 
Q 45.015625 57.28125 41.125 61.84375 
Q 37.25 66.40625 30.609375 66.40625 
Q 23.96875 66.40625 20.09375 61.84375 
Q 16.21875 57.28125 16.21875 49.421875 
Q 16.21875 41.5 20.09375 36.953125 
Q 23.96875 32.421875 30.609375 32.421875 
z
" id="DejaVuSans-39"/>
    </defs>
    <g transform="translate(178.848 111.204741)scale(0.08 -0.08)">
     <use xlink:href="#DejaVuSans-53"/>
     <use x="63.476562" xlink:href="#DejaVuSans-44"/>
     <use x="140.478516" xlink:href="#DejaVuSans-20"/>
     <use x="172.265625" xlink:href="#DejaVuSans-28"/>
     <use x="211.279297" xlink:href="#DejaVuSans-53"/>
     <use x="274.755859" xlink:href="#DejaVuSans-69"/>
     <use x="302.539062" xlink:href="#DejaVuSans-6d"/>
     <use x="399.951172" xlink:href="#DejaVuSans-29"/>
     <use x="438.964844" xlink:href="#DejaVuSans-3d"/>
     <use x="522.753906" xlink:href="#DejaVuSans-30"/>
     <use x="586.376953" xlink:href="#DejaVuSans-2e"/>
     <use x="618.164062" xlink:href="#DejaVuSans-30"/>
     <use x="681.787109" xlink:href="#DejaVuSans-30"/>
     <use x="745.410156" xlink:href="#DejaVuSans-31"/>
     <use x="809.033203" xlink:href="#DejaVuSans-39"/>
    </g>
   </g>
   <g id="text_18">
    <!-- p=0.000 -->
    <g transform="translate(178.848 122.781207)scale(0.08 -0.08)">
     <use xlink:href="#DejaVuSans-70"/>
     <use x="63.476562" xlink:href="#DejaVuSans-3d"/>
     <use x="147.265625" xlink:href="#DejaVuSans-30"/>
     <use x="210.888672" xlink:href="#DejaVuSans-2e"/>
     <use x="242.675781" xlink:href="#DejaVuSans-30"/>
     <use x="306.298828" xlink:href="#DejaVuSans-30"/>
     <use x="369.921875" xlink:href="#DejaVuSans-30"/>
    </g>
   </g>
   <g id="text_19">
    <!-- Single Cell DIP Rate Distribution -->
    <defs>
     <path d="M 45.40625 27.984375 
Q 45.40625 37.75 41.375 43.109375 
Q 37.359375 48.484375 30.078125 48.484375 
Q 22.859375 48.484375 18.828125 43.109375 
Q 14.796875 37.75 14.796875 27.984375 
Q 14.796875 18.265625 18.828125 12.890625 
Q 22.859375 7.515625 30.078125 7.515625 
Q 37.359375 7.515625 41.375 12.890625 
Q 45.40625 18.265625 45.40625 27.984375 
z
M 54.390625 6.78125 
Q 54.390625 -7.171875 48.1875 -13.984375 
Q 42 -20.796875 29.203125 -20.796875 
Q 24.46875 -20.796875 20.265625 -20.09375 
Q 16.0625 -19.390625 12.109375 -17.921875 
L 12.109375 -9.1875 
Q 16.0625 -11.328125 19.921875 -12.34375 
Q 23.78125 -13.375 27.78125 -13.375 
Q 36.625 -13.375 41.015625 -8.765625 
Q 45.40625 -4.15625 45.40625 5.171875 
L 45.40625 9.625 
Q 42.625 4.78125 38.28125 2.390625 
Q 33.9375 0 27.875 0 
Q 17.828125 0 11.671875 7.65625 
Q 5.515625 15.328125 5.515625 27.984375 
Q 5.515625 40.671875 11.671875 48.328125 
Q 17.828125 56 27.875 56 
Q 33.9375 56 38.28125 53.609375 
Q 42.625 51.21875 45.40625 46.390625 
L 45.40625 54.6875 
L 54.390625 54.6875 
z
" id="DejaVuSans-67"/>
     <path d="M 9.421875 75.984375 
L 18.40625 75.984375 
L 18.40625 0 
L 9.421875 0 
z
" id="DejaVuSans-6c"/>
     <path d="M 64.40625 67.28125 
L 64.40625 56.890625 
Q 59.421875 61.53125 53.78125 63.8125 
Q 48.140625 66.109375 41.796875 66.109375 
Q 29.296875 66.109375 22.65625 58.46875 
Q 16.015625 50.828125 16.015625 36.375 
Q 16.015625 21.96875 22.65625 14.328125 
Q 29.296875 6.6875 41.796875 6.6875 
Q 48.140625 6.6875 53.78125 8.984375 
Q 59.421875 11.28125 64.40625 15.921875 
L 64.40625 5.609375 
Q 59.234375 2.09375 53.4375 0.328125 
Q 47.65625 -1.421875 41.21875 -1.421875 
Q 24.65625 -1.421875 15.125 8.703125 
Q 5.609375 18.84375 5.609375 36.375 
Q 5.609375 53.953125 15.125 64.078125 
Q 24.65625 74.21875 41.21875 74.21875 
Q 47.75 74.21875 53.53125 72.484375 
Q 59.328125 70.75 64.40625 67.28125 
z
" id="DejaVuSans-43"/>
     <path d="M 41.109375 46.296875 
Q 39.59375 47.171875 37.8125 47.578125 
Q 36.03125 48 33.890625 48 
Q 26.265625 48 22.1875 43.046875 
Q 18.109375 38.09375 18.109375 28.8125 
L 18.109375 0 
L 9.078125 0 
L 9.078125 54.6875 
L 18.109375 54.6875 
L 18.109375 46.1875 
Q 20.953125 51.171875 25.484375 53.578125 
Q 30.03125 56 36.53125 56 
Q 37.453125 56 38.578125 55.875 
Q 39.703125 55.765625 41.0625 55.515625 
z
" id="DejaVuSans-72"/>
     <path d="M 48.6875 27.296875 
Q 48.6875 37.203125 44.609375 42.84375 
Q 40.53125 48.484375 33.40625 48.484375 
Q 26.265625 48.484375 22.1875 42.84375 
Q 18.109375 37.203125 18.109375 27.296875 
Q 18.109375 17.390625 22.1875 11.75 
Q 26.265625 6.109375 33.40625 6.109375 
Q 40.53125 6.109375 44.609375 11.75 
Q 48.6875 17.390625 48.6875 27.296875 
z
M 18.109375 46.390625 
Q 20.953125 51.265625 25.265625 53.625 
Q 29.59375 56 35.59375 56 
Q 45.5625 56 51.78125 48.09375 
Q 58.015625 40.1875 58.015625 27.296875 
Q 58.015625 14.40625 51.78125 6.484375 
Q 45.5625 -1.421875 35.59375 -1.421875 
Q 29.59375 -1.421875 25.265625 0.953125 
Q 20.953125 3.328125 18.109375 8.203125 
L 18.109375 0 
L 9.078125 0 
L 9.078125 75.984375 
L 18.109375 75.984375 
z
" id="DejaVuSans-62"/>
     <path d="M 8.5 21.578125 
L 8.5 54.6875 
L 17.484375 54.6875 
L 17.484375 21.921875 
Q 17.484375 14.15625 20.5 10.265625 
Q 23.53125 6.390625 29.59375 6.390625 
Q 36.859375 6.390625 41.078125 11.03125 
Q 45.3125 15.671875 45.3125 23.6875 
L 45.3125 54.6875 
L 54.296875 54.6875 
L 54.296875 0 
L 45.3125 0 
L 45.3125 8.40625 
Q 42.046875 3.421875 37.71875 1 
Q 33.40625 -1.421875 27.6875 -1.421875 
Q 18.265625 -1.421875 13.375 4.4375 
Q 8.5 10.296875 8.5 21.578125 
z
M 31.109375 56 
z
" id="DejaVuSans-75"/>
     <path d="M 30.609375 48.390625 
Q 23.390625 48.390625 19.1875 42.75 
Q 14.984375 37.109375 14.984375 27.296875 
Q 14.984375 17.484375 19.15625 11.84375 
Q 23.34375 6.203125 30.609375 6.203125 
Q 37.796875 6.203125 41.984375 11.859375 
Q 46.1875 17.53125 46.1875 27.296875 
Q 46.1875 37.015625 41.984375 42.703125 
Q 37.796875 48.390625 30.609375 48.390625 
z
M 30.609375 56 
Q 42.328125 56 49.015625 48.375 
Q 55.71875 40.765625 55.71875 27.296875 
Q 55.71875 13.875 49.015625 6.21875 
Q 42.328125 -1.421875 30.609375 -1.421875 
Q 18.84375 -1.421875 12.171875 6.21875 
Q 5.515625 13.875 5.515625 27.296875 
Q 5.515625 40.765625 12.171875 48.375 
Q 18.84375 56 30.609375 56 
z
" id="DejaVuSans-6f"/>
    </defs>
    <g transform="translate(51.4125 19.92)scale(0.12 -0.12)">
     <use xlink:href="#DejaVuSans-53"/>
     <use x="63.476562" xlink:href="#DejaVuSans-69"/>
     <use x="91.259766" xlink:href="#DejaVuSans-6e"/>
     <use x="154.638672" xlink:href="#DejaVuSans-67"/>
     <use x="218.115234" xlink:href="#DejaVuSans-6c"/>
     <use x="245.898438" xlink:href="#DejaVuSans-65"/>
     <use x="307.421875" xlink:href="#DejaVuSans-20"/>
     <use x="339.208984" xlink:href="#DejaVuSans-43"/>
     <use x="409.033203" xlink:href="#DejaVuSans-65"/>
     <use x="470.556641" xlink:href="#DejaVuSans-6c"/>
     <use x="498.339844" xlink:href="#DejaVuSans-6c"/>
     <use x="526.123047" xlink:href="#DejaVuSans-20"/>
     <use x="557.910156" xlink:href="#DejaVuSans-44"/>
     <use x="634.912109" xlink:href="#DejaVuSans-49"/>
     <use x="664.404297" xlink:href="#DejaVuSans-50"/>
     <use x="724.707031" xlink:href="#DejaVuSans-20"/>
     <use x="756.494141" xlink:href="#DejaVuSans-52"/>
     <use x="825.945312" xlink:href="#DejaVuSans-61"/>
     <use x="887.224609" xlink:href="#DejaVuSans-74"/>
     <use x="926.433594" xlink:href="#DejaVuSans-65"/>
     <use x="987.957031" xlink:href="#DejaVuSans-20"/>
     <use x="1019.744141" xlink:href="#DejaVuSans-44"/>
     <use x="1096.746094" xlink:href="#DejaVuSans-69"/>
     <use x="1124.529297" xlink:href="#DejaVuSans-73"/>
     <use x="1176.628906" xlink:href="#DejaVuSans-74"/>
     <use x="1215.837891" xlink:href="#DejaVuSans-72"/>
     <use x="1256.951172" xlink:href="#DejaVuSans-69"/>
     <use x="1284.734375" xlink:href="#DejaVuSans-62"/>
     <use x="1348.210938" xlink:href="#DejaVuSans-75"/>
     <use x="1411.589844" xlink:href="#DejaVuSans-74"/>
     <use x="1450.798828" xlink:href="#DejaVuSans-69"/>
     <use x="1478.582031" xlink:href="#DejaVuSans-6f"/>
     <use x="1539.763672" xlink:href="#DejaVuSans-6e"/>
    </g>
   </g>
   <g id="legend_1">
    <g id="patch_7">
     <path d="M 43 63.27625 
L 141.685938 63.27625 
Q 143.685938 63.27625 143.685938 61.27625 
L 143.685938 32.92 
Q 143.685938 30.92 141.685938 30.92 
L 43 30.92 
Q 41 30.92 41 32.92 
L 41 61.27625 
Q 41 63.27625 43 63.27625 
z
" style="fill:#ffffff;opacity:0.8;stroke:#cccccc;stroke-linejoin:miter;"/>
    </g>
    <g id="patch_8">
     <path d="M 45 42.518437 
L 65 42.518437 
L 65 35.518437 
L 45 35.518437 
z
" style="fill:#0000ff;opacity:0.25;"/>
    </g>
    <g id="text_20">
     <!-- Simulated -->
     <defs>
      <path d="M 45.40625 46.390625 
L 45.40625 75.984375 
L 54.390625 75.984375 
L 54.390625 0 
L 45.40625 0 
L 45.40625 8.203125 
Q 42.578125 3.328125 38.25 0.953125 
Q 33.9375 -1.421875 27.875 -1.421875 
Q 17.96875 -1.421875 11.734375 6.484375 
Q 5.515625 14.40625 5.515625 27.296875 
Q 5.515625 40.1875 11.734375 48.09375 
Q 17.96875 56 27.875 56 
Q 33.9375 56 38.25 53.625 
Q 42.578125 51.265625 45.40625 46.390625 
z
M 14.796875 27.296875 
Q 14.796875 17.390625 18.875 11.75 
Q 22.953125 6.109375 30.078125 6.109375 
Q 37.203125 6.109375 41.296875 11.75 
Q 45.40625 17.390625 45.40625 27.296875 
Q 45.40625 37.203125 41.296875 42.84375 
Q 37.203125 48.484375 30.078125 48.484375 
Q 22.953125 48.484375 18.875 42.84375 
Q 14.796875 37.203125 14.796875 27.296875 
z
" id="DejaVuSans-64"/>
     </defs>
     <g transform="translate(73 42.518437)scale(0.1 -0.1)">
      <use xlink:href="#DejaVuSans-53"/>
      <use x="63.476562" xlink:href="#DejaVuSans-69"/>
      <use x="91.259766" xlink:href="#DejaVuSans-6d"/>
      <use x="188.671875" xlink:href="#DejaVuSans-75"/>
      <use x="252.050781" xlink:href="#DejaVuSans-6c"/>
      <use x="279.833984" xlink:href="#DejaVuSans-61"/>
      <use x="341.113281" xlink:href="#DejaVuSans-74"/>
      <use x="380.322266" xlink:href="#DejaVuSans-65"/>
      <use x="441.845703" xlink:href="#DejaVuSans-64"/>
     </g>
    </g>
    <g id="patch_9">
     <path d="M 45 57.196562 
L 65 57.196562 
L 65 50.196562 
L 45 50.196562 
z
" style="fill:#008000;opacity:0.25;"/>
    </g>
    <g id="text_21">
     <!-- Experimental -->
     <g transform="translate(73 57.196562)scale(0.1 -0.1)">
      <use xlink:href="#DejaVuSans-45"/>
      <use x="63.183594" xlink:href="#DejaVuSans-78"/>
      <use x="122.363281" xlink:href="#DejaVuSans-70"/>
      <use x="185.839844" xlink:href="#DejaVuSans-65"/>
      <use x="247.363281" xlink:href="#DejaVuSans-72"/>
      <use x="288.476562" xlink:href="#DejaVuSans-69"/>
      <use x="316.259766" xlink:href="#DejaVuSans-6d"/>
      <use x="413.671875" xlink:href="#DejaVuSans-65"/>
      <use x="475.195312" xlink:href="#DejaVuSans-6e"/>
      <use x="538.574219" xlink:href="#DejaVuSans-74"/>
      <use x="577.783203" xlink:href="#DejaVuSans-61"/>
      <use x="639.0625" xlink:href="#DejaVuSans-6c"/>
     </g>
    </g>
   </g>
  </g>
 </g>
 <defs>
  <clipPath id="p8adac04141">
   <rect height="166.32" width="223.2" x="36" y="25.92"/>
  </clipPath>
 </defs>
</svg>
