<?xml version="1.0" encoding="utf-8" standalone="no"?>
<!DOCTYPE svg PUBLIC "-//W3C//DTD SVG 1.1//EN"
  "http://www.w3.org/Graphics/SVG/1.1/DTD/svg11.dtd">
<!-- Created with matplotlib (http://matplotlib.org/) -->
<svg height="216pt" version="1.1" viewBox="0 0 288 216" width="288pt" xmlns="http://www.w3.org/2000/svg" xmlns:xlink="http://www.w3.org/1999/xlink">
 <defs>
  <style type="text/css">
*{stroke-linecap:butt;stroke-linejoin:round;}
  </style>
 </defs>
 <g id="figure_1">
  <g id="patch_1">
   <path d="M 0 216 
L 288 216 
L 288 0 
L 0 0 
z
" style="fill:#ffffff;"/>
  </g>
  <g id="axes_1">
   <g id="patch_2">
    <path d="M 36 192.24 
L 259.2 192.24 
L 259.2 25.92 
L 36 25.92 
z
" style="fill:#ffffff;"/>
   </g>
   <g id="PolyCollection_1">
    <path clip-path="url(#p3e94f749a0)" d="M 46.145455 192.195938 
L 46.145455 192.24 
L 47.743164 192.24 
L 49.340873 192.24 
L 50.938583 192.24 
L 52.536292 192.24 
L 54.134001 192.24 
L 55.731711 192.24 
L 57.32942 192.24 
L 58.92713 192.24 
L 60.524839 192.24 
L 62.122548 192.24 
L 63.720258 192.24 
L 65.317967 192.24 
L 66.915676 192.24 
L 68.513386 192.24 
L 70.111095 192.24 
L 71.708805 192.24 
L 73.306514 192.24 
L 74.904223 192.24 
L 76.501933 192.24 
L 78.099642 192.24 
L 79.697351 192.24 
L 81.295061 192.24 
L 82.89277 192.24 
L 84.49048 192.24 
L 86.088189 192.24 
L 87.685898 192.24 
L 89.283608 192.24 
L 90.881317 192.24 
L 92.479026 192.24 
L 94.076736 192.24 
L 95.674445 192.24 
L 97.272155 192.24 
L 98.869864 192.24 
L 100.467573 192.24 
L 102.065283 192.24 
L 103.662992 192.24 
L 105.260702 192.24 
L 106.858411 192.24 
L 108.45612 192.24 
L 110.05383 192.24 
L 111.651539 192.24 
L 113.249248 192.24 
L 114.846958 192.24 
L 116.444667 192.24 
L 118.042377 192.24 
L 119.640086 192.24 
L 121.237795 192.24 
L 122.835505 192.24 
L 124.433214 192.24 
L 126.030923 192.24 
L 127.628633 192.24 
L 129.226342 192.24 
L 130.824052 192.24 
L 132.421761 192.24 
L 134.01947 192.24 
L 135.61718 192.24 
L 137.214889 192.24 
L 138.812598 192.24 
L 140.410308 192.24 
L 142.008017 192.24 
L 143.605727 192.24 
L 145.203436 192.24 
L 146.801145 192.24 
L 148.398855 192.24 
L 149.996564 192.24 
L 151.594273 192.24 
L 153.191983 192.24 
L 154.789692 192.24 
L 156.387402 192.24 
L 157.985111 192.24 
L 159.58282 192.24 
L 161.18053 192.24 
L 162.778239 192.24 
L 164.375948 192.24 
L 165.973658 192.24 
L 167.571367 192.24 
L 169.169077 192.24 
L 170.766786 192.24 
L 172.364495 192.24 
L 173.962205 192.24 
L 175.559914 192.24 
L 177.157623 192.24 
L 178.755333 192.24 
L 180.353042 192.24 
L 181.950752 192.24 
L 183.548461 192.24 
L 185.14617 192.24 
L 186.74388 192.24 
L 188.341589 192.24 
L 189.939298 192.24 
L 191.537008 192.24 
L 193.134717 192.24 
L 194.732427 192.24 
L 196.330136 192.24 
L 197.927845 192.24 
L 199.525555 192.24 
L 201.123264 192.24 
L 202.720974 192.24 
L 204.318683 192.24 
L 205.916392 192.24 
L 207.514102 192.24 
L 209.111811 192.24 
L 210.70952 192.24 
L 212.30723 192.24 
L 213.904939 192.24 
L 215.502649 192.24 
L 217.100358 192.24 
L 218.698067 192.24 
L 220.295777 192.24 
L 221.893486 192.24 
L 223.491195 192.24 
L 225.088905 192.24 
L 226.686614 192.24 
L 228.284324 192.24 
L 229.882033 192.24 
L 231.479742 192.24 
L 233.077452 192.24 
L 234.675161 192.24 
L 236.27287 192.24 
L 237.87058 192.24 
L 239.468289 192.24 
L 241.065999 192.24 
L 242.663708 192.24 
L 244.261417 192.24 
L 245.859127 192.24 
L 247.456836 192.24 
L 249.054545 192.24 
L 249.054545 192.195289 
L 249.054545 192.195289 
L 247.456836 192.179751 
L 245.859127 192.146531 
L 244.261417 192.090441 
L 242.663708 192.004214 
L 241.065999 191.879136 
L 239.468289 191.706075 
L 237.87058 191.476917 
L 236.27287 191.18625 
L 234.675161 190.833026 
L 233.077452 190.421767 
L 231.479742 189.962846 
L 229.882033 189.471471 
L 228.284324 188.965153 
L 226.686614 188.459808 
L 225.088905 187.964895 
L 223.491195 187.478361 
L 221.893486 186.982255 
L 220.295777 186.439938 
L 218.698067 185.795587 
L 217.100358 184.976371 
L 215.502649 183.89721 
L 213.904939 182.46757 
L 212.30723 180.599367 
L 210.70952 178.214903 
L 209.111811 175.253794 
L 207.514102 171.678123 
L 205.916392 167.475334 
L 204.318683 162.658694 
L 202.720974 157.265208 
L 201.123264 151.350998 
L 199.525555 144.984251 
L 197.927845 138.236282 
L 196.330136 131.17194 
L 194.732427 123.841437 
L 193.134717 116.276239 
L 191.537008 108.491509 
L 189.939298 100.496409 
L 188.341589 92.311391 
L 186.74388 83.989086 
L 185.14617 75.633277 
L 183.548461 67.409772 
L 181.950752 59.544268 
L 180.353042 52.305324 
L 178.755333 45.974559 
L 177.157623 40.809807 
L 175.559914 37.009045 
L 173.962205 34.682734 
L 172.364495 33.84 
L 170.766786 34.390642 
L 169.169077 36.161403 
L 167.571367 38.922349 
L 165.973658 42.41799 
L 164.375948 46.397972 
L 162.778239 50.643235 
L 161.18053 54.984981 
L 159.58282 59.315098 
L 157.985111 63.587752 
L 156.387402 67.812623 
L 154.789692 72.040996 
L 153.191983 76.346696 
L 151.594273 80.804627 
L 149.996564 85.470359 
L 148.398855 90.364329 
L 146.801145 95.463697 
L 145.203436 100.703537 
L 143.605727 105.987046 
L 142.008017 111.20246 
L 140.410308 116.242747 
L 138.812598 121.023644 
L 137.214889 125.496272 
L 135.61718 129.652131 
L 134.01947 133.520372 
L 132.421761 137.158925 
L 130.824052 140.642074 
L 129.226342 144.047132 
L 127.628633 147.442234 
L 126.030923 150.876469 
L 124.433214 154.372894 
L 122.835505 157.924756 
L 121.237795 161.49523 
L 119.640086 165.021022 
L 118.042377 168.419889 
L 116.444667 171.601515 
L 114.846958 174.480362 
L 113.249248 176.988454 
L 111.651539 179.085794 
L 110.05383 180.766469 
L 108.45612 182.05934 
L 106.858411 183.023297 
L 105.260702 183.738077 
L 103.662992 184.292428 
L 102.065283 184.771696 
L 100.467573 185.246915 
L 98.869864 185.767029 
L 97.272155 186.355263 
L 95.674445 187.009845 
L 94.076736 187.708471 
L 92.479026 188.415293 
L 90.881317 189.088848 
L 89.283608 189.689415 
L 87.685898 190.184692 
L 86.088189 190.553288 
L 84.49048 190.786115 
L 82.89277 190.886183 
L 81.295061 190.86739 
L 79.697351 190.752736 
L 78.099642 190.572157 
L 76.501933 190.359915 
L 74.904223 190.151459 
L 73.306514 189.979836 
L 71.708805 189.872015 
L 70.111095 189.845717 
L 68.513386 189.907451 
L 66.915676 190.052263 
L 65.317967 190.265331 
L 63.720258 190.525093 
L 62.122548 190.807183 
L 60.524839 191.088343 
L 58.92713 191.349505 
L 57.32942 191.57759 
L 55.731711 191.765909 
L 54.134001 191.91339 
L 52.536292 192.02309 
L 50.938583 192.100429 
L 49.340873 192.151555 
L 47.743164 192.182034 
L 46.145455 192.195938 
z
" style="fill:#808080;fill-opacity:0.25;"/>
   </g>
   <g id="matplotlib.axis_1">
    <g id="xtick_1">
     <g id="line2d_1">
      <defs>
       <path d="M 0 0 
L 0 3.5 
" id="m1e17097c89" style="stroke:#000000;stroke-width:0.8;"/>
      </defs>
      <g>
       <use style="stroke:#000000;stroke-width:0.8;" x="70.327469" xlink:href="#m1e17097c89" y="192.24"/>
      </g>
     </g>
     <g id="text_1">
      <!-- 0 -->
      <defs>
       <path d="M 31.78125 66.40625 
Q 24.171875 66.40625 20.328125 58.90625 
Q 16.5 51.421875 16.5 36.375 
Q 16.5 21.390625 20.328125 13.890625 
Q 24.171875 6.390625 31.78125 6.390625 
Q 39.453125 6.390625 43.28125 13.890625 
Q 47.125 21.390625 47.125 36.375 
Q 47.125 51.421875 43.28125 58.90625 
Q 39.453125 66.40625 31.78125 66.40625 
z
M 31.78125 74.21875 
Q 44.046875 74.21875 50.515625 64.515625 
Q 56.984375 54.828125 56.984375 36.375 
Q 56.984375 17.96875 50.515625 8.265625 
Q 44.046875 -1.421875 31.78125 -1.421875 
Q 19.53125 -1.421875 13.0625 8.265625 
Q 6.59375 17.96875 6.59375 36.375 
Q 6.59375 54.828125 13.0625 64.515625 
Q 19.53125 74.21875 31.78125 74.21875 
z
" id="DejaVuSans-30"/>
      </defs>
      <g transform="translate(67.146219 206.838437)scale(0.1 -0.1)">
       <use xlink:href="#DejaVuSans-30"/>
      </g>
     </g>
    </g>
    <g id="xtick_2">
     <g id="line2d_2">
      <g>
       <use style="stroke:#000000;stroke-width:0.8;" x="118.564789" xlink:href="#m1e17097c89" y="192.24"/>
      </g>
     </g>
     <g id="text_2">
      <!-- 1 -->
      <defs>
       <path d="M 12.40625 8.296875 
L 28.515625 8.296875 
L 28.515625 63.921875 
L 10.984375 60.40625 
L 10.984375 69.390625 
L 28.421875 72.90625 
L 38.28125 72.90625 
L 38.28125 8.296875 
L 54.390625 8.296875 
L 54.390625 0 
L 12.40625 0 
z
" id="DejaVuSans-31"/>
      </defs>
      <g transform="translate(115.383539 206.838437)scale(0.1 -0.1)">
       <use xlink:href="#DejaVuSans-31"/>
      </g>
     </g>
    </g>
    <g id="xtick_3">
     <g id="line2d_3">
      <g>
       <use style="stroke:#000000;stroke-width:0.8;" x="166.802108" xlink:href="#m1e17097c89" y="192.24"/>
      </g>
     </g>
     <g id="text_3">
      <!-- 2 -->
      <defs>
       <path d="M 19.1875 8.296875 
L 53.609375 8.296875 
L 53.609375 0 
L 7.328125 0 
L 7.328125 8.296875 
Q 12.9375 14.109375 22.625 23.890625 
Q 32.328125 33.6875 34.8125 36.53125 
Q 39.546875 41.84375 41.421875 45.53125 
Q 43.3125 49.21875 43.3125 52.78125 
Q 43.3125 58.59375 39.234375 62.25 
Q 35.15625 65.921875 28.609375 65.921875 
Q 23.96875 65.921875 18.8125 64.3125 
Q 13.671875 62.703125 7.8125 59.421875 
L 7.8125 69.390625 
Q 13.765625 71.78125 18.9375 73 
Q 24.125 74.21875 28.421875 74.21875 
Q 39.75 74.21875 46.484375 68.546875 
Q 53.21875 62.890625 53.21875 53.421875 
Q 53.21875 48.921875 51.53125 44.890625 
Q 49.859375 40.875 45.40625 35.40625 
Q 44.1875 33.984375 37.640625 27.21875 
Q 31.109375 20.453125 19.1875 8.296875 
z
" id="DejaVuSans-32"/>
      </defs>
      <g transform="translate(163.620858 206.838437)scale(0.1 -0.1)">
       <use xlink:href="#DejaVuSans-32"/>
      </g>
     </g>
    </g>
    <g id="xtick_4">
     <g id="line2d_4">
      <g>
       <use style="stroke:#000000;stroke-width:0.8;" x="215.039427" xlink:href="#m1e17097c89" y="192.24"/>
      </g>
     </g>
     <g id="text_4">
      <!-- 3 -->
      <defs>
       <path d="M 40.578125 39.3125 
Q 47.65625 37.796875 51.625 33 
Q 55.609375 28.21875 55.609375 21.1875 
Q 55.609375 10.40625 48.1875 4.484375 
Q 40.765625 -1.421875 27.09375 -1.421875 
Q 22.515625 -1.421875 17.65625 -0.515625 
Q 12.796875 0.390625 7.625 2.203125 
L 7.625 11.71875 
Q 11.71875 9.328125 16.59375 8.109375 
Q 21.484375 6.890625 26.8125 6.890625 
Q 36.078125 6.890625 40.9375 10.546875 
Q 45.796875 14.203125 45.796875 21.1875 
Q 45.796875 27.640625 41.28125 31.265625 
Q 36.765625 34.90625 28.71875 34.90625 
L 20.21875 34.90625 
L 20.21875 43.015625 
L 29.109375 43.015625 
Q 36.375 43.015625 40.234375 45.921875 
Q 44.09375 48.828125 44.09375 54.296875 
Q 44.09375 59.90625 40.109375 62.90625 
Q 36.140625 65.921875 28.71875 65.921875 
Q 24.65625 65.921875 20.015625 65.03125 
Q 15.375 64.15625 9.8125 62.3125 
L 9.8125 71.09375 
Q 15.4375 72.65625 20.34375 73.4375 
Q 25.25 74.21875 29.59375 74.21875 
Q 40.828125 74.21875 47.359375 69.109375 
Q 53.90625 64.015625 53.90625 55.328125 
Q 53.90625 49.265625 50.4375 45.09375 
Q 46.96875 40.921875 40.578125 39.3125 
z
" id="DejaVuSans-33"/>
      </defs>
      <g transform="translate(211.858177 206.838437)scale(0.1 -0.1)">
       <use xlink:href="#DejaVuSans-33"/>
      </g>
     </g>
    </g>
    <g id="text_5">
     <!-- Log 10 Count -->
     <defs>
      <path d="M 9.8125 72.90625 
L 19.671875 72.90625 
L 19.671875 8.296875 
L 55.171875 8.296875 
L 55.171875 0 
L 9.8125 0 
z
" id="DejaVuSans-4c"/>
      <path d="M 30.609375 48.390625 
Q 23.390625 48.390625 19.1875 42.75 
Q 14.984375 37.109375 14.984375 27.296875 
Q 14.984375 17.484375 19.15625 11.84375 
Q 23.34375 6.203125 30.609375 6.203125 
Q 37.796875 6.203125 41.984375 11.859375 
Q 46.1875 17.53125 46.1875 27.296875 
Q 46.1875 37.015625 41.984375 42.703125 
Q 37.796875 48.390625 30.609375 48.390625 
z
M 30.609375 56 
Q 42.328125 56 49.015625 48.375 
Q 55.71875 40.765625 55.71875 27.296875 
Q 55.71875 13.875 49.015625 6.21875 
Q 42.328125 -1.421875 30.609375 -1.421875 
Q 18.84375 -1.421875 12.171875 6.21875 
Q 5.515625 13.875 5.515625 27.296875 
Q 5.515625 40.765625 12.171875 48.375 
Q 18.84375 56 30.609375 56 
z
" id="DejaVuSans-6f"/>
      <path d="M 45.40625 27.984375 
Q 45.40625 37.75 41.375 43.109375 
Q 37.359375 48.484375 30.078125 48.484375 
Q 22.859375 48.484375 18.828125 43.109375 
Q 14.796875 37.75 14.796875 27.984375 
Q 14.796875 18.265625 18.828125 12.890625 
Q 22.859375 7.515625 30.078125 7.515625 
Q 37.359375 7.515625 41.375 12.890625 
Q 45.40625 18.265625 45.40625 27.984375 
z
M 54.390625 6.78125 
Q 54.390625 -7.171875 48.1875 -13.984375 
Q 42 -20.796875 29.203125 -20.796875 
Q 24.46875 -20.796875 20.265625 -20.09375 
Q 16.0625 -19.390625 12.109375 -17.921875 
L 12.109375 -9.1875 
Q 16.0625 -11.328125 19.921875 -12.34375 
Q 23.78125 -13.375 27.78125 -13.375 
Q 36.625 -13.375 41.015625 -8.765625 
Q 45.40625 -4.15625 45.40625 5.171875 
L 45.40625 9.625 
Q 42.625 4.78125 38.28125 2.390625 
Q 33.9375 0 27.875 0 
Q 17.828125 0 11.671875 7.65625 
Q 5.515625 15.328125 5.515625 27.984375 
Q 5.515625 40.671875 11.671875 48.328125 
Q 17.828125 56 27.875 56 
Q 33.9375 56 38.28125 53.609375 
Q 42.625 51.21875 45.40625 46.390625 
L 45.40625 54.6875 
L 54.390625 54.6875 
z
" id="DejaVuSans-67"/>
      <path id="DejaVuSans-20"/>
      <path d="M 64.40625 67.28125 
L 64.40625 56.890625 
Q 59.421875 61.53125 53.78125 63.8125 
Q 48.140625 66.109375 41.796875 66.109375 
Q 29.296875 66.109375 22.65625 58.46875 
Q 16.015625 50.828125 16.015625 36.375 
Q 16.015625 21.96875 22.65625 14.328125 
Q 29.296875 6.6875 41.796875 6.6875 
Q 48.140625 6.6875 53.78125 8.984375 
Q 59.421875 11.28125 64.40625 15.921875 
L 64.40625 5.609375 
Q 59.234375 2.09375 53.4375 0.328125 
Q 47.65625 -1.421875 41.21875 -1.421875 
Q 24.65625 -1.421875 15.125 8.703125 
Q 5.609375 18.84375 5.609375 36.375 
Q 5.609375 53.953125 15.125 64.078125 
Q 24.65625 74.21875 41.21875 74.21875 
Q 47.75 74.21875 53.53125 72.484375 
Q 59.328125 70.75 64.40625 67.28125 
z
" id="DejaVuSans-43"/>
      <path d="M 8.5 21.578125 
L 8.5 54.6875 
L 17.484375 54.6875 
L 17.484375 21.921875 
Q 17.484375 14.15625 20.5 10.265625 
Q 23.53125 6.390625 29.59375 6.390625 
Q 36.859375 6.390625 41.078125 11.03125 
Q 45.3125 15.671875 45.3125 23.6875 
L 45.3125 54.6875 
L 54.296875 54.6875 
L 54.296875 0 
L 45.3125 0 
L 45.3125 8.40625 
Q 42.046875 3.421875 37.71875 1 
Q 33.40625 -1.421875 27.6875 -1.421875 
Q 18.265625 -1.421875 13.375 4.4375 
Q 8.5 10.296875 8.5 21.578125 
z
M 31.109375 56 
z
" id="DejaVuSans-75"/>
      <path d="M 54.890625 33.015625 
L 54.890625 0 
L 45.90625 0 
L 45.90625 32.71875 
Q 45.90625 40.484375 42.875 44.328125 
Q 39.84375 48.1875 33.796875 48.1875 
Q 26.515625 48.1875 22.3125 43.546875 
Q 18.109375 38.921875 18.109375 30.90625 
L 18.109375 0 
L 9.078125 0 
L 9.078125 54.6875 
L 18.109375 54.6875 
L 18.109375 46.1875 
Q 21.34375 51.125 25.703125 53.5625 
Q 30.078125 56 35.796875 56 
Q 45.21875 56 50.046875 50.171875 
Q 54.890625 44.34375 54.890625 33.015625 
z
" id="DejaVuSans-6e"/>
      <path d="M 18.3125 70.21875 
L 18.3125 54.6875 
L 36.8125 54.6875 
L 36.8125 47.703125 
L 18.3125 47.703125 
L 18.3125 18.015625 
Q 18.3125 11.328125 20.140625 9.421875 
Q 21.96875 7.515625 27.59375 7.515625 
L 36.8125 7.515625 
L 36.8125 0 
L 27.59375 0 
Q 17.1875 0 13.234375 3.875 
Q 9.28125 7.765625 9.28125 18.015625 
L 9.28125 47.703125 
L 2.6875 47.703125 
L 2.6875 54.6875 
L 9.28125 54.6875 
L 9.28125 70.21875 
z
" id="DejaVuSans-74"/>
     </defs>
     <g transform="translate(114.192187 220.516562)scale(0.1 -0.1)">
      <use xlink:href="#DejaVuSans-4c"/>
      <use x="55.697266" xlink:href="#DejaVuSans-6f"/>
      <use x="116.878906" xlink:href="#DejaVuSans-67"/>
      <use x="180.355469" xlink:href="#DejaVuSans-20"/>
      <use x="212.142578" xlink:href="#DejaVuSans-31"/>
      <use x="275.765625" xlink:href="#DejaVuSans-30"/>
      <use x="339.388672" xlink:href="#DejaVuSans-20"/>
      <use x="371.175781" xlink:href="#DejaVuSans-43"/>
      <use x="441" xlink:href="#DejaVuSans-6f"/>
      <use x="502.181641" xlink:href="#DejaVuSans-75"/>
      <use x="565.560547" xlink:href="#DejaVuSans-6e"/>
      <use x="628.939453" xlink:href="#DejaVuSans-74"/>
     </g>
    </g>
   </g>
   <g id="matplotlib.axis_2">
    <g id="ytick_1">
     <g id="line2d_5">
      <defs>
       <path d="M 0 0 
L -3.5 0 
" id="mcded2fa05d" style="stroke:#000000;stroke-width:0.8;"/>
      </defs>
      <g>
       <use style="stroke:#000000;stroke-width:0.8;" x="36" xlink:href="#mcded2fa05d" y="192.24"/>
      </g>
     </g>
     <g id="text_6">
      <!-- 0.0 -->
      <defs>
       <path d="M 10.6875 12.40625 
L 21 12.40625 
L 21 0 
L 10.6875 0 
z
" id="DejaVuSans-2e"/>
      </defs>
      <g transform="translate(13.096875 196.039219)scale(0.1 -0.1)">
       <use xlink:href="#DejaVuSans-30"/>
       <use x="63.623047" xlink:href="#DejaVuSans-2e"/>
       <use x="95.410156" xlink:href="#DejaVuSans-30"/>
      </g>
     </g>
    </g>
    <g id="ytick_2">
     <g id="line2d_6">
      <g>
       <use style="stroke:#000000;stroke-width:0.8;" x="36" xlink:href="#mcded2fa05d" y="155.785581"/>
      </g>
     </g>
     <g id="text_7">
      <!-- 0.2 -->
      <g transform="translate(13.096875 159.5848)scale(0.1 -0.1)">
       <use xlink:href="#DejaVuSans-30"/>
       <use x="63.623047" xlink:href="#DejaVuSans-2e"/>
       <use x="95.410156" xlink:href="#DejaVuSans-32"/>
      </g>
     </g>
    </g>
    <g id="ytick_3">
     <g id="line2d_7">
      <g>
       <use style="stroke:#000000;stroke-width:0.8;" x="36" xlink:href="#mcded2fa05d" y="119.331162"/>
      </g>
     </g>
     <g id="text_8">
      <!-- 0.4 -->
      <defs>
       <path d="M 37.796875 64.3125 
L 12.890625 25.390625 
L 37.796875 25.390625 
z
M 35.203125 72.90625 
L 47.609375 72.90625 
L 47.609375 25.390625 
L 58.015625 25.390625 
L 58.015625 17.1875 
L 47.609375 17.1875 
L 47.609375 0 
L 37.796875 0 
L 37.796875 17.1875 
L 4.890625 17.1875 
L 4.890625 26.703125 
z
" id="DejaVuSans-34"/>
      </defs>
      <g transform="translate(13.096875 123.130381)scale(0.1 -0.1)">
       <use xlink:href="#DejaVuSans-30"/>
       <use x="63.623047" xlink:href="#DejaVuSans-2e"/>
       <use x="95.410156" xlink:href="#DejaVuSans-34"/>
      </g>
     </g>
    </g>
    <g id="ytick_4">
     <g id="line2d_8">
      <g>
       <use style="stroke:#000000;stroke-width:0.8;" x="36" xlink:href="#mcded2fa05d" y="82.876743"/>
      </g>
     </g>
     <g id="text_9">
      <!-- 0.6 -->
      <defs>
       <path d="M 33.015625 40.375 
Q 26.375 40.375 22.484375 35.828125 
Q 18.609375 31.296875 18.609375 23.390625 
Q 18.609375 15.53125 22.484375 10.953125 
Q 26.375 6.390625 33.015625 6.390625 
Q 39.65625 6.390625 43.53125 10.953125 
Q 47.40625 15.53125 47.40625 23.390625 
Q 47.40625 31.296875 43.53125 35.828125 
Q 39.65625 40.375 33.015625 40.375 
z
M 52.59375 71.296875 
L 52.59375 62.3125 
Q 48.875 64.0625 45.09375 64.984375 
Q 41.3125 65.921875 37.59375 65.921875 
Q 27.828125 65.921875 22.671875 59.328125 
Q 17.53125 52.734375 16.796875 39.40625 
Q 19.671875 43.65625 24.015625 45.921875 
Q 28.375 48.1875 33.59375 48.1875 
Q 44.578125 48.1875 50.953125 41.515625 
Q 57.328125 34.859375 57.328125 23.390625 
Q 57.328125 12.15625 50.6875 5.359375 
Q 44.046875 -1.421875 33.015625 -1.421875 
Q 20.359375 -1.421875 13.671875 8.265625 
Q 6.984375 17.96875 6.984375 36.375 
Q 6.984375 53.65625 15.1875 63.9375 
Q 23.390625 74.21875 37.203125 74.21875 
Q 40.921875 74.21875 44.703125 73.484375 
Q 48.484375 72.75 52.59375 71.296875 
z
" id="DejaVuSans-36"/>
      </defs>
      <g transform="translate(13.096875 86.675962)scale(0.1 -0.1)">
       <use xlink:href="#DejaVuSans-30"/>
       <use x="63.623047" xlink:href="#DejaVuSans-2e"/>
       <use x="95.410156" xlink:href="#DejaVuSans-36"/>
      </g>
     </g>
    </g>
    <g id="ytick_5">
     <g id="line2d_9">
      <g>
       <use style="stroke:#000000;stroke-width:0.8;" x="36" xlink:href="#mcded2fa05d" y="46.422324"/>
      </g>
     </g>
     <g id="text_10">
      <!-- 0.8 -->
      <defs>
       <path d="M 31.78125 34.625 
Q 24.75 34.625 20.71875 30.859375 
Q 16.703125 27.09375 16.703125 20.515625 
Q 16.703125 13.921875 20.71875 10.15625 
Q 24.75 6.390625 31.78125 6.390625 
Q 38.8125 6.390625 42.859375 10.171875 
Q 46.921875 13.96875 46.921875 20.515625 
Q 46.921875 27.09375 42.890625 30.859375 
Q 38.875 34.625 31.78125 34.625 
z
M 21.921875 38.8125 
Q 15.578125 40.375 12.03125 44.71875 
Q 8.5 49.078125 8.5 55.328125 
Q 8.5 64.0625 14.71875 69.140625 
Q 20.953125 74.21875 31.78125 74.21875 
Q 42.671875 74.21875 48.875 69.140625 
Q 55.078125 64.0625 55.078125 55.328125 
Q 55.078125 49.078125 51.53125 44.71875 
Q 48 40.375 41.703125 38.8125 
Q 48.828125 37.15625 52.796875 32.3125 
Q 56.78125 27.484375 56.78125 20.515625 
Q 56.78125 9.90625 50.3125 4.234375 
Q 43.84375 -1.421875 31.78125 -1.421875 
Q 19.734375 -1.421875 13.25 4.234375 
Q 6.78125 9.90625 6.78125 20.515625 
Q 6.78125 27.484375 10.78125 32.3125 
Q 14.796875 37.15625 21.921875 38.8125 
z
M 18.3125 54.390625 
Q 18.3125 48.734375 21.84375 45.5625 
Q 25.390625 42.390625 31.78125 42.390625 
Q 38.140625 42.390625 41.71875 45.5625 
Q 45.3125 48.734375 45.3125 54.390625 
Q 45.3125 60.0625 41.71875 63.234375 
Q 38.140625 66.40625 31.78125 66.40625 
Q 25.390625 66.40625 21.84375 63.234375 
Q 18.3125 60.0625 18.3125 54.390625 
z
" id="DejaVuSans-38"/>
      </defs>
      <g transform="translate(13.096875 50.221543)scale(0.1 -0.1)">
       <use xlink:href="#DejaVuSans-30"/>
       <use x="63.623047" xlink:href="#DejaVuSans-2e"/>
       <use x="95.410156" xlink:href="#DejaVuSans-38"/>
      </g>
     </g>
    </g>
    <g id="text_11">
     <!-- Density -->
     <defs>
      <path d="M 19.671875 64.796875 
L 19.671875 8.109375 
L 31.59375 8.109375 
Q 46.6875 8.109375 53.6875 14.9375 
Q 60.6875 21.78125 60.6875 36.53125 
Q 60.6875 51.171875 53.6875 57.984375 
Q 46.6875 64.796875 31.59375 64.796875 
z
M 9.8125 72.90625 
L 30.078125 72.90625 
Q 51.265625 72.90625 61.171875 64.09375 
Q 71.09375 55.28125 71.09375 36.53125 
Q 71.09375 17.671875 61.125 8.828125 
Q 51.171875 0 30.078125 0 
L 9.8125 0 
z
" id="DejaVuSans-44"/>
      <path d="M 56.203125 29.59375 
L 56.203125 25.203125 
L 14.890625 25.203125 
Q 15.484375 15.921875 20.484375 11.0625 
Q 25.484375 6.203125 34.421875 6.203125 
Q 39.59375 6.203125 44.453125 7.46875 
Q 49.3125 8.734375 54.109375 11.28125 
L 54.109375 2.78125 
Q 49.265625 0.734375 44.1875 -0.34375 
Q 39.109375 -1.421875 33.890625 -1.421875 
Q 20.796875 -1.421875 13.15625 6.1875 
Q 5.515625 13.8125 5.515625 26.8125 
Q 5.515625 40.234375 12.765625 48.109375 
Q 20.015625 56 32.328125 56 
Q 43.359375 56 49.78125 48.890625 
Q 56.203125 41.796875 56.203125 29.59375 
z
M 47.21875 32.234375 
Q 47.125 39.59375 43.09375 43.984375 
Q 39.0625 48.390625 32.421875 48.390625 
Q 24.90625 48.390625 20.390625 44.140625 
Q 15.875 39.890625 15.1875 32.171875 
z
" id="DejaVuSans-65"/>
      <path d="M 44.28125 53.078125 
L 44.28125 44.578125 
Q 40.484375 46.53125 36.375 47.5 
Q 32.28125 48.484375 27.875 48.484375 
Q 21.1875 48.484375 17.84375 46.4375 
Q 14.5 44.390625 14.5 40.28125 
Q 14.5 37.15625 16.890625 35.375 
Q 19.28125 33.59375 26.515625 31.984375 
L 29.59375 31.296875 
Q 39.15625 29.25 43.1875 25.515625 
Q 47.21875 21.78125 47.21875 15.09375 
Q 47.21875 7.46875 41.1875 3.015625 
Q 35.15625 -1.421875 24.609375 -1.421875 
Q 20.21875 -1.421875 15.453125 -0.5625 
Q 10.6875 0.296875 5.421875 2 
L 5.421875 11.28125 
Q 10.40625 8.6875 15.234375 7.390625 
Q 20.0625 6.109375 24.8125 6.109375 
Q 31.15625 6.109375 34.5625 8.28125 
Q 37.984375 10.453125 37.984375 14.40625 
Q 37.984375 18.0625 35.515625 20.015625 
Q 33.0625 21.96875 24.703125 23.78125 
L 21.578125 24.515625 
Q 13.234375 26.265625 9.515625 29.90625 
Q 5.8125 33.546875 5.8125 39.890625 
Q 5.8125 47.609375 11.28125 51.796875 
Q 16.75 56 26.8125 56 
Q 31.78125 56 36.171875 55.265625 
Q 40.578125 54.546875 44.28125 53.078125 
z
" id="DejaVuSans-73"/>
      <path d="M 9.421875 54.6875 
L 18.40625 54.6875 
L 18.40625 0 
L 9.421875 0 
z
M 9.421875 75.984375 
L 18.40625 75.984375 
L 18.40625 64.59375 
L 9.421875 64.59375 
z
" id="DejaVuSans-69"/>
      <path d="M 32.171875 -5.078125 
Q 28.375 -14.84375 24.75 -17.8125 
Q 21.140625 -20.796875 15.09375 -20.796875 
L 7.90625 -20.796875 
L 7.90625 -13.28125 
L 13.1875 -13.28125 
Q 16.890625 -13.28125 18.9375 -11.515625 
Q 21 -9.765625 23.484375 -3.21875 
L 25.09375 0.875 
L 2.984375 54.6875 
L 12.5 54.6875 
L 29.59375 11.921875 
L 46.6875 54.6875 
L 56.203125 54.6875 
z
" id="DejaVuSans-79"/>
     </defs>
     <g transform="translate(7.017187 128.088594)rotate(-90)scale(0.1 -0.1)">
      <use xlink:href="#DejaVuSans-44"/>
      <use x="77.001953" xlink:href="#DejaVuSans-65"/>
      <use x="138.525391" xlink:href="#DejaVuSans-6e"/>
      <use x="201.904297" xlink:href="#DejaVuSans-73"/>
      <use x="254.003906" xlink:href="#DejaVuSans-69"/>
      <use x="281.787109" xlink:href="#DejaVuSans-74"/>
      <use x="320.996094" xlink:href="#DejaVuSans-79"/>
     </g>
    </g>
   </g>
   <g id="line2d_10">
    <path clip-path="url(#p3e94f749a0)" d="M 46.145455 192.195938 
L 50.938583 192.100429 
L 55.731711 191.765909 
L 58.92713 191.349505 
L 66.915676 190.052263 
L 70.111095 189.845717 
L 73.306514 189.979836 
L 81.295061 190.86739 
L 82.89277 190.886183 
L 84.49048 190.786115 
L 86.088189 190.553288 
L 87.685898 190.184692 
L 90.881317 189.088848 
L 98.869864 185.767029 
L 105.260702 183.738077 
L 106.858411 183.023297 
L 108.45612 182.05934 
L 110.05383 180.766469 
L 111.651539 179.085794 
L 113.249248 176.988454 
L 114.846958 174.480362 
L 116.444667 171.601515 
L 119.640086 165.021022 
L 129.226342 144.047132 
L 132.421761 137.158925 
L 135.61718 129.652131 
L 137.214889 125.496272 
L 140.410308 116.242747 
L 143.605727 105.987046 
L 148.398855 90.364329 
L 151.594273 80.804627 
L 154.789692 72.040996 
L 165.973658 42.41799 
L 167.571367 38.922349 
L 169.169077 36.161403 
L 170.766786 34.390642 
L 172.364495 33.84 
L 173.962205 34.682734 
L 175.559914 37.009045 
L 177.157623 40.809807 
L 178.755333 45.974559 
L 180.353042 52.305324 
L 181.950752 59.544268 
L 185.14617 75.633277 
L 191.537008 108.491509 
L 194.732427 123.841437 
L 197.927845 138.236282 
L 201.123264 151.350998 
L 202.720974 157.265208 
L 204.318683 162.658694 
L 205.916392 167.475334 
L 207.514102 171.678123 
L 209.111811 175.253794 
L 210.70952 178.214903 
L 212.30723 180.599367 
L 213.904939 182.46757 
L 215.502649 183.89721 
L 217.100358 184.976371 
L 218.698067 185.795587 
L 221.893486 186.982255 
L 233.077452 190.421767 
L 236.27287 191.18625 
L 239.468289 191.706075 
L 242.663708 192.004214 
L 247.456836 192.179751 
L 249.054545 192.195289 
L 249.054545 192.195289 
" style="fill:none;stroke:#808080;stroke-linecap:square;stroke-width:1.5;"/>
   </g>
   <g id="patch_3">
    <path d="M 36 192.24 
L 36 25.92 
" style="fill:none;stroke:#000000;stroke-linecap:square;stroke-linejoin:miter;stroke-width:0.8;"/>
   </g>
   <g id="patch_4">
    <path d="M 259.2 192.24 
L 259.2 25.92 
" style="fill:none;stroke:#000000;stroke-linecap:square;stroke-linejoin:miter;stroke-width:0.8;"/>
   </g>
   <g id="patch_5">
    <path d="M 36 192.24 
L 259.2 192.24 
" style="fill:none;stroke:#000000;stroke-linecap:square;stroke-linejoin:miter;stroke-width:0.8;"/>
   </g>
   <g id="patch_6">
    <path d="M 36 25.92 
L 259.2 25.92 
" style="fill:none;stroke:#000000;stroke-linecap:square;stroke-linejoin:miter;stroke-width:0.8;"/>
   </g>
  </g>
 </g>
 <defs>
  <clipPath id="p3e94f749a0">
   <rect height="166.32" width="223.2" x="36" y="25.92"/>
  </clipPath>
 </defs>
</svg>
